G04 Generated by Ultiboard 13.0 *
%FSLAX25Y25*%
%MOIN*%

%ADD10C,0.00001*%
%ADD11C,0.01000*%
%ADD12C,0.03000*%
%ADD13C,0.06000*%
%ADD14C,0.04000*%
%ADD15C,0.00500*%
%ADD16C,0.11574*%
%ADD17C,0.09843*%
%ADD18C,0.09200*%
%ADD19C,0.06299*%
%ADD20C,0.07834*%
%ADD21C,0.05709*%
%ADD22C,0.11024*%
%ADD23R,0.11024X0.11024*%
%ADD24C,0.04900*%
%ADD25C,0.12598*%
%ADD26R,0.02083X0.02083*%
%ADD27C,0.03917*%
%ADD28C,0.06334*%
%ADD29C,0.07087*%
%ADD30R,0.04900X0.04900*%
%ADD31C,0.05906*%
%ADD32C,0.08858*%
%ADD33R,0.05906X0.05906*%
%ADD34C,0.05354*%
%ADD35C,0.03937*%
%ADD36R,0.05709X0.05709*%
%ADD37C,0.30000*%


G04 ColorRGB 0000FF for the following layer *
%LNCopper Bottom*%
%LPD*%
G54D10*
G36*
X647990Y407990D02*
X647990Y407990D01*
X647990Y2010D01*
X2010Y2010D01*
X2010Y407990D01*
X647990Y407990D01*
D02*
G37*
%LPC*%
G36*
X454471Y375943D02*
G75*
D01*
G03X454471Y375943I-2471J1616*
G01*
D02*
G37*
G36*
X135649Y375495D02*
G74*
D01*
G03X138347Y378194I1650J4347*
G01*
X138347Y378194D01*
X135649Y378194D01*
X135649Y375495D01*
D02*
G37*
G36*
X132351Y375495D02*
X132351Y375495D01*
X132351Y378194D01*
X129653Y378194D01*
G74*
D01*
G03X132351Y375495I4347J1648*
G01*
D02*
G37*
G36*
X620517Y280959D02*
X620517Y280959D01*
X620517Y283042D01*
G74*
D01*
G03X617042Y286517I3475J0*
G01*
X617042Y286517D01*
X614959Y286517D01*
G75*
D01*
G03X611483Y283042I-1J-3475*
G01*
X611483Y283042D01*
X611483Y280959D01*
G75*
D01*
G03X614959Y277483I3476J0*
G01*
X614959Y277483D01*
X617042Y277483D01*
G75*
D01*
G03X620517Y280959I-1J3476*
G01*
D02*
G37*
G36*
X580837Y186967D02*
G75*
D01*
G03X580837Y186967I3163J-3408*
G01*
D02*
G37*
G36*
X564919Y193226D02*
G75*
D01*
G03X564919Y193226I-7100J-3226*
G01*
D02*
G37*
G36*
X24981Y272331D02*
G75*
D01*
G03X26488Y270823I1507J-1*
G01*
X26488Y270823D01*
X37512Y270823D01*
G75*
D01*
G03X39019Y272331I-1J1508*
G01*
X39019Y272331D01*
X39019Y283354D01*
G74*
D01*
G03X37512Y284862I1507J1*
G01*
X37512Y284862D01*
X26488Y284862D01*
G75*
D01*
G03X24981Y283354I1J-1508*
G01*
X24981Y283354D01*
X24981Y272331D01*
D02*
G37*
G36*
X375529Y176398D02*
G74*
D01*
G03X378398Y173529I3429J560*
G01*
X378398Y173529D01*
X378398Y176398D01*
X375529Y176398D01*
D02*
G37*
G36*
X375529Y179602D02*
X375529Y179602D01*
X378398Y179602D01*
X378398Y182471D01*
G74*
D01*
G03X375529Y179602I560J3429*
G01*
D02*
G37*
G36*
X402889Y187234D02*
G74*
D01*
G03X407415Y182708I7291J2765*
G01*
X407415Y182708D01*
X407415Y187234D01*
X402889Y187234D01*
D02*
G37*
G36*
X412947Y182708D02*
G74*
D01*
G03X417473Y187234I2765J7291*
G01*
X417473Y187234D01*
X412947Y187234D01*
X412947Y182708D01*
D02*
G37*
G36*
X271489Y92479D02*
G75*
D01*
G03X271489Y92479I2511J-3558*
G01*
D02*
G37*
G36*
X69045Y186967D02*
G75*
D01*
G03X69045Y186967I955J1466*
G01*
D02*
G37*
G36*
X66307Y187032D02*
G74*
D01*
G03X68599Y184740I3692J1400*
G01*
X68599Y184740D01*
X68599Y187032D01*
X66307Y187032D01*
D02*
G37*
G36*
X37789Y190788D02*
G75*
D01*
G03X37789Y186583I2211J-2102*
G01*
X37789Y186583D01*
X34456Y186583D01*
G74*
D01*
G03X37897Y183141I5544J2101*
G01*
X37897Y183141D01*
X37897Y186474D01*
G75*
D01*
G03X42103Y186474I2103J2210*
G01*
X42103Y186474D01*
X42103Y183141D01*
G74*
D01*
G03X45544Y186583I2103J5543*
G01*
X45544Y186583D01*
X42211Y186583D01*
G75*
D01*
G03X42211Y190788I-2210J2103*
G01*
X42211Y190788D01*
X45544Y190788D01*
G74*
D01*
G03X42103Y194229I5544J2103*
G01*
X42103Y194229D01*
X42103Y190896D01*
G75*
D01*
G03X37897Y190896I-2103J-2210*
G01*
X37897Y190896D01*
X37897Y194229D01*
G74*
D01*
G03X34456Y190788I2103J5544*
G01*
X34456Y190788D01*
X37789Y190788D01*
D02*
G37*
G36*
X73693Y187032D02*
X73693Y187032D01*
X71401Y187032D01*
X71401Y184740D01*
G74*
D01*
G03X73693Y187032I1400J3692*
G01*
D02*
G37*
G36*
X375943Y290779D02*
G75*
D01*
G03X375943Y290779I4057J-779*
G01*
D02*
G37*
G36*
X375943Y320779D02*
G75*
D01*
G03X375943Y320779I4057J-779*
G01*
D02*
G37*
G36*
X375943Y281964D02*
G75*
D01*
G03X375943Y281964I4214J-1964*
G01*
D02*
G37*
G36*
X333000Y239483D02*
X333000Y239483D01*
X392000Y239483D01*
G75*
D01*
G03X392000Y246517I0J3517*
G01*
X392000Y246517D01*
X334457Y246517D01*
X329626Y251348D01*
G75*
D01*
G03X325348Y255626I374J4652*
G01*
X325348Y255626D01*
X324656Y256318D01*
G75*
D01*
G03X319682Y251344I-4655J-319*
G01*
X319682Y251344D01*
X330513Y240513D01*
G74*
D01*
G03X332005Y239627I2486J2488*
G01*
G75*
D01*
G03X333000Y239483I996J3372*
G01*
D02*
G37*
G36*
X375943Y231221D02*
G75*
D01*
G03X375943Y231221I4057J779*
G01*
D02*
G37*
G36*
X375483Y254958D02*
G75*
D01*
G03X378959Y251483I3476J1*
G01*
X378959Y251483D01*
X381042Y251483D01*
G75*
D01*
G03X384517Y254958I0J3475*
G01*
X384517Y254958D01*
X384517Y257042D01*
G74*
D01*
G03X381042Y260517I3475J0*
G01*
X381042Y260517D01*
X378959Y260517D01*
G75*
D01*
G03X375483Y257042I-1J-3475*
G01*
X375483Y257042D01*
X375483Y254958D01*
D02*
G37*
G36*
X266169Y210448D02*
X266169Y210448D01*
X311965Y210448D01*
G74*
D01*
G03X314455Y211481I0J3517*
G01*
X314455Y211481D01*
X330954Y227981D01*
G75*
D01*
G03X325981Y232954I-955J4018*
G01*
X325981Y232954D01*
X324002Y230976D01*
G75*
D01*
G03X321024Y227998I-4001J1023*
G01*
X321024Y227998D01*
X310508Y217482D01*
X266169Y217482D01*
G75*
D01*
G03X266169Y210448I-2253J-3517*
G01*
D02*
G37*
G36*
X271522Y160432D02*
G75*
D01*
G03X265127Y154037I-3961J-2434*
G01*
X265127Y154037D01*
X280362Y138803D01*
G74*
D01*
G03X281865Y137807I3199J3195*
G01*
G75*
D01*
G03X283559Y137478I1693J4193*
G01*
X283559Y137478D01*
X283882Y137478D01*
G75*
D01*
G03X284720Y147233I4559J4522*
G01*
X284720Y147233D01*
X281455Y150499D01*
X271522Y160432D01*
D02*
G37*
G36*
X568519Y381842D02*
X568519Y381842D01*
X568519Y384267D01*
X566094Y384267D01*
G74*
D01*
G03X568519Y381842I3906J1481*
G01*
D02*
G37*
G36*
X568701Y385748D02*
G75*
D01*
G03X568701Y385748I1299J0*
G01*
D02*
G37*
G36*
X573906Y384267D02*
X573906Y384267D01*
X571481Y384267D01*
X571481Y381842D01*
G74*
D01*
G03X573906Y384267I1481J3906*
G01*
D02*
G37*
G36*
X591863Y384535D02*
X591863Y384535D01*
X589465Y384535D01*
X589465Y382137D01*
G74*
D01*
G03X591863Y384535I1465J3863*
G01*
D02*
G37*
G36*
X586250Y386000D02*
G75*
D01*
G03X586250Y386000I1750J0*
G01*
D02*
G37*
G36*
X586535Y382137D02*
X586535Y382137D01*
X586535Y384535D01*
X584137Y384535D01*
G74*
D01*
G03X586535Y382137I3863J1465*
G01*
D02*
G37*
G36*
X593869Y386000D02*
G75*
D01*
G03X593869Y386000I4131J0*
G01*
D02*
G37*
G36*
X603869Y386000D02*
G75*
D01*
G03X603869Y386000I4131J0*
G01*
D02*
G37*
G36*
X613869Y386000D02*
G75*
D01*
G03X613869Y386000I4131J0*
G01*
D02*
G37*
G36*
X566094Y387229D02*
X566094Y387229D01*
X568519Y387229D01*
X568519Y389654D01*
G74*
D01*
G03X566094Y387229I1481J3906*
G01*
D02*
G37*
G36*
X571481Y389654D02*
X571481Y389654D01*
X571481Y387229D01*
X573906Y387229D01*
G74*
D01*
G03X571481Y389654I3906J1481*
G01*
D02*
G37*
G36*
X589465Y389863D02*
X589465Y389863D01*
X589465Y387465D01*
X591863Y387465D01*
G74*
D01*
G03X589465Y389863I3863J1465*
G01*
D02*
G37*
G36*
X584137Y387465D02*
X584137Y387465D01*
X586535Y387465D01*
X586535Y389863D01*
G74*
D01*
G03X584137Y387465I1465J3863*
G01*
D02*
G37*
G36*
X385483Y387042D02*
X385483Y387042D01*
X385483Y384959D01*
G75*
D01*
G03X388959Y381483I3476J0*
G01*
X388959Y381483D01*
X391042Y381483D01*
G75*
D01*
G03X394517Y384959I-1J3476*
G01*
X394517Y384959D01*
X394517Y387042D01*
G74*
D01*
G03X391042Y390517I3475J0*
G01*
X391042Y390517D01*
X388959Y390517D01*
G75*
D01*
G03X385483Y387042I-1J-3475*
G01*
D02*
G37*
G36*
X398250Y386000D02*
G75*
D01*
G03X398250Y386000I1750J0*
G01*
D02*
G37*
G36*
X398345Y381636D02*
X398345Y381636D01*
X398345Y384345D01*
X395636Y384345D01*
G74*
D01*
G03X398345Y381636I4364J1655*
G01*
D02*
G37*
G36*
X404364Y384345D02*
X404364Y384345D01*
X401655Y384345D01*
X401655Y381636D01*
G74*
D01*
G03X404364Y384345I1655J4364*
G01*
D02*
G37*
G36*
X445996Y379836D02*
X445996Y379836D01*
X449723Y379836D01*
X449723Y383563D01*
G74*
D01*
G03X445996Y379836I2277J6004*
G01*
D02*
G37*
G36*
X454277Y383563D02*
X454277Y383563D01*
X454277Y379836D01*
X458004Y379836D01*
G74*
D01*
G03X454277Y383563I6004J2277*
G01*
D02*
G37*
G36*
X395636Y387655D02*
X395636Y387655D01*
X398345Y387655D01*
X398345Y390364D01*
G74*
D01*
G03X395636Y387655I1655J4364*
G01*
D02*
G37*
G36*
X401655Y390364D02*
X401655Y390364D01*
X401655Y387655D01*
X404364Y387655D01*
G74*
D01*
G03X401655Y390364I4364J1655*
G01*
D02*
G37*
G36*
X364351Y377495D02*
X364351Y377495D01*
X364351Y380194D01*
X361653Y380194D01*
G74*
D01*
G03X364351Y377495I4347J1648*
G01*
D02*
G37*
G36*
X370347Y380194D02*
X370347Y380194D01*
X367649Y380194D01*
X367649Y377495D01*
G74*
D01*
G03X370347Y380194I1650J4347*
G01*
D02*
G37*
G36*
X361653Y383491D02*
X361653Y383491D01*
X364351Y383491D01*
X364351Y386190D01*
G74*
D01*
G03X361653Y383491I1649J4347*
G01*
D02*
G37*
G36*
X367649Y386190D02*
X367649Y386190D01*
X367649Y383491D01*
X370347Y383491D01*
G74*
D01*
G03X367649Y386190I4346J1647*
G01*
D02*
G37*
G36*
X364819Y381843D02*
G75*
D01*
G03X364819Y381843I1181J0*
G01*
D02*
G37*
G36*
X254347Y380194D02*
X254347Y380194D01*
X251649Y380194D01*
X251649Y377495D01*
G74*
D01*
G03X254347Y380194I1650J4347*
G01*
D02*
G37*
G36*
X248351Y377495D02*
X248351Y377495D01*
X248351Y380194D01*
X245653Y380194D01*
G74*
D01*
G03X248351Y377495I4347J1648*
G01*
D02*
G37*
G36*
X245653Y383491D02*
X245653Y383491D01*
X248351Y383491D01*
X248351Y386190D01*
G74*
D01*
G03X245653Y383491I1649J4347*
G01*
D02*
G37*
G36*
X251649Y386190D02*
X251649Y386190D01*
X251649Y383491D01*
X254347Y383491D01*
G74*
D01*
G03X251649Y386190I4346J1647*
G01*
D02*
G37*
G36*
X248819Y381843D02*
G75*
D01*
G03X248819Y381843I1181J0*
G01*
D02*
G37*
G36*
X132819Y379843D02*
G75*
D01*
G03X132819Y379843I1181J0*
G01*
D02*
G37*
G36*
X129653Y381491D02*
X129653Y381491D01*
X132351Y381491D01*
X132351Y384190D01*
G74*
D01*
G03X129653Y381491I1649J4347*
G01*
D02*
G37*
G36*
X135649Y384190D02*
X135649Y384190D01*
X135649Y381491D01*
X138347Y381491D01*
G74*
D01*
G03X135649Y384190I4346J1647*
G01*
D02*
G37*
G36*
X613400Y70000D02*
G75*
D01*
G03X613400Y70000I6100J0*
G01*
D02*
G37*
G36*
X613869Y356000D02*
G75*
D01*
G03X613869Y356000I4131J0*
G01*
D02*
G37*
G36*
X614345Y287636D02*
X614345Y287636D01*
X614345Y290345D01*
X611636Y290345D01*
G74*
D01*
G03X614345Y287636I4364J1655*
G01*
D02*
G37*
G36*
X614250Y292000D02*
G75*
D01*
G03X614250Y292000I1750J0*
G01*
D02*
G37*
G36*
X620364Y290345D02*
X620364Y290345D01*
X617655Y290345D01*
X617655Y287636D01*
G74*
D01*
G03X620364Y290345I1655J4364*
G01*
D02*
G37*
G36*
X611636Y293655D02*
X611636Y293655D01*
X614345Y293655D01*
X614345Y296364D01*
G74*
D01*
G03X611636Y293655I1655J4364*
G01*
D02*
G37*
G36*
X617655Y296364D02*
X617655Y296364D01*
X617655Y293655D01*
X620364Y293655D01*
G74*
D01*
G03X617655Y296364I4364J1655*
G01*
D02*
G37*
G36*
X598351Y303810D02*
X598351Y303810D01*
X598351Y306509D01*
X595653Y306509D01*
G74*
D01*
G03X598351Y303810I4346J1647*
G01*
D02*
G37*
G36*
X598819Y308157D02*
G75*
D01*
G03X598819Y308157I1181J0*
G01*
D02*
G37*
G36*
X604347Y306509D02*
X604347Y306509D01*
X601649Y306509D01*
X601649Y303810D01*
G74*
D01*
G03X604347Y306509I1649J4347*
G01*
D02*
G37*
G36*
X574362Y314256D02*
X574362Y314256D01*
X574362Y319965D01*
G74*
D01*
G03X572854Y321472I1508J1*
G01*
X572854Y321472D01*
X567146Y321472D01*
G75*
D01*
G03X565638Y319965I-1J-1507*
G01*
X565638Y319965D01*
X565638Y314256D01*
G75*
D01*
G03X567146Y312749I1508J1*
G01*
X567146Y312749D01*
X572854Y312749D01*
G75*
D01*
G03X574362Y314256I1J1507*
G01*
D02*
G37*
G36*
X595653Y309806D02*
X595653Y309806D01*
X598351Y309806D01*
X598351Y312505D01*
G74*
D01*
G03X595653Y309806I1650J4347*
G01*
D02*
G37*
G36*
X601649Y312505D02*
X601649Y312505D01*
X601649Y309806D01*
X604347Y309806D01*
G74*
D01*
G03X601649Y312505I4347J1648*
G01*
D02*
G37*
G36*
X568456Y326818D02*
X568456Y326818D01*
X568456Y329346D01*
X565929Y329346D01*
G74*
D01*
G03X568456Y326818I4071J1542*
G01*
D02*
G37*
G36*
X568524Y330890D02*
G75*
D01*
G03X568524Y330890I1476J0*
G01*
D02*
G37*
G36*
X574071Y329346D02*
X574071Y329346D01*
X571544Y329346D01*
X571544Y326818D01*
G74*
D01*
G03X574071Y329346I1544J4071*
G01*
D02*
G37*
G36*
X595350Y327843D02*
G75*
D01*
G03X595350Y327843I4650J0*
G01*
D02*
G37*
G36*
X565929Y332434D02*
X565929Y332434D01*
X568456Y332434D01*
X568456Y334961D01*
G74*
D01*
G03X565929Y332434I1543J4070*
G01*
D02*
G37*
G36*
X571544Y334961D02*
X571544Y334961D01*
X571544Y332434D01*
X574071Y332434D01*
G74*
D01*
G03X571544Y334961I4070J1543*
G01*
D02*
G37*
G36*
X588075Y342000D02*
G75*
D01*
G03X588075Y342000I4177J0*
G01*
D02*
G37*
G36*
X619571Y342000D02*
G75*
D01*
G03X619571Y342000I4177J0*
G01*
D02*
G37*
G36*
X565823Y354252D02*
G75*
D01*
G03X565823Y354252I4177J0*
G01*
D02*
G37*
G36*
X583869Y356000D02*
G75*
D01*
G03X583869Y356000I4131J0*
G01*
D02*
G37*
G36*
X593869Y356000D02*
G75*
D01*
G03X593869Y356000I4131J0*
G01*
D02*
G37*
G36*
X603869Y356000D02*
G75*
D01*
G03X603869Y356000I4131J0*
G01*
D02*
G37*
G36*
X611441Y195843D02*
G75*
D01*
G03X611441Y195843I2559J0*
G01*
D02*
G37*
G36*
X611514Y189286D02*
X611514Y189286D01*
X611514Y193356D01*
X607444Y193356D01*
G74*
D01*
G03X611514Y189286I6556J2486*
G01*
D02*
G37*
G36*
X620556Y193356D02*
X620556Y193356D01*
X616486Y193356D01*
X616486Y189286D01*
G74*
D01*
G03X620556Y193356I2486J6556*
G01*
D02*
G37*
G36*
X573547Y204000D02*
G75*
D01*
G03X573547Y204000I4453J0*
G01*
D02*
G37*
G36*
X607444Y198329D02*
X607444Y198329D01*
X611514Y198329D01*
X611514Y202399D01*
G74*
D01*
G03X607444Y198329I2486J6556*
G01*
D02*
G37*
G36*
X616486Y202399D02*
X616486Y202399D01*
X616486Y198329D01*
X620556Y198329D01*
G74*
D01*
G03X616486Y202399I6556J2486*
G01*
D02*
G37*
G36*
X624163Y214421D02*
X624163Y214421D01*
X621579Y214421D01*
X621579Y211837D01*
G74*
D01*
G03X624163Y214421I1579J4163*
G01*
D02*
G37*
G36*
X618421Y211837D02*
X618421Y211837D01*
X618421Y214421D01*
X615837Y214421D01*
G74*
D01*
G03X618421Y211837I4163J1579*
G01*
D02*
G37*
G36*
X600519Y220346D02*
X600519Y220346D01*
X600519Y222771D01*
X598094Y222771D01*
G74*
D01*
G03X600519Y220346I3906J1481*
G01*
D02*
G37*
G36*
X605906Y222771D02*
X605906Y222771D01*
X603481Y222771D01*
X603481Y220346D01*
G74*
D01*
G03X605906Y222771I1481J3906*
G01*
D02*
G37*
G36*
X621579Y220163D02*
X621579Y220163D01*
X621579Y217579D01*
X624163Y217579D01*
G74*
D01*
G03X621579Y220163I4163J1579*
G01*
D02*
G37*
G36*
X615837Y217579D02*
X615837Y217579D01*
X618421Y217579D01*
X618421Y220163D01*
G74*
D01*
G03X615837Y217579I1579J4163*
G01*
D02*
G37*
G36*
X618228Y216000D02*
G75*
D01*
G03X618228Y216000I1772J0*
G01*
D02*
G37*
G36*
X598094Y225733D02*
X598094Y225733D01*
X600519Y225733D01*
X600519Y228158D01*
G74*
D01*
G03X598094Y225733I1481J3906*
G01*
D02*
G37*
G36*
X603481Y228158D02*
X603481Y228158D01*
X603481Y225733D01*
X605906Y225733D01*
G74*
D01*
G03X603481Y228158I3906J1481*
G01*
D02*
G37*
G36*
X600701Y224252D02*
G75*
D01*
G03X600701Y224252I1299J0*
G01*
D02*
G37*
G36*
X599746Y259265D02*
X599746Y259265D01*
X579775Y259265D01*
G75*
D01*
G03X581335Y252231I-1775J-4084*
G01*
X581335Y252231D01*
X599746Y252231D01*
G75*
D01*
G03X599746Y259265I2253J3517*
G01*
D02*
G37*
G36*
X622953Y260460D02*
X622953Y260460D01*
X617047Y260460D01*
G75*
D01*
G03X615540Y258953I0J-1507*
G01*
X615540Y258953D01*
X615540Y253047D01*
G75*
D01*
G03X617047Y251540I1507J0*
G01*
X617047Y251540D01*
X622953Y251540D01*
G75*
D01*
G03X624460Y253047I0J1507*
G01*
X624460Y253047D01*
X624460Y258953D01*
G74*
D01*
G03X622953Y260460I1507J0*
G01*
D02*
G37*
G36*
X622959Y113483D02*
X622959Y113483D01*
X625042Y113483D01*
G75*
D01*
G03X628517Y116959I-1J3476*
G01*
X628517Y116959D01*
X628517Y119042D01*
G74*
D01*
G03X625042Y122517I3475J0*
G01*
X625042Y122517D01*
X622959Y122517D01*
G75*
D01*
G03X619483Y119042I-1J-3475*
G01*
X619483Y119042D01*
X619483Y116959D01*
G75*
D01*
G03X622959Y113483I3476J0*
G01*
D02*
G37*
G36*
X582351Y124093D02*
X582351Y124093D01*
X582351Y126792D01*
X579653Y126792D01*
G74*
D01*
G03X582351Y124093I4347J1648*
G01*
D02*
G37*
G36*
X588347Y126792D02*
X588347Y126792D01*
X585649Y126792D01*
X585649Y124093D01*
G74*
D01*
G03X588347Y126792I1650J4347*
G01*
D02*
G37*
G36*
X619333Y128000D02*
G75*
D01*
G03X619333Y128000I4667J0*
G01*
D02*
G37*
G36*
X582228Y128441D02*
G75*
D01*
G03X582228Y128441I1772J0*
G01*
D02*
G37*
G36*
X579653Y130090D02*
X579653Y130090D01*
X582351Y130090D01*
X582351Y132788D01*
G74*
D01*
G03X579653Y130090I1649J4347*
G01*
D02*
G37*
G36*
X585649Y132788D02*
X585649Y132788D01*
X585649Y130090D01*
X588347Y130090D01*
G74*
D01*
G03X585649Y132788I4347J1649*
G01*
D02*
G37*
G36*
X620000Y152660D02*
G75*
D01*
G03X620000Y151340I-5000J-660*
G01*
G75*
D01*
G03X620000Y152660I5000J660*
G01*
D02*
G37*
G36*
X621019Y170646D02*
X621019Y170646D01*
X621019Y181669D01*
G74*
D01*
G03X619512Y183177I1507J1*
G01*
X619512Y183177D01*
X608488Y183177D01*
G75*
D01*
G03X606981Y181669I1J-1508*
G01*
X606981Y181669D01*
X606981Y170646D01*
G75*
D01*
G03X608488Y169138I1507J-1*
G01*
X608488Y169138D01*
X619512Y169138D01*
G75*
D01*
G03X621019Y170646I-1J1508*
G01*
D02*
G37*
G36*
X76713Y80000D02*
G75*
D01*
G03X76713Y80000I7287J0*
G01*
D02*
G37*
G36*
X76713Y28000D02*
G75*
D01*
G03X76713Y28000I7287J0*
G01*
D02*
G37*
G36*
X522400Y70000D02*
G75*
D01*
G03X522400Y70000I6100J0*
G01*
D02*
G37*
G36*
X511653Y21806D02*
X511653Y21806D01*
X514351Y21806D01*
X514351Y24505D01*
G74*
D01*
G03X511653Y21806I1650J4347*
G01*
D02*
G37*
G36*
X514351Y15810D02*
X514351Y15810D01*
X514351Y18509D01*
X511653Y18509D01*
G74*
D01*
G03X514351Y15810I4346J1647*
G01*
D02*
G37*
G36*
X517649Y24505D02*
X517649Y24505D01*
X517649Y21806D01*
X520347Y21806D01*
G74*
D01*
G03X517649Y24505I4347J1648*
G01*
D02*
G37*
G36*
X520347Y18509D02*
X520347Y18509D01*
X517649Y18509D01*
X517649Y15810D01*
G74*
D01*
G03X520347Y18509I1649J4347*
G01*
D02*
G37*
G36*
X514819Y20157D02*
G75*
D01*
G03X514819Y20157I1181J0*
G01*
D02*
G37*
G36*
X511350Y39843D02*
G75*
D01*
G03X511350Y39843I4650J0*
G01*
D02*
G37*
G36*
X495400Y70000D02*
G75*
D01*
G03X495400Y70000I6100J0*
G01*
D02*
G37*
G36*
X24400Y340000D02*
G75*
D01*
G03X24400Y340000I6100J0*
G01*
D02*
G37*
G36*
X404400Y70000D02*
G75*
D01*
G03X404400Y70000I6100J0*
G01*
D02*
G37*
G36*
X393653Y21806D02*
X393653Y21806D01*
X396351Y21806D01*
X396351Y24505D01*
G74*
D01*
G03X393653Y21806I1650J4347*
G01*
D02*
G37*
G36*
X396351Y15810D02*
X396351Y15810D01*
X396351Y18509D01*
X393653Y18509D01*
G74*
D01*
G03X396351Y15810I4346J1647*
G01*
D02*
G37*
G36*
X399649Y24505D02*
X399649Y24505D01*
X399649Y21806D01*
X402347Y21806D01*
G74*
D01*
G03X399649Y24505I4347J1648*
G01*
D02*
G37*
G36*
X402347Y18509D02*
X402347Y18509D01*
X399649Y18509D01*
X399649Y15810D01*
G74*
D01*
G03X402347Y18509I1649J4347*
G01*
D02*
G37*
G36*
X396819Y20157D02*
G75*
D01*
G03X396819Y20157I1181J0*
G01*
D02*
G37*
G36*
X393350Y39843D02*
G75*
D01*
G03X393350Y39843I4650J0*
G01*
D02*
G37*
G36*
X377400Y70000D02*
G75*
D01*
G03X377400Y70000I6100J0*
G01*
D02*
G37*
G36*
X286400Y70000D02*
G75*
D01*
G03X286400Y70000I6100J0*
G01*
D02*
G37*
G36*
X231655Y92364D02*
X231655Y92364D01*
X231655Y89655D01*
X234364Y89655D01*
G74*
D01*
G03X231655Y92364I4364J1655*
G01*
D02*
G37*
G36*
X219282Y27996D02*
X219282Y27996D01*
X219282Y31723D01*
X215555Y31723D01*
G74*
D01*
G03X219282Y27996I6004J2277*
G01*
D02*
G37*
G36*
X218606Y34000D02*
G75*
D01*
G03X218606Y34000I2953J0*
G01*
D02*
G37*
G36*
X227563Y31723D02*
X227563Y31723D01*
X223836Y31723D01*
X223836Y27996D01*
G74*
D01*
G03X227563Y31723I2277J6004*
G01*
D02*
G37*
G36*
X245483Y33042D02*
X245483Y33042D01*
X245483Y30959D01*
G75*
D01*
G03X248958Y27483I3475J-1*
G01*
X248958Y27483D01*
X251042Y27483D01*
G75*
D01*
G03X254517Y30959I-1J3476*
G01*
X254517Y30959D01*
X254517Y33042D01*
G74*
D01*
G03X251042Y36517I3475J0*
G01*
X251042Y36517D01*
X248958Y36517D01*
G75*
D01*
G03X245483Y33042I0J-3475*
G01*
D02*
G37*
G36*
X255333Y32000D02*
G75*
D01*
G03X255333Y32000I4667J0*
G01*
D02*
G37*
G36*
X274351Y29810D02*
X274351Y29810D01*
X274351Y32509D01*
X271653Y32509D01*
G74*
D01*
G03X274351Y29810I4346J1647*
G01*
D02*
G37*
G36*
X280347Y32509D02*
X280347Y32509D01*
X277649Y32509D01*
X277649Y29810D01*
G74*
D01*
G03X280347Y32509I1649J4347*
G01*
D02*
G37*
G36*
X215555Y36277D02*
X215555Y36277D01*
X219282Y36277D01*
X219282Y40004D01*
G74*
D01*
G03X215555Y36277I2277J6004*
G01*
D02*
G37*
G36*
X223836Y40004D02*
X223836Y40004D01*
X223836Y36277D01*
X227563Y36277D01*
G74*
D01*
G03X223836Y40004I6004J2277*
G01*
D02*
G37*
G36*
X274819Y34157D02*
G75*
D01*
G03X274819Y34157I1181J0*
G01*
D02*
G37*
G36*
X271653Y35806D02*
X271653Y35806D01*
X274351Y35806D01*
X274351Y38505D01*
G74*
D01*
G03X271653Y35806I1650J4347*
G01*
D02*
G37*
G36*
X277649Y38505D02*
X277649Y38505D01*
X277649Y35806D01*
X280347Y35806D01*
G74*
D01*
G03X277649Y38505I4347J1648*
G01*
D02*
G37*
G36*
X271350Y53843D02*
G75*
D01*
G03X271350Y53843I4650J0*
G01*
D02*
G37*
G36*
X270985Y75937D02*
X270985Y75937D01*
X270985Y68249D01*
X267751Y65015D01*
X256717Y65015D01*
G74*
D01*
G03X254518Y67000I4717J3015*
G01*
G75*
D01*
G03X254518Y77000I-2517J5000*
G01*
G75*
D01*
G03X249482Y77000I-2518J5000*
G01*
G75*
D01*
G03X249482Y67000I2517J-5000*
G01*
G75*
D01*
G03X256717Y58985I2519J-4999*
G01*
X256717Y58985D01*
X268997Y58985D01*
G75*
D01*
G03X269634Y59053I0J3015*
G01*
G74*
D01*
G03X271134Y59871I634J2947*
G01*
X271134Y59871D01*
X276129Y64866D01*
G75*
D01*
G03X277015Y67000I-2128J2134*
G01*
X277015Y67000D01*
X277015Y75937D01*
G75*
D01*
G03X270985Y75937I-3015J3141*
G01*
D02*
G37*
G36*
X228958Y73483D02*
X228958Y73483D01*
X231042Y73483D01*
G75*
D01*
G03X234517Y76959I-1J3476*
G01*
X234517Y76959D01*
X234517Y79042D01*
G74*
D01*
G03X231042Y82517I3475J0*
G01*
X231042Y82517D01*
X228958Y82517D01*
G75*
D01*
G03X225483Y79042I0J-3475*
G01*
X225483Y79042D01*
X225483Y76959D01*
G75*
D01*
G03X228958Y73483I3475J-1*
G01*
D02*
G37*
G36*
X228250Y88000D02*
G75*
D01*
G03X228250Y88000I1750J0*
G01*
D02*
G37*
G36*
X228345Y83636D02*
X228345Y83636D01*
X228345Y86345D01*
X225636Y86345D01*
G74*
D01*
G03X228345Y83636I4364J1655*
G01*
D02*
G37*
G36*
X234364Y86345D02*
X234364Y86345D01*
X231655Y86345D01*
X231655Y83636D01*
G74*
D01*
G03X234364Y86345I1655J4364*
G01*
D02*
G37*
G36*
X225636Y89655D02*
X225636Y89655D01*
X228345Y89655D01*
X228345Y92364D01*
G74*
D01*
G03X225636Y89655I1655J4364*
G01*
D02*
G37*
G36*
X29441Y110157D02*
G75*
D01*
G03X29441Y110157I2559J0*
G01*
D02*
G37*
G36*
X29514Y103601D02*
X29514Y103601D01*
X29514Y107671D01*
X25444Y107671D01*
G74*
D01*
G03X29514Y103601I6556J2486*
G01*
D02*
G37*
G36*
X38556Y107671D02*
X38556Y107671D01*
X34486Y107671D01*
X34486Y103601D01*
G74*
D01*
G03X38556Y107671I2486J6556*
G01*
D02*
G37*
G36*
X72347Y108792D02*
X72347Y108792D01*
X69649Y108792D01*
X69649Y106093D01*
G74*
D01*
G03X72347Y108792I1650J4347*
G01*
D02*
G37*
G36*
X66228Y110441D02*
G75*
D01*
G03X66228Y110441I1772J0*
G01*
D02*
G37*
G36*
X66351Y106093D02*
X66351Y106093D01*
X66351Y108792D01*
X63653Y108792D01*
G74*
D01*
G03X66351Y106093I4347J1648*
G01*
D02*
G37*
G36*
X25444Y112644D02*
X25444Y112644D01*
X29514Y112644D01*
X29514Y116714D01*
G74*
D01*
G03X25444Y112644I2486J6556*
G01*
D02*
G37*
G36*
X34486Y116714D02*
X34486Y116714D01*
X34486Y112644D01*
X38556Y112644D01*
G74*
D01*
G03X34486Y116714I6556J2486*
G01*
D02*
G37*
G36*
X69649Y114788D02*
X69649Y114788D01*
X69649Y112090D01*
X72347Y112090D01*
G74*
D01*
G03X69649Y114788I4347J1649*
G01*
D02*
G37*
G36*
X63653Y112090D02*
X63653Y112090D01*
X66351Y112090D01*
X66351Y114788D01*
G74*
D01*
G03X63653Y112090I1649J4347*
G01*
D02*
G37*
G36*
X24981Y135354D02*
X24981Y135354D01*
X24981Y124331D01*
G75*
D01*
G03X26488Y122823I1507J-1*
G01*
X26488Y122823D01*
X37512Y122823D01*
G75*
D01*
G03X39019Y124331I-1J1508*
G01*
X39019Y124331D01*
X39019Y135354D01*
G74*
D01*
G03X37512Y136862I1507J1*
G01*
X37512Y136862D01*
X26488Y136862D01*
G75*
D01*
G03X24981Y135354I1J-1508*
G01*
D02*
G37*
G36*
X30000Y164660D02*
G75*
D01*
G03X30000Y163340I-5000J-660*
G01*
G75*
D01*
G03X30000Y164660I5000J660*
G01*
D02*
G37*
G36*
X63350Y165559D02*
G75*
D01*
G03X63350Y165559I4650J0*
G01*
D02*
G37*
G36*
X67550Y174043D02*
X67550Y174043D01*
X72450Y174043D01*
G75*
D01*
G03X73957Y175550I0J1507*
G01*
X73957Y175550D01*
X73957Y180450D01*
G74*
D01*
G03X72450Y181957I1507J0*
G01*
X72450Y181957D01*
X67550Y181957D01*
G75*
D01*
G03X66043Y180450I0J-1507*
G01*
X66043Y180450D01*
X66043Y175550D01*
G75*
D01*
G03X67550Y174043I1507J0*
G01*
D02*
G37*
G36*
X173413Y84000D02*
G75*
D01*
G03X173413Y84000I1477J0*
G01*
D02*
G37*
G36*
X160020Y34000D02*
G75*
D01*
G03X160020Y34000I6421J0*
G01*
D02*
G37*
G36*
X158256Y79638D02*
X158256Y79638D01*
X163965Y79638D01*
G75*
D01*
G03X165472Y81146I-1J1508*
G01*
X165472Y81146D01*
X165472Y86854D01*
G74*
D01*
G03X163965Y88362I1507J1*
G01*
X163965Y88362D01*
X158256Y88362D01*
G75*
D01*
G03X156749Y86854I1J-1508*
G01*
X156749Y86854D01*
X156749Y81146D01*
G75*
D01*
G03X158256Y79638I1507J-1*
G01*
D02*
G37*
G36*
X170818Y85544D02*
X170818Y85544D01*
X173346Y85544D01*
X173346Y88071D01*
G74*
D01*
G03X170818Y85544I1542J4071*
G01*
D02*
G37*
G36*
X173346Y79929D02*
X173346Y79929D01*
X173346Y82456D01*
X170818Y82456D01*
G74*
D01*
G03X173346Y79929I4071J1544*
G01*
D02*
G37*
G36*
X176434Y88071D02*
X176434Y88071D01*
X176434Y85544D01*
X178961Y85544D01*
G74*
D01*
G03X176434Y88071I4070J1543*
G01*
D02*
G37*
G36*
X178961Y82456D02*
X178961Y82456D01*
X176434Y82456D01*
X176434Y79929D01*
G74*
D01*
G03X178961Y82456I1543J4070*
G01*
D02*
G37*
G36*
X32369Y201417D02*
X32369Y201417D01*
X35701Y201417D01*
G74*
D01*
G03X32260Y204859I5544J2101*
G01*
X32260Y204859D01*
X32260Y201526D01*
G75*
D01*
G03X28055Y201526I-2102J-2211*
G01*
X28055Y201526D01*
X28055Y204859D01*
G74*
D01*
G03X24614Y201417I2103J5543*
G01*
X24614Y201417D01*
X27946Y201417D01*
G75*
D01*
G03X27946Y197212I2210J-2102*
G01*
X27946Y197212D01*
X24614Y197212D01*
G74*
D01*
G03X28055Y193771I5543J2102*
G01*
X28055Y193771D01*
X28055Y197104D01*
G75*
D01*
G03X32260Y197104I2103J2210*
G01*
X32260Y197104D01*
X32260Y193771D01*
G74*
D01*
G03X35701Y197212I2103J5544*
G01*
X35701Y197212D01*
X32369Y197212D01*
G75*
D01*
G03X32369Y201417I-2212J2103*
G01*
D02*
G37*
G36*
X43913Y199315D02*
G75*
D01*
G03X43913Y199315I5930J0*
G01*
D02*
G37*
G36*
X66050Y198866D02*
G75*
D01*
G03X66050Y198866I3950J0*
G01*
D02*
G37*
G36*
X66307Y189834D02*
X66307Y189834D01*
X68599Y189834D01*
X68599Y192126D01*
G74*
D01*
G03X66307Y189834I1400J3692*
G01*
D02*
G37*
G36*
X71401Y192126D02*
X71401Y192126D01*
X71401Y189834D01*
X73693Y189834D01*
G74*
D01*
G03X71401Y192126I3692J1400*
G01*
D02*
G37*
G36*
X16771Y210094D02*
X16771Y210094D01*
X16771Y212519D01*
X14346Y212519D01*
G74*
D01*
G03X16771Y210094I3906J1481*
G01*
D02*
G37*
G36*
X22158Y212519D02*
X22158Y212519D01*
X19733Y212519D01*
X19733Y210094D01*
G74*
D01*
G03X22158Y212519I1481J3906*
G01*
D02*
G37*
G36*
X45571Y214000D02*
G75*
D01*
G03X45571Y214000I4177J0*
G01*
D02*
G37*
G36*
X14346Y215481D02*
X14346Y215481D01*
X16771Y215481D01*
X16771Y217906D01*
G74*
D01*
G03X14346Y215481I1481J3906*
G01*
D02*
G37*
G36*
X19733Y217906D02*
X19733Y217906D01*
X19733Y215481D01*
X22158Y215481D01*
G74*
D01*
G03X19733Y217906I3906J1481*
G01*
D02*
G37*
G36*
X16953Y214000D02*
G75*
D01*
G03X16953Y214000I1299J0*
G01*
D02*
G37*
G36*
X70000Y222660D02*
G75*
D01*
G03X70000Y221340I-5000J-660*
G01*
G75*
D01*
G03X70000Y222660I5000J660*
G01*
D02*
G37*
G36*
X19810Y235649D02*
X19810Y235649D01*
X22509Y235649D01*
X22509Y238347D01*
G74*
D01*
G03X19810Y235649I1647J4346*
G01*
D02*
G37*
G36*
X22976Y234000D02*
G75*
D01*
G03X22976Y234000I1181J0*
G01*
D02*
G37*
G36*
X22509Y229653D02*
X22509Y229653D01*
X22509Y232351D01*
X19810Y232351D01*
G74*
D01*
G03X22509Y229653I4347J1649*
G01*
D02*
G37*
G36*
X25806Y238347D02*
X25806Y238347D01*
X25806Y235649D01*
X28505Y235649D01*
G74*
D01*
G03X25806Y238347I4347J1650*
G01*
D02*
G37*
G36*
X28505Y232351D02*
X28505Y232351D01*
X25806Y232351D01*
X25806Y229653D01*
G74*
D01*
G03X28505Y232351I1648J4347*
G01*
D02*
G37*
G36*
X39193Y234000D02*
G75*
D01*
G03X39193Y234000I4650J0*
G01*
D02*
G37*
G36*
X64959Y239483D02*
X64959Y239483D01*
X67042Y239483D01*
G75*
D01*
G03X70517Y242958I0J3475*
G01*
X70517Y242958D01*
X70517Y245042D01*
G74*
D01*
G03X67042Y248517I3475J0*
G01*
X67042Y248517D01*
X64959Y248517D01*
G75*
D01*
G03X61483Y245042I-1J-3475*
G01*
X61483Y245042D01*
X61483Y242958D01*
G75*
D01*
G03X64959Y239483I3476J1*
G01*
D02*
G37*
G36*
X29514Y251601D02*
X29514Y251601D01*
X29514Y255671D01*
X25444Y255671D01*
G74*
D01*
G03X29514Y251601I6556J2486*
G01*
D02*
G37*
G36*
X38556Y255671D02*
X38556Y255671D01*
X34486Y255671D01*
X34486Y251601D01*
G74*
D01*
G03X38556Y255671I2486J6556*
G01*
D02*
G37*
G36*
X64345Y249636D02*
X64345Y249636D01*
X64345Y252345D01*
X61636Y252345D01*
G74*
D01*
G03X64345Y249636I4364J1655*
G01*
D02*
G37*
G36*
X70364Y252345D02*
X70364Y252345D01*
X67655Y252345D01*
X67655Y249636D01*
G74*
D01*
G03X70364Y252345I1655J4364*
G01*
D02*
G37*
G36*
X29441Y258157D02*
G75*
D01*
G03X29441Y258157I2559J0*
G01*
D02*
G37*
G36*
X61636Y255655D02*
X61636Y255655D01*
X64345Y255655D01*
X64345Y258364D01*
G74*
D01*
G03X61636Y255655I1655J4364*
G01*
D02*
G37*
G36*
X67655Y258364D02*
X67655Y258364D01*
X67655Y255655D01*
X70364Y255655D01*
G74*
D01*
G03X67655Y258364I4364J1655*
G01*
D02*
G37*
G36*
X64250Y254000D02*
G75*
D01*
G03X64250Y254000I1750J0*
G01*
D02*
G37*
G36*
X25444Y260644D02*
X25444Y260644D01*
X29514Y260644D01*
X29514Y264714D01*
G74*
D01*
G03X25444Y260644I2486J6556*
G01*
D02*
G37*
G36*
X34486Y264714D02*
X34486Y264714D01*
X34486Y260644D01*
X38556Y260644D01*
G74*
D01*
G03X34486Y264714I6556J2486*
G01*
D02*
G37*
G36*
X526713Y322000D02*
G75*
D01*
G03X526713Y322000I7287J0*
G01*
D02*
G37*
G36*
X474713Y322000D02*
G75*
D01*
G03X474713Y322000I7287J0*
G01*
D02*
G37*
G36*
X361350Y362157D02*
G75*
D01*
G03X361350Y362157I4650J0*
G01*
D02*
G37*
G36*
X347400Y340000D02*
G75*
D01*
G03X347400Y340000I6100J0*
G01*
D02*
G37*
G36*
X395495Y281649D02*
X395495Y281649D01*
X398194Y281649D01*
X398194Y284347D01*
G74*
D01*
G03X395495Y281649I1648J4347*
G01*
D02*
G37*
G36*
X401491Y284347D02*
X401491Y284347D01*
X401491Y281649D01*
X404190Y281649D01*
G74*
D01*
G03X401491Y284347I4347J1649*
G01*
D02*
G37*
G36*
X385869Y290000D02*
G75*
D01*
G03X385869Y290000I4131J0*
G01*
D02*
G37*
G36*
X395869Y290000D02*
G75*
D01*
G03X395869Y290000I4131J0*
G01*
D02*
G37*
G36*
X408250Y290000D02*
G75*
D01*
G03X408250Y290000I1750J0*
G01*
D02*
G37*
G36*
X408535Y286137D02*
X408535Y286137D01*
X408535Y288535D01*
X406137Y288535D01*
G74*
D01*
G03X408535Y286137I3863J1465*
G01*
D02*
G37*
G36*
X413863Y288535D02*
X413863Y288535D01*
X411465Y288535D01*
X411465Y286137D01*
G74*
D01*
G03X413863Y288535I1465J3863*
G01*
D02*
G37*
G36*
X406137Y291465D02*
X406137Y291465D01*
X408535Y291465D01*
X408535Y293863D01*
G74*
D01*
G03X406137Y291465I1465J3863*
G01*
D02*
G37*
G36*
X411465Y293863D02*
X411465Y293863D01*
X411465Y291465D01*
X413863Y291465D01*
G74*
D01*
G03X411465Y293863I3863J1465*
G01*
D02*
G37*
G36*
X385869Y320000D02*
G75*
D01*
G03X385869Y320000I4131J0*
G01*
D02*
G37*
G36*
X395869Y320000D02*
G75*
D01*
G03X395869Y320000I4131J0*
G01*
D02*
G37*
G36*
X405869Y320000D02*
G75*
D01*
G03X405869Y320000I4131J0*
G01*
D02*
G37*
G36*
X445579Y322441D02*
G75*
D01*
G03X445579Y322441I6421J0*
G01*
D02*
G37*
G36*
X405000Y342518D02*
G75*
D01*
G03X395000Y342518I-5000J-2517*
G01*
G75*
D01*
G03X395000Y337482I-5000J-2518*
G01*
G75*
D01*
G03X405000Y337482I5000J2517*
G01*
G75*
D01*
G03X405000Y342518I5000J2518*
G01*
D02*
G37*
G36*
X380724Y360000D02*
G75*
D01*
G03X380724Y360000I4355J0*
G01*
D02*
G37*
G36*
X390567Y360000D02*
G75*
D01*
G03X390567Y360000I4354J0*
G01*
D02*
G37*
G36*
X449723Y371555D02*
X449723Y371555D01*
X449723Y375282D01*
X445996Y375282D01*
G74*
D01*
G03X449723Y371555I6004J2277*
G01*
D02*
G37*
G36*
X458004Y375282D02*
X458004Y375282D01*
X454277Y375282D01*
X454277Y371555D01*
G74*
D01*
G03X458004Y375282I2277J6004*
G01*
D02*
G37*
G36*
X398661Y280000D02*
G75*
D01*
G03X398661Y280000I1182J0*
G01*
D02*
G37*
G36*
X407819Y190000D02*
G75*
D01*
G03X407819Y190000I2362J0*
G01*
D02*
G37*
G36*
X402889Y192766D02*
X402889Y192766D01*
X407415Y192766D01*
X407415Y197292D01*
G74*
D01*
G03X402889Y192766I2765J7291*
G01*
D02*
G37*
G36*
X412947Y197292D02*
X412947Y197292D01*
X412947Y192766D01*
X417473Y192766D01*
G74*
D01*
G03X412947Y197292I7291J2765*
G01*
D02*
G37*
G36*
X376137Y203465D02*
X376137Y203465D01*
X378535Y203465D01*
X378535Y205863D01*
G74*
D01*
G03X376137Y203465I1465J3863*
G01*
D02*
G37*
G36*
X378535Y198137D02*
X378535Y198137D01*
X378535Y200535D01*
X376137Y200535D01*
G74*
D01*
G03X378535Y198137I3863J1465*
G01*
D02*
G37*
G36*
X381465Y205863D02*
X381465Y205863D01*
X381465Y203465D01*
X383863Y203465D01*
G74*
D01*
G03X381465Y205863I3863J1465*
G01*
D02*
G37*
G36*
X383863Y200535D02*
X383863Y200535D01*
X381465Y200535D01*
X381465Y198137D01*
G74*
D01*
G03X383863Y200535I1465J3863*
G01*
D02*
G37*
G36*
X378250Y202000D02*
G75*
D01*
G03X378250Y202000I1750J0*
G01*
D02*
G37*
G36*
X393508Y264000D02*
G75*
D01*
G03X393508Y264000I4649J0*
G01*
D02*
G37*
G36*
X416194Y259653D02*
X416194Y259653D01*
X416194Y262351D01*
X413495Y262351D01*
G74*
D01*
G03X416194Y259653I4347J1650*
G01*
D02*
G37*
G36*
X422190Y262351D02*
X422190Y262351D01*
X419491Y262351D01*
X419491Y259653D01*
G74*
D01*
G03X422190Y262351I1647J4346*
G01*
D02*
G37*
G36*
X413495Y265649D02*
X413495Y265649D01*
X416194Y265649D01*
X416194Y268347D01*
G74*
D01*
G03X413495Y265649I1648J4347*
G01*
D02*
G37*
G36*
X416661Y264000D02*
G75*
D01*
G03X416661Y264000I1182J0*
G01*
D02*
G37*
G36*
X419491Y268347D02*
X419491Y268347D01*
X419491Y265649D01*
X422190Y265649D01*
G74*
D01*
G03X419491Y268347I4347J1649*
G01*
D02*
G37*
G36*
X404190Y278351D02*
X404190Y278351D01*
X401491Y278351D01*
X401491Y275653D01*
G74*
D01*
G03X404190Y278351I1647J4346*
G01*
D02*
G37*
G36*
X398194Y275653D02*
X398194Y275653D01*
X398194Y278351D01*
X395495Y278351D01*
G74*
D01*
G03X398194Y275653I4347J1650*
G01*
D02*
G37*
G36*
X245350Y362157D02*
G75*
D01*
G03X245350Y362157I4650J0*
G01*
D02*
G37*
G36*
X231400Y340000D02*
G75*
D01*
G03X231400Y340000I6100J0*
G01*
D02*
G37*
G36*
X256400Y340000D02*
G75*
D01*
G03X256400Y340000I6100J0*
G01*
D02*
G37*
G36*
X285869Y202000D02*
G75*
D01*
G03X285869Y202000I4131J0*
G01*
D02*
G37*
G36*
X295869Y202000D02*
G75*
D01*
G03X295869Y202000I4131J0*
G01*
D02*
G37*
G36*
X305869Y202000D02*
G75*
D01*
G03X305869Y202000I4131J0*
G01*
D02*
G37*
G36*
X315869Y202000D02*
G75*
D01*
G03X315869Y202000I4131J0*
G01*
D02*
G37*
G36*
X325869Y202000D02*
G75*
D01*
G03X325869Y202000I4131J0*
G01*
D02*
G37*
G36*
X335869Y202000D02*
G75*
D01*
G03X335869Y202000I4131J0*
G01*
D02*
G37*
G36*
X345869Y202000D02*
G75*
D01*
G03X345869Y202000I4131J0*
G01*
D02*
G37*
G36*
X355869Y202000D02*
G75*
D01*
G03X355869Y202000I4131J0*
G01*
D02*
G37*
G36*
X365869Y202000D02*
G75*
D01*
G03X365869Y202000I4131J0*
G01*
D02*
G37*
G36*
X285869Y232000D02*
G75*
D01*
G03X285869Y232000I4131J0*
G01*
D02*
G37*
G36*
X295869Y232000D02*
G75*
D01*
G03X295869Y232000I4131J0*
G01*
D02*
G37*
G36*
X305869Y232000D02*
G75*
D01*
G03X305869Y232000I4131J0*
G01*
D02*
G37*
G36*
X335869Y232000D02*
G75*
D01*
G03X335869Y232000I4131J0*
G01*
D02*
G37*
G36*
X345869Y232000D02*
G75*
D01*
G03X345869Y232000I4131J0*
G01*
D02*
G37*
G36*
X355869Y232000D02*
G75*
D01*
G03X355869Y232000I4131J0*
G01*
D02*
G37*
G36*
X365869Y232000D02*
G75*
D01*
G03X365869Y232000I4131J0*
G01*
D02*
G37*
G36*
X285333Y256000D02*
G75*
D01*
G03X285333Y256000I4667J0*
G01*
D02*
G37*
G36*
X295333Y256000D02*
G75*
D01*
G03X295333Y256000I4667J0*
G01*
D02*
G37*
G36*
X305333Y256000D02*
G75*
D01*
G03X305333Y256000I4667J0*
G01*
D02*
G37*
G36*
X335333Y256000D02*
G75*
D01*
G03X335333Y256000I4667J0*
G01*
D02*
G37*
G36*
X345333Y256000D02*
G75*
D01*
G03X345333Y256000I4667J0*
G01*
D02*
G37*
G36*
X355333Y256000D02*
G75*
D01*
G03X355333Y256000I4667J0*
G01*
D02*
G37*
G36*
X365333Y256000D02*
G75*
D01*
G03X365333Y256000I4667J0*
G01*
D02*
G37*
G36*
X368976Y134000D02*
G75*
D01*
G03X368976Y134000I1181J0*
G01*
D02*
G37*
G36*
X368509Y129653D02*
X368509Y129653D01*
X368509Y132351D01*
X365810Y132351D01*
G74*
D01*
G03X368509Y129653I4347J1649*
G01*
D02*
G37*
G36*
X374505Y132351D02*
X374505Y132351D01*
X371806Y132351D01*
X371806Y129653D01*
G74*
D01*
G03X374505Y132351I1648J4347*
G01*
D02*
G37*
G36*
X337138Y142000D02*
G75*
D01*
G03X337138Y142000I6421J0*
G01*
D02*
G37*
G36*
X365810Y135649D02*
X365810Y135649D01*
X368509Y135649D01*
X368509Y138347D01*
G74*
D01*
G03X365810Y135649I1647J4346*
G01*
D02*
G37*
G36*
X371806Y138347D02*
X371806Y138347D01*
X371806Y135649D01*
X374505Y135649D01*
G74*
D01*
G03X371806Y138347I4347J1650*
G01*
D02*
G37*
G36*
X349240Y156000D02*
G75*
D01*
G03X349240Y156000I5043J0*
G01*
D02*
G37*
G36*
X285333Y178000D02*
G75*
D01*
G03X285333Y178000I4667J0*
G01*
D02*
G37*
G36*
X295333Y178000D02*
G75*
D01*
G03X295333Y178000I4667J0*
G01*
D02*
G37*
G36*
X305333Y178000D02*
G75*
D01*
G03X305333Y178000I4667J0*
G01*
D02*
G37*
G36*
X315333Y178000D02*
G75*
D01*
G03X315333Y178000I4667J0*
G01*
D02*
G37*
G36*
X325333Y178000D02*
G75*
D01*
G03X325333Y178000I4667J0*
G01*
D02*
G37*
G36*
X335333Y178000D02*
G75*
D01*
G03X335333Y178000I4667J0*
G01*
D02*
G37*
G36*
X345333Y178000D02*
G75*
D01*
G03X345333Y178000I4667J0*
G01*
D02*
G37*
G36*
X355333Y178000D02*
G75*
D01*
G03X355333Y178000I4667J0*
G01*
D02*
G37*
G36*
X365333Y178000D02*
G75*
D01*
G03X365333Y178000I4667J0*
G01*
D02*
G37*
G36*
X385193Y134000D02*
G75*
D01*
G03X385193Y134000I4650J0*
G01*
D02*
G37*
G36*
X384673Y156000D02*
G75*
D01*
G03X384673Y156000I5044J0*
G01*
D02*
G37*
G36*
X384471Y179602D02*
G74*
D01*
G03X381602Y182471I3429J560*
G01*
X381602Y182471D01*
X381602Y179602D01*
X384471Y179602D01*
D02*
G37*
G36*
X381602Y173529D02*
G74*
D01*
G03X384471Y176398I560J3429*
G01*
X384471Y176398D01*
X381602Y176398D01*
X381602Y173529D01*
D02*
G37*
G36*
X378042Y178000D02*
G75*
D01*
G03X378042Y178000I1958J0*
G01*
D02*
G37*
G36*
X263138Y268000D02*
G75*
D01*
G03X263138Y268000I6421J0*
G01*
D02*
G37*
G36*
X222286Y192674D02*
X222286Y192674D01*
X222286Y195259D01*
X219701Y195259D01*
G74*
D01*
G03X222286Y192674I4164J1579*
G01*
D02*
G37*
G36*
X222093Y196838D02*
G75*
D01*
G03X222093Y196838I1772J0*
G01*
D02*
G37*
G36*
X228028Y195259D02*
X228028Y195259D01*
X225444Y195259D01*
X225444Y192674D01*
G74*
D01*
G03X228028Y195259I1580J4163*
G01*
D02*
G37*
G36*
X268325Y193885D02*
X268325Y193885D01*
X268325Y199791D01*
G74*
D01*
G03X266817Y201298I1508J1*
G01*
X266817Y201298D01*
X260912Y201298D01*
G75*
D01*
G03X259405Y199791I0J-1507*
G01*
X259405Y199791D01*
X259405Y193885D01*
G75*
D01*
G03X260912Y192378I1507J0*
G01*
X260912Y192378D01*
X266817Y192378D01*
G75*
D01*
G03X268325Y193885I1J1507*
G01*
D02*
G37*
G36*
X219701Y198417D02*
X219701Y198417D01*
X222286Y198417D01*
X222286Y201001D01*
G74*
D01*
G03X219701Y198417I1578J4163*
G01*
D02*
G37*
G36*
X225444Y201001D02*
X225444Y201001D01*
X225444Y198417D01*
X228028Y198417D01*
G74*
D01*
G03X225444Y201001I4163J1579*
G01*
D02*
G37*
G36*
X236325Y212483D02*
X236325Y212483D01*
X233900Y212483D01*
X233900Y210059D01*
G74*
D01*
G03X236325Y212483I1480J3906*
G01*
D02*
G37*
G36*
X230938Y210059D02*
X230938Y210059D01*
X230938Y212483D01*
X228513Y212483D01*
G74*
D01*
G03X230938Y210059I3905J1482*
G01*
D02*
G37*
G36*
X233900Y217870D02*
X233900Y217870D01*
X233900Y215446D01*
X236325Y215446D01*
G74*
D01*
G03X233900Y217870I3905J1482*
G01*
D02*
G37*
G36*
X228513Y215446D02*
X228513Y215446D01*
X230938Y215446D01*
X230938Y217870D01*
G74*
D01*
G03X228513Y215446I1480J3905*
G01*
D02*
G37*
G36*
X231120Y213965D02*
G75*
D01*
G03X231120Y213965I1299J0*
G01*
D02*
G37*
G36*
X207791Y236000D02*
G75*
D01*
G03X207791Y236000I4650J0*
G01*
D02*
G37*
G36*
X262909Y236000D02*
G75*
D01*
G03X262909Y236000I4650J0*
G01*
D02*
G37*
G36*
X208020Y268000D02*
G75*
D01*
G03X208020Y268000I6421J0*
G01*
D02*
G37*
G36*
X115400Y340000D02*
G75*
D01*
G03X115400Y340000I6100J0*
G01*
D02*
G37*
G36*
X140400Y340000D02*
G75*
D01*
G03X140400Y340000I6100J0*
G01*
D02*
G37*
G36*
X129350Y360157D02*
G75*
D01*
G03X129350Y360157I4650J0*
G01*
D02*
G37*
G36*
X146766Y271111D02*
X146766Y271111D01*
X146766Y266585D01*
X151292Y266585D01*
G74*
D01*
G03X146766Y271111I7291J2765*
G01*
D02*
G37*
G36*
X141234Y256527D02*
X141234Y256527D01*
X141234Y261053D01*
X136708Y261053D01*
G74*
D01*
G03X141234Y256527I7291J2765*
G01*
D02*
G37*
G36*
X151292Y261053D02*
X151292Y261053D01*
X146766Y261053D01*
X146766Y256527D01*
G74*
D01*
G03X151292Y261053I2765J7291*
G01*
D02*
G37*
G36*
X136708Y266585D02*
X136708Y266585D01*
X141234Y266585D01*
X141234Y271111D01*
G74*
D01*
G03X136708Y266585I2765J7291*
G01*
D02*
G37*
G36*
X141638Y263819D02*
G75*
D01*
G03X141638Y263819I2362J0*
G01*
D02*
G37*
G36*
X258895Y177965D02*
G75*
D01*
G03X258895Y177965I4453J0*
G01*
D02*
G37*
G36*
X219350Y100157D02*
G75*
D01*
G03X219350Y100157I4650J0*
G01*
D02*
G37*
G36*
X239869Y100000D02*
G75*
D01*
G03X239869Y100000I4131J0*
G01*
D02*
G37*
G36*
X249869Y100000D02*
G75*
D01*
G03X249869Y100000I4131J0*
G01*
D02*
G37*
G36*
X259869Y100000D02*
G75*
D01*
G03X259869Y100000I4131J0*
G01*
D02*
G37*
G36*
X269869Y100000D02*
G75*
D01*
G03X269869Y100000I4131J0*
G01*
D02*
G37*
G36*
X222351Y115495D02*
X222351Y115495D01*
X222351Y118194D01*
X219653Y118194D01*
G74*
D01*
G03X222351Y115495I4347J1648*
G01*
D02*
G37*
G36*
X228347Y118194D02*
X228347Y118194D01*
X225649Y118194D01*
X225649Y115495D01*
G74*
D01*
G03X228347Y118194I1650J4347*
G01*
D02*
G37*
G36*
X219653Y121491D02*
X219653Y121491D01*
X222351Y121491D01*
X222351Y124190D01*
G74*
D01*
G03X219653Y121491I1649J4347*
G01*
D02*
G37*
G36*
X225649Y124190D02*
X225649Y124190D01*
X225649Y121491D01*
X228347Y121491D01*
G74*
D01*
G03X225649Y124190I4346J1647*
G01*
D02*
G37*
G36*
X222819Y119843D02*
G75*
D01*
G03X222819Y119843I1181J0*
G01*
D02*
G37*
G36*
X249869Y130000D02*
G75*
D01*
G03X249869Y130000I4131J0*
G01*
D02*
G37*
G36*
X259869Y130000D02*
G75*
D01*
G03X259869Y130000I4131J0*
G01*
D02*
G37*
G36*
X269869Y130000D02*
G75*
D01*
G03X269869Y130000I4131J0*
G01*
D02*
G37*
G36*
X240137Y131465D02*
X240137Y131465D01*
X242535Y131465D01*
X242535Y133863D01*
G74*
D01*
G03X240137Y131465I1465J3863*
G01*
D02*
G37*
G36*
X242250Y130000D02*
G75*
D01*
G03X242250Y130000I1750J0*
G01*
D02*
G37*
G36*
X242535Y126137D02*
X242535Y126137D01*
X242535Y128535D01*
X240137Y128535D01*
G74*
D01*
G03X242535Y126137I3863J1465*
G01*
D02*
G37*
G36*
X245465Y133863D02*
X245465Y133863D01*
X245465Y131465D01*
X247863Y131465D01*
G74*
D01*
G03X245465Y133863I3863J1465*
G01*
D02*
G37*
G36*
X247863Y128535D02*
X247863Y128535D01*
X245465Y128535D01*
X245465Y126137D01*
G74*
D01*
G03X247863Y128535I1465J3863*
G01*
D02*
G37*
G36*
X207791Y158000D02*
G75*
D01*
G03X207791Y158000I4650J0*
G01*
D02*
G37*
G36*
X207714Y177965D02*
G75*
D01*
G03X207714Y177965I4453J0*
G01*
D02*
G37*
G36*
X136201Y116181D02*
G75*
D01*
G03X136201Y116181I7799J0*
G01*
D02*
G37*
%LPD*%
G54D11*
X454471Y375943D02*
G75*
D01*
G03X454471Y375943I-2471J1616*
G01*
X135649Y375495D02*
G74*
D01*
G03X138347Y378194I1650J4347*
G01*
X135649Y378194D01*
X135649Y375495D01*
X132351Y375495D02*
X132351Y378194D01*
X129653Y378194D01*
G74*
D01*
G03X132351Y375495I4347J1648*
G01*
X620517Y280959D02*
X620517Y283042D01*
G74*
D01*
G03X617042Y286517I3475J0*
G01*
X614959Y286517D01*
G75*
D01*
G03X611483Y283042I-1J-3475*
G01*
X611483Y280959D01*
G75*
D01*
G03X614959Y277483I3476J0*
G01*
X617042Y277483D01*
G75*
D01*
G03X620517Y280959I-1J3476*
G01*
X580837Y186967D02*
G75*
D01*
G03X580837Y186967I3163J-3408*
G01*
X564919Y193226D02*
G75*
D01*
G03X564919Y193226I-7100J-3226*
G01*
X24981Y272331D02*
G75*
D01*
G03X26488Y270823I1507J-1*
G01*
X37512Y270823D01*
G75*
D01*
G03X39019Y272331I-1J1508*
G01*
X39019Y283354D01*
G74*
D01*
G03X37512Y284862I1507J1*
G01*
X26488Y284862D01*
G75*
D01*
G03X24981Y283354I1J-1508*
G01*
X24981Y272331D01*
X375529Y176398D02*
G74*
D01*
G03X378398Y173529I3429J560*
G01*
X378398Y176398D01*
X375529Y176398D01*
X375529Y179602D02*
X378398Y179602D01*
X378398Y182471D01*
G74*
D01*
G03X375529Y179602I560J3429*
G01*
X402889Y187234D02*
G74*
D01*
G03X407415Y182708I7291J2765*
G01*
X407415Y187234D01*
X402889Y187234D01*
X412947Y182708D02*
G74*
D01*
G03X417473Y187234I2765J7291*
G01*
X412947Y187234D01*
X412947Y182708D01*
X271489Y92479D02*
G75*
D01*
G03X271489Y92479I2511J-3558*
G01*
X69045Y186967D02*
G75*
D01*
G03X69045Y186967I955J1466*
G01*
X66307Y187032D02*
G74*
D01*
G03X68599Y184740I3692J1400*
G01*
X68599Y187032D01*
X66307Y187032D01*
X37789Y190788D02*
G75*
D01*
G03X37789Y186583I2211J-2102*
G01*
X34456Y186583D01*
G74*
D01*
G03X37897Y183141I5544J2101*
G01*
X37897Y186474D01*
G75*
D01*
G03X42103Y186474I2103J2210*
G01*
X42103Y183141D01*
G74*
D01*
G03X45544Y186583I2103J5543*
G01*
X42211Y186583D01*
G75*
D01*
G03X42211Y190788I-2210J2103*
G01*
X45544Y190788D01*
G74*
D01*
G03X42103Y194229I5544J2103*
G01*
X42103Y190896D01*
G75*
D01*
G03X37897Y190896I-2103J-2210*
G01*
X37897Y194229D01*
G74*
D01*
G03X34456Y190788I2103J5544*
G01*
X37789Y190788D01*
X73693Y187032D02*
X71401Y187032D01*
X71401Y184740D01*
G74*
D01*
G03X73693Y187032I1400J3692*
G01*
X375943Y290779D02*
G75*
D01*
G03X375943Y290779I4057J-779*
G01*
X375943Y320779D02*
G75*
D01*
G03X375943Y320779I4057J-779*
G01*
X375943Y281964D02*
G75*
D01*
G03X375943Y281964I4214J-1964*
G01*
X333000Y239483D02*
X392000Y239483D01*
G75*
D01*
G03X392000Y246517I0J3517*
G01*
X334457Y246517D01*
X329626Y251348D01*
G75*
D01*
G03X325348Y255626I374J4652*
G01*
X324656Y256318D01*
G75*
D01*
G03X319682Y251344I-4655J-319*
G01*
X330513Y240513D01*
G74*
D01*
G03X332005Y239627I2486J2488*
G01*
G75*
D01*
G03X333000Y239483I996J3372*
G01*
X375943Y231221D02*
G75*
D01*
G03X375943Y231221I4057J779*
G01*
X375483Y254958D02*
G75*
D01*
G03X378959Y251483I3476J1*
G01*
X381042Y251483D01*
G75*
D01*
G03X384517Y254958I0J3475*
G01*
X384517Y257042D01*
G74*
D01*
G03X381042Y260517I3475J0*
G01*
X378959Y260517D01*
G75*
D01*
G03X375483Y257042I-1J-3475*
G01*
X375483Y254958D01*
X266169Y210448D02*
X311965Y210448D01*
G74*
D01*
G03X314455Y211481I0J3517*
G01*
X330954Y227981D01*
G75*
D01*
G03X325981Y232954I-955J4018*
G01*
X324002Y230976D01*
G75*
D01*
G03X321024Y227998I-4001J1023*
G01*
X310508Y217482D01*
X266169Y217482D01*
G75*
D01*
G03X266169Y210448I-2253J-3517*
G01*
X271522Y160432D02*
G75*
D01*
G03X265127Y154037I-3961J-2434*
G01*
X280362Y138803D01*
G74*
D01*
G03X281865Y137807I3199J3195*
G01*
G75*
D01*
G03X283559Y137478I1693J4193*
G01*
X283882Y137478D01*
G75*
D01*
G03X284720Y147233I4559J4522*
G01*
X281455Y150499D01*
X271522Y160432D01*
X568519Y381842D02*
X568519Y384267D01*
X566094Y384267D01*
G74*
D01*
G03X568519Y381842I3906J1481*
G01*
X568701Y385748D02*
G75*
D01*
G03X568701Y385748I1299J0*
G01*
X573906Y384267D02*
X571481Y384267D01*
X571481Y381842D01*
G74*
D01*
G03X573906Y384267I1481J3906*
G01*
X591863Y384535D02*
X589465Y384535D01*
X589465Y382137D01*
G74*
D01*
G03X591863Y384535I1465J3863*
G01*
X586250Y386000D02*
G75*
D01*
G03X586250Y386000I1750J0*
G01*
X586535Y382137D02*
X586535Y384535D01*
X584137Y384535D01*
G74*
D01*
G03X586535Y382137I3863J1465*
G01*
X593869Y386000D02*
G75*
D01*
G03X593869Y386000I4131J0*
G01*
X603869Y386000D02*
G75*
D01*
G03X603869Y386000I4131J0*
G01*
X613869Y386000D02*
G75*
D01*
G03X613869Y386000I4131J0*
G01*
X566094Y387229D02*
X568519Y387229D01*
X568519Y389654D01*
G74*
D01*
G03X566094Y387229I1481J3906*
G01*
X571481Y389654D02*
X571481Y387229D01*
X573906Y387229D01*
G74*
D01*
G03X571481Y389654I3906J1481*
G01*
X589465Y389863D02*
X589465Y387465D01*
X591863Y387465D01*
G74*
D01*
G03X589465Y389863I3863J1465*
G01*
X584137Y387465D02*
X586535Y387465D01*
X586535Y389863D01*
G74*
D01*
G03X584137Y387465I1465J3863*
G01*
X385483Y387042D02*
X385483Y384959D01*
G75*
D01*
G03X388959Y381483I3476J0*
G01*
X391042Y381483D01*
G75*
D01*
G03X394517Y384959I-1J3476*
G01*
X394517Y387042D01*
G74*
D01*
G03X391042Y390517I3475J0*
G01*
X388959Y390517D01*
G75*
D01*
G03X385483Y387042I-1J-3475*
G01*
X398250Y386000D02*
G75*
D01*
G03X398250Y386000I1750J0*
G01*
X398345Y381636D02*
X398345Y384345D01*
X395636Y384345D01*
G74*
D01*
G03X398345Y381636I4364J1655*
G01*
X404364Y384345D02*
X401655Y384345D01*
X401655Y381636D01*
G74*
D01*
G03X404364Y384345I1655J4364*
G01*
X445996Y379836D02*
X449723Y379836D01*
X449723Y383563D01*
G74*
D01*
G03X445996Y379836I2277J6004*
G01*
X454277Y383563D02*
X454277Y379836D01*
X458004Y379836D01*
G74*
D01*
G03X454277Y383563I6004J2277*
G01*
X395636Y387655D02*
X398345Y387655D01*
X398345Y390364D01*
G74*
D01*
G03X395636Y387655I1655J4364*
G01*
X401655Y390364D02*
X401655Y387655D01*
X404364Y387655D01*
G74*
D01*
G03X401655Y390364I4364J1655*
G01*
X364351Y377495D02*
X364351Y380194D01*
X361653Y380194D01*
G74*
D01*
G03X364351Y377495I4347J1648*
G01*
X370347Y380194D02*
X367649Y380194D01*
X367649Y377495D01*
G74*
D01*
G03X370347Y380194I1650J4347*
G01*
X361653Y383491D02*
X364351Y383491D01*
X364351Y386190D01*
G74*
D01*
G03X361653Y383491I1649J4347*
G01*
X367649Y386190D02*
X367649Y383491D01*
X370347Y383491D01*
G74*
D01*
G03X367649Y386190I4346J1647*
G01*
X364819Y381843D02*
G75*
D01*
G03X364819Y381843I1181J0*
G01*
X254347Y380194D02*
X251649Y380194D01*
X251649Y377495D01*
G74*
D01*
G03X254347Y380194I1650J4347*
G01*
X248351Y377495D02*
X248351Y380194D01*
X245653Y380194D01*
G74*
D01*
G03X248351Y377495I4347J1648*
G01*
X245653Y383491D02*
X248351Y383491D01*
X248351Y386190D01*
G74*
D01*
G03X245653Y383491I1649J4347*
G01*
X251649Y386190D02*
X251649Y383491D01*
X254347Y383491D01*
G74*
D01*
G03X251649Y386190I4346J1647*
G01*
X248819Y381843D02*
G75*
D01*
G03X248819Y381843I1181J0*
G01*
X132819Y379843D02*
G75*
D01*
G03X132819Y379843I1181J0*
G01*
X129653Y381491D02*
X132351Y381491D01*
X132351Y384190D01*
G74*
D01*
G03X129653Y381491I1649J4347*
G01*
X135649Y384190D02*
X135649Y381491D01*
X138347Y381491D01*
G74*
D01*
G03X135649Y384190I4346J1647*
G01*
X613400Y70000D02*
G75*
D01*
G03X613400Y70000I6100J0*
G01*
X613869Y356000D02*
G75*
D01*
G03X613869Y356000I4131J0*
G01*
X614345Y287636D02*
X614345Y290345D01*
X611636Y290345D01*
G74*
D01*
G03X614345Y287636I4364J1655*
G01*
X614250Y292000D02*
G75*
D01*
G03X614250Y292000I1750J0*
G01*
X620364Y290345D02*
X617655Y290345D01*
X617655Y287636D01*
G74*
D01*
G03X620364Y290345I1655J4364*
G01*
X611636Y293655D02*
X614345Y293655D01*
X614345Y296364D01*
G74*
D01*
G03X611636Y293655I1655J4364*
G01*
X617655Y296364D02*
X617655Y293655D01*
X620364Y293655D01*
G74*
D01*
G03X617655Y296364I4364J1655*
G01*
X598351Y303810D02*
X598351Y306509D01*
X595653Y306509D01*
G74*
D01*
G03X598351Y303810I4346J1647*
G01*
X598819Y308157D02*
G75*
D01*
G03X598819Y308157I1181J0*
G01*
X604347Y306509D02*
X601649Y306509D01*
X601649Y303810D01*
G74*
D01*
G03X604347Y306509I1649J4347*
G01*
X574362Y314256D02*
X574362Y319965D01*
G74*
D01*
G03X572854Y321472I1508J1*
G01*
X567146Y321472D01*
G75*
D01*
G03X565638Y319965I-1J-1507*
G01*
X565638Y314256D01*
G75*
D01*
G03X567146Y312749I1508J1*
G01*
X572854Y312749D01*
G75*
D01*
G03X574362Y314256I1J1507*
G01*
X595653Y309806D02*
X598351Y309806D01*
X598351Y312505D01*
G74*
D01*
G03X595653Y309806I1650J4347*
G01*
X601649Y312505D02*
X601649Y309806D01*
X604347Y309806D01*
G74*
D01*
G03X601649Y312505I4347J1648*
G01*
X568456Y326818D02*
X568456Y329346D01*
X565929Y329346D01*
G74*
D01*
G03X568456Y326818I4071J1542*
G01*
X568524Y330890D02*
G75*
D01*
G03X568524Y330890I1476J0*
G01*
X574071Y329346D02*
X571544Y329346D01*
X571544Y326818D01*
G74*
D01*
G03X574071Y329346I1544J4071*
G01*
X595350Y327843D02*
G75*
D01*
G03X595350Y327843I4650J0*
G01*
X565929Y332434D02*
X568456Y332434D01*
X568456Y334961D01*
G74*
D01*
G03X565929Y332434I1543J4070*
G01*
X571544Y334961D02*
X571544Y332434D01*
X574071Y332434D01*
G74*
D01*
G03X571544Y334961I4070J1543*
G01*
X588075Y342000D02*
G75*
D01*
G03X588075Y342000I4177J0*
G01*
X619571Y342000D02*
G75*
D01*
G03X619571Y342000I4177J0*
G01*
X565823Y354252D02*
G75*
D01*
G03X565823Y354252I4177J0*
G01*
X583869Y356000D02*
G75*
D01*
G03X583869Y356000I4131J0*
G01*
X593869Y356000D02*
G75*
D01*
G03X593869Y356000I4131J0*
G01*
X603869Y356000D02*
G75*
D01*
G03X603869Y356000I4131J0*
G01*
X611441Y195843D02*
G75*
D01*
G03X611441Y195843I2559J0*
G01*
X611514Y189286D02*
X611514Y193356D01*
X607444Y193356D01*
G74*
D01*
G03X611514Y189286I6556J2486*
G01*
X620556Y193356D02*
X616486Y193356D01*
X616486Y189286D01*
G74*
D01*
G03X620556Y193356I2486J6556*
G01*
X573547Y204000D02*
G75*
D01*
G03X573547Y204000I4453J0*
G01*
X607444Y198329D02*
X611514Y198329D01*
X611514Y202399D01*
G74*
D01*
G03X607444Y198329I2486J6556*
G01*
X616486Y202399D02*
X616486Y198329D01*
X620556Y198329D01*
G74*
D01*
G03X616486Y202399I6556J2486*
G01*
X624163Y214421D02*
X621579Y214421D01*
X621579Y211837D01*
G74*
D01*
G03X624163Y214421I1579J4163*
G01*
X618421Y211837D02*
X618421Y214421D01*
X615837Y214421D01*
G74*
D01*
G03X618421Y211837I4163J1579*
G01*
X600519Y220346D02*
X600519Y222771D01*
X598094Y222771D01*
G74*
D01*
G03X600519Y220346I3906J1481*
G01*
X605906Y222771D02*
X603481Y222771D01*
X603481Y220346D01*
G74*
D01*
G03X605906Y222771I1481J3906*
G01*
X621579Y220163D02*
X621579Y217579D01*
X624163Y217579D01*
G74*
D01*
G03X621579Y220163I4163J1579*
G01*
X615837Y217579D02*
X618421Y217579D01*
X618421Y220163D01*
G74*
D01*
G03X615837Y217579I1579J4163*
G01*
X618228Y216000D02*
G75*
D01*
G03X618228Y216000I1772J0*
G01*
X598094Y225733D02*
X600519Y225733D01*
X600519Y228158D01*
G74*
D01*
G03X598094Y225733I1481J3906*
G01*
X603481Y228158D02*
X603481Y225733D01*
X605906Y225733D01*
G74*
D01*
G03X603481Y228158I3906J1481*
G01*
X600701Y224252D02*
G75*
D01*
G03X600701Y224252I1299J0*
G01*
X599746Y259265D02*
X579775Y259265D01*
G75*
D01*
G03X581335Y252231I-1775J-4084*
G01*
X599746Y252231D01*
G75*
D01*
G03X599746Y259265I2253J3517*
G01*
X622953Y260460D02*
X617047Y260460D01*
G75*
D01*
G03X615540Y258953I0J-1507*
G01*
X615540Y253047D01*
G75*
D01*
G03X617047Y251540I1507J0*
G01*
X622953Y251540D01*
G75*
D01*
G03X624460Y253047I0J1507*
G01*
X624460Y258953D01*
G74*
D01*
G03X622953Y260460I1507J0*
G01*
X622959Y113483D02*
X625042Y113483D01*
G75*
D01*
G03X628517Y116959I-1J3476*
G01*
X628517Y119042D01*
G74*
D01*
G03X625042Y122517I3475J0*
G01*
X622959Y122517D01*
G75*
D01*
G03X619483Y119042I-1J-3475*
G01*
X619483Y116959D01*
G75*
D01*
G03X622959Y113483I3476J0*
G01*
X582351Y124093D02*
X582351Y126792D01*
X579653Y126792D01*
G74*
D01*
G03X582351Y124093I4347J1648*
G01*
X588347Y126792D02*
X585649Y126792D01*
X585649Y124093D01*
G74*
D01*
G03X588347Y126792I1650J4347*
G01*
X619333Y128000D02*
G75*
D01*
G03X619333Y128000I4667J0*
G01*
X582228Y128441D02*
G75*
D01*
G03X582228Y128441I1772J0*
G01*
X579653Y130090D02*
X582351Y130090D01*
X582351Y132788D01*
G74*
D01*
G03X579653Y130090I1649J4347*
G01*
X585649Y132788D02*
X585649Y130090D01*
X588347Y130090D01*
G74*
D01*
G03X585649Y132788I4347J1649*
G01*
X620000Y152660D02*
G75*
D01*
G03X620000Y151340I-5000J-660*
G01*
G75*
D01*
G03X620000Y152660I5000J660*
G01*
X621019Y170646D02*
X621019Y181669D01*
G74*
D01*
G03X619512Y183177I1507J1*
G01*
X608488Y183177D01*
G75*
D01*
G03X606981Y181669I1J-1508*
G01*
X606981Y170646D01*
G75*
D01*
G03X608488Y169138I1507J-1*
G01*
X619512Y169138D01*
G75*
D01*
G03X621019Y170646I-1J1508*
G01*
X76713Y80000D02*
G75*
D01*
G03X76713Y80000I7287J0*
G01*
X76713Y28000D02*
G75*
D01*
G03X76713Y28000I7287J0*
G01*
X522400Y70000D02*
G75*
D01*
G03X522400Y70000I6100J0*
G01*
X511653Y21806D02*
X514351Y21806D01*
X514351Y24505D01*
G74*
D01*
G03X511653Y21806I1650J4347*
G01*
X514351Y15810D02*
X514351Y18509D01*
X511653Y18509D01*
G74*
D01*
G03X514351Y15810I4346J1647*
G01*
X517649Y24505D02*
X517649Y21806D01*
X520347Y21806D01*
G74*
D01*
G03X517649Y24505I4347J1648*
G01*
X520347Y18509D02*
X517649Y18509D01*
X517649Y15810D01*
G74*
D01*
G03X520347Y18509I1649J4347*
G01*
X514819Y20157D02*
G75*
D01*
G03X514819Y20157I1181J0*
G01*
X511350Y39843D02*
G75*
D01*
G03X511350Y39843I4650J0*
G01*
X495400Y70000D02*
G75*
D01*
G03X495400Y70000I6100J0*
G01*
X24400Y340000D02*
G75*
D01*
G03X24400Y340000I6100J0*
G01*
X404400Y70000D02*
G75*
D01*
G03X404400Y70000I6100J0*
G01*
X393653Y21806D02*
X396351Y21806D01*
X396351Y24505D01*
G74*
D01*
G03X393653Y21806I1650J4347*
G01*
X396351Y15810D02*
X396351Y18509D01*
X393653Y18509D01*
G74*
D01*
G03X396351Y15810I4346J1647*
G01*
X399649Y24505D02*
X399649Y21806D01*
X402347Y21806D01*
G74*
D01*
G03X399649Y24505I4347J1648*
G01*
X402347Y18509D02*
X399649Y18509D01*
X399649Y15810D01*
G74*
D01*
G03X402347Y18509I1649J4347*
G01*
X396819Y20157D02*
G75*
D01*
G03X396819Y20157I1181J0*
G01*
X393350Y39843D02*
G75*
D01*
G03X393350Y39843I4650J0*
G01*
X377400Y70000D02*
G75*
D01*
G03X377400Y70000I6100J0*
G01*
X286400Y70000D02*
G75*
D01*
G03X286400Y70000I6100J0*
G01*
X231655Y92364D02*
X231655Y89655D01*
X234364Y89655D01*
G74*
D01*
G03X231655Y92364I4364J1655*
G01*
X219282Y27996D02*
X219282Y31723D01*
X215555Y31723D01*
G74*
D01*
G03X219282Y27996I6004J2277*
G01*
X218606Y34000D02*
G75*
D01*
G03X218606Y34000I2953J0*
G01*
X227563Y31723D02*
X223836Y31723D01*
X223836Y27996D01*
G74*
D01*
G03X227563Y31723I2277J6004*
G01*
X245483Y33042D02*
X245483Y30959D01*
G75*
D01*
G03X248958Y27483I3475J-1*
G01*
X251042Y27483D01*
G75*
D01*
G03X254517Y30959I-1J3476*
G01*
X254517Y33042D01*
G74*
D01*
G03X251042Y36517I3475J0*
G01*
X248958Y36517D01*
G75*
D01*
G03X245483Y33042I0J-3475*
G01*
X255333Y32000D02*
G75*
D01*
G03X255333Y32000I4667J0*
G01*
X274351Y29810D02*
X274351Y32509D01*
X271653Y32509D01*
G74*
D01*
G03X274351Y29810I4346J1647*
G01*
X280347Y32509D02*
X277649Y32509D01*
X277649Y29810D01*
G74*
D01*
G03X280347Y32509I1649J4347*
G01*
X215555Y36277D02*
X219282Y36277D01*
X219282Y40004D01*
G74*
D01*
G03X215555Y36277I2277J6004*
G01*
X223836Y40004D02*
X223836Y36277D01*
X227563Y36277D01*
G74*
D01*
G03X223836Y40004I6004J2277*
G01*
X274819Y34157D02*
G75*
D01*
G03X274819Y34157I1181J0*
G01*
X271653Y35806D02*
X274351Y35806D01*
X274351Y38505D01*
G74*
D01*
G03X271653Y35806I1650J4347*
G01*
X277649Y38505D02*
X277649Y35806D01*
X280347Y35806D01*
G74*
D01*
G03X277649Y38505I4347J1648*
G01*
X271350Y53843D02*
G75*
D01*
G03X271350Y53843I4650J0*
G01*
X270985Y75937D02*
X270985Y68249D01*
X267751Y65015D01*
X256717Y65015D01*
G74*
D01*
G03X254518Y67000I4717J3015*
G01*
G75*
D01*
G03X254518Y77000I-2517J5000*
G01*
G75*
D01*
G03X249482Y77000I-2518J5000*
G01*
G75*
D01*
G03X249482Y67000I2517J-5000*
G01*
G75*
D01*
G03X256717Y58985I2519J-4999*
G01*
X268997Y58985D01*
G75*
D01*
G03X269634Y59053I0J3015*
G01*
G74*
D01*
G03X271134Y59871I634J2947*
G01*
X276129Y64866D01*
G75*
D01*
G03X277015Y67000I-2128J2134*
G01*
X277015Y75937D01*
G75*
D01*
G03X270985Y75937I-3015J3141*
G01*
X228958Y73483D02*
X231042Y73483D01*
G75*
D01*
G03X234517Y76959I-1J3476*
G01*
X234517Y79042D01*
G74*
D01*
G03X231042Y82517I3475J0*
G01*
X228958Y82517D01*
G75*
D01*
G03X225483Y79042I0J-3475*
G01*
X225483Y76959D01*
G75*
D01*
G03X228958Y73483I3475J-1*
G01*
X228250Y88000D02*
G75*
D01*
G03X228250Y88000I1750J0*
G01*
X228345Y83636D02*
X228345Y86345D01*
X225636Y86345D01*
G74*
D01*
G03X228345Y83636I4364J1655*
G01*
X234364Y86345D02*
X231655Y86345D01*
X231655Y83636D01*
G74*
D01*
G03X234364Y86345I1655J4364*
G01*
X225636Y89655D02*
X228345Y89655D01*
X228345Y92364D01*
G74*
D01*
G03X225636Y89655I1655J4364*
G01*
X29441Y110157D02*
G75*
D01*
G03X29441Y110157I2559J0*
G01*
X29514Y103601D02*
X29514Y107671D01*
X25444Y107671D01*
G74*
D01*
G03X29514Y103601I6556J2486*
G01*
X38556Y107671D02*
X34486Y107671D01*
X34486Y103601D01*
G74*
D01*
G03X38556Y107671I2486J6556*
G01*
X72347Y108792D02*
X69649Y108792D01*
X69649Y106093D01*
G74*
D01*
G03X72347Y108792I1650J4347*
G01*
X66228Y110441D02*
G75*
D01*
G03X66228Y110441I1772J0*
G01*
X66351Y106093D02*
X66351Y108792D01*
X63653Y108792D01*
G74*
D01*
G03X66351Y106093I4347J1648*
G01*
X25444Y112644D02*
X29514Y112644D01*
X29514Y116714D01*
G74*
D01*
G03X25444Y112644I2486J6556*
G01*
X34486Y116714D02*
X34486Y112644D01*
X38556Y112644D01*
G74*
D01*
G03X34486Y116714I6556J2486*
G01*
X69649Y114788D02*
X69649Y112090D01*
X72347Y112090D01*
G74*
D01*
G03X69649Y114788I4347J1649*
G01*
X63653Y112090D02*
X66351Y112090D01*
X66351Y114788D01*
G74*
D01*
G03X63653Y112090I1649J4347*
G01*
X24981Y135354D02*
X24981Y124331D01*
G75*
D01*
G03X26488Y122823I1507J-1*
G01*
X37512Y122823D01*
G75*
D01*
G03X39019Y124331I-1J1508*
G01*
X39019Y135354D01*
G74*
D01*
G03X37512Y136862I1507J1*
G01*
X26488Y136862D01*
G75*
D01*
G03X24981Y135354I1J-1508*
G01*
X30000Y164660D02*
G75*
D01*
G03X30000Y163340I-5000J-660*
G01*
G75*
D01*
G03X30000Y164660I5000J660*
G01*
X63350Y165559D02*
G75*
D01*
G03X63350Y165559I4650J0*
G01*
X67550Y174043D02*
X72450Y174043D01*
G75*
D01*
G03X73957Y175550I0J1507*
G01*
X73957Y180450D01*
G74*
D01*
G03X72450Y181957I1507J0*
G01*
X67550Y181957D01*
G75*
D01*
G03X66043Y180450I0J-1507*
G01*
X66043Y175550D01*
G75*
D01*
G03X67550Y174043I1507J0*
G01*
X173413Y84000D02*
G75*
D01*
G03X173413Y84000I1477J0*
G01*
X160020Y34000D02*
G75*
D01*
G03X160020Y34000I6421J0*
G01*
X158256Y79638D02*
X163965Y79638D01*
G75*
D01*
G03X165472Y81146I-1J1508*
G01*
X165472Y86854D01*
G74*
D01*
G03X163965Y88362I1507J1*
G01*
X158256Y88362D01*
G75*
D01*
G03X156749Y86854I1J-1508*
G01*
X156749Y81146D01*
G75*
D01*
G03X158256Y79638I1507J-1*
G01*
X170818Y85544D02*
X173346Y85544D01*
X173346Y88071D01*
G74*
D01*
G03X170818Y85544I1542J4071*
G01*
X173346Y79929D02*
X173346Y82456D01*
X170818Y82456D01*
G74*
D01*
G03X173346Y79929I4071J1544*
G01*
X176434Y88071D02*
X176434Y85544D01*
X178961Y85544D01*
G74*
D01*
G03X176434Y88071I4070J1543*
G01*
X178961Y82456D02*
X176434Y82456D01*
X176434Y79929D01*
G74*
D01*
G03X178961Y82456I1543J4070*
G01*
X32369Y201417D02*
X35701Y201417D01*
G74*
D01*
G03X32260Y204859I5544J2101*
G01*
X32260Y201526D01*
G75*
D01*
G03X28055Y201526I-2102J-2211*
G01*
X28055Y204859D01*
G74*
D01*
G03X24614Y201417I2103J5543*
G01*
X27946Y201417D01*
G75*
D01*
G03X27946Y197212I2210J-2102*
G01*
X24614Y197212D01*
G74*
D01*
G03X28055Y193771I5543J2102*
G01*
X28055Y197104D01*
G75*
D01*
G03X32260Y197104I2103J2210*
G01*
X32260Y193771D01*
G74*
D01*
G03X35701Y197212I2103J5544*
G01*
X32369Y197212D01*
G75*
D01*
G03X32369Y201417I-2212J2103*
G01*
X43913Y199315D02*
G75*
D01*
G03X43913Y199315I5930J0*
G01*
X66050Y198866D02*
G75*
D01*
G03X66050Y198866I3950J0*
G01*
X66307Y189834D02*
X68599Y189834D01*
X68599Y192126D01*
G74*
D01*
G03X66307Y189834I1400J3692*
G01*
X71401Y192126D02*
X71401Y189834D01*
X73693Y189834D01*
G74*
D01*
G03X71401Y192126I3692J1400*
G01*
X16771Y210094D02*
X16771Y212519D01*
X14346Y212519D01*
G74*
D01*
G03X16771Y210094I3906J1481*
G01*
X22158Y212519D02*
X19733Y212519D01*
X19733Y210094D01*
G74*
D01*
G03X22158Y212519I1481J3906*
G01*
X45571Y214000D02*
G75*
D01*
G03X45571Y214000I4177J0*
G01*
X14346Y215481D02*
X16771Y215481D01*
X16771Y217906D01*
G74*
D01*
G03X14346Y215481I1481J3906*
G01*
X19733Y217906D02*
X19733Y215481D01*
X22158Y215481D01*
G74*
D01*
G03X19733Y217906I3906J1481*
G01*
X16953Y214000D02*
G75*
D01*
G03X16953Y214000I1299J0*
G01*
X70000Y222660D02*
G75*
D01*
G03X70000Y221340I-5000J-660*
G01*
G75*
D01*
G03X70000Y222660I5000J660*
G01*
X19810Y235649D02*
X22509Y235649D01*
X22509Y238347D01*
G74*
D01*
G03X19810Y235649I1647J4346*
G01*
X22976Y234000D02*
G75*
D01*
G03X22976Y234000I1181J0*
G01*
X22509Y229653D02*
X22509Y232351D01*
X19810Y232351D01*
G74*
D01*
G03X22509Y229653I4347J1649*
G01*
X25806Y238347D02*
X25806Y235649D01*
X28505Y235649D01*
G74*
D01*
G03X25806Y238347I4347J1650*
G01*
X28505Y232351D02*
X25806Y232351D01*
X25806Y229653D01*
G74*
D01*
G03X28505Y232351I1648J4347*
G01*
X39193Y234000D02*
G75*
D01*
G03X39193Y234000I4650J0*
G01*
X64959Y239483D02*
X67042Y239483D01*
G75*
D01*
G03X70517Y242958I0J3475*
G01*
X70517Y245042D01*
G74*
D01*
G03X67042Y248517I3475J0*
G01*
X64959Y248517D01*
G75*
D01*
G03X61483Y245042I-1J-3475*
G01*
X61483Y242958D01*
G75*
D01*
G03X64959Y239483I3476J1*
G01*
X29514Y251601D02*
X29514Y255671D01*
X25444Y255671D01*
G74*
D01*
G03X29514Y251601I6556J2486*
G01*
X38556Y255671D02*
X34486Y255671D01*
X34486Y251601D01*
G74*
D01*
G03X38556Y255671I2486J6556*
G01*
X64345Y249636D02*
X64345Y252345D01*
X61636Y252345D01*
G74*
D01*
G03X64345Y249636I4364J1655*
G01*
X70364Y252345D02*
X67655Y252345D01*
X67655Y249636D01*
G74*
D01*
G03X70364Y252345I1655J4364*
G01*
X29441Y258157D02*
G75*
D01*
G03X29441Y258157I2559J0*
G01*
X61636Y255655D02*
X64345Y255655D01*
X64345Y258364D01*
G74*
D01*
G03X61636Y255655I1655J4364*
G01*
X67655Y258364D02*
X67655Y255655D01*
X70364Y255655D01*
G74*
D01*
G03X67655Y258364I4364J1655*
G01*
X64250Y254000D02*
G75*
D01*
G03X64250Y254000I1750J0*
G01*
X25444Y260644D02*
X29514Y260644D01*
X29514Y264714D01*
G74*
D01*
G03X25444Y260644I2486J6556*
G01*
X34486Y264714D02*
X34486Y260644D01*
X38556Y260644D01*
G74*
D01*
G03X34486Y264714I6556J2486*
G01*
X526713Y322000D02*
G75*
D01*
G03X526713Y322000I7287J0*
G01*
X474713Y322000D02*
G75*
D01*
G03X474713Y322000I7287J0*
G01*
X361350Y362157D02*
G75*
D01*
G03X361350Y362157I4650J0*
G01*
X347400Y340000D02*
G75*
D01*
G03X347400Y340000I6100J0*
G01*
X395495Y281649D02*
X398194Y281649D01*
X398194Y284347D01*
G74*
D01*
G03X395495Y281649I1648J4347*
G01*
X401491Y284347D02*
X401491Y281649D01*
X404190Y281649D01*
G74*
D01*
G03X401491Y284347I4347J1649*
G01*
X385869Y290000D02*
G75*
D01*
G03X385869Y290000I4131J0*
G01*
X395869Y290000D02*
G75*
D01*
G03X395869Y290000I4131J0*
G01*
X408250Y290000D02*
G75*
D01*
G03X408250Y290000I1750J0*
G01*
X408535Y286137D02*
X408535Y288535D01*
X406137Y288535D01*
G74*
D01*
G03X408535Y286137I3863J1465*
G01*
X413863Y288535D02*
X411465Y288535D01*
X411465Y286137D01*
G74*
D01*
G03X413863Y288535I1465J3863*
G01*
X406137Y291465D02*
X408535Y291465D01*
X408535Y293863D01*
G74*
D01*
G03X406137Y291465I1465J3863*
G01*
X411465Y293863D02*
X411465Y291465D01*
X413863Y291465D01*
G74*
D01*
G03X411465Y293863I3863J1465*
G01*
X385869Y320000D02*
G75*
D01*
G03X385869Y320000I4131J0*
G01*
X395869Y320000D02*
G75*
D01*
G03X395869Y320000I4131J0*
G01*
X405869Y320000D02*
G75*
D01*
G03X405869Y320000I4131J0*
G01*
X445579Y322441D02*
G75*
D01*
G03X445579Y322441I6421J0*
G01*
X405000Y342518D02*
G75*
D01*
G03X395000Y342518I-5000J-2517*
G01*
G75*
D01*
G03X395000Y337482I-5000J-2518*
G01*
G75*
D01*
G03X405000Y337482I5000J2517*
G01*
G75*
D01*
G03X405000Y342518I5000J2518*
G01*
X380724Y360000D02*
G75*
D01*
G03X380724Y360000I4355J0*
G01*
X390567Y360000D02*
G75*
D01*
G03X390567Y360000I4354J0*
G01*
X449723Y371555D02*
X449723Y375282D01*
X445996Y375282D01*
G74*
D01*
G03X449723Y371555I6004J2277*
G01*
X458004Y375282D02*
X454277Y375282D01*
X454277Y371555D01*
G74*
D01*
G03X458004Y375282I2277J6004*
G01*
X398661Y280000D02*
G75*
D01*
G03X398661Y280000I1182J0*
G01*
X407819Y190000D02*
G75*
D01*
G03X407819Y190000I2362J0*
G01*
X402889Y192766D02*
X407415Y192766D01*
X407415Y197292D01*
G74*
D01*
G03X402889Y192766I2765J7291*
G01*
X412947Y197292D02*
X412947Y192766D01*
X417473Y192766D01*
G74*
D01*
G03X412947Y197292I7291J2765*
G01*
X376137Y203465D02*
X378535Y203465D01*
X378535Y205863D01*
G74*
D01*
G03X376137Y203465I1465J3863*
G01*
X378535Y198137D02*
X378535Y200535D01*
X376137Y200535D01*
G74*
D01*
G03X378535Y198137I3863J1465*
G01*
X381465Y205863D02*
X381465Y203465D01*
X383863Y203465D01*
G74*
D01*
G03X381465Y205863I3863J1465*
G01*
X383863Y200535D02*
X381465Y200535D01*
X381465Y198137D01*
G74*
D01*
G03X383863Y200535I1465J3863*
G01*
X378250Y202000D02*
G75*
D01*
G03X378250Y202000I1750J0*
G01*
X393508Y264000D02*
G75*
D01*
G03X393508Y264000I4649J0*
G01*
X416194Y259653D02*
X416194Y262351D01*
X413495Y262351D01*
G74*
D01*
G03X416194Y259653I4347J1650*
G01*
X422190Y262351D02*
X419491Y262351D01*
X419491Y259653D01*
G74*
D01*
G03X422190Y262351I1647J4346*
G01*
X413495Y265649D02*
X416194Y265649D01*
X416194Y268347D01*
G74*
D01*
G03X413495Y265649I1648J4347*
G01*
X416661Y264000D02*
G75*
D01*
G03X416661Y264000I1182J0*
G01*
X419491Y268347D02*
X419491Y265649D01*
X422190Y265649D01*
G74*
D01*
G03X419491Y268347I4347J1649*
G01*
X404190Y278351D02*
X401491Y278351D01*
X401491Y275653D01*
G74*
D01*
G03X404190Y278351I1647J4346*
G01*
X398194Y275653D02*
X398194Y278351D01*
X395495Y278351D01*
G74*
D01*
G03X398194Y275653I4347J1650*
G01*
X245350Y362157D02*
G75*
D01*
G03X245350Y362157I4650J0*
G01*
X231400Y340000D02*
G75*
D01*
G03X231400Y340000I6100J0*
G01*
X256400Y340000D02*
G75*
D01*
G03X256400Y340000I6100J0*
G01*
X285869Y202000D02*
G75*
D01*
G03X285869Y202000I4131J0*
G01*
X295869Y202000D02*
G75*
D01*
G03X295869Y202000I4131J0*
G01*
X305869Y202000D02*
G75*
D01*
G03X305869Y202000I4131J0*
G01*
X315869Y202000D02*
G75*
D01*
G03X315869Y202000I4131J0*
G01*
X325869Y202000D02*
G75*
D01*
G03X325869Y202000I4131J0*
G01*
X335869Y202000D02*
G75*
D01*
G03X335869Y202000I4131J0*
G01*
X345869Y202000D02*
G75*
D01*
G03X345869Y202000I4131J0*
G01*
X355869Y202000D02*
G75*
D01*
G03X355869Y202000I4131J0*
G01*
X365869Y202000D02*
G75*
D01*
G03X365869Y202000I4131J0*
G01*
X285869Y232000D02*
G75*
D01*
G03X285869Y232000I4131J0*
G01*
X295869Y232000D02*
G75*
D01*
G03X295869Y232000I4131J0*
G01*
X305869Y232000D02*
G75*
D01*
G03X305869Y232000I4131J0*
G01*
X335869Y232000D02*
G75*
D01*
G03X335869Y232000I4131J0*
G01*
X345869Y232000D02*
G75*
D01*
G03X345869Y232000I4131J0*
G01*
X355869Y232000D02*
G75*
D01*
G03X355869Y232000I4131J0*
G01*
X365869Y232000D02*
G75*
D01*
G03X365869Y232000I4131J0*
G01*
X285333Y256000D02*
G75*
D01*
G03X285333Y256000I4667J0*
G01*
X295333Y256000D02*
G75*
D01*
G03X295333Y256000I4667J0*
G01*
X305333Y256000D02*
G75*
D01*
G03X305333Y256000I4667J0*
G01*
X335333Y256000D02*
G75*
D01*
G03X335333Y256000I4667J0*
G01*
X345333Y256000D02*
G75*
D01*
G03X345333Y256000I4667J0*
G01*
X355333Y256000D02*
G75*
D01*
G03X355333Y256000I4667J0*
G01*
X365333Y256000D02*
G75*
D01*
G03X365333Y256000I4667J0*
G01*
X368976Y134000D02*
G75*
D01*
G03X368976Y134000I1181J0*
G01*
X368509Y129653D02*
X368509Y132351D01*
X365810Y132351D01*
G74*
D01*
G03X368509Y129653I4347J1649*
G01*
X374505Y132351D02*
X371806Y132351D01*
X371806Y129653D01*
G74*
D01*
G03X374505Y132351I1648J4347*
G01*
X337138Y142000D02*
G75*
D01*
G03X337138Y142000I6421J0*
G01*
X365810Y135649D02*
X368509Y135649D01*
X368509Y138347D01*
G74*
D01*
G03X365810Y135649I1647J4346*
G01*
X371806Y138347D02*
X371806Y135649D01*
X374505Y135649D01*
G74*
D01*
G03X371806Y138347I4347J1650*
G01*
X349240Y156000D02*
G75*
D01*
G03X349240Y156000I5043J0*
G01*
X285333Y178000D02*
G75*
D01*
G03X285333Y178000I4667J0*
G01*
X295333Y178000D02*
G75*
D01*
G03X295333Y178000I4667J0*
G01*
X305333Y178000D02*
G75*
D01*
G03X305333Y178000I4667J0*
G01*
X315333Y178000D02*
G75*
D01*
G03X315333Y178000I4667J0*
G01*
X325333Y178000D02*
G75*
D01*
G03X325333Y178000I4667J0*
G01*
X335333Y178000D02*
G75*
D01*
G03X335333Y178000I4667J0*
G01*
X345333Y178000D02*
G75*
D01*
G03X345333Y178000I4667J0*
G01*
X355333Y178000D02*
G75*
D01*
G03X355333Y178000I4667J0*
G01*
X365333Y178000D02*
G75*
D01*
G03X365333Y178000I4667J0*
G01*
X385193Y134000D02*
G75*
D01*
G03X385193Y134000I4650J0*
G01*
X384673Y156000D02*
G75*
D01*
G03X384673Y156000I5044J0*
G01*
X384471Y179602D02*
G74*
D01*
G03X381602Y182471I3429J560*
G01*
X381602Y179602D01*
X384471Y179602D01*
X381602Y173529D02*
G74*
D01*
G03X384471Y176398I560J3429*
G01*
X381602Y176398D01*
X381602Y173529D01*
X378042Y178000D02*
G75*
D01*
G03X378042Y178000I1958J0*
G01*
X263138Y268000D02*
G75*
D01*
G03X263138Y268000I6421J0*
G01*
X222286Y192674D02*
X222286Y195259D01*
X219701Y195259D01*
G74*
D01*
G03X222286Y192674I4164J1579*
G01*
X222093Y196838D02*
G75*
D01*
G03X222093Y196838I1772J0*
G01*
X228028Y195259D02*
X225444Y195259D01*
X225444Y192674D01*
G74*
D01*
G03X228028Y195259I1580J4163*
G01*
X268325Y193885D02*
X268325Y199791D01*
G74*
D01*
G03X266817Y201298I1508J1*
G01*
X260912Y201298D01*
G75*
D01*
G03X259405Y199791I0J-1507*
G01*
X259405Y193885D01*
G75*
D01*
G03X260912Y192378I1507J0*
G01*
X266817Y192378D01*
G75*
D01*
G03X268325Y193885I1J1507*
G01*
X219701Y198417D02*
X222286Y198417D01*
X222286Y201001D01*
G74*
D01*
G03X219701Y198417I1578J4163*
G01*
X225444Y201001D02*
X225444Y198417D01*
X228028Y198417D01*
G74*
D01*
G03X225444Y201001I4163J1579*
G01*
X236325Y212483D02*
X233900Y212483D01*
X233900Y210059D01*
G74*
D01*
G03X236325Y212483I1480J3906*
G01*
X230938Y210059D02*
X230938Y212483D01*
X228513Y212483D01*
G74*
D01*
G03X230938Y210059I3905J1482*
G01*
X233900Y217870D02*
X233900Y215446D01*
X236325Y215446D01*
G74*
D01*
G03X233900Y217870I3905J1482*
G01*
X228513Y215446D02*
X230938Y215446D01*
X230938Y217870D01*
G74*
D01*
G03X228513Y215446I1480J3905*
G01*
X231120Y213965D02*
G75*
D01*
G03X231120Y213965I1299J0*
G01*
X207791Y236000D02*
G75*
D01*
G03X207791Y236000I4650J0*
G01*
X262909Y236000D02*
G75*
D01*
G03X262909Y236000I4650J0*
G01*
X208020Y268000D02*
G75*
D01*
G03X208020Y268000I6421J0*
G01*
X115400Y340000D02*
G75*
D01*
G03X115400Y340000I6100J0*
G01*
X140400Y340000D02*
G75*
D01*
G03X140400Y340000I6100J0*
G01*
X129350Y360157D02*
G75*
D01*
G03X129350Y360157I4650J0*
G01*
X146766Y271111D02*
X146766Y266585D01*
X151292Y266585D01*
G74*
D01*
G03X146766Y271111I7291J2765*
G01*
X141234Y256527D02*
X141234Y261053D01*
X136708Y261053D01*
G74*
D01*
G03X141234Y256527I7291J2765*
G01*
X151292Y261053D02*
X146766Y261053D01*
X146766Y256527D01*
G74*
D01*
G03X151292Y261053I2765J7291*
G01*
X136708Y266585D02*
X141234Y266585D01*
X141234Y271111D01*
G74*
D01*
G03X136708Y266585I2765J7291*
G01*
X141638Y263819D02*
G75*
D01*
G03X141638Y263819I2362J0*
G01*
X258895Y177965D02*
G75*
D01*
G03X258895Y177965I4453J0*
G01*
X219350Y100157D02*
G75*
D01*
G03X219350Y100157I4650J0*
G01*
X239869Y100000D02*
G75*
D01*
G03X239869Y100000I4131J0*
G01*
X249869Y100000D02*
G75*
D01*
G03X249869Y100000I4131J0*
G01*
X259869Y100000D02*
G75*
D01*
G03X259869Y100000I4131J0*
G01*
X269869Y100000D02*
G75*
D01*
G03X269869Y100000I4131J0*
G01*
X222351Y115495D02*
X222351Y118194D01*
X219653Y118194D01*
G74*
D01*
G03X222351Y115495I4347J1648*
G01*
X228347Y118194D02*
X225649Y118194D01*
X225649Y115495D01*
G74*
D01*
G03X228347Y118194I1650J4347*
G01*
X219653Y121491D02*
X222351Y121491D01*
X222351Y124190D01*
G74*
D01*
G03X219653Y121491I1649J4347*
G01*
X225649Y124190D02*
X225649Y121491D01*
X228347Y121491D01*
G74*
D01*
G03X225649Y124190I4346J1647*
G01*
X222819Y119843D02*
G75*
D01*
G03X222819Y119843I1181J0*
G01*
X249869Y130000D02*
G75*
D01*
G03X249869Y130000I4131J0*
G01*
X259869Y130000D02*
G75*
D01*
G03X259869Y130000I4131J0*
G01*
X269869Y130000D02*
G75*
D01*
G03X269869Y130000I4131J0*
G01*
X240137Y131465D02*
X242535Y131465D01*
X242535Y133863D01*
G74*
D01*
G03X240137Y131465I1465J3863*
G01*
X242250Y130000D02*
G75*
D01*
G03X242250Y130000I1750J0*
G01*
X242535Y126137D02*
X242535Y128535D01*
X240137Y128535D01*
G74*
D01*
G03X242535Y126137I3863J1465*
G01*
X245465Y133863D02*
X245465Y131465D01*
X247863Y131465D01*
G74*
D01*
G03X245465Y133863I3863J1465*
G01*
X247863Y128535D02*
X245465Y128535D01*
X245465Y126137D01*
G74*
D01*
G03X247863Y128535I1465J3863*
G01*
X207791Y158000D02*
G75*
D01*
G03X207791Y158000I4650J0*
G01*
X207714Y177965D02*
G75*
D01*
G03X207714Y177965I4453J0*
G01*
X136201Y116181D02*
G75*
D01*
G03X136201Y116181I7799J0*
G01*
X647990Y407990D02*
X647990Y2010D01*
X2010Y2010D01*
X2010Y407990D01*
X647990Y407990D01*
G54D12*
X269000Y62000D02*
X252000Y62000D01*
X274000Y67000D02*
X269000Y62000D01*
X274000Y79079D02*
X274000Y67000D01*
G54D13*
X283559Y142000D02*
X267559Y158000D01*
X288441Y142000D02*
X283559Y142000D01*
G54D14*
X263915Y213965D02*
X311965Y213965D01*
X330000Y232000D01*
X333000Y243000D02*
X320000Y256000D01*
X392000Y243000D02*
X333000Y243000D01*
X602000Y255748D02*
X578567Y255748D01*
X578000Y255181D01*
G54D15*
X-1500Y-1500D02*
X-1500Y39800D01*
X-1500Y-1500D02*
X63800Y-1500D01*
X651500Y-1500D02*
X586200Y-1500D01*
X651500Y-1500D02*
X651500Y39800D01*
X651500Y411500D02*
X651500Y370200D01*
X651500Y411500D02*
X586200Y411500D01*
X-1500Y411500D02*
X63800Y411500D01*
X-1500Y411500D02*
X-1500Y370200D01*
X-21185Y-1500D02*
X-60555Y-1500D01*
X-40870Y-21185D02*
X-40870Y18185D01*
X-55634Y-1500D02*
G75*
D01*
G02X-55634Y-1500I14764J0*
G01*
X671185Y-1500D02*
X710555Y-1500D01*
X690870Y-21185D02*
X690870Y18185D01*
X676106Y-1500D02*
G75*
D01*
G02X676106Y-1500I14764J0*
G01*
X685949Y-1500D02*
G75*
D01*
G02X685949Y-1500I4921J0*
G01*
X-21185Y411500D02*
X-60555Y411500D01*
X-40870Y391815D02*
X-40870Y431185D01*
X-55634Y411500D02*
G75*
D01*
G02X-55634Y411500I14764J0*
G01*
X-50713Y411500D02*
G75*
D01*
G02X-50713Y411500I9843J0*
G01*
X-45791Y411500D02*
G75*
D01*
G02X-45791Y411500I4921J0*
G01*
G54D16*
X84000Y28000D03*
X84000Y80000D03*
X482000Y322000D03*
X534000Y322000D03*
G54D17*
X221559Y34000D03*
X166441Y34000D03*
X288441Y142000D03*
X343559Y142000D03*
X269559Y268000D03*
X214441Y268000D03*
X452000Y377559D03*
X452000Y322441D03*
G54D18*
X383500Y70000D03*
X292500Y70000D03*
X501500Y70000D03*
X410500Y70000D03*
X619500Y70000D03*
X528500Y70000D03*
X146500Y340000D03*
X237500Y340000D03*
X262500Y340000D03*
X353500Y340000D03*
X30500Y340000D03*
X121500Y340000D03*
G54D19*
X398000Y20157D03*
X398000Y39843D03*
X516000Y20157D03*
X516000Y39843D03*
X276000Y34157D03*
X276000Y53843D03*
X224000Y119843D03*
X224000Y100157D03*
X68000Y110441D03*
X68000Y165559D03*
X584000Y128441D03*
X584000Y183559D03*
X370157Y134000D03*
X389843Y134000D03*
X267559Y158000D03*
X212441Y158000D03*
X212441Y236000D03*
X267559Y236000D03*
X24157Y234000D03*
X43843Y234000D03*
X417843Y264000D03*
X398157Y264000D03*
X399843Y280000D03*
X380157Y280000D03*
X134000Y379843D03*
X134000Y360157D03*
X250000Y381843D03*
X250000Y362157D03*
X366000Y381843D03*
X366000Y362157D03*
X600000Y308157D03*
X600000Y327843D03*
G54D20*
X252000Y82000D03*
X252000Y62000D03*
X252000Y72000D03*
X390000Y340000D03*
X410000Y340000D03*
X400000Y340000D03*
G54D21*
X274000Y88921D03*
X274000Y79079D03*
X570000Y330890D03*
X385079Y360000D03*
X394921Y360000D03*
X174890Y84000D03*
G54D22*
X32000Y110157D03*
X614000Y195843D03*
X32000Y258157D03*
G54D23*
X32000Y129843D03*
X614000Y176157D03*
X32000Y277843D03*
G54D24*
X274000Y100000D03*
X264000Y130000D03*
X244000Y130000D03*
X254000Y130000D03*
X244000Y100000D03*
X264000Y100000D03*
X254000Y100000D03*
X274000Y130000D03*
X70000Y188433D03*
X70000Y198866D03*
X380000Y202000D03*
X370000Y232000D03*
X350000Y232000D03*
X360000Y232000D03*
X340000Y232000D03*
X320000Y232000D03*
X330000Y232000D03*
X310000Y232000D03*
X300000Y232000D03*
X290000Y232000D03*
X320000Y202000D03*
X350000Y202000D03*
X370000Y202000D03*
X360000Y202000D03*
X340000Y202000D03*
X330000Y202000D03*
X310000Y202000D03*
X300000Y202000D03*
X290000Y202000D03*
X380000Y232000D03*
X380000Y320000D03*
X390000Y290000D03*
X410000Y290000D03*
X400000Y290000D03*
X410000Y320000D03*
X390000Y320000D03*
X400000Y320000D03*
X380000Y290000D03*
X618000Y356000D03*
X608000Y386000D03*
X588000Y386000D03*
X598000Y386000D03*
X588000Y356000D03*
X608000Y356000D03*
X598000Y356000D03*
X618000Y386000D03*
G54D25*
X144000Y263819D03*
X144000Y116181D03*
X410181Y190000D03*
X557819Y190000D03*
G54D26*
X624000Y118000D03*
X380000Y178000D03*
X66000Y244000D03*
X380000Y256000D03*
X616000Y282000D03*
X390000Y386000D03*
X250000Y32000D03*
X230000Y78000D03*
G54D27*
X622959Y116959D02*
X625041Y116959D01*
X625041Y119041D01*
X622959Y119041D01*
X622959Y116959D01*D02*
X378959Y176959D02*
X381041Y176959D01*
X381041Y179041D01*
X378959Y179041D01*
X378959Y176959D01*D02*
X64959Y242959D02*
X67041Y242959D01*
X67041Y245041D01*
X64959Y245041D01*
X64959Y242959D01*D02*
X378959Y254959D02*
X381041Y254959D01*
X381041Y257041D01*
X378959Y257041D01*
X378959Y254959D01*D02*
X614959Y280959D02*
X617041Y280959D01*
X617041Y283041D01*
X614959Y283041D01*
X614959Y280959D01*D02*
X388959Y384959D02*
X391041Y384959D01*
X391041Y387041D01*
X388959Y387041D01*
X388959Y384959D01*D02*
X248959Y30959D02*
X251041Y30959D01*
X251041Y33041D01*
X248959Y33041D01*
X248959Y30959D01*D02*
X228959Y76959D02*
X231041Y76959D01*
X231041Y79041D01*
X228959Y79041D01*
X228959Y76959D01*D02*
G54D28*
X624000Y128000D03*
X350000Y178000D03*
X360000Y178000D03*
X370000Y178000D03*
X330000Y178000D03*
X340000Y178000D03*
X320000Y178000D03*
X300000Y178000D03*
X310000Y178000D03*
X290000Y178000D03*
X66000Y254000D03*
X350000Y256000D03*
X360000Y256000D03*
X370000Y256000D03*
X330000Y256000D03*
X340000Y256000D03*
X320000Y256000D03*
X300000Y256000D03*
X310000Y256000D03*
X290000Y256000D03*
X616000Y292000D03*
X400000Y386000D03*
X260000Y32000D03*
X230000Y88000D03*
G54D29*
X615000Y152000D03*
X625000Y152000D03*
X35000Y164000D03*
X25000Y164000D03*
X354283Y156000D03*
X389717Y156000D03*
X65000Y222000D03*
X75000Y222000D03*
G54D30*
X70000Y178000D03*
G54D31*
X263348Y177965D03*
X212167Y177965D03*
X223865Y196838D03*
X578000Y255181D03*
X578000Y204000D03*
X620000Y216000D03*
G54D32*
X49843Y199315D03*
X30157Y199315D03*
X40000Y188685D03*
G54D33*
X263865Y196838D03*
X620000Y256000D03*
G54D34*
X18252Y214000D03*
X49748Y214000D03*
X232419Y213965D03*
X263915Y213965D03*
X602000Y224252D03*
X602000Y255748D03*
X623748Y342000D03*
X592252Y342000D03*
X570000Y354252D03*
X570000Y385748D03*
G54D35*
X392000Y243000D03*
G54D36*
X570000Y317110D03*
X161110Y84000D03*
G54D37*
X629000Y21000D03*
X21000Y388000D03*
X628000Y317000D03*
X204000Y67000D03*

M02*
