G04 Generated by Ultiboard 13.0 *
%FSLAX25Y25*%
%MOIN*%

%ADD10C,0.00001*%
%ADD11C,0.00039*%
%ADD12C,0.00394*%
%ADD13C,0.00004*%
%ADD14C,0.00500*%


G04 ColorRGB 000000 for the following layer *
%LNDrill Symbols-Copper Top-Copper Bottom*%
%LPD*%
G54D11*
X82150Y28000D02*
X85850Y28000D01*
X84000Y26150D02*
X84000Y29850D01*
X82150Y80000D02*
X85850Y80000D01*
X84000Y78150D02*
X84000Y81850D01*
X381900Y70000D02*
G75*
D01*
G02X381900Y70000I1600J0*
G01*
X290900Y70000D02*
G75*
D01*
G02X290900Y70000I1600J0*
G01*
X396819Y18976D02*
X399181Y18976D01*
X399181Y21339D01*
X396819Y21339D01*
X396819Y18976D01*
X396819Y38661D02*
X399181Y38661D01*
X399181Y41024D01*
X396819Y41024D01*
X396819Y38661D01*
X499900Y70000D02*
G75*
D01*
G02X499900Y70000I1600J0*
G01*
X408900Y70000D02*
G75*
D01*
G02X408900Y70000I1600J0*
G01*
X514819Y18976D02*
X517181Y18976D01*
X517181Y21339D01*
X514819Y21339D01*
X514819Y18976D01*
X514819Y38661D02*
X517181Y38661D01*
X517181Y41024D01*
X514819Y41024D01*
X514819Y38661D01*
X617900Y70000D02*
G75*
D01*
G02X617900Y70000I1600J0*
G01*
X526900Y70000D02*
G75*
D01*
G02X526900Y70000I1600J0*
G01*
X274819Y32976D02*
X277181Y32976D01*
X277181Y35339D01*
X274819Y35339D01*
X274819Y32976D01*
X274819Y52661D02*
X277181Y52661D01*
X277181Y55024D01*
X274819Y55024D01*
X274819Y52661D01*
X272720Y87642D02*
X275280Y87642D01*
X274000Y89826D01*
X272720Y87642D01*
X272720Y77799D02*
X275280Y77799D01*
X274000Y79984D01*
X272720Y77799D01*
X222819Y118661D02*
X225181Y118661D01*
X225181Y121024D01*
X222819Y121024D01*
X222819Y118661D01*
X222819Y98976D02*
X225181Y98976D01*
X225181Y101339D01*
X222819Y101339D01*
X222819Y98976D01*
X274000Y97525D02*
X276475Y100000D01*
X274000Y102475D01*
X271525Y100000D01*
X274000Y97525D01*
X273319Y99500D02*
X273319Y100250D01*
X273708Y100750D01*
X274097Y100750D01*
X274486Y100250D01*
X274486Y99500D01*
X273319Y99875D02*
X274486Y99875D01*
X264000Y127525D02*
X266475Y130000D01*
X264000Y132475D01*
X261525Y130000D01*
X264000Y127525D01*
X263319Y129500D02*
X263319Y130250D01*
X263708Y130750D01*
X264097Y130750D01*
X264486Y130250D01*
X264486Y129500D01*
X263319Y129875D02*
X264486Y129875D01*
X244000Y127525D02*
X246475Y130000D01*
X244000Y132475D01*
X241525Y130000D01*
X244000Y127525D01*
X243319Y129500D02*
X243319Y130250D01*
X243708Y130750D01*
X244097Y130750D01*
X244486Y130250D01*
X244486Y129500D01*
X243319Y129875D02*
X244486Y129875D01*
X254000Y127525D02*
X256475Y130000D01*
X254000Y132475D01*
X251525Y130000D01*
X254000Y127525D01*
X253319Y129500D02*
X253319Y130250D01*
X253708Y130750D01*
X254097Y130750D01*
X254486Y130250D01*
X254486Y129500D01*
X253319Y129875D02*
X254486Y129875D01*
X244000Y97525D02*
X246475Y100000D01*
X244000Y102475D01*
X241525Y100000D01*
X244000Y97525D01*
X243319Y99500D02*
X243319Y100250D01*
X243708Y100750D01*
X244097Y100750D01*
X244486Y100250D01*
X244486Y99500D01*
X243319Y99875D02*
X244486Y99875D01*
X264000Y97525D02*
X266475Y100000D01*
X264000Y102475D01*
X261525Y100000D01*
X264000Y97525D01*
X263319Y99500D02*
X263319Y100250D01*
X263708Y100750D01*
X264097Y100750D01*
X264486Y100250D01*
X264486Y99500D01*
X263319Y99875D02*
X264486Y99875D01*
X254000Y97525D02*
X256475Y100000D01*
X254000Y102475D01*
X251525Y100000D01*
X254000Y97525D01*
X253319Y99500D02*
X253319Y100250D01*
X253708Y100750D01*
X254097Y100750D01*
X254486Y100250D01*
X254486Y99500D01*
X253319Y99875D02*
X254486Y99875D01*
X274000Y127525D02*
X276475Y130000D01*
X274000Y132475D01*
X271525Y130000D01*
X274000Y127525D01*
X273319Y129500D02*
X273319Y130250D01*
X273708Y130750D01*
X274097Y130750D01*
X274486Y130250D01*
X274486Y129500D01*
X273319Y129875D02*
X274486Y129875D01*
X66228Y108669D02*
X69772Y108669D01*
X68000Y111694D01*
X66228Y108669D01*
X67311Y109049D02*
X67311Y109808D01*
X67705Y110314D01*
X68098Y110314D01*
X68492Y109808D01*
X68492Y109049D01*
X67311Y109429D02*
X68492Y109429D01*
X66228Y163787D02*
X69772Y163787D01*
X68000Y166812D01*
X66228Y163787D01*
X67311Y164167D02*
X67311Y164926D01*
X67705Y165433D01*
X68098Y165433D01*
X68492Y164926D01*
X68492Y164167D01*
X67311Y164547D02*
X68492Y164547D01*
X622042Y116042D02*
X625959Y116042D01*
X625959Y119959D01*
X622042Y119959D01*
X622042Y116042D01*
X623238Y117440D02*
X624109Y117440D01*
X624544Y117720D01*
X624544Y117860D01*
X624109Y118140D01*
X624544Y118420D01*
X624544Y118560D01*
X624109Y118839D01*
X623456Y118839D01*
X623238Y118839D01*
X623456Y118140D02*
X624109Y118140D01*
X623456Y118839D02*
X623456Y117440D01*
X624000Y125525D02*
X626475Y128000D01*
X624000Y130475D01*
X621525Y128000D01*
X624000Y125525D01*
X623319Y127500D02*
X623319Y128250D01*
X623708Y128750D01*
X624097Y128750D01*
X624486Y128250D01*
X624486Y127500D01*
X623319Y127875D02*
X624486Y127875D01*
X582228Y126669D02*
X585772Y126669D01*
X584000Y129694D01*
X582228Y126669D01*
X583311Y127049D02*
X583311Y127808D01*
X583705Y128314D01*
X584098Y128314D01*
X584492Y127808D01*
X584492Y127049D01*
X583311Y127429D02*
X584492Y127429D01*
X582228Y181787D02*
X585772Y181787D01*
X584000Y184812D01*
X582228Y181787D01*
X583311Y182167D02*
X583311Y182926D01*
X583705Y183433D01*
X584098Y183433D01*
X584492Y182926D01*
X584492Y182167D01*
X583311Y182547D02*
X584492Y182547D01*
X368976Y132819D02*
X371339Y132819D01*
X371339Y135181D01*
X368976Y135181D01*
X368976Y132819D01*
X388661Y132819D02*
X391024Y132819D01*
X391024Y135181D01*
X388661Y135181D01*
X388661Y132819D01*
X265787Y156228D02*
X269331Y156228D01*
X267559Y159253D01*
X265787Y156228D01*
X266870Y156608D02*
X266870Y157367D01*
X267264Y157873D01*
X267657Y157873D01*
X268051Y157367D01*
X268051Y156608D01*
X266870Y156988D02*
X268051Y156988D01*
X210669Y156228D02*
X214213Y156228D01*
X212441Y159253D01*
X210669Y156228D01*
X211752Y156608D02*
X211752Y157367D01*
X212146Y157873D01*
X212539Y157873D01*
X212933Y157367D01*
X212933Y156608D01*
X211752Y156988D02*
X212933Y156988D01*
X353102Y154819D02*
X355465Y154819D01*
X355465Y157181D01*
X353102Y157181D01*
X353102Y154819D01*
X388535Y154819D02*
X390898Y154819D01*
X390898Y157181D01*
X388535Y157181D01*
X388535Y154819D01*
X70000Y185958D02*
X72475Y188433D01*
X70000Y190908D01*
X67525Y188433D01*
X70000Y185958D01*
X69319Y187933D02*
X69319Y188683D01*
X69708Y189183D01*
X70097Y189183D01*
X70486Y188683D01*
X70486Y187933D01*
X69319Y188308D02*
X70486Y188308D01*
X70000Y196391D02*
X72475Y198866D01*
X70000Y201341D01*
X67525Y198866D01*
X70000Y196391D01*
X69319Y198366D02*
X69319Y199116D01*
X69708Y199616D01*
X70097Y199616D01*
X70486Y199116D01*
X70486Y198366D01*
X69319Y198741D02*
X70486Y198741D01*
X70000Y175525D02*
X72475Y178000D01*
X70000Y180475D01*
X67525Y178000D01*
X70000Y175525D01*
X69319Y177500D02*
X69319Y178250D01*
X69708Y178750D01*
X70097Y178750D01*
X70486Y178250D01*
X70486Y177500D01*
X69319Y177875D02*
X70486Y177875D01*
X261576Y176193D02*
X265120Y176193D01*
X263348Y179217D01*
X261576Y176193D01*
X262659Y176573D02*
X262659Y177332D01*
X263053Y177838D01*
X263446Y177838D01*
X263840Y177332D01*
X263840Y176573D01*
X262659Y176952D02*
X263840Y176952D01*
X210395Y176193D02*
X213939Y176193D01*
X212167Y179217D01*
X210395Y176193D01*
X211478Y176573D02*
X211478Y177332D01*
X211872Y177838D01*
X212265Y177838D01*
X212659Y177332D01*
X212659Y176573D01*
X211478Y176952D02*
X212659Y176952D01*
X350000Y175525D02*
X352475Y178000D01*
X350000Y180475D01*
X347525Y178000D01*
X350000Y175525D01*
X349319Y177500D02*
X349319Y178250D01*
X349708Y178750D01*
X350097Y178750D01*
X350486Y178250D01*
X350486Y177500D01*
X349319Y177875D02*
X350486Y177875D01*
X378042Y176042D02*
X381959Y176042D01*
X381959Y179959D01*
X378042Y179959D01*
X378042Y176042D01*
X379238Y177440D02*
X380109Y177440D01*
X380544Y177720D01*
X380544Y177860D01*
X380109Y178140D01*
X380544Y178420D01*
X380544Y178560D01*
X380109Y178839D01*
X379456Y178839D01*
X379238Y178839D01*
X379456Y178140D02*
X380109Y178140D01*
X379456Y178839D02*
X379456Y177440D01*
X360000Y175525D02*
X362475Y178000D01*
X360000Y180475D01*
X357525Y178000D01*
X360000Y175525D01*
X359319Y177500D02*
X359319Y178250D01*
X359708Y178750D01*
X360097Y178750D01*
X360486Y178250D01*
X360486Y177500D01*
X359319Y177875D02*
X360486Y177875D01*
X370000Y175525D02*
X372475Y178000D01*
X370000Y180475D01*
X367525Y178000D01*
X370000Y175525D01*
X369319Y177500D02*
X369319Y178250D01*
X369708Y178750D01*
X370097Y178750D01*
X370486Y178250D01*
X370486Y177500D01*
X369319Y177875D02*
X370486Y177875D01*
X330000Y175525D02*
X332475Y178000D01*
X330000Y180475D01*
X327525Y178000D01*
X330000Y175525D01*
X329319Y177500D02*
X329319Y178250D01*
X329708Y178750D01*
X330097Y178750D01*
X330486Y178250D01*
X330486Y177500D01*
X329319Y177875D02*
X330486Y177875D01*
X340000Y175525D02*
X342475Y178000D01*
X340000Y180475D01*
X337525Y178000D01*
X340000Y175525D01*
X339319Y177500D02*
X339319Y178250D01*
X339708Y178750D01*
X340097Y178750D01*
X340486Y178250D01*
X340486Y177500D01*
X339319Y177875D02*
X340486Y177875D01*
X320000Y175525D02*
X322475Y178000D01*
X320000Y180475D01*
X317525Y178000D01*
X320000Y175525D01*
X319319Y177500D02*
X319319Y178250D01*
X319708Y178750D01*
X320097Y178750D01*
X320486Y178250D01*
X320486Y177500D01*
X319319Y177875D02*
X320486Y177875D01*
X300000Y175525D02*
X302475Y178000D01*
X300000Y180475D01*
X297525Y178000D01*
X300000Y175525D01*
X299319Y177500D02*
X299319Y178250D01*
X299708Y178750D01*
X300097Y178750D01*
X300486Y178250D01*
X300486Y177500D01*
X299319Y177875D02*
X300486Y177875D01*
X310000Y175525D02*
X312475Y178000D01*
X310000Y180475D01*
X307525Y178000D01*
X310000Y175525D01*
X309319Y177500D02*
X309319Y178250D01*
X309708Y178750D01*
X310097Y178750D01*
X310486Y178250D01*
X310486Y177500D01*
X309319Y177875D02*
X310486Y177875D01*
X290000Y175525D02*
X292475Y178000D01*
X290000Y180475D01*
X287525Y178000D01*
X290000Y175525D01*
X289319Y177500D02*
X289319Y178250D01*
X289708Y178750D01*
X290097Y178750D01*
X290486Y178250D01*
X290486Y177500D01*
X289319Y177875D02*
X290486Y177875D01*
X222093Y195066D02*
X225636Y195066D01*
X223865Y198091D01*
X222093Y195066D01*
X223176Y195446D02*
X223176Y196205D01*
X223569Y196711D01*
X223963Y196711D01*
X224357Y196205D01*
X224357Y195446D01*
X223176Y195825D02*
X224357Y195825D01*
X262093Y195066D02*
X265636Y195066D01*
X263865Y198091D01*
X262093Y195066D01*
X263176Y195446D02*
X263176Y196205D01*
X263569Y196711D01*
X263963Y196711D01*
X264357Y196205D01*
X264357Y195446D01*
X263176Y195825D02*
X264357Y195825D01*
X380000Y199525D02*
X382475Y202000D01*
X380000Y204475D01*
X377525Y202000D01*
X380000Y199525D01*
X379319Y201500D02*
X379319Y202250D01*
X379708Y202750D01*
X380097Y202750D01*
X380486Y202250D01*
X380486Y201500D01*
X379319Y201875D02*
X380486Y201875D01*
X370000Y229525D02*
X372475Y232000D01*
X370000Y234475D01*
X367525Y232000D01*
X370000Y229525D01*
X369319Y231500D02*
X369319Y232250D01*
X369708Y232750D01*
X370097Y232750D01*
X370486Y232250D01*
X370486Y231500D01*
X369319Y231875D02*
X370486Y231875D01*
X350000Y229525D02*
X352475Y232000D01*
X350000Y234475D01*
X347525Y232000D01*
X350000Y229525D01*
X349319Y231500D02*
X349319Y232250D01*
X349708Y232750D01*
X350097Y232750D01*
X350486Y232250D01*
X350486Y231500D01*
X349319Y231875D02*
X350486Y231875D01*
X360000Y229525D02*
X362475Y232000D01*
X360000Y234475D01*
X357525Y232000D01*
X360000Y229525D01*
X359319Y231500D02*
X359319Y232250D01*
X359708Y232750D01*
X360097Y232750D01*
X360486Y232250D01*
X360486Y231500D01*
X359319Y231875D02*
X360486Y231875D01*
X340000Y229525D02*
X342475Y232000D01*
X340000Y234475D01*
X337525Y232000D01*
X340000Y229525D01*
X339319Y231500D02*
X339319Y232250D01*
X339708Y232750D01*
X340097Y232750D01*
X340486Y232250D01*
X340486Y231500D01*
X339319Y231875D02*
X340486Y231875D01*
X320000Y229525D02*
X322475Y232000D01*
X320000Y234475D01*
X317525Y232000D01*
X320000Y229525D01*
X319319Y231500D02*
X319319Y232250D01*
X319708Y232750D01*
X320097Y232750D01*
X320486Y232250D01*
X320486Y231500D01*
X319319Y231875D02*
X320486Y231875D01*
X330000Y229525D02*
X332475Y232000D01*
X330000Y234475D01*
X327525Y232000D01*
X330000Y229525D01*
X329319Y231500D02*
X329319Y232250D01*
X329708Y232750D01*
X330097Y232750D01*
X330486Y232250D01*
X330486Y231500D01*
X329319Y231875D02*
X330486Y231875D01*
X310000Y229525D02*
X312475Y232000D01*
X310000Y234475D01*
X307525Y232000D01*
X310000Y229525D01*
X309319Y231500D02*
X309319Y232250D01*
X309708Y232750D01*
X310097Y232750D01*
X310486Y232250D01*
X310486Y231500D01*
X309319Y231875D02*
X310486Y231875D01*
X300000Y229525D02*
X302475Y232000D01*
X300000Y234475D01*
X297525Y232000D01*
X300000Y229525D01*
X299319Y231500D02*
X299319Y232250D01*
X299708Y232750D01*
X300097Y232750D01*
X300486Y232250D01*
X300486Y231500D01*
X299319Y231875D02*
X300486Y231875D01*
X290000Y229525D02*
X292475Y232000D01*
X290000Y234475D01*
X287525Y232000D01*
X290000Y229525D01*
X289319Y231500D02*
X289319Y232250D01*
X289708Y232750D01*
X290097Y232750D01*
X290486Y232250D01*
X290486Y231500D01*
X289319Y231875D02*
X290486Y231875D01*
X320000Y199525D02*
X322475Y202000D01*
X320000Y204475D01*
X317525Y202000D01*
X320000Y199525D01*
X319319Y201500D02*
X319319Y202250D01*
X319708Y202750D01*
X320097Y202750D01*
X320486Y202250D01*
X320486Y201500D01*
X319319Y201875D02*
X320486Y201875D01*
X350000Y199525D02*
X352475Y202000D01*
X350000Y204475D01*
X347525Y202000D01*
X350000Y199525D01*
X349319Y201500D02*
X349319Y202250D01*
X349708Y202750D01*
X350097Y202750D01*
X350486Y202250D01*
X350486Y201500D01*
X349319Y201875D02*
X350486Y201875D01*
X370000Y199525D02*
X372475Y202000D01*
X370000Y204475D01*
X367525Y202000D01*
X370000Y199525D01*
X369319Y201500D02*
X369319Y202250D01*
X369708Y202750D01*
X370097Y202750D01*
X370486Y202250D01*
X370486Y201500D01*
X369319Y201875D02*
X370486Y201875D01*
X360000Y199525D02*
X362475Y202000D01*
X360000Y204475D01*
X357525Y202000D01*
X360000Y199525D01*
X359319Y201500D02*
X359319Y202250D01*
X359708Y202750D01*
X360097Y202750D01*
X360486Y202250D01*
X360486Y201500D01*
X359319Y201875D02*
X360486Y201875D01*
X340000Y199525D02*
X342475Y202000D01*
X340000Y204475D01*
X337525Y202000D01*
X340000Y199525D01*
X339319Y201500D02*
X339319Y202250D01*
X339708Y202750D01*
X340097Y202750D01*
X340486Y202250D01*
X340486Y201500D01*
X339319Y201875D02*
X340486Y201875D01*
X330000Y199525D02*
X332475Y202000D01*
X330000Y204475D01*
X327525Y202000D01*
X330000Y199525D01*
X329319Y201500D02*
X329319Y202250D01*
X329708Y202750D01*
X330097Y202750D01*
X330486Y202250D01*
X330486Y201500D01*
X329319Y201875D02*
X330486Y201875D01*
X310000Y199525D02*
X312475Y202000D01*
X310000Y204475D01*
X307525Y202000D01*
X310000Y199525D01*
X309319Y201500D02*
X309319Y202250D01*
X309708Y202750D01*
X310097Y202750D01*
X310486Y202250D01*
X310486Y201500D01*
X309319Y201875D02*
X310486Y201875D01*
X300000Y199525D02*
X302475Y202000D01*
X300000Y204475D01*
X297525Y202000D01*
X300000Y199525D01*
X299319Y201500D02*
X299319Y202250D01*
X299708Y202750D01*
X300097Y202750D01*
X300486Y202250D01*
X300486Y201500D01*
X299319Y201875D02*
X300486Y201875D01*
X290000Y199525D02*
X292475Y202000D01*
X290000Y204475D01*
X287525Y202000D01*
X290000Y199525D01*
X289319Y201500D02*
X289319Y202250D01*
X289708Y202750D01*
X290097Y202750D01*
X290486Y202250D01*
X290486Y201500D01*
X289319Y201875D02*
X290486Y201875D01*
X380000Y229525D02*
X382475Y232000D01*
X380000Y234475D01*
X377525Y232000D01*
X380000Y229525D01*
X379319Y231500D02*
X379319Y232250D01*
X379708Y232750D01*
X380097Y232750D01*
X380486Y232250D01*
X380486Y231500D01*
X379319Y231875D02*
X380486Y231875D01*
X576228Y253409D02*
X579772Y253409D01*
X578000Y256434D01*
X576228Y253409D01*
X577311Y253789D02*
X577311Y254548D01*
X577705Y255055D01*
X578098Y255055D01*
X578492Y254548D01*
X578492Y253789D01*
X577311Y254169D02*
X578492Y254169D01*
X576228Y202228D02*
X579772Y202228D01*
X578000Y205253D01*
X576228Y202228D01*
X577311Y202608D02*
X577311Y203367D01*
X577705Y203873D01*
X578098Y203873D01*
X578492Y203367D01*
X578492Y202608D01*
X577311Y202988D02*
X578492Y202988D01*
X16953Y214000D02*
G75*
D01*
G02X16953Y214000I1299J0*
G01*
X18613Y213814D02*
X18324Y213629D01*
X18035Y213629D01*
X17747Y213814D01*
X17747Y214371D01*
X18035Y214557D01*
X18324Y214557D01*
X18613Y214371D01*
X48449Y214000D02*
G75*
D01*
G02X48449Y214000I1299J0*
G01*
X50109Y213814D02*
X49820Y213629D01*
X49531Y213629D01*
X49243Y213814D01*
X49243Y214371D01*
X49531Y214557D01*
X49820Y214557D01*
X50109Y214371D01*
X231120Y213965D02*
G75*
D01*
G02X231120Y213965I1299J0*
G01*
X232780Y213779D02*
X232491Y213593D01*
X232202Y213593D01*
X231914Y213779D01*
X231914Y214336D01*
X232202Y214521D01*
X232491Y214521D01*
X232780Y214336D01*
X262616Y213965D02*
G75*
D01*
G02X262616Y213965I1299J0*
G01*
X264276Y213779D02*
X263987Y213593D01*
X263698Y213593D01*
X263410Y213779D01*
X263410Y214336D01*
X263698Y214521D01*
X263987Y214521D01*
X264276Y214336D01*
X618228Y214228D02*
X621772Y214228D01*
X620000Y217253D01*
X618228Y214228D01*
X619311Y214608D02*
X619311Y215367D01*
X619705Y215873D01*
X620098Y215873D01*
X620492Y215367D01*
X620492Y214608D01*
X619311Y214988D02*
X620492Y214988D01*
X618228Y254228D02*
X621772Y254228D01*
X620000Y257253D01*
X618228Y254228D01*
X619311Y254608D02*
X619311Y255367D01*
X619705Y255873D01*
X620098Y255873D01*
X620492Y255367D01*
X620492Y254608D01*
X619311Y254988D02*
X620492Y254988D01*
X600701Y224252D02*
G75*
D01*
G02X600701Y224252I1299J0*
G01*
X602361Y224066D02*
X602072Y223881D01*
X601783Y223881D01*
X601495Y224066D01*
X601495Y224623D01*
X601783Y224809D01*
X602072Y224809D01*
X602361Y224623D01*
X600701Y255748D02*
G75*
D01*
G02X600701Y255748I1299J0*
G01*
X602361Y255562D02*
X602072Y255377D01*
X601783Y255377D01*
X601495Y255562D01*
X601495Y256119D01*
X601783Y256305D01*
X602072Y256305D01*
X602361Y256119D01*
X210669Y234228D02*
X214213Y234228D01*
X212441Y237253D01*
X210669Y234228D01*
X211752Y234608D02*
X211752Y235367D01*
X212146Y235873D01*
X212539Y235873D01*
X212933Y235367D01*
X212933Y234608D01*
X211752Y234988D02*
X212933Y234988D01*
X265787Y234228D02*
X269331Y234228D01*
X267559Y237253D01*
X265787Y234228D01*
X266870Y234608D02*
X266870Y235367D01*
X267264Y235873D01*
X267657Y235873D01*
X268051Y235367D01*
X268051Y234608D01*
X266870Y234988D02*
X268051Y234988D01*
X22976Y232819D02*
X25339Y232819D01*
X25339Y235181D01*
X22976Y235181D01*
X22976Y232819D01*
X42661Y232819D02*
X45024Y232819D01*
X45024Y235181D01*
X42661Y235181D01*
X42661Y232819D01*
X64042Y242042D02*
X67959Y242042D01*
X67959Y245958D01*
X64042Y245958D01*
X64042Y242042D01*
X65238Y243440D02*
X66109Y243440D01*
X66544Y243720D01*
X66544Y243860D01*
X66109Y244140D01*
X66544Y244420D01*
X66544Y244560D01*
X66109Y244839D01*
X65456Y244839D01*
X65238Y244839D01*
X65456Y244140D02*
X66109Y244140D01*
X65456Y244839D02*
X65456Y243440D01*
X66000Y251525D02*
X68475Y254000D01*
X66000Y256475D01*
X63525Y254000D01*
X66000Y251525D01*
X65319Y253500D02*
X65319Y254250D01*
X65708Y254750D01*
X66097Y254750D01*
X66486Y254250D01*
X66486Y253500D01*
X65319Y253875D02*
X66486Y253875D01*
X390819Y241819D02*
X393181Y241819D01*
X393181Y244181D01*
X390819Y244181D01*
X390819Y241819D01*
X350000Y253525D02*
X352475Y256000D01*
X350000Y258475D01*
X347525Y256000D01*
X350000Y253525D01*
X349319Y255500D02*
X349319Y256250D01*
X349708Y256750D01*
X350097Y256750D01*
X350486Y256250D01*
X350486Y255500D01*
X349319Y255875D02*
X350486Y255875D01*
X378042Y254042D02*
X381959Y254042D01*
X381959Y257958D01*
X378042Y257958D01*
X378042Y254042D01*
X379238Y255440D02*
X380109Y255440D01*
X380544Y255720D01*
X380544Y255860D01*
X380109Y256140D01*
X380544Y256420D01*
X380544Y256560D01*
X380109Y256839D01*
X379456Y256839D01*
X379238Y256839D01*
X379456Y256140D02*
X380109Y256140D01*
X379456Y256839D02*
X379456Y255440D01*
X360000Y253525D02*
X362475Y256000D01*
X360000Y258475D01*
X357525Y256000D01*
X360000Y253525D01*
X359319Y255500D02*
X359319Y256250D01*
X359708Y256750D01*
X360097Y256750D01*
X360486Y256250D01*
X360486Y255500D01*
X359319Y255875D02*
X360486Y255875D01*
X370000Y253525D02*
X372475Y256000D01*
X370000Y258475D01*
X367525Y256000D01*
X370000Y253525D01*
X369319Y255500D02*
X369319Y256250D01*
X369708Y256750D01*
X370097Y256750D01*
X370486Y256250D01*
X370486Y255500D01*
X369319Y255875D02*
X370486Y255875D01*
X330000Y253525D02*
X332475Y256000D01*
X330000Y258475D01*
X327525Y256000D01*
X330000Y253525D01*
X329319Y255500D02*
X329319Y256250D01*
X329708Y256750D01*
X330097Y256750D01*
X330486Y256250D01*
X330486Y255500D01*
X329319Y255875D02*
X330486Y255875D01*
X340000Y253525D02*
X342475Y256000D01*
X340000Y258475D01*
X337525Y256000D01*
X340000Y253525D01*
X339319Y255500D02*
X339319Y256250D01*
X339708Y256750D01*
X340097Y256750D01*
X340486Y256250D01*
X340486Y255500D01*
X339319Y255875D02*
X340486Y255875D01*
X320000Y253525D02*
X322475Y256000D01*
X320000Y258475D01*
X317525Y256000D01*
X320000Y253525D01*
X319319Y255500D02*
X319319Y256250D01*
X319708Y256750D01*
X320097Y256750D01*
X320486Y256250D01*
X320486Y255500D01*
X319319Y255875D02*
X320486Y255875D01*
X300000Y253525D02*
X302475Y256000D01*
X300000Y258475D01*
X297525Y256000D01*
X300000Y253525D01*
X299319Y255500D02*
X299319Y256250D01*
X299708Y256750D01*
X300097Y256750D01*
X300486Y256250D01*
X300486Y255500D01*
X299319Y255875D02*
X300486Y255875D01*
X310000Y253525D02*
X312475Y256000D01*
X310000Y258475D01*
X307525Y256000D01*
X310000Y253525D01*
X309319Y255500D02*
X309319Y256250D01*
X309708Y256750D01*
X310097Y256750D01*
X310486Y256250D01*
X310486Y255500D01*
X309319Y255875D02*
X310486Y255875D01*
X290000Y253525D02*
X292475Y256000D01*
X290000Y258475D01*
X287525Y256000D01*
X290000Y253525D01*
X289319Y255500D02*
X289319Y256250D01*
X289708Y256750D01*
X290097Y256750D01*
X290486Y256250D01*
X290486Y255500D01*
X289319Y255875D02*
X290486Y255875D01*
X416661Y262819D02*
X419024Y262819D01*
X419024Y265181D01*
X416661Y265181D01*
X416661Y262819D01*
X396976Y262819D02*
X399339Y262819D01*
X399339Y265181D01*
X396976Y265181D01*
X396976Y262819D01*
X480150Y322000D02*
X483850Y322000D01*
X482000Y320150D02*
X482000Y323850D01*
X532150Y322000D02*
X535850Y322000D01*
X534000Y320150D02*
X534000Y323850D01*
X398661Y278819D02*
X401024Y278819D01*
X401024Y281181D01*
X398661Y281181D01*
X398661Y278819D01*
X378976Y278819D02*
X381339Y278819D01*
X381339Y281181D01*
X378976Y281181D01*
X378976Y278819D01*
X614042Y280042D02*
X617959Y280042D01*
X617959Y283959D01*
X614042Y283959D01*
X614042Y280042D01*
X615238Y281440D02*
X616109Y281440D01*
X616544Y281720D01*
X616544Y281860D01*
X616109Y282140D01*
X616544Y282420D01*
X616544Y282560D01*
X616109Y282839D01*
X615456Y282839D01*
X615238Y282839D01*
X615456Y282140D02*
X616109Y282140D01*
X615456Y282839D02*
X615456Y281440D01*
X616000Y289525D02*
X618475Y292000D01*
X616000Y294475D01*
X613525Y292000D01*
X616000Y289525D01*
X615319Y291500D02*
X615319Y292250D01*
X615708Y292750D01*
X616097Y292750D01*
X616486Y292250D01*
X616486Y291500D01*
X615319Y291875D02*
X616486Y291875D01*
X144900Y340000D02*
G75*
D01*
G02X144900Y340000I1600J0*
G01*
X235900Y340000D02*
G75*
D01*
G02X235900Y340000I1600J0*
G01*
X260900Y340000D02*
G75*
D01*
G02X260900Y340000I1600J0*
G01*
X351900Y340000D02*
G75*
D01*
G02X351900Y340000I1600J0*
G01*
X380000Y317525D02*
X382475Y320000D01*
X380000Y322475D01*
X377525Y320000D01*
X380000Y317525D01*
X379319Y319500D02*
X379319Y320250D01*
X379708Y320750D01*
X380097Y320750D01*
X380486Y320250D01*
X380486Y319500D01*
X379319Y319875D02*
X380486Y319875D01*
X390000Y287525D02*
X392475Y290000D01*
X390000Y292475D01*
X387525Y290000D01*
X390000Y287525D01*
X389319Y289500D02*
X389319Y290250D01*
X389708Y290750D01*
X390097Y290750D01*
X390486Y290250D01*
X390486Y289500D01*
X389319Y289875D02*
X390486Y289875D01*
X410000Y287525D02*
X412475Y290000D01*
X410000Y292475D01*
X407525Y290000D01*
X410000Y287525D01*
X409319Y289500D02*
X409319Y290250D01*
X409708Y290750D01*
X410097Y290750D01*
X410486Y290250D01*
X410486Y289500D01*
X409319Y289875D02*
X410486Y289875D01*
X400000Y287525D02*
X402475Y290000D01*
X400000Y292475D01*
X397525Y290000D01*
X400000Y287525D01*
X399319Y289500D02*
X399319Y290250D01*
X399708Y290750D01*
X400097Y290750D01*
X400486Y290250D01*
X400486Y289500D01*
X399319Y289875D02*
X400486Y289875D01*
X410000Y317525D02*
X412475Y320000D01*
X410000Y322475D01*
X407525Y320000D01*
X410000Y317525D01*
X409319Y319500D02*
X409319Y320250D01*
X409708Y320750D01*
X410097Y320750D01*
X410486Y320250D01*
X410486Y319500D01*
X409319Y319875D02*
X410486Y319875D01*
X390000Y317525D02*
X392475Y320000D01*
X390000Y322475D01*
X387525Y320000D01*
X390000Y317525D01*
X389319Y319500D02*
X389319Y320250D01*
X389708Y320750D01*
X390097Y320750D01*
X390486Y320250D01*
X390486Y319500D01*
X389319Y319875D02*
X390486Y319875D01*
X400000Y317525D02*
X402475Y320000D01*
X400000Y322475D01*
X397525Y320000D01*
X400000Y317525D01*
X399319Y319500D02*
X399319Y320250D01*
X399708Y320750D01*
X400097Y320750D01*
X400486Y320250D01*
X400486Y319500D01*
X399319Y319875D02*
X400486Y319875D01*
X380000Y287525D02*
X382475Y290000D01*
X380000Y292475D01*
X377525Y290000D01*
X380000Y287525D01*
X379319Y289500D02*
X379319Y290250D01*
X379708Y290750D01*
X380097Y290750D01*
X380486Y290250D01*
X380486Y289500D01*
X379319Y289875D02*
X380486Y289875D01*
X568524Y329413D02*
X571476Y329413D01*
X571476Y332366D01*
X568524Y332366D01*
X568524Y329413D01*
X570410Y330679D02*
X570082Y330468D01*
X569754Y330468D01*
X569426Y330679D01*
X569426Y331312D01*
X569754Y331522D01*
X570082Y331522D01*
X570410Y331312D01*
X568524Y315634D02*
X571476Y315634D01*
X571476Y318587D01*
X568524Y318587D01*
X568524Y315634D01*
X570410Y316899D02*
X570082Y316688D01*
X569754Y316688D01*
X569426Y316899D01*
X569426Y317532D01*
X569754Y317743D01*
X570082Y317743D01*
X570410Y317532D01*
X622449Y342000D02*
G75*
D01*
G02X622449Y342000I1299J0*
G01*
X624109Y341814D02*
X623820Y341629D01*
X623531Y341629D01*
X623243Y341814D01*
X623243Y342371D01*
X623531Y342557D01*
X623820Y342557D01*
X624109Y342371D01*
X590953Y342000D02*
G75*
D01*
G02X590953Y342000I1299J0*
G01*
X592613Y341814D02*
X592324Y341629D01*
X592035Y341629D01*
X591747Y341814D01*
X591747Y342371D01*
X592035Y342557D01*
X592324Y342557D01*
X592613Y342371D01*
X568701Y354252D02*
G75*
D01*
G02X568701Y354252I1299J0*
G01*
X570361Y354066D02*
X570072Y353881D01*
X569783Y353881D01*
X569495Y354066D01*
X569495Y354623D01*
X569783Y354809D01*
X570072Y354809D01*
X570361Y354623D01*
X568701Y385748D02*
G75*
D01*
G02X568701Y385748I1299J0*
G01*
X570361Y385562D02*
X570072Y385377D01*
X569783Y385377D01*
X569495Y385562D01*
X569495Y386119D01*
X569783Y386305D01*
X570072Y386305D01*
X570361Y386119D01*
X618000Y353525D02*
X620475Y356000D01*
X618000Y358475D01*
X615525Y356000D01*
X618000Y353525D01*
X617319Y355500D02*
X617319Y356250D01*
X617708Y356750D01*
X618097Y356750D01*
X618486Y356250D01*
X618486Y355500D01*
X617319Y355875D02*
X618486Y355875D01*
X608000Y383525D02*
X610475Y386000D01*
X608000Y388475D01*
X605525Y386000D01*
X608000Y383525D01*
X607319Y385500D02*
X607319Y386250D01*
X607708Y386750D01*
X608097Y386750D01*
X608486Y386250D01*
X608486Y385500D01*
X607319Y385875D02*
X608486Y385875D01*
X588000Y383525D02*
X590475Y386000D01*
X588000Y388475D01*
X585525Y386000D01*
X588000Y383525D01*
X587319Y385500D02*
X587319Y386250D01*
X587708Y386750D01*
X588097Y386750D01*
X588486Y386250D01*
X588486Y385500D01*
X587319Y385875D02*
X588486Y385875D01*
X598000Y383525D02*
X600475Y386000D01*
X598000Y388475D01*
X595525Y386000D01*
X598000Y383525D01*
X597319Y385500D02*
X597319Y386250D01*
X597708Y386750D01*
X598097Y386750D01*
X598486Y386250D01*
X598486Y385500D01*
X597319Y385875D02*
X598486Y385875D01*
X588000Y353525D02*
X590475Y356000D01*
X588000Y358475D01*
X585525Y356000D01*
X588000Y353525D01*
X587319Y355500D02*
X587319Y356250D01*
X587708Y356750D01*
X588097Y356750D01*
X588486Y356250D01*
X588486Y355500D01*
X587319Y355875D02*
X588486Y355875D01*
X608000Y353525D02*
X610475Y356000D01*
X608000Y358475D01*
X605525Y356000D01*
X608000Y353525D01*
X607319Y355500D02*
X607319Y356250D01*
X607708Y356750D01*
X608097Y356750D01*
X608486Y356250D01*
X608486Y355500D01*
X607319Y355875D02*
X608486Y355875D01*
X598000Y353525D02*
X600475Y356000D01*
X598000Y358475D01*
X595525Y356000D01*
X598000Y353525D01*
X597319Y355500D02*
X597319Y356250D01*
X597708Y356750D01*
X598097Y356750D01*
X598486Y356250D01*
X598486Y355500D01*
X597319Y355875D02*
X598486Y355875D01*
X618000Y383525D02*
X620475Y386000D01*
X618000Y388475D01*
X615525Y386000D01*
X618000Y383525D01*
X617319Y385500D02*
X617319Y386250D01*
X617708Y386750D01*
X618097Y386750D01*
X618486Y386250D01*
X618486Y385500D01*
X617319Y385875D02*
X618486Y385875D01*
X132819Y378661D02*
X135181Y378661D01*
X135181Y381024D01*
X132819Y381024D01*
X132819Y378661D01*
X132819Y358976D02*
X135181Y358976D01*
X135181Y361339D01*
X132819Y361339D01*
X132819Y358976D01*
X248819Y380661D02*
X251181Y380661D01*
X251181Y383024D01*
X248819Y383024D01*
X248819Y380661D01*
X248819Y360976D02*
X251181Y360976D01*
X251181Y363339D01*
X248819Y363339D01*
X248819Y360976D01*
X364819Y380661D02*
X367181Y380661D01*
X367181Y383024D01*
X364819Y383024D01*
X364819Y380661D01*
X364819Y360976D02*
X367181Y360976D01*
X367181Y363339D01*
X364819Y363339D01*
X364819Y360976D01*
X383799Y358720D02*
X386358Y358720D01*
X385079Y360905D01*
X383799Y358720D01*
X393642Y358720D02*
X396201Y358720D01*
X394921Y360905D01*
X393642Y358720D01*
X388042Y384042D02*
X391959Y384042D01*
X391959Y387959D01*
X388042Y387959D01*
X388042Y384042D01*
X389238Y385440D02*
X390109Y385440D01*
X390544Y385720D01*
X390544Y385860D01*
X390109Y386140D01*
X390544Y386420D01*
X390544Y386560D01*
X390109Y386839D01*
X389456Y386839D01*
X389238Y386839D01*
X389456Y386140D02*
X390109Y386140D01*
X389456Y386839D02*
X389456Y385440D01*
X400000Y383525D02*
X402475Y386000D01*
X400000Y388475D01*
X397525Y386000D01*
X400000Y383525D01*
X399319Y385500D02*
X399319Y386250D01*
X399708Y386750D01*
X400097Y386750D01*
X400486Y386250D01*
X400486Y385500D01*
X399319Y385875D02*
X400486Y385875D01*
X28900Y340000D02*
G75*
D01*
G02X28900Y340000I1600J0*
G01*
X119900Y340000D02*
G75*
D01*
G02X119900Y340000I1600J0*
G01*
X173413Y82524D02*
X176366Y82524D01*
X176366Y85476D01*
X173413Y85476D01*
X173413Y82524D01*
X175300Y83789D02*
X174972Y83578D01*
X174644Y83578D01*
X174316Y83789D01*
X174316Y84422D01*
X174644Y84633D01*
X174972Y84633D01*
X175300Y84422D01*
X159634Y82524D02*
X162587Y82524D01*
X162587Y85476D01*
X159634Y85476D01*
X159634Y82524D01*
X161520Y83789D02*
X161192Y83578D01*
X160864Y83578D01*
X160536Y83789D01*
X160536Y84422D01*
X160864Y84633D01*
X161192Y84633D01*
X161520Y84422D01*
X248042Y30042D02*
X251958Y30042D01*
X251958Y33959D01*
X248042Y33959D01*
X248042Y30042D01*
X249238Y31440D02*
X250109Y31440D01*
X250544Y31720D01*
X250544Y31860D01*
X250109Y32140D01*
X250544Y32420D01*
X250544Y32560D01*
X250109Y32839D01*
X249456Y32839D01*
X249238Y32839D01*
X249456Y32140D02*
X250109Y32140D01*
X249456Y32839D02*
X249456Y31440D01*
X260000Y29525D02*
X262475Y32000D01*
X260000Y34475D01*
X257525Y32000D01*
X260000Y29525D01*
X259319Y31500D02*
X259319Y32250D01*
X259708Y32750D01*
X260097Y32750D01*
X260486Y32250D01*
X260486Y31500D01*
X259319Y31875D02*
X260486Y31875D01*
X598819Y306976D02*
X601181Y306976D01*
X601181Y309339D01*
X598819Y309339D01*
X598819Y306976D01*
X598819Y326661D02*
X601181Y326661D01*
X601181Y329024D01*
X598819Y329024D01*
X598819Y326661D01*
X228042Y76042D02*
X231958Y76042D01*
X231958Y79959D01*
X228042Y79959D01*
X228042Y76042D01*
X229238Y77440D02*
X230109Y77440D01*
X230544Y77720D01*
X230544Y77860D01*
X230109Y78140D01*
X230544Y78420D01*
X230544Y78560D01*
X230109Y78839D01*
X229456Y78839D01*
X229238Y78839D01*
X229456Y78140D02*
X230109Y78140D01*
X229456Y78839D02*
X229456Y77440D01*
X230000Y85525D02*
X232475Y88000D01*
X230000Y90475D01*
X227525Y88000D01*
X230000Y85525D01*
X229319Y87500D02*
X229319Y88250D01*
X229708Y88750D01*
X230097Y88750D01*
X230486Y88250D01*
X230486Y87500D01*
X229319Y87875D02*
X230486Y87875D01*
X767849Y118568D02*
X771766Y118568D01*
X771766Y122485D01*
X767849Y122485D01*
X767849Y118568D01*
X769045Y119967D02*
X769916Y119967D01*
X770351Y120247D01*
X770351Y120387D01*
X769916Y120667D01*
X770351Y120946D01*
X770351Y121086D01*
X769916Y121366D01*
X769263Y121366D01*
X769045Y121366D01*
X769263Y120667D02*
X769916Y120667D01*
X769263Y121366D02*
X769263Y119967D01*
X767957Y146000D02*
X771657Y146000D01*
X769807Y144150D02*
X769807Y147850D01*
X768035Y169701D02*
X771579Y169701D01*
X769807Y172726D01*
X768035Y169701D01*
X769118Y170081D02*
X769118Y170840D01*
X769512Y171347D01*
X769906Y171347D01*
X770299Y170840D01*
X770299Y170081D01*
X769118Y170461D02*
X770299Y170461D01*
X769807Y194471D02*
X772282Y196946D01*
X769807Y199421D01*
X767332Y196946D01*
X769807Y194471D01*
X769127Y196446D02*
X769127Y197196D01*
X769515Y197696D01*
X769904Y197696D01*
X770293Y197196D01*
X770293Y196446D01*
X769127Y196821D02*
X770293Y196821D01*
X768207Y222420D02*
G75*
D01*
G02X768207Y222420I1600J0*
G01*
X768331Y246416D02*
X771283Y246416D01*
X771283Y249369D01*
X768331Y249369D01*
X768331Y246416D01*
X770217Y247682D02*
X769889Y247471D01*
X769561Y247471D01*
X769233Y247682D01*
X769233Y248315D01*
X769561Y248525D01*
X769889Y248525D01*
X770217Y248315D01*
X768508Y273366D02*
G75*
D01*
G02X768508Y273366I1299J0*
G01*
X770168Y273180D02*
X769879Y272995D01*
X769591Y272995D01*
X769302Y273180D01*
X769302Y273737D01*
X769591Y273923D01*
X769879Y273923D01*
X770168Y273737D01*
X768528Y297560D02*
X771087Y297560D01*
X769807Y299744D01*
X768528Y297560D01*
X768626Y323131D02*
X770988Y323131D01*
X770988Y325493D01*
X768626Y325493D01*
X768626Y323131D01*
G54D12*
X219471Y31912D02*
X223647Y36088D01*
X219471Y36088D02*
X223647Y31912D01*
X164353Y31912D02*
X168529Y36088D01*
X164353Y36088D02*
X168529Y31912D01*
X252000Y78700D02*
X255300Y82000D01*
X252000Y85300D01*
X248700Y82000D01*
X252000Y78700D01*
X252000Y58700D02*
X255300Y62000D01*
X252000Y65300D01*
X248700Y62000D01*
X252000Y58700D01*
X252000Y68700D02*
X255300Y72000D01*
X252000Y75300D01*
X248700Y72000D01*
X252000Y68700D01*
X29441Y110157D02*
G75*
D01*
G02X29441Y110157I2559J0*
G01*
X31005Y109426D02*
X31005Y110523D01*
X31573Y111254D01*
X32142Y111254D01*
X32711Y110523D01*
X32711Y109426D01*
X31005Y109975D02*
X32711Y109975D01*
X29441Y127283D02*
X34559Y127283D01*
X34559Y132402D01*
X29441Y132402D01*
X29441Y127283D01*
X31005Y129111D02*
X31005Y130208D01*
X31573Y130939D01*
X32142Y130939D01*
X32711Y130208D01*
X32711Y129111D01*
X31005Y129660D02*
X32711Y129660D01*
X141638Y263819D02*
G75*
D01*
G02X141638Y263819I2362J0*
G01*
X143081Y263144D02*
X144131Y263144D01*
X144656Y263481D01*
X144656Y263650D01*
X144131Y263988D01*
X144656Y264325D01*
X144656Y264494D01*
X144131Y264831D01*
X143344Y264831D01*
X143081Y264831D01*
X143344Y263988D02*
X144131Y263988D01*
X143344Y264831D02*
X143344Y263144D01*
X141638Y116181D02*
G75*
D01*
G02X141638Y116181I2362J0*
G01*
X143081Y115506D02*
X144131Y115506D01*
X144656Y115844D01*
X144656Y116012D01*
X144131Y116350D01*
X144656Y116687D01*
X144656Y116856D01*
X144131Y117193D01*
X143344Y117193D01*
X143081Y117193D01*
X143344Y116350D02*
X144131Y116350D01*
X143344Y117193D02*
X143344Y115506D01*
X286353Y139912D02*
X290529Y144088D01*
X286353Y144088D02*
X290529Y139912D01*
X341471Y139912D02*
X345647Y144088D01*
X341471Y144088D02*
X345647Y139912D01*
X407819Y190000D02*
G75*
D01*
G02X407819Y190000I2362J0*
G01*
X409262Y189325D02*
X410312Y189325D01*
X410837Y189663D01*
X410837Y189831D01*
X410312Y190169D01*
X410837Y190506D01*
X410837Y190675D01*
X410312Y191012D01*
X409525Y191012D01*
X409262Y191012D01*
X409525Y190169D02*
X410312Y190169D01*
X409525Y191012D02*
X409525Y189325D01*
X555457Y190000D02*
G75*
D01*
G02X555457Y190000I2362J0*
G01*
X556900Y189325D02*
X557950Y189325D01*
X558475Y189663D01*
X558475Y189831D01*
X557950Y190169D01*
X558475Y190506D01*
X558475Y190675D01*
X557950Y191012D01*
X557163Y191012D01*
X556900Y191012D01*
X557163Y190169D02*
X557950Y190169D01*
X557163Y191012D02*
X557163Y189325D01*
X615000Y149216D02*
X617784Y152000D01*
X615000Y154784D01*
X612216Y152000D01*
X615000Y149216D01*
X614234Y151438D02*
X615109Y151438D01*
X615547Y151719D01*
X615547Y151859D01*
X615109Y152141D01*
X615547Y152422D01*
X615547Y152562D01*
X615109Y152844D01*
X614453Y152844D01*
X614234Y152844D01*
X614453Y152141D02*
X615109Y152141D01*
X614453Y152844D02*
X614453Y151438D01*
X625000Y149216D02*
X627784Y152000D01*
X625000Y154784D01*
X622216Y152000D01*
X625000Y149216D01*
X624234Y151438D02*
X625109Y151438D01*
X625547Y151719D01*
X625547Y151859D01*
X625109Y152141D01*
X625547Y152422D01*
X625547Y152562D01*
X625109Y152844D01*
X624453Y152844D01*
X624234Y152844D01*
X624453Y152141D02*
X625109Y152141D01*
X624453Y152844D02*
X624453Y151438D01*
X35000Y161216D02*
X37784Y164000D01*
X35000Y166784D01*
X32216Y164000D01*
X35000Y161216D01*
X34234Y163438D02*
X35109Y163438D01*
X35547Y163719D01*
X35547Y163859D01*
X35109Y164141D01*
X35547Y164422D01*
X35547Y164562D01*
X35109Y164844D01*
X34453Y164844D01*
X34234Y164844D01*
X34453Y164141D02*
X35109Y164141D01*
X34453Y164844D02*
X34453Y163438D01*
X25000Y161216D02*
X27784Y164000D01*
X25000Y166784D01*
X22216Y164000D01*
X25000Y161216D01*
X24234Y163438D02*
X25109Y163438D01*
X25547Y163719D01*
X25547Y163859D01*
X25109Y164141D01*
X25547Y164422D01*
X25547Y164562D01*
X25109Y164844D01*
X24453Y164844D01*
X24234Y164844D01*
X24453Y164141D02*
X25109Y164141D01*
X24453Y164844D02*
X24453Y163438D01*
X611441Y195843D02*
G75*
D01*
G02X611441Y195843I2559J0*
G01*
X613005Y195111D02*
X613005Y196208D01*
X613573Y196939D01*
X614142Y196939D01*
X614711Y196208D01*
X614711Y195111D01*
X613005Y195660D02*
X614711Y195660D01*
X611441Y173598D02*
X616559Y173598D01*
X616559Y178717D01*
X611441Y178717D01*
X611441Y173598D01*
X613005Y175426D02*
X613005Y176523D01*
X613573Y177254D01*
X614142Y177254D01*
X614711Y176523D01*
X614711Y175426D01*
X613005Y175975D02*
X614711Y175975D01*
X46791Y196264D02*
X52894Y196264D01*
X49843Y201472D01*
X46791Y196264D01*
X48656Y196918D02*
X50012Y196918D01*
X50690Y197353D01*
X50690Y197571D01*
X50012Y198007D01*
X50690Y198443D01*
X50690Y198661D01*
X50012Y199097D01*
X48995Y199097D01*
X48656Y199097D01*
X48995Y198007D02*
X50012Y198007D01*
X48995Y199097D02*
X48995Y196918D01*
X27106Y196264D02*
X33209Y196264D01*
X30157Y201472D01*
X27106Y196264D01*
X28971Y196918D02*
X30327Y196918D01*
X31005Y197353D01*
X31005Y197571D01*
X30327Y198007D01*
X31005Y198443D01*
X31005Y198661D01*
X30327Y199097D01*
X29310Y199097D01*
X28971Y199097D01*
X29310Y198007D02*
X30327Y198007D01*
X29310Y199097D02*
X29310Y196918D01*
X36949Y185634D02*
X43051Y185634D01*
X40000Y190843D01*
X36949Y185634D01*
X38813Y186288D02*
X40170Y186288D01*
X40848Y186724D01*
X40848Y186942D01*
X40170Y187377D01*
X40848Y187813D01*
X40848Y188031D01*
X40170Y188467D01*
X39152Y188467D01*
X38813Y188467D01*
X39152Y187377D02*
X40170Y187377D01*
X39152Y188467D02*
X39152Y186288D01*
X65000Y219216D02*
X67784Y222000D01*
X65000Y224784D01*
X62216Y222000D01*
X65000Y219216D01*
X64234Y221438D02*
X65109Y221438D01*
X65547Y221719D01*
X65547Y221859D01*
X65109Y222141D01*
X65547Y222422D01*
X65547Y222562D01*
X65109Y222844D01*
X64453Y222844D01*
X64234Y222844D01*
X64453Y222141D02*
X65109Y222141D01*
X64453Y222844D02*
X64453Y221438D01*
X75000Y219216D02*
X77784Y222000D01*
X75000Y224784D01*
X72216Y222000D01*
X75000Y219216D01*
X74234Y221438D02*
X75109Y221438D01*
X75547Y221719D01*
X75547Y221859D01*
X75109Y222141D01*
X75547Y222422D01*
X75547Y222562D01*
X75109Y222844D01*
X74453Y222844D01*
X74234Y222844D01*
X74453Y222141D02*
X75109Y222141D01*
X74453Y222844D02*
X74453Y221438D01*
X29441Y258157D02*
G75*
D01*
G02X29441Y258157I2559J0*
G01*
X31005Y257426D02*
X31005Y258523D01*
X31573Y259254D01*
X32142Y259254D01*
X32711Y258523D01*
X32711Y257426D01*
X31005Y257975D02*
X32711Y257975D01*
X29441Y275283D02*
X34559Y275283D01*
X34559Y280402D01*
X29441Y280402D01*
X29441Y275283D01*
X31005Y277111D02*
X31005Y278208D01*
X31573Y278939D01*
X32142Y278939D01*
X32711Y278208D01*
X32711Y277111D01*
X31005Y277660D02*
X32711Y277660D01*
X267471Y265912D02*
X271647Y270088D01*
X267471Y270088D02*
X271647Y265912D01*
X212353Y265912D02*
X216529Y270088D01*
X212353Y270088D02*
X216529Y265912D01*
X449912Y375471D02*
X454088Y379647D01*
X449912Y379647D02*
X454088Y375471D01*
X449912Y320353D02*
X454088Y324529D01*
X449912Y324529D02*
X454088Y320353D01*
X390000Y336700D02*
X393300Y340000D01*
X390000Y343300D01*
X386700Y340000D01*
X390000Y336700D01*
X410000Y336700D02*
X413300Y340000D01*
X410000Y343300D01*
X406700Y340000D01*
X410000Y336700D01*
X400000Y336700D02*
X403300Y340000D01*
X400000Y343300D01*
X396700Y340000D01*
X400000Y336700D01*
X629000Y10429D02*
X639571Y21000D01*
X629000Y31571D01*
X618429Y21000D01*
X629000Y10429D01*
X631076Y19932D02*
X629415Y18864D01*
X627754Y18864D01*
X626093Y19932D01*
X626093Y23136D01*
X627754Y24204D01*
X629415Y24204D01*
X631076Y23136D01*
X21000Y377429D02*
X31571Y388000D01*
X21000Y398571D01*
X10429Y388000D01*
X21000Y377429D01*
X23076Y386932D02*
X21415Y385864D01*
X19754Y385864D01*
X18093Y386932D01*
X18093Y390136D01*
X19754Y391204D01*
X21415Y391204D01*
X23076Y390136D01*
X628000Y306429D02*
X638571Y317000D01*
X628000Y327571D01*
X617429Y317000D01*
X628000Y306429D01*
X630076Y315932D02*
X628415Y314864D01*
X626754Y314864D01*
X625093Y315932D01*
X625093Y319136D01*
X626754Y320204D01*
X628415Y320204D01*
X630076Y319136D01*
X204000Y56429D02*
X214571Y67000D01*
X204000Y77571D01*
X193429Y67000D01*
X204000Y56429D01*
X206076Y65932D02*
X204415Y64864D01*
X202754Y64864D01*
X201093Y65932D01*
X201093Y69136D01*
X202754Y70204D01*
X204415Y70204D01*
X206076Y69136D01*
X771883Y-84327D02*
X770222Y-85395D01*
X768561Y-85395D01*
X766900Y-84327D01*
X766900Y-81123D01*
X768561Y-80055D01*
X770222Y-80055D01*
X771883Y-81123D01*
X769807Y-93830D02*
X780378Y-83259D01*
X769807Y-72688D01*
X759236Y-83259D01*
X769807Y-93830D01*
X812196Y-79884D02*
X814820Y-78197D01*
X814820Y-86633D01*
X810883Y-86633D02*
X818757Y-86633D01*
X830568Y-83259D02*
X822694Y-83259D01*
X829256Y-78197D01*
X829256Y-86633D01*
X827944Y-86633D02*
X830568Y-86633D01*
X834505Y-84946D02*
X837130Y-86633D01*
X839755Y-86633D01*
X842379Y-84946D01*
X842379Y-81572D01*
X842379Y-79884D01*
X839755Y-78197D01*
X837130Y-78197D01*
X834505Y-79884D01*
X834505Y-81572D01*
X837130Y-83259D01*
X839755Y-83259D01*
X842379Y-81572D01*
X850253Y-86633D02*
X850253Y-85790D01*
X866001Y-78197D02*
X858127Y-78197D01*
X858127Y-81572D01*
X863377Y-81572D01*
X866001Y-83259D01*
X866001Y-84946D01*
X863377Y-86633D01*
X858127Y-86633D01*
X869938Y-79884D02*
X872563Y-78197D01*
X875188Y-78197D01*
X877812Y-79884D01*
X877812Y-84946D01*
X875188Y-86633D01*
X872563Y-86633D01*
X869938Y-84946D01*
X869938Y-79884D01*
X877812Y-79884D02*
X869938Y-84946D01*
X881749Y-79884D02*
X884374Y-78197D01*
X886999Y-78197D01*
X889623Y-79884D01*
X889623Y-84946D01*
X886999Y-86633D01*
X884374Y-86633D01*
X881749Y-84946D01*
X881749Y-79884D01*
X889623Y-79884D02*
X881749Y-84946D01*
X893560Y-79884D02*
X896185Y-78197D01*
X898810Y-78197D01*
X901434Y-79884D01*
X901434Y-84946D01*
X898810Y-86633D01*
X896185Y-86633D01*
X893560Y-84946D01*
X893560Y-79884D01*
X901434Y-79884D02*
X893560Y-84946D01*
X905371Y-79884D02*
X907996Y-78197D01*
X910621Y-78197D01*
X913245Y-79884D01*
X913245Y-84946D01*
X910621Y-86633D01*
X907996Y-86633D01*
X905371Y-84946D01*
X905371Y-79884D01*
X913245Y-79884D02*
X905371Y-84946D01*
X970726Y-83259D02*
X962852Y-83259D01*
X969413Y-78197D01*
X969413Y-86633D01*
X968101Y-86633D02*
X970726Y-86633D01*
X1038049Y-86633D02*
X1038049Y-78197D01*
X1043298Y-78197D01*
X1045923Y-79884D01*
X1045923Y-80728D01*
X1043298Y-82415D01*
X1038049Y-82415D01*
X1053797Y-86633D02*
X1053797Y-78197D01*
X1049860Y-78197D02*
X1057734Y-78197D01*
X1061671Y-86633D02*
X1061671Y-78197D01*
X1069545Y-86633D02*
X1069545Y-78197D01*
X1061671Y-82415D02*
X1069545Y-82415D01*
X1107340Y-79884D02*
X1109965Y-78197D01*
X1112589Y-78197D01*
X1115214Y-79884D01*
X1115214Y-84946D01*
X1112589Y-86633D01*
X1109965Y-86633D01*
X1107340Y-84946D01*
X1107340Y-79884D01*
X1115214Y-79884D02*
X1107340Y-84946D01*
X1137524Y-86633D02*
X1136211Y-86633D01*
X1133587Y-84946D01*
X1133587Y-79884D01*
X1136211Y-78197D01*
X1137524Y-78197D01*
X1142773Y-86633D02*
X1142773Y-78197D01*
X1148022Y-78197D01*
X1150647Y-79884D01*
X1150647Y-80728D01*
X1148022Y-82415D01*
X1142773Y-82415D01*
X1144085Y-82415D02*
X1150647Y-86633D01*
X1154584Y-84946D02*
X1157209Y-86633D01*
X1159833Y-86633D01*
X1162458Y-84946D01*
X1162458Y-79884D01*
X1159833Y-78197D01*
X1157209Y-78197D01*
X1154584Y-79884D01*
X1154584Y-84946D01*
X1166395Y-78197D02*
X1166395Y-84946D01*
X1169020Y-86633D01*
X1171644Y-86633D01*
X1174269Y-84946D01*
X1174269Y-78197D01*
X1178206Y-86633D02*
X1178206Y-78197D01*
X1186080Y-86633D01*
X1186080Y-78197D01*
X1190017Y-86633D02*
X1195266Y-86633D01*
X1197891Y-84946D01*
X1197891Y-79884D01*
X1195266Y-78197D01*
X1190017Y-78197D01*
X1191329Y-78197D02*
X1191329Y-86633D01*
X1203140Y-78197D02*
X1204453Y-78197D01*
X1207077Y-79884D01*
X1207077Y-84946D01*
X1204453Y-86633D01*
X1203140Y-86633D01*
X823350Y-52724D02*
X819413Y-52724D01*
X816789Y-54411D01*
X816789Y-57786D01*
X816789Y-59473D01*
X819413Y-61160D01*
X822038Y-61160D01*
X824663Y-59473D01*
X824663Y-57786D01*
X822038Y-56098D01*
X819413Y-56098D01*
X816789Y-57786D01*
X829912Y-54411D02*
X832537Y-52724D01*
X832537Y-61160D01*
X828600Y-61160D02*
X836474Y-61160D01*
X844348Y-61160D02*
X844348Y-60317D01*
X852222Y-54411D02*
X854846Y-52724D01*
X857471Y-52724D01*
X860096Y-54411D01*
X860096Y-59473D01*
X857471Y-61160D01*
X854846Y-61160D01*
X852222Y-59473D01*
X852222Y-54411D01*
X860096Y-54411D02*
X852222Y-59473D01*
X864033Y-54411D02*
X866657Y-52724D01*
X869282Y-52724D01*
X871907Y-54411D01*
X871907Y-55255D01*
X864033Y-61160D01*
X871907Y-61160D01*
X871907Y-60317D01*
X877156Y-53567D02*
X878469Y-52724D01*
X881093Y-52724D01*
X883718Y-54411D01*
X883718Y-56098D01*
X882406Y-56942D01*
X883718Y-57786D01*
X883718Y-59473D01*
X881093Y-61160D01*
X878469Y-61160D01*
X877156Y-60317D01*
X878469Y-56942D02*
X882406Y-56942D01*
X894217Y-52724D02*
X890280Y-52724D01*
X887655Y-54411D01*
X887655Y-57786D01*
X887655Y-59473D01*
X890280Y-61160D01*
X892904Y-61160D01*
X895529Y-59473D01*
X895529Y-57786D01*
X892904Y-56098D01*
X890280Y-56098D01*
X887655Y-57786D01*
X899466Y-54411D02*
X902091Y-52724D01*
X904715Y-52724D01*
X907340Y-54411D01*
X907340Y-55255D01*
X899466Y-61160D01*
X907340Y-61160D01*
X907340Y-60317D01*
X964164Y-53567D02*
X965476Y-52724D01*
X968101Y-52724D01*
X970726Y-54411D01*
X970726Y-56098D01*
X969413Y-56942D01*
X970726Y-57786D01*
X970726Y-59473D01*
X968101Y-61160D01*
X965476Y-61160D01*
X964164Y-60317D01*
X965476Y-56942D02*
X969413Y-56942D01*
X1038049Y-61160D02*
X1038049Y-52724D01*
X1043298Y-52724D01*
X1045923Y-54411D01*
X1045923Y-55255D01*
X1043298Y-56942D01*
X1038049Y-56942D01*
X1053797Y-61160D02*
X1053797Y-52724D01*
X1049860Y-52724D02*
X1057734Y-52724D01*
X1061671Y-61160D02*
X1061671Y-52724D01*
X1069545Y-61160D02*
X1069545Y-52724D01*
X1061671Y-56942D02*
X1069545Y-56942D01*
X1107340Y-54411D02*
X1109965Y-52724D01*
X1112589Y-52724D01*
X1115214Y-54411D01*
X1115214Y-59473D01*
X1112589Y-61160D01*
X1109965Y-61160D01*
X1107340Y-59473D01*
X1107340Y-54411D01*
X1115214Y-54411D02*
X1107340Y-59473D01*
X1137524Y-61160D02*
X1136211Y-61160D01*
X1133587Y-59473D01*
X1133587Y-54411D01*
X1136211Y-52724D01*
X1137524Y-52724D01*
X1142773Y-61160D02*
X1142773Y-52724D01*
X1148022Y-52724D01*
X1150647Y-54411D01*
X1150647Y-55255D01*
X1148022Y-56942D01*
X1142773Y-56942D01*
X1144085Y-56942D02*
X1150647Y-61160D01*
X1154584Y-59473D02*
X1157209Y-61160D01*
X1159833Y-61160D01*
X1162458Y-59473D01*
X1162458Y-54411D01*
X1159833Y-52724D01*
X1157209Y-52724D01*
X1154584Y-54411D01*
X1154584Y-59473D01*
X1166395Y-52724D02*
X1166395Y-59473D01*
X1169020Y-61160D01*
X1171644Y-61160D01*
X1174269Y-59473D01*
X1174269Y-52724D01*
X1178206Y-61160D02*
X1178206Y-52724D01*
X1186080Y-61160D01*
X1186080Y-52724D01*
X1190017Y-61160D02*
X1195266Y-61160D01*
X1197891Y-59473D01*
X1197891Y-54411D01*
X1195266Y-52724D01*
X1190017Y-52724D01*
X1191329Y-52724D02*
X1191329Y-61160D01*
X1203140Y-52724D02*
X1204453Y-52724D01*
X1207077Y-54411D01*
X1207077Y-59473D01*
X1204453Y-61160D01*
X1203140Y-61160D01*
X768621Y-60183D02*
X769977Y-60183D01*
X770655Y-59747D01*
X770655Y-59529D01*
X769977Y-59093D01*
X770655Y-58657D01*
X770655Y-58439D01*
X769977Y-58004D01*
X768960Y-58004D01*
X768621Y-58004D01*
X768960Y-59093D02*
X769977Y-59093D01*
X768960Y-58004D02*
X768960Y-60183D01*
X766756Y-60837D02*
X772858Y-60837D01*
X769807Y-55628D01*
X766756Y-60837D01*
X767719Y-30225D02*
X771895Y-34400D01*
X767719Y-34400D02*
X771895Y-30225D01*
X824663Y-27251D02*
X816789Y-27251D01*
X816789Y-30625D01*
X822038Y-30625D01*
X824663Y-32312D01*
X824663Y-34000D01*
X822038Y-35687D01*
X816789Y-35687D01*
X828600Y-34000D02*
X831224Y-35687D01*
X833849Y-35687D01*
X836474Y-34000D01*
X836474Y-30625D01*
X836474Y-28938D01*
X833849Y-27251D01*
X831224Y-27251D01*
X828600Y-28938D01*
X828600Y-30625D01*
X831224Y-32312D01*
X833849Y-32312D01*
X836474Y-30625D01*
X844348Y-35687D02*
X844348Y-34843D01*
X852222Y-28938D02*
X854846Y-27251D01*
X857471Y-27251D01*
X860096Y-28938D01*
X860096Y-34000D01*
X857471Y-35687D01*
X854846Y-35687D01*
X852222Y-34000D01*
X852222Y-28938D01*
X860096Y-28938D02*
X852222Y-34000D01*
X871907Y-27251D02*
X864033Y-27251D01*
X864033Y-30625D01*
X869282Y-30625D01*
X871907Y-32312D01*
X871907Y-34000D01*
X869282Y-35687D01*
X864033Y-35687D01*
X883718Y-27251D02*
X875844Y-27251D01*
X875844Y-30625D01*
X881093Y-30625D01*
X883718Y-32312D01*
X883718Y-34000D01*
X881093Y-35687D01*
X875844Y-35687D01*
X888967Y-28938D02*
X891592Y-27251D01*
X891592Y-35687D01*
X887655Y-35687D02*
X895529Y-35687D01*
X899466Y-28938D02*
X902091Y-27251D01*
X904715Y-27251D01*
X907340Y-28938D01*
X907340Y-29782D01*
X899466Y-35687D01*
X907340Y-35687D01*
X907340Y-34843D01*
X968101Y-35687D02*
X965476Y-35687D01*
X962852Y-34000D01*
X962852Y-32312D01*
X964164Y-31469D01*
X962852Y-30625D01*
X962852Y-28938D01*
X965476Y-27251D01*
X968101Y-27251D01*
X970726Y-28938D01*
X970726Y-30625D01*
X969413Y-31469D01*
X970726Y-32312D01*
X970726Y-34000D01*
X968101Y-35687D01*
X964164Y-31469D02*
X969413Y-31469D01*
X1038049Y-35687D02*
X1038049Y-27251D01*
X1043298Y-27251D01*
X1045923Y-28938D01*
X1045923Y-29782D01*
X1043298Y-31469D01*
X1038049Y-31469D01*
X1053797Y-35687D02*
X1053797Y-27251D01*
X1049860Y-27251D02*
X1057734Y-27251D01*
X1061671Y-35687D02*
X1061671Y-27251D01*
X1069545Y-35687D02*
X1069545Y-27251D01*
X1061671Y-31469D02*
X1069545Y-31469D01*
X1107340Y-28938D02*
X1109965Y-27251D01*
X1112589Y-27251D01*
X1115214Y-28938D01*
X1115214Y-34000D01*
X1112589Y-35687D01*
X1109965Y-35687D01*
X1107340Y-34000D01*
X1107340Y-28938D01*
X1115214Y-28938D02*
X1107340Y-34000D01*
X1137524Y-35687D02*
X1136211Y-35687D01*
X1133587Y-34000D01*
X1133587Y-28938D01*
X1136211Y-27251D01*
X1137524Y-27251D01*
X1142773Y-35687D02*
X1142773Y-27251D01*
X1148022Y-27251D01*
X1150647Y-28938D01*
X1150647Y-29782D01*
X1148022Y-31469D01*
X1142773Y-31469D01*
X1144085Y-31469D02*
X1150647Y-35687D01*
X1154584Y-34000D02*
X1157209Y-35687D01*
X1159833Y-35687D01*
X1162458Y-34000D01*
X1162458Y-28938D01*
X1159833Y-27251D01*
X1157209Y-27251D01*
X1154584Y-28938D01*
X1154584Y-34000D01*
X1166395Y-27251D02*
X1166395Y-34000D01*
X1169020Y-35687D01*
X1171644Y-35687D01*
X1174269Y-34000D01*
X1174269Y-27251D01*
X1178206Y-35687D02*
X1178206Y-27251D01*
X1186080Y-35687D01*
X1186080Y-27251D01*
X1190017Y-35687D02*
X1195266Y-35687D01*
X1197891Y-34000D01*
X1197891Y-28938D01*
X1195266Y-27251D01*
X1190017Y-27251D01*
X1191329Y-27251D02*
X1191329Y-35687D01*
X1203140Y-27251D02*
X1204453Y-27251D01*
X1207077Y-28938D01*
X1207077Y-34000D01*
X1204453Y-35687D01*
X1203140Y-35687D01*
X768812Y-7570D02*
X768812Y-6474D01*
X769381Y-5743D01*
X769949Y-5743D01*
X770518Y-6474D01*
X770518Y-7570D01*
X768812Y-7022D02*
X770518Y-7022D01*
X767248Y-6839D02*
G75*
D01*
G02X767248Y-6839I2559J0*
G01*
X824663Y-1777D02*
X816789Y-1777D01*
X816789Y-5152D01*
X822038Y-5152D01*
X824663Y-6839D01*
X824663Y-8527D01*
X822038Y-10214D01*
X816789Y-10214D01*
X829912Y-3465D02*
X832537Y-1777D01*
X832537Y-10214D01*
X828600Y-10214D02*
X836474Y-10214D01*
X844348Y-10214D02*
X844348Y-9370D01*
X853534Y-3465D02*
X856159Y-1777D01*
X856159Y-10214D01*
X852222Y-10214D02*
X860096Y-10214D01*
X869282Y-10214D02*
X866657Y-10214D01*
X864033Y-8527D01*
X864033Y-6839D01*
X865345Y-5996D01*
X864033Y-5152D01*
X864033Y-3465D01*
X866657Y-1777D01*
X869282Y-1777D01*
X871907Y-3465D01*
X871907Y-5152D01*
X870594Y-5996D01*
X871907Y-6839D01*
X871907Y-8527D01*
X869282Y-10214D01*
X865345Y-5996D02*
X870594Y-5996D01*
X877156Y-3465D02*
X879781Y-1777D01*
X879781Y-10214D01*
X875844Y-10214D02*
X883718Y-10214D01*
X888967Y-3465D02*
X891592Y-1777D01*
X891592Y-10214D01*
X887655Y-10214D02*
X895529Y-10214D01*
X899466Y-3465D02*
X902091Y-1777D01*
X904715Y-1777D01*
X907340Y-3465D01*
X907340Y-8527D01*
X904715Y-10214D01*
X902091Y-10214D01*
X899466Y-8527D01*
X899466Y-3465D01*
X907340Y-3465D02*
X899466Y-8527D01*
X964164Y-2621D02*
X965476Y-1777D01*
X968101Y-1777D01*
X970726Y-3465D01*
X970726Y-5152D01*
X969413Y-5996D01*
X970726Y-6839D01*
X970726Y-8527D01*
X968101Y-10214D01*
X965476Y-10214D01*
X964164Y-9370D01*
X965476Y-5996D02*
X969413Y-5996D01*
X1038049Y-10214D02*
X1038049Y-1777D01*
X1043298Y-1777D01*
X1045923Y-3465D01*
X1045923Y-4308D01*
X1043298Y-5996D01*
X1038049Y-5996D01*
X1053797Y-10214D02*
X1053797Y-1777D01*
X1049860Y-1777D02*
X1057734Y-1777D01*
X1061671Y-10214D02*
X1061671Y-1777D01*
X1069545Y-10214D02*
X1069545Y-1777D01*
X1061671Y-5996D02*
X1069545Y-5996D01*
X1107340Y-3465D02*
X1109965Y-1777D01*
X1112589Y-1777D01*
X1115214Y-3465D01*
X1115214Y-8527D01*
X1112589Y-10214D01*
X1109965Y-10214D01*
X1107340Y-8527D01*
X1107340Y-3465D01*
X1115214Y-3465D02*
X1107340Y-8527D01*
X1137524Y-10214D02*
X1136211Y-10214D01*
X1133587Y-8527D01*
X1133587Y-3465D01*
X1136211Y-1777D01*
X1137524Y-1777D01*
X1142773Y-10214D02*
X1142773Y-1777D01*
X1148022Y-1777D01*
X1150647Y-3465D01*
X1150647Y-4308D01*
X1148022Y-5996D01*
X1142773Y-5996D01*
X1144085Y-5996D02*
X1150647Y-10214D01*
X1154584Y-8527D02*
X1157209Y-10214D01*
X1159833Y-10214D01*
X1162458Y-8527D01*
X1162458Y-3465D01*
X1159833Y-1777D01*
X1157209Y-1777D01*
X1154584Y-3465D01*
X1154584Y-8527D01*
X1166395Y-1777D02*
X1166395Y-8527D01*
X1169020Y-10214D01*
X1171644Y-10214D01*
X1174269Y-8527D01*
X1174269Y-1777D01*
X1178206Y-10214D02*
X1178206Y-1777D01*
X1186080Y-10214D01*
X1186080Y-1777D01*
X1190017Y-10214D02*
X1195266Y-10214D01*
X1197891Y-8527D01*
X1197891Y-3465D01*
X1195266Y-1777D01*
X1190017Y-1777D01*
X1191329Y-1777D02*
X1191329Y-10214D01*
X1203140Y-1777D02*
X1204453Y-1777D01*
X1207077Y-3465D01*
X1207077Y-8527D01*
X1204453Y-10214D01*
X1203140Y-10214D01*
X824663Y23696D02*
X816789Y23696D01*
X816789Y20321D01*
X822038Y20321D01*
X824663Y18634D01*
X824663Y16947D01*
X822038Y15259D01*
X816789Y15259D01*
X829912Y22009D02*
X832537Y23696D01*
X832537Y15259D01*
X828600Y15259D02*
X836474Y15259D01*
X844348Y15259D02*
X844348Y16103D01*
X853534Y22009D02*
X856159Y23696D01*
X856159Y15259D01*
X852222Y15259D02*
X860096Y15259D01*
X869282Y15259D02*
X866657Y15259D01*
X864033Y16947D01*
X864033Y18634D01*
X865345Y19478D01*
X864033Y20321D01*
X864033Y22009D01*
X866657Y23696D01*
X869282Y23696D01*
X871907Y22009D01*
X871907Y20321D01*
X870594Y19478D01*
X871907Y18634D01*
X871907Y16947D01*
X869282Y15259D01*
X865345Y19478D02*
X870594Y19478D01*
X877156Y22009D02*
X879781Y23696D01*
X879781Y15259D01*
X875844Y15259D02*
X883718Y15259D01*
X887655Y22009D02*
X890280Y23696D01*
X892904Y23696D01*
X895529Y22009D01*
X895529Y16947D01*
X892904Y15259D01*
X890280Y15259D01*
X887655Y16947D01*
X887655Y22009D01*
X895529Y22009D02*
X887655Y16947D01*
X899466Y22009D02*
X902091Y23696D01*
X904715Y23696D01*
X907340Y22009D01*
X907340Y21165D01*
X899466Y15259D01*
X907340Y15259D01*
X907340Y16103D01*
X964164Y22852D02*
X965476Y23696D01*
X968101Y23696D01*
X970726Y22009D01*
X970726Y20321D01*
X969413Y19478D01*
X970726Y18634D01*
X970726Y16947D01*
X968101Y15259D01*
X965476Y15259D01*
X964164Y16103D01*
X965476Y19478D02*
X969413Y19478D01*
X1038049Y15259D02*
X1038049Y23696D01*
X1043298Y23696D01*
X1045923Y22009D01*
X1045923Y21165D01*
X1043298Y19478D01*
X1038049Y19478D01*
X1053797Y15259D02*
X1053797Y23696D01*
X1049860Y23696D02*
X1057734Y23696D01*
X1061671Y15259D02*
X1061671Y23696D01*
X1069545Y15259D02*
X1069545Y23696D01*
X1061671Y19478D02*
X1069545Y19478D01*
X1107340Y22009D02*
X1109965Y23696D01*
X1112589Y23696D01*
X1115214Y22009D01*
X1115214Y16947D01*
X1112589Y15259D01*
X1109965Y15259D01*
X1107340Y16947D01*
X1107340Y22009D01*
X1115214Y22009D02*
X1107340Y16947D01*
X1137524Y15259D02*
X1136211Y15259D01*
X1133587Y16947D01*
X1133587Y22009D01*
X1136211Y23696D01*
X1137524Y23696D01*
X1142773Y15259D02*
X1142773Y23696D01*
X1148022Y23696D01*
X1150647Y22009D01*
X1150647Y21165D01*
X1148022Y19478D01*
X1142773Y19478D01*
X1144085Y19478D02*
X1150647Y15259D01*
X1154584Y16947D02*
X1157209Y15259D01*
X1159833Y15259D01*
X1162458Y16947D01*
X1162458Y22009D01*
X1159833Y23696D01*
X1157209Y23696D01*
X1154584Y22009D01*
X1154584Y16947D01*
X1166395Y23696D02*
X1166395Y16947D01*
X1169020Y15259D01*
X1171644Y15259D01*
X1174269Y16947D01*
X1174269Y23696D01*
X1178206Y15259D02*
X1178206Y23696D01*
X1186080Y15259D01*
X1186080Y23696D01*
X1190017Y15259D02*
X1195266Y15259D01*
X1197891Y16947D01*
X1197891Y22009D01*
X1195266Y23696D01*
X1190017Y23696D01*
X1191329Y23696D02*
X1191329Y15259D01*
X1203140Y23696D02*
X1204453Y23696D01*
X1207077Y22009D01*
X1207077Y16947D01*
X1204453Y15259D01*
X1203140Y15259D01*
X768812Y17903D02*
X768812Y19000D01*
X769381Y19731D01*
X769949Y19731D01*
X770518Y19000D01*
X770518Y17903D01*
X768812Y18451D02*
X770518Y18451D01*
X767248Y16075D02*
X772366Y16075D01*
X772366Y21193D01*
X767248Y21193D01*
X767248Y16075D01*
X824663Y44107D02*
X816789Y44107D01*
X823350Y49169D01*
X823350Y40733D01*
X822038Y40733D02*
X824663Y40733D01*
X832537Y40733D02*
X832537Y44951D01*
X836474Y47482D01*
X836474Y49169D01*
X828600Y49169D01*
X828600Y47482D01*
X844348Y40733D02*
X844348Y41576D01*
X852222Y47482D02*
X854846Y49169D01*
X857471Y49169D01*
X860096Y47482D01*
X860096Y46638D01*
X852222Y40733D01*
X860096Y40733D01*
X860096Y41576D01*
X871907Y44107D02*
X864033Y44107D01*
X870594Y49169D01*
X870594Y40733D01*
X869282Y40733D02*
X871907Y40733D01*
X883718Y44107D02*
X875844Y44107D01*
X882406Y49169D01*
X882406Y40733D01*
X881093Y40733D02*
X883718Y40733D01*
X887655Y47482D02*
X890280Y49169D01*
X892904Y49169D01*
X895529Y47482D01*
X895529Y42420D01*
X892904Y40733D01*
X890280Y40733D01*
X887655Y42420D01*
X887655Y47482D01*
X895529Y47482D02*
X887655Y42420D01*
X899466Y42420D02*
X902091Y40733D01*
X904715Y40733D01*
X907340Y42420D01*
X907340Y45794D01*
X907340Y47482D01*
X904715Y49169D01*
X902091Y49169D01*
X899466Y47482D01*
X899466Y45794D01*
X902091Y44107D01*
X904715Y44107D01*
X907340Y45794D01*
X970726Y44107D02*
X962852Y44107D01*
X969413Y49169D01*
X969413Y40733D01*
X968101Y40733D02*
X970726Y40733D01*
X1038049Y40733D02*
X1038049Y49169D01*
X1043298Y49169D01*
X1045923Y47482D01*
X1045923Y46638D01*
X1043298Y44951D01*
X1038049Y44951D01*
X1053797Y40733D02*
X1053797Y49169D01*
X1049860Y49169D02*
X1057734Y49169D01*
X1061671Y40733D02*
X1061671Y49169D01*
X1069545Y40733D02*
X1069545Y49169D01*
X1061671Y44951D02*
X1069545Y44951D01*
X1107340Y47482D02*
X1109965Y49169D01*
X1112589Y49169D01*
X1115214Y47482D01*
X1115214Y42420D01*
X1112589Y40733D01*
X1109965Y40733D01*
X1107340Y42420D01*
X1107340Y47482D01*
X1115214Y47482D02*
X1107340Y42420D01*
X1137524Y40733D02*
X1136211Y40733D01*
X1133587Y42420D01*
X1133587Y47482D01*
X1136211Y49169D01*
X1137524Y49169D01*
X1142773Y40733D02*
X1142773Y49169D01*
X1148022Y49169D01*
X1150647Y47482D01*
X1150647Y46638D01*
X1148022Y44951D01*
X1142773Y44951D01*
X1144085Y44951D02*
X1150647Y40733D01*
X1154584Y42420D02*
X1157209Y40733D01*
X1159833Y40733D01*
X1162458Y42420D01*
X1162458Y47482D01*
X1159833Y49169D01*
X1157209Y49169D01*
X1154584Y47482D01*
X1154584Y42420D01*
X1166395Y49169D02*
X1166395Y42420D01*
X1169020Y40733D01*
X1171644Y40733D01*
X1174269Y42420D01*
X1174269Y49169D01*
X1178206Y40733D02*
X1178206Y49169D01*
X1186080Y40733D01*
X1186080Y49169D01*
X1190017Y40733D02*
X1195266Y40733D01*
X1197891Y42420D01*
X1197891Y47482D01*
X1195266Y49169D01*
X1190017Y49169D01*
X1191329Y49169D02*
X1191329Y40733D01*
X1203140Y49169D02*
X1204453Y49169D01*
X1207077Y47482D01*
X1207077Y42420D01*
X1204453Y40733D01*
X1203140Y40733D01*
X768888Y43432D02*
X769938Y43432D01*
X770463Y43770D01*
X770463Y43938D01*
X769938Y44276D01*
X770463Y44613D01*
X770463Y44782D01*
X769938Y45120D01*
X769151Y45120D01*
X768888Y45120D01*
X769151Y44276D02*
X769938Y44276D01*
X769151Y45120D02*
X769151Y43432D01*
X767445Y44107D02*
G75*
D01*
G02X767445Y44107I2362J0*
G01*
X769807Y66280D02*
X773107Y69580D01*
X769807Y72880D01*
X766507Y69580D01*
X769807Y66280D01*
X824663Y69580D02*
X816789Y69580D01*
X823350Y74642D01*
X823350Y66206D01*
X822038Y66206D02*
X824663Y66206D01*
X835161Y74642D02*
X831224Y74642D01*
X828600Y72955D01*
X828600Y69580D01*
X828600Y67893D01*
X831224Y66206D01*
X833849Y66206D01*
X836474Y67893D01*
X836474Y69580D01*
X833849Y71268D01*
X831224Y71268D01*
X828600Y69580D01*
X844348Y66206D02*
X844348Y67049D01*
X858783Y74642D02*
X854846Y74642D01*
X852222Y72955D01*
X852222Y69580D01*
X852222Y67893D01*
X854846Y66206D01*
X857471Y66206D01*
X860096Y67893D01*
X860096Y69580D01*
X857471Y71268D01*
X854846Y71268D01*
X852222Y69580D01*
X867970Y66206D02*
X867970Y70424D01*
X871907Y72955D01*
X871907Y74642D01*
X864033Y74642D01*
X864033Y72955D01*
X875844Y72955D02*
X878469Y74642D01*
X881093Y74642D01*
X883718Y72955D01*
X883718Y67893D01*
X881093Y66206D01*
X878469Y66206D01*
X875844Y67893D01*
X875844Y72955D01*
X883718Y72955D02*
X875844Y67893D01*
X887655Y72955D02*
X890280Y74642D01*
X892904Y74642D01*
X895529Y72955D01*
X895529Y67893D01*
X892904Y66206D01*
X890280Y66206D01*
X887655Y67893D01*
X887655Y72955D01*
X895529Y72955D02*
X887655Y67893D01*
X899466Y72955D02*
X902091Y74642D01*
X904715Y74642D01*
X907340Y72955D01*
X907340Y67893D01*
X904715Y66206D01*
X902091Y66206D01*
X899466Y67893D01*
X899466Y72955D01*
X907340Y72955D02*
X899466Y67893D01*
X969413Y74642D02*
X965476Y74642D01*
X962852Y72955D01*
X962852Y69580D01*
X962852Y67893D01*
X965476Y66206D01*
X968101Y66206D01*
X970726Y67893D01*
X970726Y69580D01*
X968101Y71268D01*
X965476Y71268D01*
X962852Y69580D01*
X1038049Y66206D02*
X1038049Y74642D01*
X1043298Y74642D01*
X1045923Y72955D01*
X1045923Y72111D01*
X1043298Y70424D01*
X1038049Y70424D01*
X1053797Y66206D02*
X1053797Y74642D01*
X1049860Y74642D02*
X1057734Y74642D01*
X1061671Y66206D02*
X1061671Y74642D01*
X1069545Y66206D02*
X1069545Y74642D01*
X1061671Y70424D02*
X1069545Y70424D01*
X1107340Y72955D02*
X1109965Y74642D01*
X1112589Y74642D01*
X1115214Y72955D01*
X1115214Y67893D01*
X1112589Y66206D01*
X1109965Y66206D01*
X1107340Y67893D01*
X1107340Y72955D01*
X1115214Y72955D02*
X1107340Y67893D01*
X1137524Y66206D02*
X1136211Y66206D01*
X1133587Y67893D01*
X1133587Y72955D01*
X1136211Y74642D01*
X1137524Y74642D01*
X1142773Y66206D02*
X1142773Y74642D01*
X1148022Y74642D01*
X1150647Y72955D01*
X1150647Y72111D01*
X1148022Y70424D01*
X1142773Y70424D01*
X1144085Y70424D02*
X1150647Y66206D01*
X1154584Y67893D02*
X1157209Y66206D01*
X1159833Y66206D01*
X1162458Y67893D01*
X1162458Y72955D01*
X1159833Y74642D01*
X1157209Y74642D01*
X1154584Y72955D01*
X1154584Y67893D01*
X1166395Y74642D02*
X1166395Y67893D01*
X1169020Y66206D01*
X1171644Y66206D01*
X1174269Y67893D01*
X1174269Y74642D01*
X1178206Y66206D02*
X1178206Y74642D01*
X1186080Y66206D01*
X1186080Y74642D01*
X1190017Y66206D02*
X1195266Y66206D01*
X1197891Y67893D01*
X1197891Y72955D01*
X1195266Y74642D01*
X1190017Y74642D01*
X1191329Y74642D02*
X1191329Y66206D01*
X1203140Y74642D02*
X1204453Y74642D01*
X1207077Y72955D01*
X1207077Y67893D01*
X1204453Y66206D01*
X1203140Y66206D01*
X769042Y94491D02*
X769916Y94491D01*
X770354Y94772D01*
X770354Y94913D01*
X769916Y95194D01*
X770354Y95475D01*
X770354Y95616D01*
X769916Y95897D01*
X769260Y95897D01*
X769042Y95897D01*
X769260Y95194D02*
X769916Y95194D01*
X769260Y95897D02*
X769260Y94491D01*
X769807Y92270D02*
X772591Y95054D01*
X769807Y97837D01*
X767023Y95054D01*
X769807Y92270D01*
X818101Y99272D02*
X819413Y100115D01*
X822038Y100115D01*
X824663Y98428D01*
X824663Y96741D01*
X823350Y95897D01*
X824663Y95054D01*
X824663Y93366D01*
X822038Y91679D01*
X819413Y91679D01*
X818101Y92523D01*
X819413Y95897D02*
X823350Y95897D01*
X828600Y93366D02*
X831224Y91679D01*
X833849Y91679D01*
X836474Y93366D01*
X836474Y96741D01*
X836474Y98428D01*
X833849Y100115D01*
X831224Y100115D01*
X828600Y98428D01*
X828600Y96741D01*
X831224Y95054D01*
X833849Y95054D01*
X836474Y96741D01*
X844348Y91679D02*
X844348Y92523D01*
X853534Y99272D02*
X854846Y100115D01*
X857471Y100115D01*
X860096Y98428D01*
X860096Y96741D01*
X858783Y95897D01*
X860096Y95054D01*
X860096Y93366D01*
X857471Y91679D01*
X854846Y91679D01*
X853534Y92523D01*
X854846Y95897D02*
X858783Y95897D01*
X867970Y91679D02*
X867970Y95897D01*
X871907Y98428D01*
X871907Y100115D01*
X864033Y100115D01*
X864033Y98428D01*
X875844Y98428D02*
X878469Y100115D01*
X881093Y100115D01*
X883718Y98428D01*
X883718Y93366D01*
X881093Y91679D01*
X878469Y91679D01*
X875844Y93366D01*
X875844Y98428D01*
X883718Y98428D02*
X875844Y93366D01*
X887655Y98428D02*
X890280Y100115D01*
X892904Y100115D01*
X895529Y98428D01*
X895529Y93366D01*
X892904Y91679D01*
X890280Y91679D01*
X887655Y93366D01*
X887655Y98428D01*
X895529Y98428D02*
X887655Y93366D01*
X904715Y91679D02*
X902091Y91679D01*
X899466Y93366D01*
X899466Y95054D01*
X900778Y95897D01*
X899466Y96741D01*
X899466Y98428D01*
X902091Y100115D01*
X904715Y100115D01*
X907340Y98428D01*
X907340Y96741D01*
X906028Y95897D01*
X907340Y95054D01*
X907340Y93366D01*
X904715Y91679D01*
X900778Y95897D02*
X906028Y95897D01*
X969413Y100115D02*
X965476Y100115D01*
X962852Y98428D01*
X962852Y95054D01*
X962852Y93366D01*
X965476Y91679D01*
X968101Y91679D01*
X970726Y93366D01*
X970726Y95054D01*
X968101Y96741D01*
X965476Y96741D01*
X962852Y95054D01*
X1038049Y91679D02*
X1038049Y100115D01*
X1043298Y100115D01*
X1045923Y98428D01*
X1045923Y97584D01*
X1043298Y95897D01*
X1038049Y95897D01*
X1053797Y91679D02*
X1053797Y100115D01*
X1049860Y100115D02*
X1057734Y100115D01*
X1061671Y91679D02*
X1061671Y100115D01*
X1069545Y91679D02*
X1069545Y100115D01*
X1061671Y95897D02*
X1069545Y95897D01*
X1107340Y98428D02*
X1109965Y100115D01*
X1112589Y100115D01*
X1115214Y98428D01*
X1115214Y93366D01*
X1112589Y91679D01*
X1109965Y91679D01*
X1107340Y93366D01*
X1107340Y98428D01*
X1115214Y98428D02*
X1107340Y93366D01*
X1137524Y91679D02*
X1136211Y91679D01*
X1133587Y93366D01*
X1133587Y98428D01*
X1136211Y100115D01*
X1137524Y100115D01*
X1142773Y91679D02*
X1142773Y100115D01*
X1148022Y100115D01*
X1150647Y98428D01*
X1150647Y97584D01*
X1148022Y95897D01*
X1142773Y95897D01*
X1144085Y95897D02*
X1150647Y91679D01*
X1154584Y93366D02*
X1157209Y91679D01*
X1159833Y91679D01*
X1162458Y93366D01*
X1162458Y98428D01*
X1159833Y100115D01*
X1157209Y100115D01*
X1154584Y98428D01*
X1154584Y93366D01*
X1166395Y100115D02*
X1166395Y93366D01*
X1169020Y91679D01*
X1171644Y91679D01*
X1174269Y93366D01*
X1174269Y100115D01*
X1178206Y91679D02*
X1178206Y100115D01*
X1186080Y91679D01*
X1186080Y100115D01*
X1190017Y91679D02*
X1195266Y91679D01*
X1197891Y93366D01*
X1197891Y98428D01*
X1195266Y100115D01*
X1190017Y100115D01*
X1191329Y100115D02*
X1191329Y91679D01*
X1203140Y100115D02*
X1204453Y100115D01*
X1207077Y98428D01*
X1207077Y93366D01*
X1204453Y91679D01*
X1203140Y91679D01*
X818101Y124745D02*
X819413Y125589D01*
X822038Y125589D01*
X824663Y123901D01*
X824663Y122214D01*
X823350Y121370D01*
X824663Y120527D01*
X824663Y118839D01*
X822038Y117152D01*
X819413Y117152D01*
X818101Y117996D01*
X819413Y121370D02*
X823350Y121370D01*
X828600Y118839D02*
X831224Y117152D01*
X833849Y117152D01*
X836474Y118839D01*
X836474Y122214D01*
X836474Y123901D01*
X833849Y125589D01*
X831224Y125589D01*
X828600Y123901D01*
X828600Y122214D01*
X831224Y120527D01*
X833849Y120527D01*
X836474Y122214D01*
X844348Y117152D02*
X844348Y117996D01*
X853534Y123901D02*
X856159Y125589D01*
X856159Y117152D01*
X852222Y117152D02*
X860096Y117152D01*
X867970Y117152D02*
X867970Y121370D01*
X871907Y123901D01*
X871907Y125589D01*
X864033Y125589D01*
X864033Y123901D01*
X875844Y123901D02*
X878469Y125589D01*
X881093Y125589D01*
X883718Y123901D01*
X883718Y118839D01*
X881093Y117152D01*
X878469Y117152D01*
X875844Y118839D01*
X875844Y123901D01*
X883718Y123901D02*
X875844Y118839D01*
X887655Y123901D02*
X890280Y125589D01*
X892904Y125589D01*
X895529Y123901D01*
X895529Y118839D01*
X892904Y117152D01*
X890280Y117152D01*
X887655Y118839D01*
X887655Y123901D01*
X895529Y123901D02*
X887655Y118839D01*
X899466Y123901D02*
X902091Y125589D01*
X904715Y125589D01*
X907340Y123901D01*
X907340Y118839D01*
X904715Y117152D01*
X902091Y117152D01*
X899466Y118839D01*
X899466Y123901D01*
X907340Y123901D02*
X899466Y118839D01*
X968101Y117152D02*
X965476Y117152D01*
X962852Y118839D01*
X962852Y120527D01*
X964164Y121370D01*
X962852Y122214D01*
X962852Y123901D01*
X965476Y125589D01*
X968101Y125589D01*
X970726Y123901D01*
X970726Y122214D01*
X969413Y121370D01*
X970726Y120527D01*
X970726Y118839D01*
X968101Y117152D01*
X964164Y121370D02*
X969413Y121370D01*
X1038049Y117152D02*
X1038049Y125589D01*
X1043298Y125589D01*
X1045923Y123901D01*
X1045923Y123058D01*
X1043298Y121370D01*
X1038049Y121370D01*
X1053797Y117152D02*
X1053797Y125589D01*
X1049860Y125589D02*
X1057734Y125589D01*
X1061671Y117152D02*
X1061671Y125589D01*
X1069545Y117152D02*
X1069545Y125589D01*
X1061671Y121370D02*
X1069545Y121370D01*
X1107340Y123901D02*
X1109965Y125589D01*
X1112589Y125589D01*
X1115214Y123901D01*
X1115214Y118839D01*
X1112589Y117152D01*
X1109965Y117152D01*
X1107340Y118839D01*
X1107340Y123901D01*
X1115214Y123901D02*
X1107340Y118839D01*
X1137524Y117152D02*
X1136211Y117152D01*
X1133587Y118839D01*
X1133587Y123901D01*
X1136211Y125589D01*
X1137524Y125589D01*
X1142773Y117152D02*
X1142773Y125589D01*
X1148022Y125589D01*
X1150647Y123901D01*
X1150647Y123058D01*
X1148022Y121370D01*
X1142773Y121370D01*
X1144085Y121370D02*
X1150647Y117152D01*
X1154584Y118839D02*
X1157209Y117152D01*
X1159833Y117152D01*
X1162458Y118839D01*
X1162458Y123901D01*
X1159833Y125589D01*
X1157209Y125589D01*
X1154584Y123901D01*
X1154584Y118839D01*
X1166395Y125589D02*
X1166395Y118839D01*
X1169020Y117152D01*
X1171644Y117152D01*
X1174269Y118839D01*
X1174269Y125589D01*
X1178206Y117152D02*
X1178206Y125589D01*
X1186080Y117152D01*
X1186080Y125589D01*
X1190017Y117152D02*
X1195266Y117152D01*
X1197891Y118839D01*
X1197891Y123901D01*
X1195266Y125589D01*
X1190017Y125589D01*
X1191329Y125589D02*
X1191329Y117152D01*
X1203140Y125589D02*
X1204453Y125589D01*
X1207077Y123901D01*
X1207077Y118839D01*
X1204453Y117152D01*
X1203140Y117152D01*
X818101Y150218D02*
X819413Y151062D01*
X822038Y151062D01*
X824663Y149375D01*
X824663Y147687D01*
X823350Y146844D01*
X824663Y146000D01*
X824663Y144313D01*
X822038Y142625D01*
X819413Y142625D01*
X818101Y143469D01*
X819413Y146844D02*
X823350Y146844D01*
X832537Y142625D02*
X832537Y146844D01*
X836474Y149375D01*
X836474Y151062D01*
X828600Y151062D01*
X828600Y149375D01*
X844348Y142625D02*
X844348Y143469D01*
X852222Y149375D02*
X854846Y151062D01*
X857471Y151062D01*
X860096Y149375D01*
X860096Y144313D01*
X857471Y142625D01*
X854846Y142625D01*
X852222Y144313D01*
X852222Y149375D01*
X860096Y149375D02*
X852222Y144313D01*
X864033Y149375D02*
X866657Y151062D01*
X869282Y151062D01*
X871907Y149375D01*
X871907Y144313D01*
X869282Y142625D01*
X866657Y142625D01*
X864033Y144313D01*
X864033Y149375D01*
X871907Y149375D02*
X864033Y144313D01*
X875844Y149375D02*
X878469Y151062D01*
X881093Y151062D01*
X883718Y149375D01*
X883718Y144313D01*
X881093Y142625D01*
X878469Y142625D01*
X875844Y144313D01*
X875844Y149375D01*
X883718Y149375D02*
X875844Y144313D01*
X887655Y149375D02*
X890280Y151062D01*
X892904Y151062D01*
X895529Y149375D01*
X895529Y144313D01*
X892904Y142625D01*
X890280Y142625D01*
X887655Y144313D01*
X887655Y149375D01*
X895529Y149375D02*
X887655Y144313D01*
X899466Y149375D02*
X902091Y151062D01*
X904715Y151062D01*
X907340Y149375D01*
X907340Y144313D01*
X904715Y142625D01*
X902091Y142625D01*
X899466Y144313D01*
X899466Y149375D01*
X907340Y149375D02*
X899466Y144313D01*
X970726Y146000D02*
X962852Y146000D01*
X969413Y151062D01*
X969413Y142625D01*
X968101Y142625D02*
X970726Y142625D01*
X1038049Y142625D02*
X1038049Y151062D01*
X1043298Y151062D01*
X1045923Y149375D01*
X1045923Y148531D01*
X1043298Y146844D01*
X1038049Y146844D01*
X1053797Y142625D02*
X1053797Y151062D01*
X1049860Y151062D02*
X1057734Y151062D01*
X1061671Y142625D02*
X1061671Y151062D01*
X1069545Y142625D02*
X1069545Y151062D01*
X1061671Y146844D02*
X1069545Y146844D01*
X1107340Y149375D02*
X1109965Y151062D01*
X1112589Y151062D01*
X1115214Y149375D01*
X1115214Y144313D01*
X1112589Y142625D01*
X1109965Y142625D01*
X1107340Y144313D01*
X1107340Y149375D01*
X1115214Y149375D02*
X1107340Y144313D01*
X1137524Y142625D02*
X1136211Y142625D01*
X1133587Y144313D01*
X1133587Y149375D01*
X1136211Y151062D01*
X1137524Y151062D01*
X1142773Y142625D02*
X1142773Y151062D01*
X1148022Y151062D01*
X1150647Y149375D01*
X1150647Y148531D01*
X1148022Y146844D01*
X1142773Y146844D01*
X1144085Y146844D02*
X1150647Y142625D01*
X1154584Y144313D02*
X1157209Y142625D01*
X1159833Y142625D01*
X1162458Y144313D01*
X1162458Y149375D01*
X1159833Y151062D01*
X1157209Y151062D01*
X1154584Y149375D01*
X1154584Y144313D01*
X1166395Y151062D02*
X1166395Y144313D01*
X1169020Y142625D01*
X1171644Y142625D01*
X1174269Y144313D01*
X1174269Y151062D01*
X1178206Y142625D02*
X1178206Y151062D01*
X1186080Y142625D01*
X1186080Y151062D01*
X1190017Y142625D02*
X1195266Y142625D01*
X1197891Y144313D01*
X1197891Y149375D01*
X1195266Y151062D01*
X1190017Y151062D01*
X1191329Y151062D02*
X1191329Y142625D01*
X1203140Y151062D02*
X1204453Y151062D01*
X1207077Y149375D01*
X1207077Y144313D01*
X1204453Y142625D01*
X1203140Y142625D01*
X818101Y175691D02*
X819413Y176535D01*
X822038Y176535D01*
X824663Y174848D01*
X824663Y173160D01*
X823350Y172317D01*
X824663Y171473D01*
X824663Y169786D01*
X822038Y168099D01*
X819413Y168099D01*
X818101Y168942D01*
X819413Y172317D02*
X823350Y172317D01*
X836474Y176535D02*
X828600Y176535D01*
X828600Y173160D01*
X833849Y173160D01*
X836474Y171473D01*
X836474Y169786D01*
X833849Y168099D01*
X828600Y168099D01*
X844348Y168099D02*
X844348Y168942D01*
X860096Y171473D02*
X852222Y171473D01*
X858783Y176535D01*
X858783Y168099D01*
X857471Y168099D02*
X860096Y168099D01*
X865345Y175691D02*
X866657Y176535D01*
X869282Y176535D01*
X871907Y174848D01*
X871907Y173160D01*
X870594Y172317D01*
X871907Y171473D01*
X871907Y169786D01*
X869282Y168099D01*
X866657Y168099D01*
X865345Y168942D01*
X866657Y172317D02*
X870594Y172317D01*
X877156Y175691D02*
X878469Y176535D01*
X881093Y176535D01*
X883718Y174848D01*
X883718Y173160D01*
X882406Y172317D01*
X883718Y171473D01*
X883718Y169786D01*
X881093Y168099D01*
X878469Y168099D01*
X877156Y168942D01*
X878469Y172317D02*
X882406Y172317D01*
X887655Y174848D02*
X890280Y176535D01*
X892904Y176535D01*
X895529Y174848D01*
X895529Y169786D01*
X892904Y168099D01*
X890280Y168099D01*
X887655Y169786D01*
X887655Y174848D01*
X895529Y174848D02*
X887655Y169786D01*
X903403Y168099D02*
X903403Y172317D01*
X907340Y174848D01*
X907340Y176535D01*
X899466Y176535D01*
X899466Y174848D01*
X958259Y174848D02*
X960883Y176535D01*
X960883Y168099D01*
X956946Y168099D02*
X964820Y168099D01*
X975319Y176535D02*
X971382Y176535D01*
X968757Y174848D01*
X968757Y171473D01*
X968757Y169786D01*
X971382Y168099D01*
X974007Y168099D01*
X976631Y169786D01*
X976631Y171473D01*
X974007Y173160D01*
X971382Y173160D01*
X968757Y171473D01*
X1038049Y168099D02*
X1038049Y176535D01*
X1043298Y176535D01*
X1045923Y174848D01*
X1045923Y174004D01*
X1043298Y172317D01*
X1038049Y172317D01*
X1053797Y168099D02*
X1053797Y176535D01*
X1049860Y176535D02*
X1057734Y176535D01*
X1061671Y168099D02*
X1061671Y176535D01*
X1069545Y168099D02*
X1069545Y176535D01*
X1061671Y172317D02*
X1069545Y172317D01*
X1107340Y174848D02*
X1109965Y176535D01*
X1112589Y176535D01*
X1115214Y174848D01*
X1115214Y169786D01*
X1112589Y168099D01*
X1109965Y168099D01*
X1107340Y169786D01*
X1107340Y174848D01*
X1115214Y174848D02*
X1107340Y169786D01*
X1137524Y168099D02*
X1136211Y168099D01*
X1133587Y169786D01*
X1133587Y174848D01*
X1136211Y176535D01*
X1137524Y176535D01*
X1142773Y168099D02*
X1142773Y176535D01*
X1148022Y176535D01*
X1150647Y174848D01*
X1150647Y174004D01*
X1148022Y172317D01*
X1142773Y172317D01*
X1144085Y172317D02*
X1150647Y168099D01*
X1154584Y169786D02*
X1157209Y168099D01*
X1159833Y168099D01*
X1162458Y169786D01*
X1162458Y174848D01*
X1159833Y176535D01*
X1157209Y176535D01*
X1154584Y174848D01*
X1154584Y169786D01*
X1166395Y176535D02*
X1166395Y169786D01*
X1169020Y168099D01*
X1171644Y168099D01*
X1174269Y169786D01*
X1174269Y176535D01*
X1178206Y168099D02*
X1178206Y176535D01*
X1186080Y168099D01*
X1186080Y176535D01*
X1190017Y168099D02*
X1195266Y168099D01*
X1197891Y169786D01*
X1197891Y174848D01*
X1195266Y176535D01*
X1190017Y176535D01*
X1191329Y176535D02*
X1191329Y168099D01*
X1203140Y176535D02*
X1204453Y176535D01*
X1207077Y174848D01*
X1207077Y169786D01*
X1204453Y168099D01*
X1203140Y168099D01*
X818101Y201165D02*
X819413Y202008D01*
X822038Y202008D01*
X824663Y200321D01*
X824663Y198634D01*
X823350Y197790D01*
X824663Y196946D01*
X824663Y195259D01*
X822038Y193572D01*
X819413Y193572D01*
X818101Y194415D01*
X819413Y197790D02*
X823350Y197790D01*
X836474Y202008D02*
X828600Y202008D01*
X828600Y198634D01*
X833849Y198634D01*
X836474Y196946D01*
X836474Y195259D01*
X833849Y193572D01*
X828600Y193572D01*
X844348Y193572D02*
X844348Y194415D01*
X852222Y200321D02*
X854846Y202008D01*
X857471Y202008D01*
X860096Y200321D01*
X860096Y195259D01*
X857471Y193572D01*
X854846Y193572D01*
X852222Y195259D01*
X852222Y200321D01*
X860096Y200321D02*
X852222Y195259D01*
X864033Y200321D02*
X866657Y202008D01*
X869282Y202008D01*
X871907Y200321D01*
X871907Y195259D01*
X869282Y193572D01*
X866657Y193572D01*
X864033Y195259D01*
X864033Y200321D01*
X871907Y200321D02*
X864033Y195259D01*
X875844Y200321D02*
X878469Y202008D01*
X881093Y202008D01*
X883718Y200321D01*
X883718Y195259D01*
X881093Y193572D01*
X878469Y193572D01*
X875844Y195259D01*
X875844Y200321D01*
X883718Y200321D02*
X875844Y195259D01*
X887655Y200321D02*
X890280Y202008D01*
X892904Y202008D01*
X895529Y200321D01*
X895529Y195259D01*
X892904Y193572D01*
X890280Y193572D01*
X887655Y195259D01*
X887655Y200321D01*
X895529Y200321D02*
X887655Y195259D01*
X899466Y200321D02*
X902091Y202008D01*
X904715Y202008D01*
X907340Y200321D01*
X907340Y195259D01*
X904715Y193572D01*
X902091Y193572D01*
X899466Y195259D01*
X899466Y200321D01*
X907340Y200321D02*
X899466Y195259D01*
X960883Y193572D02*
X960883Y197790D01*
X964820Y200321D01*
X964820Y202008D01*
X956946Y202008D01*
X956946Y200321D01*
X970070Y200321D02*
X972694Y202008D01*
X972694Y193572D01*
X968757Y193572D02*
X976631Y193572D01*
X1038049Y193572D02*
X1038049Y202008D01*
X1043298Y202008D01*
X1045923Y200321D01*
X1045923Y199477D01*
X1043298Y197790D01*
X1038049Y197790D01*
X1053797Y193572D02*
X1053797Y202008D01*
X1049860Y202008D02*
X1057734Y202008D01*
X1061671Y193572D02*
X1061671Y202008D01*
X1069545Y193572D02*
X1069545Y202008D01*
X1061671Y197790D02*
X1069545Y197790D01*
X1107340Y200321D02*
X1109965Y202008D01*
X1112589Y202008D01*
X1115214Y200321D01*
X1115214Y195259D01*
X1112589Y193572D01*
X1109965Y193572D01*
X1107340Y195259D01*
X1107340Y200321D01*
X1115214Y200321D02*
X1107340Y195259D01*
X1137524Y193572D02*
X1136211Y193572D01*
X1133587Y195259D01*
X1133587Y200321D01*
X1136211Y202008D01*
X1137524Y202008D01*
X1142773Y193572D02*
X1142773Y202008D01*
X1148022Y202008D01*
X1150647Y200321D01*
X1150647Y199477D01*
X1148022Y197790D01*
X1142773Y197790D01*
X1144085Y197790D02*
X1150647Y193572D01*
X1154584Y195259D02*
X1157209Y193572D01*
X1159833Y193572D01*
X1162458Y195259D01*
X1162458Y200321D01*
X1159833Y202008D01*
X1157209Y202008D01*
X1154584Y200321D01*
X1154584Y195259D01*
X1166395Y202008D02*
X1166395Y195259D01*
X1169020Y193572D01*
X1171644Y193572D01*
X1174269Y195259D01*
X1174269Y202008D01*
X1178206Y193572D02*
X1178206Y202008D01*
X1186080Y193572D01*
X1186080Y202008D01*
X1190017Y193572D02*
X1195266Y193572D01*
X1197891Y195259D01*
X1197891Y200321D01*
X1195266Y202008D01*
X1190017Y202008D01*
X1191329Y202008D02*
X1191329Y193572D01*
X1203140Y202008D02*
X1204453Y202008D01*
X1207077Y200321D01*
X1207077Y195259D01*
X1204453Y193572D01*
X1203140Y193572D01*
X818101Y226638D02*
X819413Y227481D01*
X822038Y227481D01*
X824663Y225794D01*
X824663Y224107D01*
X823350Y223263D01*
X824663Y222420D01*
X824663Y220732D01*
X822038Y219045D01*
X819413Y219045D01*
X818101Y219889D01*
X819413Y223263D02*
X823350Y223263D01*
X828600Y225794D02*
X831224Y227481D01*
X833849Y227481D01*
X836474Y225794D01*
X836474Y224950D01*
X828600Y219045D01*
X836474Y219045D01*
X836474Y219889D01*
X844348Y219045D02*
X844348Y219889D01*
X852222Y225794D02*
X854846Y227481D01*
X857471Y227481D01*
X860096Y225794D01*
X860096Y220732D01*
X857471Y219045D01*
X854846Y219045D01*
X852222Y220732D01*
X852222Y225794D01*
X860096Y225794D02*
X852222Y220732D01*
X864033Y225794D02*
X866657Y227481D01*
X869282Y227481D01*
X871907Y225794D01*
X871907Y220732D01*
X869282Y219045D01*
X866657Y219045D01*
X864033Y220732D01*
X864033Y225794D01*
X871907Y225794D02*
X864033Y220732D01*
X875844Y225794D02*
X878469Y227481D01*
X881093Y227481D01*
X883718Y225794D01*
X883718Y220732D01*
X881093Y219045D01*
X878469Y219045D01*
X875844Y220732D01*
X875844Y225794D01*
X883718Y225794D02*
X875844Y220732D01*
X887655Y225794D02*
X890280Y227481D01*
X892904Y227481D01*
X895529Y225794D01*
X895529Y220732D01*
X892904Y219045D01*
X890280Y219045D01*
X887655Y220732D01*
X887655Y225794D01*
X895529Y225794D02*
X887655Y220732D01*
X899466Y225794D02*
X902091Y227481D01*
X904715Y227481D01*
X907340Y225794D01*
X907340Y220732D01*
X904715Y219045D01*
X902091Y219045D01*
X899466Y220732D01*
X899466Y225794D01*
X907340Y225794D02*
X899466Y220732D01*
X958259Y225794D02*
X960883Y227481D01*
X960883Y219045D01*
X956946Y219045D02*
X964820Y219045D01*
X968757Y225794D02*
X971382Y227481D01*
X974007Y227481D01*
X976631Y225794D01*
X976631Y224950D01*
X968757Y219045D01*
X976631Y219045D01*
X976631Y219889D01*
X1038049Y219045D02*
X1038049Y227481D01*
X1043298Y227481D01*
X1045923Y225794D01*
X1045923Y224950D01*
X1043298Y223263D01*
X1038049Y223263D01*
X1053797Y219045D02*
X1053797Y227481D01*
X1049860Y227481D02*
X1057734Y227481D01*
X1061671Y219045D02*
X1061671Y227481D01*
X1069545Y219045D02*
X1069545Y227481D01*
X1061671Y223263D02*
X1069545Y223263D01*
X1107340Y225794D02*
X1109965Y227481D01*
X1112589Y227481D01*
X1115214Y225794D01*
X1115214Y220732D01*
X1112589Y219045D01*
X1109965Y219045D01*
X1107340Y220732D01*
X1107340Y225794D01*
X1115214Y225794D02*
X1107340Y220732D01*
X1137524Y219045D02*
X1136211Y219045D01*
X1133587Y220732D01*
X1133587Y225794D01*
X1136211Y227481D01*
X1137524Y227481D01*
X1142773Y219045D02*
X1142773Y227481D01*
X1148022Y227481D01*
X1150647Y225794D01*
X1150647Y224950D01*
X1148022Y223263D01*
X1142773Y223263D01*
X1144085Y223263D02*
X1150647Y219045D01*
X1154584Y220732D02*
X1157209Y219045D01*
X1159833Y219045D01*
X1162458Y220732D01*
X1162458Y225794D01*
X1159833Y227481D01*
X1157209Y227481D01*
X1154584Y225794D01*
X1154584Y220732D01*
X1166395Y227481D02*
X1166395Y220732D01*
X1169020Y219045D01*
X1171644Y219045D01*
X1174269Y220732D01*
X1174269Y227481D01*
X1178206Y219045D02*
X1178206Y227481D01*
X1186080Y219045D01*
X1186080Y227481D01*
X1190017Y219045D02*
X1195266Y219045D01*
X1197891Y220732D01*
X1197891Y225794D01*
X1195266Y227481D01*
X1190017Y227481D01*
X1191329Y227481D02*
X1191329Y219045D01*
X1203140Y227481D02*
X1204453Y227481D01*
X1207077Y225794D01*
X1207077Y220732D01*
X1204453Y219045D01*
X1203140Y219045D01*
X816789Y251267D02*
X819413Y252955D01*
X822038Y252955D01*
X824663Y251267D01*
X824663Y250424D01*
X816789Y244518D01*
X824663Y244518D01*
X824663Y245362D01*
X828600Y246205D02*
X831224Y244518D01*
X833849Y244518D01*
X836474Y246205D01*
X836474Y249580D01*
X836474Y251267D01*
X833849Y252955D01*
X831224Y252955D01*
X828600Y251267D01*
X828600Y249580D01*
X831224Y247893D01*
X833849Y247893D01*
X836474Y249580D01*
X844348Y244518D02*
X844348Y245362D01*
X860096Y252955D02*
X852222Y252955D01*
X852222Y249580D01*
X857471Y249580D01*
X860096Y247893D01*
X860096Y246205D01*
X857471Y244518D01*
X852222Y244518D01*
X864033Y251267D02*
X866657Y252955D01*
X869282Y252955D01*
X871907Y251267D01*
X871907Y250424D01*
X864033Y244518D01*
X871907Y244518D01*
X871907Y245362D01*
X879781Y244518D02*
X879781Y248736D01*
X883718Y251267D01*
X883718Y252955D01*
X875844Y252955D01*
X875844Y251267D01*
X895529Y252955D02*
X887655Y252955D01*
X887655Y249580D01*
X892904Y249580D01*
X895529Y247893D01*
X895529Y246205D01*
X892904Y244518D01*
X887655Y244518D01*
X906028Y252955D02*
X902091Y252955D01*
X899466Y251267D01*
X899466Y247893D01*
X899466Y246205D01*
X902091Y244518D01*
X904715Y244518D01*
X907340Y246205D01*
X907340Y247893D01*
X904715Y249580D01*
X902091Y249580D01*
X899466Y247893D01*
X970726Y247893D02*
X962852Y247893D01*
X969413Y252955D01*
X969413Y244518D01*
X968101Y244518D02*
X970726Y244518D01*
X1038049Y244518D02*
X1038049Y252955D01*
X1043298Y252955D01*
X1045923Y251267D01*
X1045923Y250424D01*
X1043298Y248736D01*
X1038049Y248736D01*
X1053797Y244518D02*
X1053797Y252955D01*
X1049860Y252955D02*
X1057734Y252955D01*
X1061671Y244518D02*
X1061671Y252955D01*
X1069545Y244518D02*
X1069545Y252955D01*
X1061671Y248736D02*
X1069545Y248736D01*
X1107340Y251267D02*
X1109965Y252955D01*
X1112589Y252955D01*
X1115214Y251267D01*
X1115214Y246205D01*
X1112589Y244518D01*
X1109965Y244518D01*
X1107340Y246205D01*
X1107340Y251267D01*
X1115214Y251267D02*
X1107340Y246205D01*
X1137524Y244518D02*
X1136211Y244518D01*
X1133587Y246205D01*
X1133587Y251267D01*
X1136211Y252955D01*
X1137524Y252955D01*
X1142773Y244518D02*
X1142773Y252955D01*
X1148022Y252955D01*
X1150647Y251267D01*
X1150647Y250424D01*
X1148022Y248736D01*
X1142773Y248736D01*
X1144085Y248736D02*
X1150647Y244518D01*
X1154584Y246205D02*
X1157209Y244518D01*
X1159833Y244518D01*
X1162458Y246205D01*
X1162458Y251267D01*
X1159833Y252955D01*
X1157209Y252955D01*
X1154584Y251267D01*
X1154584Y246205D01*
X1166395Y252955D02*
X1166395Y246205D01*
X1169020Y244518D01*
X1171644Y244518D01*
X1174269Y246205D01*
X1174269Y252955D01*
X1178206Y244518D02*
X1178206Y252955D01*
X1186080Y244518D01*
X1186080Y252955D01*
X1190017Y244518D02*
X1195266Y244518D01*
X1197891Y246205D01*
X1197891Y251267D01*
X1195266Y252955D01*
X1190017Y252955D01*
X1191329Y252955D02*
X1191329Y244518D01*
X1203140Y252955D02*
X1204453Y252955D01*
X1207077Y251267D01*
X1207077Y246205D01*
X1204453Y244518D01*
X1203140Y244518D01*
X816789Y276740D02*
X819413Y278428D01*
X822038Y278428D01*
X824663Y276740D01*
X824663Y275897D01*
X816789Y269991D01*
X824663Y269991D01*
X824663Y270835D01*
X836474Y278428D02*
X828600Y278428D01*
X828600Y275053D01*
X833849Y275053D01*
X836474Y273366D01*
X836474Y271679D01*
X833849Y269991D01*
X828600Y269991D01*
X844348Y269991D02*
X844348Y270835D01*
X852222Y271679D02*
X854846Y269991D01*
X857471Y269991D01*
X860096Y271679D01*
X860096Y275053D01*
X860096Y276740D01*
X857471Y278428D01*
X854846Y278428D01*
X852222Y276740D01*
X852222Y275053D01*
X854846Y273366D01*
X857471Y273366D01*
X860096Y275053D01*
X869282Y269991D02*
X866657Y269991D01*
X864033Y271679D01*
X864033Y273366D01*
X865345Y274210D01*
X864033Y275053D01*
X864033Y276740D01*
X866657Y278428D01*
X869282Y278428D01*
X871907Y276740D01*
X871907Y275053D01*
X870594Y274210D01*
X871907Y273366D01*
X871907Y271679D01*
X869282Y269991D01*
X865345Y274210D02*
X870594Y274210D01*
X883718Y273366D02*
X875844Y273366D01*
X882406Y278428D01*
X882406Y269991D01*
X881093Y269991D02*
X883718Y269991D01*
X887655Y276740D02*
X890280Y278428D01*
X892904Y278428D01*
X895529Y276740D01*
X895529Y275897D01*
X887655Y269991D01*
X895529Y269991D01*
X895529Y270835D01*
X907340Y278428D02*
X899466Y278428D01*
X899466Y275053D01*
X904715Y275053D01*
X907340Y273366D01*
X907340Y271679D01*
X904715Y269991D01*
X899466Y269991D01*
X958259Y276740D02*
X960883Y278428D01*
X960883Y269991D01*
X956946Y269991D02*
X964820Y269991D01*
X968757Y276740D02*
X971382Y278428D01*
X974007Y278428D01*
X976631Y276740D01*
X976631Y271679D01*
X974007Y269991D01*
X971382Y269991D01*
X968757Y271679D01*
X968757Y276740D01*
X976631Y276740D02*
X968757Y271679D01*
X1038049Y269991D02*
X1038049Y278428D01*
X1043298Y278428D01*
X1045923Y276740D01*
X1045923Y275897D01*
X1043298Y274210D01*
X1038049Y274210D01*
X1053797Y269991D02*
X1053797Y278428D01*
X1049860Y278428D02*
X1057734Y278428D01*
X1061671Y269991D02*
X1061671Y278428D01*
X1069545Y269991D02*
X1069545Y278428D01*
X1061671Y274210D02*
X1069545Y274210D01*
X1107340Y276740D02*
X1109965Y278428D01*
X1112589Y278428D01*
X1115214Y276740D01*
X1115214Y271679D01*
X1112589Y269991D01*
X1109965Y269991D01*
X1107340Y271679D01*
X1107340Y276740D01*
X1115214Y276740D02*
X1107340Y271679D01*
X1137524Y269991D02*
X1136211Y269991D01*
X1133587Y271679D01*
X1133587Y276740D01*
X1136211Y278428D01*
X1137524Y278428D01*
X1142773Y269991D02*
X1142773Y278428D01*
X1148022Y278428D01*
X1150647Y276740D01*
X1150647Y275897D01*
X1148022Y274210D01*
X1142773Y274210D01*
X1144085Y274210D02*
X1150647Y269991D01*
X1154584Y271679D02*
X1157209Y269991D01*
X1159833Y269991D01*
X1162458Y271679D01*
X1162458Y276740D01*
X1159833Y278428D01*
X1157209Y278428D01*
X1154584Y276740D01*
X1154584Y271679D01*
X1166395Y278428D02*
X1166395Y271679D01*
X1169020Y269991D01*
X1171644Y269991D01*
X1174269Y271679D01*
X1174269Y278428D01*
X1178206Y269991D02*
X1178206Y278428D01*
X1186080Y269991D01*
X1186080Y278428D01*
X1190017Y269991D02*
X1195266Y269991D01*
X1197891Y271679D01*
X1197891Y276740D01*
X1195266Y278428D01*
X1190017Y278428D01*
X1191329Y278428D02*
X1191329Y269991D01*
X1203140Y278428D02*
X1204453Y278428D01*
X1207077Y276740D01*
X1207077Y271679D01*
X1204453Y269991D01*
X1203140Y269991D01*
X816789Y302214D02*
X819413Y303901D01*
X822038Y303901D01*
X824663Y302214D01*
X824663Y301370D01*
X816789Y295465D01*
X824663Y295465D01*
X824663Y296308D01*
X836474Y303901D02*
X828600Y303901D01*
X828600Y300526D01*
X833849Y300526D01*
X836474Y298839D01*
X836474Y297152D01*
X833849Y295465D01*
X828600Y295465D01*
X844348Y295465D02*
X844348Y296308D01*
X860096Y303901D02*
X852222Y303901D01*
X852222Y300526D01*
X857471Y300526D01*
X860096Y298839D01*
X860096Y297152D01*
X857471Y295465D01*
X852222Y295465D01*
X864033Y297152D02*
X866657Y295465D01*
X869282Y295465D01*
X871907Y297152D01*
X871907Y300526D01*
X871907Y302214D01*
X869282Y303901D01*
X866657Y303901D01*
X864033Y302214D01*
X864033Y300526D01*
X866657Y298839D01*
X869282Y298839D01*
X871907Y300526D01*
X875844Y302214D02*
X878469Y303901D01*
X881093Y303901D01*
X883718Y302214D01*
X883718Y297152D01*
X881093Y295465D01*
X878469Y295465D01*
X875844Y297152D01*
X875844Y302214D01*
X883718Y302214D02*
X875844Y297152D01*
X895529Y303901D02*
X887655Y303901D01*
X887655Y300526D01*
X892904Y300526D01*
X895529Y298839D01*
X895529Y297152D01*
X892904Y295465D01*
X887655Y295465D01*
X907340Y303901D02*
X899466Y303901D01*
X899466Y300526D01*
X904715Y300526D01*
X907340Y298839D01*
X907340Y297152D01*
X904715Y295465D01*
X899466Y295465D01*
X970726Y298839D02*
X962852Y298839D01*
X969413Y303901D01*
X969413Y295465D01*
X968101Y295465D02*
X970726Y295465D01*
X1038049Y295465D02*
X1038049Y303901D01*
X1043298Y303901D01*
X1045923Y302214D01*
X1045923Y301370D01*
X1043298Y299683D01*
X1038049Y299683D01*
X1053797Y295465D02*
X1053797Y303901D01*
X1049860Y303901D02*
X1057734Y303901D01*
X1061671Y295465D02*
X1061671Y303901D01*
X1069545Y295465D02*
X1069545Y303901D01*
X1061671Y299683D02*
X1069545Y299683D01*
X1107340Y302214D02*
X1109965Y303901D01*
X1112589Y303901D01*
X1115214Y302214D01*
X1115214Y297152D01*
X1112589Y295465D01*
X1109965Y295465D01*
X1107340Y297152D01*
X1107340Y302214D01*
X1115214Y302214D02*
X1107340Y297152D01*
X1137524Y295465D02*
X1136211Y295465D01*
X1133587Y297152D01*
X1133587Y302214D01*
X1136211Y303901D01*
X1137524Y303901D01*
X1142773Y295465D02*
X1142773Y303901D01*
X1148022Y303901D01*
X1150647Y302214D01*
X1150647Y301370D01*
X1148022Y299683D01*
X1142773Y299683D01*
X1144085Y299683D02*
X1150647Y295465D01*
X1154584Y297152D02*
X1157209Y295465D01*
X1159833Y295465D01*
X1162458Y297152D01*
X1162458Y302214D01*
X1159833Y303901D01*
X1157209Y303901D01*
X1154584Y302214D01*
X1154584Y297152D01*
X1166395Y303901D02*
X1166395Y297152D01*
X1169020Y295465D01*
X1171644Y295465D01*
X1174269Y297152D01*
X1174269Y303901D01*
X1178206Y295465D02*
X1178206Y303901D01*
X1186080Y295465D01*
X1186080Y303901D01*
X1190017Y295465D02*
X1195266Y295465D01*
X1197891Y297152D01*
X1197891Y302214D01*
X1195266Y303901D01*
X1190017Y303901D01*
X1191329Y303901D02*
X1191329Y295465D01*
X1203140Y303901D02*
X1204453Y303901D01*
X1207077Y302214D01*
X1207077Y297152D01*
X1204453Y295465D01*
X1203140Y295465D01*
X816789Y327687D02*
X819413Y329374D01*
X822038Y329374D01*
X824663Y327687D01*
X824663Y326843D01*
X816789Y320938D01*
X824663Y320938D01*
X824663Y321781D01*
X829912Y328531D02*
X831224Y329374D01*
X833849Y329374D01*
X836474Y327687D01*
X836474Y326000D01*
X835161Y325156D01*
X836474Y324312D01*
X836474Y322625D01*
X833849Y320938D01*
X831224Y320938D01*
X829912Y321781D01*
X831224Y325156D02*
X835161Y325156D01*
X844348Y320938D02*
X844348Y321781D01*
X858783Y329374D02*
X854846Y329374D01*
X852222Y327687D01*
X852222Y324312D01*
X852222Y322625D01*
X854846Y320938D01*
X857471Y320938D01*
X860096Y322625D01*
X860096Y324312D01*
X857471Y326000D01*
X854846Y326000D01*
X852222Y324312D01*
X864033Y327687D02*
X866657Y329374D01*
X869282Y329374D01*
X871907Y327687D01*
X871907Y326843D01*
X864033Y320938D01*
X871907Y320938D01*
X871907Y321781D01*
X875844Y327687D02*
X878469Y329374D01*
X881093Y329374D01*
X883718Y327687D01*
X883718Y326843D01*
X875844Y320938D01*
X883718Y320938D01*
X883718Y321781D01*
X887655Y327687D02*
X890280Y329374D01*
X892904Y329374D01*
X895529Y327687D01*
X895529Y322625D01*
X892904Y320938D01*
X890280Y320938D01*
X887655Y322625D01*
X887655Y327687D01*
X895529Y327687D02*
X887655Y322625D01*
X907340Y329374D02*
X899466Y329374D01*
X899466Y326000D01*
X904715Y326000D01*
X907340Y324312D01*
X907340Y322625D01*
X904715Y320938D01*
X899466Y320938D01*
X956946Y327687D02*
X959571Y329374D01*
X962196Y329374D01*
X964820Y327687D01*
X964820Y326843D01*
X956946Y320938D01*
X964820Y320938D01*
X964820Y321781D01*
X972694Y320938D02*
X972694Y325156D01*
X976631Y327687D01*
X976631Y329374D01*
X968757Y329374D01*
X968757Y327687D01*
X1038049Y320938D02*
X1038049Y329374D01*
X1043298Y329374D01*
X1045923Y327687D01*
X1045923Y326843D01*
X1043298Y325156D01*
X1038049Y325156D01*
X1053797Y320938D02*
X1053797Y329374D01*
X1049860Y329374D02*
X1057734Y329374D01*
X1061671Y320938D02*
X1061671Y329374D01*
X1069545Y320938D02*
X1069545Y329374D01*
X1061671Y325156D02*
X1069545Y325156D01*
X1107340Y327687D02*
X1109965Y329374D01*
X1112589Y329374D01*
X1115214Y327687D01*
X1115214Y322625D01*
X1112589Y320938D01*
X1109965Y320938D01*
X1107340Y322625D01*
X1107340Y327687D01*
X1115214Y327687D02*
X1107340Y322625D01*
X1137524Y320938D02*
X1136211Y320938D01*
X1133587Y322625D01*
X1133587Y327687D01*
X1136211Y329374D01*
X1137524Y329374D01*
X1142773Y320938D02*
X1142773Y329374D01*
X1148022Y329374D01*
X1150647Y327687D01*
X1150647Y326843D01*
X1148022Y325156D01*
X1142773Y325156D01*
X1144085Y325156D02*
X1150647Y320938D01*
X1154584Y322625D02*
X1157209Y320938D01*
X1159833Y320938D01*
X1162458Y322625D01*
X1162458Y327687D01*
X1159833Y329374D01*
X1157209Y329374D01*
X1154584Y327687D01*
X1154584Y322625D01*
X1166395Y329374D02*
X1166395Y322625D01*
X1169020Y320938D01*
X1171644Y320938D01*
X1174269Y322625D01*
X1174269Y329374D01*
X1178206Y320938D02*
X1178206Y329374D01*
X1186080Y320938D01*
X1186080Y329374D01*
X1190017Y320938D02*
X1195266Y320938D01*
X1197891Y322625D01*
X1197891Y327687D01*
X1195266Y329374D01*
X1190017Y329374D01*
X1191329Y329374D02*
X1191329Y320938D01*
X1203140Y329374D02*
X1204453Y329374D01*
X1207077Y327687D01*
X1207077Y322625D01*
X1204453Y320938D01*
X1203140Y320938D01*
G04 ColorRGB 00FFFF for the following layer *
%LNBoard Outline*%
%LPD*%
G54D10*
G54D13*
X0Y0D02*
X650000Y0D01*
X650000Y410000D01*
X0Y410000D01*
X0Y0D01*
G54D14*
X-1500Y-1500D02*
X-1500Y39800D01*
X-1500Y-1500D02*
X63800Y-1500D01*
X651500Y-1500D02*
X586200Y-1500D01*
X651500Y-1500D02*
X651500Y39800D01*
X651500Y411500D02*
X651500Y370200D01*
X651500Y411500D02*
X586200Y411500D01*
X-1500Y411500D02*
X63800Y411500D01*
X-1500Y411500D02*
X-1500Y370200D01*
X-21185Y-1500D02*
X-60555Y-1500D01*
X-40870Y-21185D02*
X-40870Y18185D01*
X-55634Y-1500D02*
G75*
D01*
G02X-55634Y-1500I14764J0*
G01*
X671185Y-1500D02*
X710555Y-1500D01*
X690870Y-21185D02*
X690870Y18185D01*
X676106Y-1500D02*
G75*
D01*
G02X676106Y-1500I14764J0*
G01*
X685949Y-1500D02*
G75*
D01*
G02X685949Y-1500I4921J0*
G01*
X-21185Y411500D02*
X-60555Y411500D01*
X-40870Y391815D02*
X-40870Y431185D01*
X-55634Y411500D02*
G75*
D01*
G02X-55634Y411500I14764J0*
G01*
X-50713Y411500D02*
G75*
D01*
G02X-50713Y411500I9843J0*
G01*
X-45791Y411500D02*
G75*
D01*
G02X-45791Y411500I4921J0*
G01*
G04 ColorRGB 66FFCC for the following layer *
%LNLegend Description*%
%LPD*%
G54D12*
X732209Y-95995D02*
X1226303Y-95995D01*
X1226303Y413469D01*
X732209Y413469D01*
X732209Y-95995D01*
X807406Y362522D02*
X807406Y-95995D01*
X918035Y362522D02*
X918035Y-95995D01*
X1016854Y362522D02*
X1016854Y-95995D01*
X1092051Y362522D02*
X1092051Y-95995D01*
X1226303Y362522D02*
X1226303Y-95995D01*
X732209Y-70522D02*
X1226303Y-70522D01*
X732209Y-45049D02*
X1226303Y-45049D01*
X732209Y-19576D02*
X1226303Y-19576D01*
X732209Y5897D02*
X1226303Y5897D01*
X732209Y31371D02*
X1226303Y31371D01*
X732209Y56844D02*
X1226303Y56844D01*
X732209Y82317D02*
X1226303Y82317D01*
X732209Y107790D02*
X1226303Y107790D01*
X732209Y133263D02*
X1226303Y133263D01*
X732209Y158737D02*
X1226303Y158737D01*
X732209Y184210D02*
X1226303Y184210D01*
X732209Y209683D02*
X1226303Y209683D01*
X732209Y235156D02*
X1226303Y235156D01*
X732209Y260629D02*
X1226303Y260629D01*
X732209Y286103D02*
X1226303Y286103D01*
X732209Y311576D02*
X1226303Y311576D01*
X732209Y337049D02*
X1226303Y337049D01*
X735686Y348098D02*
X738311Y346411D01*
X740936Y346411D01*
X743560Y348098D01*
X735686Y353160D01*
X738311Y354847D01*
X740936Y354847D01*
X743560Y353160D01*
X747497Y343880D02*
X748810Y343880D01*
X755371Y352316D01*
X747497Y352316D02*
X751434Y347255D01*
X759308Y346411D02*
X759308Y351473D01*
X759308Y352316D01*
X759308Y351473D02*
X760621Y352316D01*
X761933Y352316D01*
X763245Y351473D01*
X764558Y352316D01*
X765870Y352316D01*
X767182Y351473D01*
X767182Y346411D01*
X763245Y351473D02*
X763245Y346411D01*
X771119Y348098D02*
X773744Y346411D01*
X776369Y346411D01*
X778993Y348098D01*
X778993Y349786D01*
X776369Y351473D01*
X773744Y351473D01*
X771119Y349786D01*
X771119Y354847D02*
X771119Y346411D01*
X782930Y348098D02*
X785555Y346411D01*
X788180Y346411D01*
X790804Y348098D01*
X790804Y350629D01*
X788180Y352316D01*
X785555Y352316D01*
X782930Y350629D01*
X782930Y348098D01*
X796054Y354847D02*
X796054Y348098D01*
X798678Y346411D01*
X840411Y348098D02*
X843035Y346411D01*
X845660Y346411D01*
X848285Y348098D01*
X840411Y353160D01*
X843035Y354847D01*
X845660Y354847D01*
X848285Y353160D01*
X856159Y346411D02*
X856159Y351473D01*
X856159Y353160D02*
X856159Y354004D01*
X864033Y352316D02*
X871907Y352316D01*
X864033Y346411D01*
X871907Y346411D01*
X883718Y348098D02*
X881093Y346411D01*
X878469Y346411D01*
X875844Y348098D01*
X875844Y350629D01*
X878469Y352316D01*
X881093Y352316D01*
X883718Y350629D01*
X882406Y349786D01*
X875844Y349786D01*
X921513Y348098D02*
X924138Y346411D01*
X926762Y346411D01*
X929387Y348098D01*
X929387Y353160D01*
X926762Y354847D01*
X924138Y354847D01*
X921513Y353160D01*
X921513Y348098D01*
X926762Y348098D02*
X929387Y346411D01*
X933324Y352316D02*
X933324Y348098D01*
X935949Y346411D01*
X938573Y346411D01*
X941198Y348098D01*
X941198Y352316D01*
X941198Y348098D02*
X941198Y346411D01*
X946448Y352316D02*
X950385Y352316D01*
X951697Y351473D01*
X951697Y347255D01*
X950385Y346411D01*
X946448Y346411D01*
X945135Y347255D01*
X945135Y348942D01*
X946448Y349786D01*
X951697Y349786D01*
X951697Y347255D02*
X953009Y346411D01*
X956946Y346411D02*
X956946Y351473D01*
X956946Y352316D01*
X956946Y351473D02*
X958259Y352316D01*
X960883Y352316D01*
X962196Y351473D01*
X962196Y346411D01*
X975319Y347255D02*
X974007Y346411D01*
X972694Y347255D01*
X972694Y354847D01*
X970070Y352316D02*
X975319Y352316D01*
X984505Y346411D02*
X984505Y351473D01*
X984505Y353160D02*
X984505Y354004D01*
X998941Y347255D02*
X997629Y346411D01*
X996316Y347255D01*
X996316Y354847D01*
X993692Y352316D02*
X998941Y352316D01*
X1004190Y343880D02*
X1005503Y343880D01*
X1012064Y352316D01*
X1004190Y352316D02*
X1008127Y347255D01*
X1020332Y346411D02*
X1020332Y354847D01*
X1025581Y354847D01*
X1028206Y353160D01*
X1028206Y352316D01*
X1025581Y350629D01*
X1020332Y350629D01*
X1033455Y354847D02*
X1033455Y348098D01*
X1036080Y346411D01*
X1045266Y352316D02*
X1049203Y352316D01*
X1050516Y351473D01*
X1050516Y347255D01*
X1049203Y346411D01*
X1045266Y346411D01*
X1043954Y347255D01*
X1043954Y348942D01*
X1045266Y349786D01*
X1050516Y349786D01*
X1050516Y347255D02*
X1051828Y346411D01*
X1062327Y347255D02*
X1061014Y346411D01*
X1059702Y347255D01*
X1059702Y354847D01*
X1057077Y352316D02*
X1062327Y352316D01*
X1075450Y348098D02*
X1072825Y346411D01*
X1070201Y346411D01*
X1067576Y348098D01*
X1067576Y350629D01*
X1070201Y352316D01*
X1072825Y352316D01*
X1075450Y350629D01*
X1074138Y349786D01*
X1067576Y349786D01*
X1087261Y348098D02*
X1084636Y346411D01*
X1082012Y346411D01*
X1079387Y348098D01*
X1079387Y349786D01*
X1082012Y351473D01*
X1084636Y351473D01*
X1087261Y349786D01*
X1087261Y354847D02*
X1087261Y346411D01*
X1095529Y348098D02*
X1098154Y346411D01*
X1100778Y346411D01*
X1103403Y348098D01*
X1095529Y353160D01*
X1098154Y354847D01*
X1100778Y354847D01*
X1103403Y353160D01*
X1108652Y354847D02*
X1108652Y348098D01*
X1111277Y346411D01*
X1119151Y348098D02*
X1121776Y346411D01*
X1124400Y346411D01*
X1127025Y348098D01*
X1127025Y350629D01*
X1124400Y352316D01*
X1121776Y352316D01*
X1119151Y350629D01*
X1119151Y348098D01*
X1137524Y347255D02*
X1136211Y346411D01*
X1134899Y347255D01*
X1134899Y354847D01*
X1132274Y352316D02*
X1137524Y352316D01*
X1154584Y354847D02*
X1154584Y346411D01*
X1162458Y346411D01*
X1174269Y348098D02*
X1171644Y346411D01*
X1169020Y346411D01*
X1166395Y348098D01*
X1166395Y350629D01*
X1169020Y352316D01*
X1171644Y352316D01*
X1174269Y350629D01*
X1172957Y349786D01*
X1166395Y349786D01*
X1178206Y346411D02*
X1178206Y351473D01*
X1178206Y352316D01*
X1178206Y351473D02*
X1179518Y352316D01*
X1182143Y352316D01*
X1183455Y351473D01*
X1183455Y346411D01*
X1190017Y345567D02*
X1192642Y343880D01*
X1195266Y343880D01*
X1197891Y345567D01*
X1197891Y348098D01*
X1197891Y350629D01*
X1195266Y352316D01*
X1192642Y352316D01*
X1190017Y350629D01*
X1190017Y348098D01*
X1192642Y346411D01*
X1195266Y346411D01*
X1197891Y348098D01*
X1208390Y347255D02*
X1207077Y346411D01*
X1205765Y347255D01*
X1205765Y354847D01*
X1203140Y352316D02*
X1208390Y352316D01*
X1213639Y350629D02*
X1216264Y352316D01*
X1218888Y352316D01*
X1221513Y350629D01*
X1221513Y346411D01*
X1213639Y354847D02*
X1213639Y346411D01*
X732209Y362522D02*
X1226303Y362522D01*
X862458Y371884D02*
X862458Y376946D01*
X865083Y380321D01*
X867707Y380321D01*
X870332Y376946D01*
X870332Y371884D01*
X862458Y374415D02*
X870332Y374415D01*
X875581Y380321D02*
X875581Y373571D01*
X878206Y371884D01*
X887392Y380321D02*
X887392Y373571D01*
X890017Y371884D01*
X909702Y377790D02*
X909702Y373571D01*
X912327Y371884D01*
X914951Y371884D01*
X917576Y373571D01*
X917576Y377790D01*
X917576Y373571D02*
X917576Y371884D01*
X921513Y371884D02*
X921513Y376946D01*
X921513Y377790D01*
X921513Y376946D02*
X922825Y377790D01*
X925450Y377790D01*
X926762Y376946D01*
X926762Y371884D01*
X937261Y371884D02*
X937261Y376946D01*
X937261Y378633D02*
X937261Y379477D01*
X951697Y372728D02*
X950385Y371884D01*
X949072Y372728D01*
X949072Y380321D01*
X946448Y377790D02*
X951697Y377790D01*
X956946Y373571D02*
X959571Y371884D01*
X962196Y371884D01*
X964820Y373571D01*
X956946Y376102D01*
X959571Y377790D01*
X962196Y377790D01*
X964820Y376102D01*
X981881Y377790D02*
X985818Y377790D01*
X987130Y376946D01*
X987130Y372728D01*
X985818Y371884D01*
X981881Y371884D01*
X980568Y372728D01*
X980568Y374415D01*
X981881Y375259D01*
X987130Y375259D01*
X987130Y372728D02*
X988442Y371884D01*
X992379Y375259D02*
X996316Y377790D01*
X997629Y377790D01*
X1000253Y376102D01*
X992379Y371884D02*
X992379Y377790D01*
X1012064Y373571D02*
X1009440Y371884D01*
X1006815Y371884D01*
X1004190Y373571D01*
X1004190Y376102D01*
X1006815Y377790D01*
X1009440Y377790D01*
X1012064Y376102D01*
X1010752Y375259D01*
X1004190Y375259D01*
X1031749Y371884D02*
X1031749Y376946D01*
X1031749Y378633D02*
X1031749Y379477D01*
X1039623Y371884D02*
X1039623Y376946D01*
X1039623Y377790D01*
X1039623Y376946D02*
X1040936Y377790D01*
X1043560Y377790D01*
X1044873Y376946D01*
X1044873Y371884D01*
X1063245Y371884D02*
X1063245Y376946D01*
X1063245Y377790D01*
X1063245Y376946D02*
X1064558Y377790D01*
X1065870Y377790D01*
X1067182Y376946D01*
X1068495Y377790D01*
X1069807Y377790D01*
X1071119Y376946D01*
X1071119Y371884D01*
X1067182Y376946D02*
X1067182Y371884D01*
X1078993Y371884D02*
X1078993Y376946D01*
X1078993Y378633D02*
X1078993Y379477D01*
X1088180Y380321D02*
X1088180Y373571D01*
X1090804Y371884D01*
X732209Y387995D02*
X1226303Y387995D01*
X909702Y397357D02*
X914951Y397357D01*
X917576Y399045D01*
X917576Y404106D01*
X914951Y405794D01*
X909702Y405794D01*
X911014Y405794D02*
X911014Y397357D01*
X921513Y400732D02*
X925450Y403263D01*
X926762Y403263D01*
X929387Y401576D01*
X921513Y397357D02*
X921513Y403263D01*
X937261Y397357D02*
X937261Y402419D01*
X937261Y404106D02*
X937261Y404950D01*
X946448Y405794D02*
X946448Y399045D01*
X949072Y397357D01*
X958259Y405794D02*
X958259Y399045D01*
X960883Y397357D01*
X980568Y405794D02*
X980568Y397357D01*
X988442Y397357D01*
X1000253Y399045D02*
X997629Y397357D01*
X995004Y397357D01*
X992379Y399045D01*
X992379Y401576D01*
X995004Y403263D01*
X997629Y403263D01*
X1000253Y401576D01*
X998941Y400732D01*
X992379Y400732D01*
X1004190Y396514D02*
X1006815Y394826D01*
X1009440Y394826D01*
X1012064Y396514D01*
X1012064Y399045D01*
X1012064Y401576D01*
X1009440Y403263D01*
X1006815Y403263D01*
X1004190Y401576D01*
X1004190Y399045D01*
X1006815Y397357D01*
X1009440Y397357D01*
X1012064Y399045D01*
X1023875Y399045D02*
X1021251Y397357D01*
X1018626Y397357D01*
X1016001Y399045D01*
X1016001Y401576D01*
X1018626Y403263D01*
X1021251Y403263D01*
X1023875Y401576D01*
X1022563Y400732D01*
X1016001Y400732D01*
X1027812Y397357D02*
X1027812Y402419D01*
X1027812Y403263D01*
X1027812Y402419D02*
X1029125Y403263D01*
X1031749Y403263D01*
X1033062Y402419D01*
X1033062Y397357D01*
X1047497Y399045D02*
X1044873Y397357D01*
X1042248Y397357D01*
X1039623Y399045D01*
X1039623Y400732D01*
X1042248Y402419D01*
X1044873Y402419D01*
X1047497Y400732D01*
X1047497Y405794D02*
X1047497Y397357D01*

M02*
