G04 Generated by Ultiboard 13.0 *
%FSLAX25Y25*%
%MOIN*%

%ADD10C,0.00001*%
%ADD11C,0.00612*%
%ADD12C,0.00800*%
%ADD13C,0.00500*%
%ADD14C,0.00611*%
%ADD15C,0.00444*%
%ADD16C,0.00984*%
%ADD17C,0.00787*%
%ADD18C,0.00394*%
%ADD19C,0.00591*%
%ADD20C,0.01000*%
%ADD21C,0.00219*%
%ADD22C,0.01969*%
%ADD23C,0.01969*%
%ADD24C,0.03937*%


G04 ColorRGB FFFF00 for the following layer *
%LNSilkscreen Top*%
%LPD*%
G54D10*
G54D11*
X80392Y20118D02*
X80392Y16181D01*
X82744Y16181D01*
X85487Y16181D02*
X84703Y16181D01*
X83920Y16969D01*
X83920Y17756D01*
X84311Y18150D01*
X83920Y18543D01*
X83920Y19331D01*
X84703Y20118D01*
X85487Y20118D01*
X86271Y19331D01*
X86271Y18543D01*
X85879Y18150D01*
X86271Y17756D01*
X86271Y16969D01*
X85487Y16181D01*
X84311Y18150D02*
X85879Y18150D01*
X191392Y44669D02*
X192960Y44669D01*
X193744Y45457D01*
X193744Y47819D01*
X192960Y48606D01*
X191392Y48606D01*
X191784Y48606D02*
X191784Y44669D01*
X197271Y46244D02*
X194920Y46244D01*
X196879Y48606D01*
X196879Y44669D01*
X196487Y44669D02*
X197271Y44669D01*
X390882Y66392D02*
X394819Y66392D01*
X394819Y68744D01*
X394819Y71095D02*
X392850Y71095D01*
X391669Y72271D01*
X390882Y72271D01*
X390882Y69920D01*
X391669Y69920D01*
X389543Y27980D02*
X390331Y27196D01*
X390331Y26412D01*
X389543Y25628D01*
X387181Y25628D01*
X386394Y26412D01*
X386394Y27196D01*
X387181Y27980D01*
X387181Y29548D02*
X386394Y30332D01*
X390331Y30332D01*
X390331Y29156D02*
X390331Y31507D01*
X388756Y35035D02*
X388756Y32683D01*
X386394Y34643D01*
X390331Y34643D01*
X390331Y34251D02*
X390331Y35035D01*
X508882Y66392D02*
X512819Y66392D01*
X512819Y68744D01*
X508882Y71879D02*
X508882Y70703D01*
X509669Y69920D01*
X511244Y69920D01*
X512031Y69920D01*
X512819Y70703D01*
X512819Y71487D01*
X512031Y72271D01*
X511244Y72271D01*
X510457Y71487D01*
X510457Y70703D01*
X511244Y69920D01*
X507543Y27980D02*
X508331Y27196D01*
X508331Y26412D01*
X507543Y25628D01*
X505181Y25628D01*
X504394Y26412D01*
X504394Y27196D01*
X505181Y27980D01*
X505181Y29548D02*
X504394Y30332D01*
X508331Y30332D01*
X508331Y29156D02*
X508331Y31507D01*
X504787Y33075D02*
X504394Y33467D01*
X504394Y34251D01*
X505181Y35035D01*
X505969Y35035D01*
X506362Y34643D01*
X506756Y35035D01*
X507543Y35035D01*
X508331Y34251D01*
X508331Y33467D01*
X507937Y33075D01*
X506362Y33467D02*
X506362Y34643D01*
X626882Y66392D02*
X630819Y66392D01*
X630819Y68744D01*
X626882Y72271D02*
X626882Y69920D01*
X628457Y69920D01*
X628457Y71487D01*
X629244Y72271D01*
X630031Y72271D01*
X630819Y71487D01*
X630819Y69920D01*
X267543Y41980D02*
X268331Y41196D01*
X268331Y40412D01*
X267543Y39628D01*
X265181Y39628D01*
X264394Y40412D01*
X264394Y41196D01*
X265181Y41980D01*
X265181Y43548D02*
X264394Y44332D01*
X268331Y44332D01*
X268331Y43156D02*
X268331Y45507D01*
X264394Y49035D02*
X264394Y46683D01*
X265969Y46683D01*
X265969Y48251D01*
X266756Y49035D01*
X267543Y49035D01*
X268331Y48251D01*
X268331Y46683D01*
X283031Y80925D02*
X283819Y80141D01*
X283819Y79357D01*
X283031Y78573D01*
X280669Y78573D01*
X279882Y79357D01*
X279882Y80141D01*
X280669Y80925D01*
X280669Y82493D02*
X279882Y83276D01*
X283819Y83276D01*
X283819Y82101D02*
X283819Y84452D01*
X280669Y85628D02*
X279882Y86412D01*
X279882Y87196D01*
X280669Y87980D01*
X281063Y87980D01*
X283819Y85628D01*
X283819Y87980D01*
X283425Y87980D01*
X52543Y101337D02*
X53331Y102121D01*
X53331Y102905D01*
X52543Y103689D01*
X49394Y103689D01*
X52543Y104864D02*
X53331Y105648D01*
X53331Y106432D01*
X52543Y107216D01*
X50969Y107216D01*
X50181Y107216D01*
X49394Y106432D01*
X49394Y105648D01*
X50181Y104864D01*
X50969Y104864D01*
X51756Y105648D01*
X51756Y106432D01*
X50969Y107216D01*
X216543Y107161D02*
X217331Y106377D01*
X217331Y105593D01*
X216543Y104809D01*
X214181Y104809D01*
X213394Y105593D01*
X213394Y106377D01*
X214181Y107161D01*
X214181Y108729D02*
X213394Y109513D01*
X217331Y109513D01*
X217331Y108337D02*
X217331Y110689D01*
X214181Y112256D02*
X213394Y113040D01*
X217331Y113040D01*
X217331Y111864D02*
X217331Y114216D01*
X55331Y135392D02*
X51394Y135392D01*
X51394Y136960D01*
X52181Y137744D01*
X52575Y137744D01*
X53362Y136960D01*
X53362Y135392D01*
X53362Y135784D02*
X55331Y137744D01*
X51394Y141271D02*
X51394Y138920D01*
X52969Y138920D01*
X52969Y140487D01*
X53756Y141271D01*
X54543Y141271D01*
X55331Y140487D01*
X55331Y138920D01*
X141925Y278457D02*
X141141Y277669D01*
X140357Y277669D01*
X139573Y278457D01*
X139573Y280819D01*
X140357Y281606D01*
X141141Y281606D01*
X141925Y280819D01*
X143493Y280819D02*
X144276Y281606D01*
X144276Y277669D01*
X143101Y277669D02*
X145452Y277669D01*
X148588Y281606D02*
X147412Y281606D01*
X146628Y280819D01*
X146628Y279244D01*
X146628Y278457D01*
X147412Y277669D01*
X148196Y277669D01*
X148980Y278457D01*
X148980Y279244D01*
X148196Y280031D01*
X147412Y280031D01*
X146628Y279244D01*
X312337Y128181D02*
X313905Y128181D01*
X314689Y128969D01*
X314689Y131331D01*
X313905Y132118D01*
X312337Y132118D01*
X312729Y132118D02*
X312729Y128181D01*
X316256Y131724D02*
X316648Y132118D01*
X317432Y132118D01*
X318216Y131331D01*
X318216Y130543D01*
X317824Y130150D01*
X318216Y129756D01*
X318216Y128969D01*
X317432Y128181D01*
X316648Y128181D01*
X316256Y128575D01*
X316648Y130150D02*
X317824Y130150D01*
X599331Y133337D02*
X595394Y133337D01*
X595394Y134905D01*
X596181Y135689D01*
X596575Y135689D01*
X597362Y134905D01*
X597362Y133337D01*
X597362Y133729D02*
X599331Y135689D01*
X597756Y139216D02*
X597756Y136864D01*
X595394Y138824D01*
X599331Y138824D01*
X599331Y138432D02*
X599331Y139216D01*
X379744Y142457D02*
X378960Y141669D01*
X378176Y141669D01*
X377392Y142457D01*
X377392Y144819D01*
X378176Y145606D01*
X378960Y145606D01*
X379744Y144819D01*
X381311Y145213D02*
X381703Y145606D01*
X382487Y145606D01*
X383271Y144819D01*
X383271Y144031D01*
X382879Y143638D01*
X383271Y143244D01*
X383271Y142457D01*
X382487Y141669D01*
X381703Y141669D01*
X381311Y142063D01*
X381703Y143638D02*
X382879Y143638D01*
X395543Y189689D02*
X396331Y188905D01*
X396331Y188121D01*
X395543Y187337D01*
X393181Y187337D01*
X392394Y188121D01*
X392394Y188905D01*
X393181Y189689D01*
X393181Y191256D02*
X392394Y192040D01*
X396331Y192040D01*
X396331Y190864D02*
X396331Y193216D01*
X236337Y142181D02*
X236337Y146118D01*
X237905Y146118D01*
X238689Y145331D01*
X238689Y144937D01*
X237905Y144150D01*
X236337Y144150D01*
X236729Y144150D02*
X238689Y142181D01*
X240256Y145724D02*
X240648Y146118D01*
X241432Y146118D01*
X242216Y145331D01*
X242216Y144543D01*
X241824Y144150D01*
X242216Y143756D01*
X242216Y142969D01*
X241432Y142181D01*
X240648Y142181D01*
X240256Y142575D01*
X240648Y144150D02*
X241824Y144150D01*
X605394Y145809D02*
X609331Y145809D01*
X609331Y148161D01*
X609331Y151689D02*
X609331Y149337D01*
X607362Y149337D01*
X605394Y149337D01*
X605394Y151689D01*
X607362Y149337D02*
X607362Y150905D01*
X609331Y152864D02*
X609331Y154432D01*
X608543Y155216D01*
X606181Y155216D01*
X605394Y154432D01*
X605394Y152864D01*
X605394Y153256D02*
X609331Y153256D01*
X606181Y156784D02*
X605394Y157568D01*
X609331Y157568D01*
X609331Y156392D02*
X609331Y158744D01*
X39882Y156864D02*
X43819Y156864D01*
X43819Y159216D01*
X43819Y162744D02*
X43819Y160392D01*
X41850Y160392D01*
X39882Y160392D01*
X39882Y162744D01*
X41850Y160392D02*
X41850Y161960D01*
X43819Y163920D02*
X43819Y165487D01*
X43031Y166271D01*
X40669Y166271D01*
X39882Y165487D01*
X39882Y163920D01*
X39882Y164311D02*
X43819Y164311D01*
X40669Y167447D02*
X39882Y168231D01*
X39882Y169015D01*
X40669Y169799D01*
X41063Y169799D01*
X43819Y167447D01*
X43819Y169799D01*
X43425Y169799D01*
X368392Y162669D02*
X368392Y166606D01*
X369960Y166606D01*
X370744Y165819D01*
X370744Y165425D01*
X369960Y164638D01*
X368392Y164638D01*
X368784Y164638D02*
X370744Y162669D01*
X372311Y165819D02*
X373095Y166606D01*
X373095Y162669D01*
X371920Y162669D02*
X374271Y162669D01*
X76392Y174606D02*
X76392Y171457D01*
X77176Y170669D01*
X77960Y170669D01*
X78744Y171457D01*
X78744Y174606D01*
X80311Y174213D02*
X80703Y174606D01*
X81487Y174606D01*
X82271Y173819D01*
X82271Y173031D01*
X81879Y172638D01*
X82271Y172244D01*
X82271Y171457D01*
X81487Y170669D01*
X80703Y170669D01*
X80311Y171063D01*
X80703Y172638D02*
X81879Y172638D01*
X592969Y205608D02*
X592181Y204824D01*
X592181Y204040D01*
X592969Y203256D01*
X596118Y203256D01*
X596118Y199729D02*
X596118Y202080D01*
X594543Y202080D01*
X594543Y200513D01*
X593756Y199729D01*
X592969Y199729D01*
X592181Y200513D01*
X592181Y202080D01*
X60031Y190392D02*
X60819Y191176D01*
X60819Y191960D01*
X60031Y192744D01*
X56882Y192744D01*
X56882Y195879D02*
X56882Y194703D01*
X57669Y193920D01*
X59244Y193920D01*
X60031Y193920D01*
X60819Y194703D01*
X60819Y195487D01*
X60031Y196271D01*
X59244Y196271D01*
X58457Y195487D01*
X58457Y194703D01*
X59244Y193920D01*
X30392Y220669D02*
X30392Y224606D01*
X31960Y224606D01*
X32744Y223819D01*
X32744Y223425D01*
X31960Y222638D01*
X30392Y222638D01*
X30784Y222638D02*
X32744Y220669D01*
X35879Y224606D02*
X34703Y224606D01*
X33920Y223819D01*
X33920Y222244D01*
X33920Y221457D01*
X34703Y220669D01*
X35487Y220669D01*
X36271Y221457D01*
X36271Y222244D01*
X35487Y223031D01*
X34703Y223031D01*
X33920Y222244D01*
X55394Y215809D02*
X59331Y215809D01*
X59331Y218161D01*
X59331Y221689D02*
X59331Y219337D01*
X57362Y219337D01*
X55394Y219337D01*
X55394Y221689D01*
X57362Y219337D02*
X57362Y220905D01*
X59331Y222864D02*
X59331Y224432D01*
X58543Y225216D01*
X56181Y225216D01*
X55394Y224432D01*
X55394Y222864D01*
X55394Y223256D02*
X59331Y223256D01*
X55787Y226784D02*
X55394Y227176D01*
X55394Y227960D01*
X56181Y228744D01*
X56969Y228744D01*
X57362Y228352D01*
X57756Y228744D01*
X58543Y228744D01*
X59331Y227960D01*
X59331Y227176D01*
X58937Y226784D01*
X57362Y227176D02*
X57362Y228352D01*
X244559Y220634D02*
X244559Y224571D01*
X246127Y224571D01*
X246911Y223783D01*
X246911Y223390D01*
X246127Y222602D01*
X244559Y222602D01*
X244951Y222602D02*
X246911Y220634D01*
X249654Y220634D02*
X248870Y220634D01*
X248086Y221421D01*
X248086Y222209D01*
X248478Y222602D01*
X248086Y222996D01*
X248086Y223783D01*
X248870Y224571D01*
X249654Y224571D01*
X250438Y223783D01*
X250438Y222996D01*
X250046Y222602D01*
X250438Y222209D01*
X250438Y221421D01*
X249654Y220634D01*
X248478Y222602D02*
X250046Y222602D01*
X595331Y234628D02*
X591394Y234628D01*
X591394Y236196D01*
X592181Y236980D01*
X592575Y236980D01*
X593362Y236196D01*
X593362Y234628D01*
X593362Y235020D02*
X595331Y236980D01*
X592181Y238548D02*
X591394Y239332D01*
X595331Y239332D01*
X595331Y238156D02*
X595331Y240507D01*
X592181Y241683D02*
X591394Y242467D01*
X591394Y243251D01*
X592181Y244035D01*
X594543Y244035D01*
X595331Y243251D01*
X595331Y242467D01*
X594543Y241683D01*
X592181Y241683D01*
X592181Y244035D02*
X594543Y241683D01*
X237392Y248669D02*
X237392Y252606D01*
X238960Y252606D01*
X239744Y251819D01*
X239744Y251425D01*
X238960Y250638D01*
X237392Y250638D01*
X237784Y250638D02*
X239744Y248669D01*
X240920Y251819D02*
X241703Y252606D01*
X242487Y252606D01*
X243271Y251819D01*
X243271Y251425D01*
X240920Y248669D01*
X243271Y248669D01*
X243271Y249063D01*
X33744Y242457D02*
X32960Y241669D01*
X32176Y241669D01*
X31392Y242457D01*
X31392Y244819D01*
X32176Y245606D01*
X32960Y245606D01*
X33744Y244819D01*
X34920Y244819D02*
X35703Y245606D01*
X36487Y245606D01*
X37271Y244819D01*
X37271Y244425D01*
X34920Y241669D01*
X37271Y241669D01*
X37271Y242063D01*
X54031Y276337D02*
X54819Y277121D01*
X54819Y277905D01*
X54031Y278689D01*
X50882Y278689D01*
X51669Y280256D02*
X50882Y281040D01*
X54819Y281040D01*
X54819Y279864D02*
X54819Y282216D01*
X239392Y278669D02*
X240960Y278669D01*
X241744Y279457D01*
X241744Y281819D01*
X240960Y282606D01*
X239392Y282606D01*
X239784Y282606D02*
X239784Y278669D01*
X242920Y281819D02*
X243703Y282606D01*
X244487Y282606D01*
X245271Y281819D01*
X245271Y281425D01*
X242920Y278669D01*
X245271Y278669D01*
X245271Y279063D01*
X404925Y253969D02*
X404141Y253181D01*
X403357Y253181D01*
X402573Y253969D01*
X402573Y256331D01*
X403357Y257118D01*
X404141Y257118D01*
X404925Y256331D01*
X406493Y256331D02*
X407276Y257118D01*
X407276Y253181D01*
X406101Y253181D02*
X408452Y253181D01*
X411196Y253181D02*
X410412Y253181D01*
X409628Y253969D01*
X409628Y254756D01*
X410020Y255150D01*
X409628Y255543D01*
X409628Y256331D01*
X410412Y257118D01*
X411196Y257118D01*
X411980Y256331D01*
X411980Y255543D01*
X411588Y255150D01*
X411980Y254756D01*
X411980Y253969D01*
X411196Y253181D01*
X410020Y255150D02*
X411588Y255150D01*
X469394Y319337D02*
X473331Y319337D01*
X473331Y321689D01*
X470181Y323256D02*
X469394Y324040D01*
X473331Y324040D01*
X473331Y322864D02*
X473331Y325216D01*
X388689Y269969D02*
X387905Y269181D01*
X387121Y269181D01*
X386337Y269969D01*
X386337Y272331D01*
X387121Y273118D01*
X387905Y273118D01*
X388689Y272331D01*
X392216Y273118D02*
X389864Y273118D01*
X389864Y271543D01*
X391432Y271543D01*
X392216Y270756D01*
X392216Y269969D01*
X391432Y269181D01*
X389864Y269181D01*
X603614Y282864D02*
X606764Y282864D01*
X607551Y283648D01*
X607551Y284432D01*
X606764Y285216D01*
X603614Y285216D01*
X604402Y286784D02*
X603614Y287568D01*
X607551Y287568D01*
X607551Y286392D02*
X607551Y288744D01*
X134394Y337337D02*
X138331Y337337D01*
X138331Y339689D01*
X134787Y341256D02*
X134394Y341648D01*
X134394Y342432D01*
X135181Y343216D01*
X135969Y343216D01*
X136362Y342824D01*
X136756Y343216D01*
X137543Y343216D01*
X138331Y342432D01*
X138331Y341648D01*
X137937Y341256D01*
X136362Y341648D02*
X136362Y342824D01*
X250394Y337337D02*
X254331Y337337D01*
X254331Y339689D01*
X252756Y343216D02*
X252756Y340864D01*
X250394Y342824D01*
X254331Y342824D01*
X254331Y342432D02*
X254331Y343216D01*
X551543Y322744D02*
X552331Y321960D01*
X552331Y321176D01*
X551543Y320392D01*
X549181Y320392D01*
X548394Y321176D01*
X548394Y321960D01*
X549181Y322744D01*
X552331Y325095D02*
X550362Y325095D01*
X549181Y326271D01*
X548394Y326271D01*
X548394Y323920D01*
X549181Y323920D01*
X441331Y347392D02*
X441331Y348960D01*
X440543Y349744D01*
X438181Y349744D01*
X437394Y348960D01*
X437394Y347392D01*
X437394Y347784D02*
X441331Y347784D01*
X438181Y351311D02*
X437394Y352095D01*
X441331Y352095D01*
X441331Y350920D02*
X441331Y353271D01*
X603573Y332181D02*
X603573Y336118D01*
X605141Y336118D01*
X605925Y335331D01*
X605925Y334937D01*
X605141Y334150D01*
X603573Y334150D01*
X603965Y334150D02*
X605925Y332181D01*
X607493Y335331D02*
X608276Y336118D01*
X608276Y332181D01*
X607101Y332181D02*
X609452Y332181D01*
X610628Y335331D02*
X611412Y336118D01*
X612196Y336118D01*
X612980Y335331D01*
X612980Y334937D01*
X610628Y332181D01*
X612980Y332181D01*
X612980Y332575D01*
X563331Y364628D02*
X559394Y364628D01*
X559394Y366196D01*
X560181Y366980D01*
X560575Y366980D01*
X561362Y366196D01*
X561362Y364628D01*
X561362Y365020D02*
X563331Y366980D01*
X560181Y368548D02*
X559394Y369332D01*
X563331Y369332D01*
X563331Y368156D02*
X563331Y370507D01*
X560181Y372075D02*
X559394Y372859D01*
X563331Y372859D01*
X563331Y371683D02*
X563331Y374035D01*
X144031Y368689D02*
X144819Y367905D01*
X144819Y367121D01*
X144031Y366337D01*
X141669Y366337D01*
X140882Y367121D01*
X140882Y367905D01*
X141669Y368689D01*
X144819Y371432D02*
X144819Y370648D01*
X144031Y369864D01*
X143244Y369864D01*
X142850Y370256D01*
X142457Y369864D01*
X141669Y369864D01*
X140882Y370648D01*
X140882Y371432D01*
X141669Y372216D01*
X142457Y372216D01*
X142850Y371824D01*
X143244Y372216D01*
X144031Y372216D01*
X144819Y371432D01*
X142850Y370256D02*
X142850Y371824D01*
X260031Y370689D02*
X260819Y369905D01*
X260819Y369121D01*
X260031Y368337D01*
X257669Y368337D01*
X256882Y369121D01*
X256882Y369905D01*
X257669Y370689D01*
X260031Y371864D02*
X260819Y372648D01*
X260819Y373432D01*
X260031Y374216D01*
X258457Y374216D01*
X257669Y374216D01*
X256882Y373432D01*
X256882Y372648D01*
X257669Y371864D01*
X258457Y371864D01*
X259244Y372648D01*
X259244Y373432D01*
X258457Y374216D01*
X376031Y368925D02*
X376819Y368141D01*
X376819Y367357D01*
X376031Y366573D01*
X373669Y366573D01*
X372882Y367357D01*
X372882Y368141D01*
X373669Y368925D01*
X373669Y370493D02*
X372882Y371276D01*
X376819Y371276D01*
X376819Y370101D02*
X376819Y372452D01*
X373669Y373628D02*
X372882Y374412D01*
X372882Y375196D01*
X373669Y375980D01*
X376031Y375980D01*
X376819Y375196D01*
X376819Y374412D01*
X376031Y373628D01*
X373669Y373628D01*
X373669Y375980D02*
X376031Y373628D01*
X389744Y367457D02*
X388960Y366669D01*
X388176Y366669D01*
X387392Y367457D01*
X387392Y369819D01*
X388176Y370606D01*
X388960Y370606D01*
X389744Y369819D01*
X392879Y370606D02*
X391703Y370606D01*
X390920Y369819D01*
X390920Y368244D01*
X390920Y367457D01*
X391703Y366669D01*
X392487Y366669D01*
X393271Y367457D01*
X393271Y368244D01*
X392487Y369031D01*
X391703Y369031D01*
X390920Y368244D01*
X18394Y337337D02*
X22331Y337337D01*
X22331Y339689D01*
X19181Y340864D02*
X18394Y341648D01*
X18394Y342432D01*
X19181Y343216D01*
X19575Y343216D01*
X22331Y340864D01*
X22331Y343216D01*
X21937Y343216D01*
X164744Y63457D02*
X163960Y62669D01*
X163176Y62669D01*
X162392Y63457D01*
X162392Y65819D01*
X163176Y66606D01*
X163960Y66606D01*
X164744Y65819D01*
X166311Y65819D02*
X167095Y66606D01*
X167095Y62669D01*
X165920Y62669D02*
X168271Y62669D01*
X170623Y62669D02*
X170623Y64638D01*
X171799Y65819D01*
X171799Y66606D01*
X169447Y66606D01*
X169447Y65819D01*
X592543Y317689D02*
X593331Y316905D01*
X593331Y316121D01*
X592543Y315337D01*
X590181Y315337D01*
X589394Y316121D01*
X589394Y316905D01*
X590181Y317689D01*
X591756Y321216D02*
X591756Y318864D01*
X589394Y320824D01*
X593331Y320824D01*
X593331Y320432D02*
X593331Y321216D01*
G54D12*
X148000Y21500D02*
X148000Y86500D01*
X20000Y86500D01*
X20000Y21500D01*
X148000Y21500D01*
X190000Y30000D02*
X190000Y38000D01*
G36*
X190000Y34000D02*
X190000Y34000D01*
X197000Y38000D01*
X197000Y30000D01*
X190000Y34000D01*
D02*
G37*
X197000Y38000D01*
X197000Y30000D01*
X190000Y34000D01*
X176000Y34000D02*
X212000Y34000D01*
X287000Y70000D02*
G75*
D01*
G02X287000Y70000I51000J0*
G01*
X358000Y70000D02*
X374000Y70000D01*
X318000Y70000D02*
X302000Y70000D01*
X402528Y22913D02*
X402528Y37087D01*
X393472Y37087D02*
X393472Y22913D01*
X405000Y70000D02*
G75*
D01*
G02X405000Y70000I51000J0*
G01*
X476000Y70000D02*
X492000Y70000D01*
X436000Y70000D02*
X420000Y70000D01*
X520528Y22913D02*
X520528Y37087D01*
X511472Y37087D02*
X511472Y22913D01*
X523000Y70000D02*
G75*
D01*
G02X523000Y70000I51000J0*
G01*
X594000Y70000D02*
X610000Y70000D01*
X554000Y70000D02*
X538000Y70000D01*
X280528Y36913D02*
X280528Y51087D01*
X271472Y51087D02*
X271472Y36913D01*
X244500Y52000D02*
X244500Y92000D01*
X263000Y92000D02*
X263000Y52000D01*
X258000Y52000D02*
X258000Y92000D01*
X257500Y92000D02*
X244500Y92000D01*
X263000Y92000D02*
X257500Y92000D01*
X257500Y52000D02*
X244500Y52000D01*
X263000Y52000D02*
X257500Y52000D01*
X274322Y74179D02*
X274960Y74347D01*
X275582Y74680D01*
X276177Y75173D01*
X276734Y75816D01*
X277245Y76600D01*
X277700Y77510D01*
X278092Y78532D01*
X278414Y79647D01*
X278660Y80836D01*
X278827Y82080D01*
X278911Y83356D01*
X278911Y84644D01*
X278827Y85920D01*
X278660Y87164D01*
X278414Y88353D01*
X278092Y89468D01*
X277700Y90490D01*
X277245Y91400D01*
X276734Y92184D01*
X276177Y92827D01*
X275582Y93320D01*
X274960Y93653D01*
X274322Y93821D01*
X273678Y93821D01*
X273040Y93653D01*
X272418Y93320D01*
X271823Y92827D01*
X271266Y92184D01*
X270755Y91400D01*
X270300Y90490D01*
X269908Y89468D01*
X269586Y88353D01*
X269340Y87164D01*
X269173Y85920D01*
X269089Y84644D01*
X269089Y83356D01*
X269173Y82080D01*
X269340Y80836D01*
X269586Y79647D01*
X269908Y78532D01*
X270300Y77510D01*
X270755Y76600D01*
X271266Y75816D01*
X271823Y75173D01*
X272418Y74680D01*
X273040Y74347D01*
X273678Y74179D01*
X274322Y74179D01*
X47748Y100315D02*
X47748Y139685D01*
X12315Y139685D02*
X12315Y100315D01*
X47748Y139685D02*
X12315Y139685D01*
X12315Y100315D02*
X47748Y100315D01*
X32000Y120000D02*
X16000Y120000D01*
X16000Y125000D02*
X16000Y116000D01*
X16000Y115000D01*
G36*
X16000Y120000D02*
X16000Y120000D01*
X22000Y124000D01*
X22000Y116000D01*
X16000Y120000D01*
D02*
G37*
X22000Y124000D01*
X22000Y116000D01*
X16000Y120000D01*
X219472Y117087D02*
X219472Y102913D01*
X228528Y102913D02*
X228528Y117087D01*
X286835Y117892D02*
X283685Y117892D01*
X282898Y117108D01*
X282898Y116324D01*
X283685Y115540D01*
X286835Y115540D01*
X284472Y112012D02*
X284472Y114364D01*
X286835Y112404D01*
X282898Y112404D01*
X282898Y112796D02*
X282898Y112012D01*
X237504Y104224D02*
X280496Y104224D01*
X280496Y125776D02*
X237504Y125776D01*
X280496Y104224D02*
X280496Y125776D01*
X237504Y125776D02*
X237504Y104224D01*
X58157Y160638D02*
X58157Y115362D01*
X77843Y115362D02*
X77843Y160638D01*
X58157Y115362D02*
X77843Y115362D01*
X77843Y160638D02*
X58157Y160638D01*
X84945Y273661D02*
X84945Y106339D01*
X203055Y106339D01*
X203055Y273661D01*
X84945Y273661D01*
X632679Y111056D02*
X633274Y112167D01*
X633274Y113278D01*
X632679Y114389D01*
X630298Y114389D01*
X630893Y116611D02*
X630298Y117722D01*
X633274Y117722D01*
X633274Y116056D02*
X633274Y119389D01*
X630893Y121056D02*
X630298Y122167D01*
X630298Y123278D01*
X630893Y124389D01*
X631190Y124389D01*
X633274Y121056D01*
X633274Y124389D01*
X632976Y124389D01*
X629000Y133000D02*
X629000Y113000D01*
X619000Y120500D02*
X619000Y113000D01*
X629000Y113000D01*
X619000Y133000D02*
X619000Y123833D01*
X619000Y122167D02*
X622333Y122167D01*
X619833Y121333D02*
X619000Y122167D01*
X619000Y133000D02*
X629000Y133000D01*
X320000Y146000D02*
X320000Y138000D01*
G36*
X320000Y142000D02*
X320000Y142000D01*
X313000Y138000D01*
X313000Y146000D01*
X320000Y142000D01*
D02*
G37*
X313000Y138000D01*
X313000Y146000D01*
X320000Y142000D01*
X334000Y142000D02*
X298000Y142000D01*
X574157Y178638D02*
X574157Y133362D01*
X593843Y133362D02*
X593843Y178638D01*
X574157Y133362D02*
X593843Y133362D01*
X593843Y178638D02*
X574157Y178638D01*
X372913Y129472D02*
X387087Y129472D01*
X387087Y138528D02*
X372913Y138528D01*
X400339Y130945D02*
X567661Y130945D01*
X567661Y249055D01*
X400339Y249055D01*
X400339Y130945D01*
X217362Y148157D02*
X262638Y148157D01*
X262638Y167843D02*
X217362Y167843D01*
X262638Y148157D02*
X262638Y167843D01*
X217362Y167843D02*
X217362Y148157D01*
X359500Y151374D02*
X384500Y151374D01*
X384500Y160626D01*
X359500Y160626D01*
X359500Y151374D01*
X64331Y180307D02*
X64331Y196559D01*
X235392Y184669D02*
X235392Y188606D01*
X236960Y188606D01*
X237744Y187819D01*
X237744Y187425D01*
X236960Y186638D01*
X235392Y186638D01*
X235784Y186638D02*
X237744Y184669D01*
X240095Y184669D02*
X240095Y186638D01*
X241271Y187819D01*
X241271Y188606D01*
X238920Y188606D01*
X238920Y187819D01*
X372056Y186488D02*
X373167Y185893D01*
X374278Y185893D01*
X375389Y186488D01*
X375389Y188869D01*
X377611Y188274D02*
X378722Y188869D01*
X378722Y185893D01*
X377056Y185893D02*
X380389Y185893D01*
X382611Y188274D02*
X383722Y188869D01*
X383722Y185893D01*
X382056Y185893D02*
X385389Y185893D01*
X285000Y183000D02*
X385000Y183000D01*
X375000Y173000D02*
X337500Y173000D01*
X385000Y173000D02*
X377500Y173000D01*
X385000Y183000D02*
X385000Y173000D01*
X375833Y173000D02*
X375833Y176333D01*
X376667Y173833D02*
X375833Y173000D01*
X285000Y173000D02*
X334167Y173000D01*
X336667Y173000D02*
X335000Y173000D01*
X336667Y174667D02*
X336667Y173000D01*
X336667Y174667D02*
X335833Y174667D01*
X336667Y176333D02*
X335833Y176333D01*
X335761Y176330D01*
X335689Y176321D01*
X335618Y176305D01*
X335548Y176283D01*
X335481Y176255D01*
X335417Y176222D01*
X335355Y176183D01*
X335298Y176138D01*
X335244Y176089D01*
X335195Y176036D01*
X335151Y175978D01*
X335112Y175917D01*
X335078Y175852D01*
X335050Y175785D01*
X335029Y175716D01*
X335013Y175645D01*
X335003Y175573D01*
X335000Y175500D01*
X335003Y175427D01*
X335013Y175355D01*
X335029Y175284D01*
X335050Y175215D01*
X335078Y175148D01*
X335112Y175083D01*
X335151Y175022D01*
X335195Y174964D01*
X335244Y174911D01*
X335298Y174862D01*
X335355Y174817D01*
X335417Y174778D01*
X335481Y174745D01*
X335548Y174717D01*
X335618Y174695D01*
X335689Y174679D01*
X335761Y174670D01*
X335833Y174667D01*
X285000Y173000D02*
X285000Y183000D01*
X598252Y205685D02*
X598252Y166315D01*
X633685Y166315D02*
X633685Y205685D01*
X598252Y166315D02*
X633685Y166315D01*
X633685Y205685D02*
X598252Y205685D01*
X614000Y186000D02*
X630000Y186000D01*
X630000Y181000D02*
X630000Y190000D01*
X630000Y191000D01*
G36*
X630000Y186000D02*
X630000Y186000D01*
X624000Y182000D01*
X624000Y190000D01*
X630000Y186000D01*
D02*
G37*
X624000Y182000D01*
X624000Y190000D01*
X630000Y186000D01*
X12441Y183173D02*
X55441Y183173D01*
X55441Y204827D02*
X12441Y204827D01*
X55441Y183173D02*
X55441Y204827D01*
X253187Y192310D02*
X253187Y201365D01*
X233502Y201365D02*
X233502Y192310D01*
X253187Y201365D02*
X233502Y201365D01*
X233502Y192310D02*
X253187Y192310D01*
X389882Y212392D02*
X393031Y212392D01*
X393819Y213176D01*
X393819Y213960D01*
X393031Y214744D01*
X389882Y214744D01*
X389882Y218271D02*
X389882Y215920D01*
X391457Y215920D01*
X391457Y217487D01*
X392244Y218271D01*
X393031Y218271D01*
X393819Y217487D01*
X393819Y215920D01*
X281516Y206232D02*
X388484Y206232D01*
X388484Y227768D02*
X281516Y227768D01*
X388484Y206232D02*
X388484Y227768D01*
X281516Y227768D02*
X281516Y206232D01*
X590205Y226045D02*
X586268Y226045D01*
X586268Y227613D01*
X587055Y228397D01*
X587449Y228397D01*
X588236Y227613D01*
X588236Y226045D01*
X588236Y226437D02*
X590205Y228397D01*
X589417Y229573D02*
X590205Y230357D01*
X590205Y231141D01*
X589417Y231925D01*
X587843Y231925D01*
X587055Y231925D01*
X586268Y231141D01*
X586268Y230357D01*
X587055Y229573D01*
X587843Y229573D01*
X588630Y230357D01*
X588630Y231141D01*
X587843Y231925D01*
X21500Y209374D02*
X46500Y209374D01*
X46500Y218626D01*
X21500Y218626D01*
X21500Y209374D01*
X235667Y209339D02*
X260667Y209339D01*
X260667Y218591D01*
X235667Y218591D01*
X235667Y209339D01*
X624528Y245323D02*
X615472Y245323D01*
X615472Y225638D02*
X624528Y225638D01*
X615472Y245323D02*
X615472Y225638D01*
X624528Y225638D02*
X624528Y245323D01*
X606626Y227500D02*
X606626Y252500D01*
X597374Y252500D01*
X597374Y227500D01*
X606626Y227500D01*
X262638Y245843D02*
X217362Y245843D01*
X217362Y226157D02*
X262638Y226157D01*
X217362Y245843D02*
X217362Y226157D01*
X262638Y226157D02*
X262638Y245843D01*
X26913Y229472D02*
X41087Y229472D01*
X41087Y238528D02*
X26913Y238528D01*
X74679Y239556D02*
X75274Y240667D01*
X75274Y241778D01*
X74679Y242889D01*
X72298Y242889D01*
X72893Y244556D02*
X72298Y245667D01*
X72298Y246778D01*
X72893Y247889D01*
X73190Y247889D01*
X75274Y244556D01*
X75274Y247889D01*
X74976Y247889D01*
X71000Y259000D02*
X71000Y239000D01*
X61000Y246500D02*
X61000Y239000D01*
X71000Y239000D01*
X61000Y259000D02*
X61000Y249833D01*
X61000Y248167D02*
X64333Y248167D01*
X61833Y247333D02*
X61000Y248167D01*
X61000Y259000D02*
X71000Y259000D01*
X47748Y248315D02*
X47748Y287685D01*
X12315Y287685D02*
X12315Y248315D01*
X47748Y287685D02*
X12315Y287685D01*
X12315Y248315D02*
X47748Y248315D01*
X32000Y268000D02*
X16000Y268000D01*
X16000Y273000D02*
X16000Y264000D01*
X16000Y263000D01*
G36*
X16000Y268000D02*
X16000Y268000D01*
X22000Y272000D01*
X22000Y264000D01*
X16000Y268000D01*
D02*
G37*
X22000Y272000D01*
X22000Y264000D01*
X16000Y268000D01*
X238000Y264000D02*
X238000Y272000D01*
G36*
X238000Y268000D02*
X238000Y268000D01*
X245000Y272000D01*
X245000Y264000D01*
X238000Y268000D01*
D02*
G37*
X245000Y272000D01*
X245000Y264000D01*
X238000Y268000D01*
X224000Y268000D02*
X260000Y268000D01*
X372056Y264488D02*
X373167Y263893D01*
X374278Y263893D01*
X375389Y264488D01*
X375389Y266869D01*
X377611Y266274D02*
X378722Y266869D01*
X378722Y263893D01*
X377056Y263893D02*
X380389Y263893D01*
X382056Y266274D02*
X383167Y266869D01*
X384278Y266869D01*
X385389Y266274D01*
X385389Y264488D01*
X384278Y263893D01*
X383167Y263893D01*
X382056Y264488D01*
X382056Y266274D01*
X385389Y266274D02*
X382056Y264488D01*
X285000Y261000D02*
X385000Y261000D01*
X375000Y251000D02*
X337500Y251000D01*
X385000Y251000D02*
X377500Y251000D01*
X385000Y261000D02*
X385000Y251000D01*
X375833Y251000D02*
X375833Y254333D01*
X376667Y251833D02*
X375833Y251000D01*
X285000Y251000D02*
X334167Y251000D01*
X336667Y251000D02*
X335000Y251000D01*
X336667Y252667D02*
X336667Y251000D01*
X336667Y252667D02*
X335833Y252667D01*
X336667Y254333D02*
X335833Y254333D01*
X335761Y254330D01*
X335689Y254321D01*
X335618Y254305D01*
X335548Y254283D01*
X335481Y254255D01*
X335417Y254222D01*
X335355Y254183D01*
X335298Y254138D01*
X335244Y254089D01*
X335195Y254036D01*
X335151Y253978D01*
X335112Y253917D01*
X335078Y253852D01*
X335050Y253785D01*
X335029Y253716D01*
X335013Y253645D01*
X335003Y253573D01*
X335000Y253500D01*
X335003Y253427D01*
X335013Y253355D01*
X335029Y253284D01*
X335050Y253215D01*
X335078Y253148D01*
X335112Y253083D01*
X335151Y253022D01*
X335195Y252964D01*
X335244Y252911D01*
X335298Y252862D01*
X335355Y252817D01*
X335417Y252778D01*
X335481Y252745D01*
X335548Y252717D01*
X335618Y252695D01*
X335689Y252679D01*
X335761Y252670D01*
X335833Y252667D01*
X285000Y251000D02*
X285000Y261000D01*
X415087Y268528D02*
X400913Y268528D01*
X400913Y259472D02*
X415087Y259472D01*
X475500Y258000D02*
X540500Y258000D01*
X540500Y386000D01*
X475500Y386000D01*
X475500Y258000D01*
X397087Y284528D02*
X382913Y284528D01*
X382913Y275472D02*
X397087Y275472D01*
X624679Y277556D02*
X625274Y278667D01*
X625274Y279778D01*
X624679Y280889D01*
X622298Y280889D01*
X624083Y285889D02*
X624083Y282556D01*
X622298Y285333D01*
X625274Y285333D01*
X625274Y284778D02*
X625274Y285889D01*
X621000Y297000D02*
X621000Y277000D01*
X611000Y284500D02*
X611000Y277000D01*
X621000Y277000D01*
X611000Y297000D02*
X611000Y287833D01*
X611000Y286167D02*
X614333Y286167D01*
X611833Y285333D02*
X611000Y286167D01*
X611000Y297000D02*
X621000Y297000D01*
X141000Y340000D02*
G75*
D01*
G02X141000Y340000I51000J0*
G01*
X172000Y340000D02*
X156000Y340000D01*
X212000Y340000D02*
X228000Y340000D01*
X257000Y340000D02*
G75*
D01*
G02X257000Y340000I51000J0*
G01*
X288000Y340000D02*
X272000Y340000D01*
X328000Y340000D02*
X344000Y340000D01*
X367165Y302108D02*
X370315Y302108D01*
X371102Y302892D01*
X371102Y303676D01*
X370315Y304460D01*
X367165Y304460D01*
X367953Y305636D02*
X367165Y306420D01*
X367165Y307204D01*
X367953Y307988D01*
X368346Y307988D01*
X371102Y305636D01*
X371102Y307988D01*
X370709Y307988D01*
X416496Y315776D02*
X373504Y315776D01*
X373504Y294224D02*
X416496Y294224D01*
X373504Y315776D02*
X373504Y294224D01*
X416496Y294224D02*
X416496Y315776D01*
X554252Y324000D02*
G75*
D01*
G02X554252Y324000I15748J0*
G01*
X560000Y317000D02*
X564000Y317000D01*
X562000Y315000D02*
X562000Y319000D01*
X456000Y346000D02*
X448000Y346000D01*
G36*
X452000Y346000D02*
X452000Y346000D01*
X448000Y353000D01*
X456000Y353000D01*
X452000Y346000D01*
D02*
G37*
X448000Y353000D01*
X456000Y353000D01*
X452000Y346000D01*
X452000Y332000D02*
X452000Y368000D01*
X420000Y332500D02*
X380000Y332500D01*
X380000Y351000D02*
X420000Y351000D01*
X420000Y346000D02*
X380000Y346000D01*
X380000Y345500D02*
X380000Y332500D01*
X380000Y351000D02*
X380000Y345500D01*
X420000Y345500D02*
X420000Y332500D01*
X420000Y351000D02*
X420000Y345500D01*
X620500Y346626D02*
X595500Y346626D01*
X595500Y337374D01*
X620500Y337374D01*
X620500Y346626D01*
X574626Y357500D02*
X574626Y382500D01*
X565374Y382500D01*
X565374Y357500D01*
X574626Y357500D01*
X630835Y373892D02*
X627685Y373892D01*
X626898Y373108D01*
X626898Y372324D01*
X627685Y371540D01*
X630835Y371540D01*
X630835Y368404D02*
X630835Y369580D01*
X630047Y370364D01*
X628472Y370364D01*
X627685Y370364D01*
X626898Y369580D01*
X626898Y368796D01*
X627685Y368012D01*
X628472Y368012D01*
X629260Y368796D01*
X629260Y369580D01*
X628472Y370364D01*
X581504Y360224D02*
X624496Y360224D01*
X624496Y381776D02*
X581504Y381776D01*
X624496Y360224D02*
X624496Y381776D01*
X581504Y381776D02*
X581504Y360224D01*
X129472Y377087D02*
X129472Y362913D01*
X138528Y362913D02*
X138528Y377087D01*
X245472Y379087D02*
X245472Y364913D01*
X254528Y364913D02*
X254528Y379087D01*
X361472Y379087D02*
X361472Y364913D01*
X370528Y364913D02*
X370528Y379087D01*
X399821Y360322D02*
X399653Y360960D01*
X399320Y361582D01*
X398827Y362177D01*
X398184Y362734D01*
X397400Y363245D01*
X396490Y363700D01*
X395468Y364092D01*
X394353Y364414D01*
X393164Y364660D01*
X391920Y364827D01*
X390644Y364911D01*
X389356Y364911D01*
X388080Y364827D01*
X386836Y364660D01*
X385647Y364414D01*
X384532Y364092D01*
X383510Y363700D01*
X382600Y363245D01*
X381816Y362734D01*
X381173Y362177D01*
X380680Y361582D01*
X380347Y360960D01*
X380179Y360322D01*
X380179Y359678D01*
X380347Y359040D01*
X380680Y358418D01*
X381173Y357823D01*
X381816Y357266D01*
X382600Y356755D01*
X383510Y356300D01*
X384532Y355908D01*
X385647Y355586D01*
X386836Y355340D01*
X388080Y355173D01*
X389356Y355089D01*
X390644Y355089D01*
X391920Y355173D01*
X393164Y355340D01*
X394353Y355586D01*
X395468Y355908D01*
X396490Y356300D01*
X397400Y356755D01*
X398184Y357266D01*
X398827Y357823D01*
X399320Y358418D01*
X399653Y359040D01*
X399821Y359678D01*
X399821Y360322D01*
X385556Y377321D02*
X386667Y376726D01*
X387778Y376726D01*
X388889Y377321D01*
X388889Y379702D01*
X391111Y379405D02*
X391667Y379702D01*
X392778Y379702D01*
X393889Y379107D01*
X393889Y378512D01*
X393333Y378214D01*
X393889Y377917D01*
X393889Y377321D01*
X392778Y376726D01*
X391667Y376726D01*
X391111Y377024D01*
X391667Y378214D02*
X393333Y378214D01*
X405000Y381000D02*
X385000Y381000D01*
X392500Y391000D02*
X385000Y391000D01*
X385000Y381000D01*
X405000Y391000D02*
X395833Y391000D01*
X394167Y391000D02*
X394167Y387667D01*
X393333Y390167D02*
X394167Y391000D01*
X405000Y391000D02*
X405000Y381000D01*
X25000Y340000D02*
G75*
D01*
G02X25000Y340000I51000J0*
G01*
X56000Y340000D02*
X40000Y340000D01*
X96000Y340000D02*
X112000Y340000D01*
X152252Y84000D02*
G75*
D01*
G02X152252Y84000I15748J0*
G01*
X161000Y94000D02*
X161000Y90000D01*
X159000Y92000D02*
X163000Y92000D01*
X245556Y23321D02*
X246667Y22726D01*
X247778Y22726D01*
X248889Y23321D01*
X248889Y25702D01*
X252778Y22726D02*
X251667Y22726D01*
X250556Y23321D01*
X250556Y23917D01*
X251111Y24214D01*
X250556Y24512D01*
X250556Y25107D01*
X251667Y25702D01*
X252778Y25702D01*
X253889Y25107D01*
X253889Y24512D01*
X253333Y24214D01*
X253889Y23917D01*
X253889Y23321D01*
X252778Y22726D01*
X251111Y24214D02*
X253333Y24214D01*
X265000Y27000D02*
X245000Y27000D01*
X252500Y37000D02*
X245000Y37000D01*
X245000Y27000D01*
X265000Y37000D02*
X255833Y37000D01*
X254167Y37000D02*
X254167Y33667D01*
X253333Y36167D02*
X254167Y37000D01*
X265000Y37000D02*
X265000Y27000D01*
X604528Y310913D02*
X604528Y325087D01*
X595472Y325087D02*
X595472Y310913D01*
X222679Y84556D02*
X223274Y85667D01*
X223274Y86778D01*
X222679Y87889D01*
X220298Y87889D01*
X223274Y91222D02*
X221786Y91222D01*
X220893Y92889D01*
X220298Y92889D01*
X220298Y89556D01*
X220893Y89556D01*
X235000Y93000D02*
X235000Y73000D01*
X225000Y80500D02*
X225000Y73000D01*
X235000Y73000D01*
X225000Y93000D02*
X225000Y83833D01*
X225000Y82167D02*
X228333Y82167D01*
X225833Y81333D02*
X225000Y82167D01*
X225000Y93000D02*
X235000Y93000D01*
G54D13*
X338000Y70000D02*
X338019Y69564D01*
X338076Y69132D01*
X338170Y68706D01*
X338302Y68290D01*
X338468Y67887D01*
X338670Y67500D01*
X338904Y67132D01*
X339170Y66786D01*
X339464Y66464D01*
X339786Y66170D01*
X340132Y65904D01*
X340500Y65670D01*
X340887Y65468D01*
X341290Y65302D01*
X341706Y65170D01*
X342132Y65076D01*
X342564Y65019D01*
X343000Y65000D01*
X343436Y65019D01*
X343868Y65076D01*
X344294Y65170D01*
X344710Y65302D01*
X345113Y65468D01*
X345500Y65670D01*
X345868Y65904D01*
X346214Y66170D01*
X346536Y66464D01*
X346830Y66786D01*
X347096Y67132D01*
X347330Y67500D01*
X347532Y67887D01*
X347698Y68290D01*
X347830Y68706D01*
X347924Y69132D01*
X347981Y69564D01*
X348000Y70000D01*
X348000Y70000D01*
X348019Y69564D01*
X348076Y69132D01*
X348170Y68706D01*
X348302Y68290D01*
X348468Y67887D01*
X348670Y67500D01*
X348904Y67132D01*
X349170Y66786D01*
X349464Y66464D01*
X349786Y66170D01*
X350132Y65904D01*
X350500Y65670D01*
X350887Y65468D01*
X351290Y65302D01*
X351706Y65170D01*
X352132Y65076D01*
X352564Y65019D01*
X353000Y65000D01*
X353436Y65019D01*
X353868Y65076D01*
X354294Y65170D01*
X354710Y65302D01*
X355113Y65468D01*
X355500Y65670D01*
X355868Y65904D01*
X356214Y66170D01*
X356536Y66464D01*
X356830Y66786D01*
X357096Y67132D01*
X357330Y67500D01*
X357532Y67887D01*
X357698Y68290D01*
X357830Y68706D01*
X357924Y69132D01*
X357981Y69564D01*
X358000Y70000D01*
X358000Y70000D01*
X318000Y70000D02*
X318019Y69564D01*
X318076Y69132D01*
X318170Y68706D01*
X318302Y68290D01*
X318468Y67887D01*
X318670Y67500D01*
X318904Y67132D01*
X319170Y66786D01*
X319464Y66464D01*
X319786Y66170D01*
X320132Y65904D01*
X320500Y65670D01*
X320887Y65468D01*
X321290Y65302D01*
X321706Y65170D01*
X322132Y65076D01*
X322564Y65019D01*
X323000Y65000D01*
X323436Y65019D01*
X323868Y65076D01*
X324294Y65170D01*
X324710Y65302D01*
X325113Y65468D01*
X325500Y65670D01*
X325868Y65904D01*
X326214Y66170D01*
X326536Y66464D01*
X326830Y66786D01*
X327096Y67132D01*
X327330Y67500D01*
X327532Y67887D01*
X327698Y68290D01*
X327830Y68706D01*
X327924Y69132D01*
X327981Y69564D01*
X328000Y70000D01*
X328000Y70000D01*
X328019Y69564D01*
X328076Y69132D01*
X328170Y68706D01*
X328302Y68290D01*
X328468Y67887D01*
X328670Y67500D01*
X328904Y67132D01*
X329170Y66786D01*
X329464Y66464D01*
X329786Y66170D01*
X330132Y65904D01*
X330500Y65670D01*
X330887Y65468D01*
X331290Y65302D01*
X331706Y65170D01*
X332132Y65076D01*
X332564Y65019D01*
X333000Y65000D01*
X333436Y65019D01*
X333868Y65076D01*
X334294Y65170D01*
X334710Y65302D01*
X335113Y65468D01*
X335500Y65670D01*
X335868Y65904D01*
X336214Y66170D01*
X336536Y66464D01*
X336830Y66786D01*
X337096Y67132D01*
X337330Y67500D01*
X337532Y67887D01*
X337698Y68290D01*
X337830Y68706D01*
X337924Y69132D01*
X337981Y69564D01*
X338000Y70000D01*
X338000Y70000D01*
X456000Y70000D02*
X456019Y69564D01*
X456076Y69132D01*
X456170Y68706D01*
X456302Y68290D01*
X456468Y67887D01*
X456670Y67500D01*
X456904Y67132D01*
X457170Y66786D01*
X457464Y66464D01*
X457786Y66170D01*
X458132Y65904D01*
X458500Y65670D01*
X458887Y65468D01*
X459290Y65302D01*
X459706Y65170D01*
X460132Y65076D01*
X460564Y65019D01*
X461000Y65000D01*
X461436Y65019D01*
X461868Y65076D01*
X462294Y65170D01*
X462710Y65302D01*
X463113Y65468D01*
X463500Y65670D01*
X463868Y65904D01*
X464214Y66170D01*
X464536Y66464D01*
X464830Y66786D01*
X465096Y67132D01*
X465330Y67500D01*
X465532Y67887D01*
X465698Y68290D01*
X465830Y68706D01*
X465924Y69132D01*
X465981Y69564D01*
X466000Y70000D01*
X466000Y70000D01*
X466019Y69564D01*
X466076Y69132D01*
X466170Y68706D01*
X466302Y68290D01*
X466468Y67887D01*
X466670Y67500D01*
X466904Y67132D01*
X467170Y66786D01*
X467464Y66464D01*
X467786Y66170D01*
X468132Y65904D01*
X468500Y65670D01*
X468887Y65468D01*
X469290Y65302D01*
X469706Y65170D01*
X470132Y65076D01*
X470564Y65019D01*
X471000Y65000D01*
X471436Y65019D01*
X471868Y65076D01*
X472294Y65170D01*
X472710Y65302D01*
X473113Y65468D01*
X473500Y65670D01*
X473868Y65904D01*
X474214Y66170D01*
X474536Y66464D01*
X474830Y66786D01*
X475096Y67132D01*
X475330Y67500D01*
X475532Y67887D01*
X475698Y68290D01*
X475830Y68706D01*
X475924Y69132D01*
X475981Y69564D01*
X476000Y70000D01*
X476000Y70000D01*
X436000Y70000D02*
X436019Y69564D01*
X436076Y69132D01*
X436170Y68706D01*
X436302Y68290D01*
X436468Y67887D01*
X436670Y67500D01*
X436904Y67132D01*
X437170Y66786D01*
X437464Y66464D01*
X437786Y66170D01*
X438132Y65904D01*
X438500Y65670D01*
X438887Y65468D01*
X439290Y65302D01*
X439706Y65170D01*
X440132Y65076D01*
X440564Y65019D01*
X441000Y65000D01*
X441436Y65019D01*
X441868Y65076D01*
X442294Y65170D01*
X442710Y65302D01*
X443113Y65468D01*
X443500Y65670D01*
X443868Y65904D01*
X444214Y66170D01*
X444536Y66464D01*
X444830Y66786D01*
X445096Y67132D01*
X445330Y67500D01*
X445532Y67887D01*
X445698Y68290D01*
X445830Y68706D01*
X445924Y69132D01*
X445981Y69564D01*
X446000Y70000D01*
X446000Y70000D01*
X446019Y69564D01*
X446076Y69132D01*
X446170Y68706D01*
X446302Y68290D01*
X446468Y67887D01*
X446670Y67500D01*
X446904Y67132D01*
X447170Y66786D01*
X447464Y66464D01*
X447786Y66170D01*
X448132Y65904D01*
X448500Y65670D01*
X448887Y65468D01*
X449290Y65302D01*
X449706Y65170D01*
X450132Y65076D01*
X450564Y65019D01*
X451000Y65000D01*
X451436Y65019D01*
X451868Y65076D01*
X452294Y65170D01*
X452710Y65302D01*
X453113Y65468D01*
X453500Y65670D01*
X453868Y65904D01*
X454214Y66170D01*
X454536Y66464D01*
X454830Y66786D01*
X455096Y67132D01*
X455330Y67500D01*
X455532Y67887D01*
X455698Y68290D01*
X455830Y68706D01*
X455924Y69132D01*
X455981Y69564D01*
X456000Y70000D01*
X456000Y70000D01*
X574000Y70000D02*
X574019Y69564D01*
X574076Y69132D01*
X574170Y68706D01*
X574302Y68290D01*
X574468Y67887D01*
X574670Y67500D01*
X574904Y67132D01*
X575170Y66786D01*
X575464Y66464D01*
X575786Y66170D01*
X576132Y65904D01*
X576500Y65670D01*
X576887Y65468D01*
X577290Y65302D01*
X577706Y65170D01*
X578132Y65076D01*
X578564Y65019D01*
X579000Y65000D01*
X579436Y65019D01*
X579868Y65076D01*
X580294Y65170D01*
X580710Y65302D01*
X581113Y65468D01*
X581500Y65670D01*
X581868Y65904D01*
X582214Y66170D01*
X582536Y66464D01*
X582830Y66786D01*
X583096Y67132D01*
X583330Y67500D01*
X583532Y67887D01*
X583698Y68290D01*
X583830Y68706D01*
X583924Y69132D01*
X583981Y69564D01*
X584000Y70000D01*
X584000Y70000D01*
X584019Y69564D01*
X584076Y69132D01*
X584170Y68706D01*
X584302Y68290D01*
X584468Y67887D01*
X584670Y67500D01*
X584904Y67132D01*
X585170Y66786D01*
X585464Y66464D01*
X585786Y66170D01*
X586132Y65904D01*
X586500Y65670D01*
X586887Y65468D01*
X587290Y65302D01*
X587706Y65170D01*
X588132Y65076D01*
X588564Y65019D01*
X589000Y65000D01*
X589436Y65019D01*
X589868Y65076D01*
X590294Y65170D01*
X590710Y65302D01*
X591113Y65468D01*
X591500Y65670D01*
X591868Y65904D01*
X592214Y66170D01*
X592536Y66464D01*
X592830Y66786D01*
X593096Y67132D01*
X593330Y67500D01*
X593532Y67887D01*
X593698Y68290D01*
X593830Y68706D01*
X593924Y69132D01*
X593981Y69564D01*
X594000Y70000D01*
X594000Y70000D01*
X554000Y70000D02*
X554019Y69564D01*
X554076Y69132D01*
X554170Y68706D01*
X554302Y68290D01*
X554468Y67887D01*
X554670Y67500D01*
X554904Y67132D01*
X555170Y66786D01*
X555464Y66464D01*
X555786Y66170D01*
X556132Y65904D01*
X556500Y65670D01*
X556887Y65468D01*
X557290Y65302D01*
X557706Y65170D01*
X558132Y65076D01*
X558564Y65019D01*
X559000Y65000D01*
X559436Y65019D01*
X559868Y65076D01*
X560294Y65170D01*
X560710Y65302D01*
X561113Y65468D01*
X561500Y65670D01*
X561868Y65904D01*
X562214Y66170D01*
X562536Y66464D01*
X562830Y66786D01*
X563096Y67132D01*
X563330Y67500D01*
X563532Y67887D01*
X563698Y68290D01*
X563830Y68706D01*
X563924Y69132D01*
X563981Y69564D01*
X564000Y70000D01*
X564000Y70000D01*
X564019Y69564D01*
X564076Y69132D01*
X564170Y68706D01*
X564302Y68290D01*
X564468Y67887D01*
X564670Y67500D01*
X564904Y67132D01*
X565170Y66786D01*
X565464Y66464D01*
X565786Y66170D01*
X566132Y65904D01*
X566500Y65670D01*
X566887Y65468D01*
X567290Y65302D01*
X567706Y65170D01*
X568132Y65076D01*
X568564Y65019D01*
X569000Y65000D01*
X569436Y65019D01*
X569868Y65076D01*
X570294Y65170D01*
X570710Y65302D01*
X571113Y65468D01*
X571500Y65670D01*
X571868Y65904D01*
X572214Y66170D01*
X572536Y66464D01*
X572830Y66786D01*
X573096Y67132D01*
X573330Y67500D01*
X573532Y67887D01*
X573698Y68290D01*
X573830Y68706D01*
X573924Y69132D01*
X573981Y69564D01*
X574000Y70000D01*
X574000Y70000D01*
X611000Y146000D02*
X611557Y145238D01*
X612179Y144528D01*
X612860Y143875D01*
X613595Y143284D01*
X614379Y142759D01*
X615206Y142304D01*
X616069Y141923D01*
X616962Y141619D01*
X617879Y141393D01*
X618811Y141249D01*
X619753Y141186D01*
X620696Y141206D01*
X621634Y141308D01*
X622560Y141491D01*
X623466Y141754D01*
X624346Y142095D01*
X625193Y142511D01*
X626000Y143000D01*
X626762Y143557D01*
X627472Y144179D01*
X628125Y144860D01*
X628716Y145595D01*
X629241Y146379D01*
X629696Y147206D01*
X630077Y148069D01*
X630381Y148962D01*
X630607Y149879D01*
X630751Y150811D01*
X630814Y151753D01*
X630794Y152696D01*
X630692Y153634D01*
X630509Y154560D01*
X630246Y155466D01*
X629905Y156346D01*
X629489Y157193D01*
X629000Y158000D01*
X628443Y158762D01*
X627821Y159472D01*
X627140Y160125D01*
X626405Y160716D01*
X625621Y161241D01*
X624794Y161696D01*
X623931Y162077D01*
X623038Y162381D01*
X622121Y162607D01*
X621189Y162751D01*
X620247Y162814D01*
X619304Y162794D01*
X618366Y162692D01*
X617440Y162509D01*
X616534Y162246D01*
X615654Y161905D01*
X614807Y161489D01*
X614000Y161000D01*
X613238Y160443D01*
X612528Y159821D01*
X611875Y159140D01*
X611284Y158405D01*
X611000Y158000D01*
X611000Y146000D01*
X39000Y170000D02*
X38443Y170762D01*
X37821Y171472D01*
X37140Y172125D01*
X36405Y172716D01*
X35621Y173241D01*
X34794Y173696D01*
X33931Y174077D01*
X33038Y174381D01*
X32121Y174607D01*
X31189Y174751D01*
X30247Y174814D01*
X29304Y174794D01*
X28366Y174692D01*
X27440Y174509D01*
X26534Y174246D01*
X25654Y173905D01*
X24807Y173489D01*
X24000Y173000D01*
X23238Y172443D01*
X22528Y171821D01*
X21875Y171140D01*
X21284Y170405D01*
X20759Y169621D01*
X20304Y168794D01*
X19923Y167931D01*
X19619Y167038D01*
X19393Y166121D01*
X19249Y165189D01*
X19186Y164247D01*
X19206Y163304D01*
X19308Y162366D01*
X19491Y161440D01*
X19754Y160534D01*
X20095Y159654D01*
X20511Y158807D01*
X21000Y158000D01*
X21557Y157238D01*
X22179Y156528D01*
X22860Y155875D01*
X23595Y155284D01*
X24379Y154759D01*
X25206Y154304D01*
X26069Y153923D01*
X26962Y153619D01*
X27879Y153393D01*
X28811Y153249D01*
X29753Y153186D01*
X30696Y153206D01*
X31634Y153308D01*
X32560Y153491D01*
X33466Y153754D01*
X34346Y154095D01*
X35193Y154511D01*
X36000Y155000D01*
X36762Y155557D01*
X37472Y156179D01*
X38125Y156860D01*
X38716Y157595D01*
X39000Y158000D01*
X39000Y170000D01*
X61000Y216000D02*
X61557Y215238D01*
X62179Y214528D01*
X62860Y213875D01*
X63595Y213284D01*
X64379Y212759D01*
X65206Y212304D01*
X66069Y211923D01*
X66962Y211619D01*
X67879Y211393D01*
X68811Y211249D01*
X69753Y211186D01*
X70696Y211206D01*
X71634Y211308D01*
X72560Y211491D01*
X73466Y211754D01*
X74346Y212095D01*
X75193Y212511D01*
X76000Y213000D01*
X76762Y213557D01*
X77472Y214179D01*
X78125Y214860D01*
X78716Y215595D01*
X79241Y216379D01*
X79696Y217206D01*
X80077Y218069D01*
X80381Y218962D01*
X80607Y219879D01*
X80751Y220811D01*
X80814Y221753D01*
X80794Y222696D01*
X80692Y223634D01*
X80509Y224560D01*
X80246Y225466D01*
X79905Y226346D01*
X79489Y227193D01*
X79000Y228000D01*
X78443Y228762D01*
X77821Y229472D01*
X77140Y230125D01*
X76405Y230716D01*
X75621Y231241D01*
X74794Y231696D01*
X73931Y232077D01*
X73038Y232381D01*
X72121Y232607D01*
X71189Y232751D01*
X70247Y232814D01*
X69304Y232794D01*
X68366Y232692D01*
X67440Y232509D01*
X66534Y232246D01*
X65654Y231905D01*
X64807Y231489D01*
X64000Y231000D01*
X63238Y230443D01*
X62528Y229821D01*
X61875Y229140D01*
X61284Y228405D01*
X61000Y228000D01*
X61000Y216000D01*
X192000Y340000D02*
X191981Y340436D01*
X191924Y340868D01*
X191830Y341294D01*
X191698Y341710D01*
X191532Y342113D01*
X191330Y342500D01*
X191096Y342868D01*
X190830Y343214D01*
X190536Y343536D01*
X190214Y343830D01*
X189868Y344096D01*
X189500Y344330D01*
X189113Y344532D01*
X188710Y344698D01*
X188294Y344830D01*
X187868Y344924D01*
X187436Y344981D01*
X187000Y345000D01*
X186564Y344981D01*
X186132Y344924D01*
X185706Y344830D01*
X185290Y344698D01*
X184887Y344532D01*
X184500Y344330D01*
X184132Y344096D01*
X183786Y343830D01*
X183464Y343536D01*
X183170Y343214D01*
X182904Y342868D01*
X182670Y342500D01*
X182468Y342113D01*
X182302Y341710D01*
X182170Y341294D01*
X182076Y340868D01*
X182019Y340436D01*
X182000Y340000D01*
X181981Y340436D01*
X181924Y340868D01*
X181830Y341294D01*
X181698Y341710D01*
X181532Y342113D01*
X181330Y342500D01*
X181096Y342868D01*
X180830Y343214D01*
X180536Y343536D01*
X180214Y343830D01*
X179868Y344096D01*
X179500Y344330D01*
X179113Y344532D01*
X178710Y344698D01*
X178294Y344830D01*
X177868Y344924D01*
X177436Y344981D01*
X177000Y345000D01*
X176564Y344981D01*
X176132Y344924D01*
X175706Y344830D01*
X175290Y344698D01*
X174887Y344532D01*
X174500Y344330D01*
X174132Y344096D01*
X173786Y343830D01*
X173464Y343536D01*
X173170Y343214D01*
X172904Y342868D01*
X172670Y342500D01*
X172468Y342113D01*
X172302Y341710D01*
X172170Y341294D01*
X172076Y340868D01*
X172019Y340436D01*
X172000Y340000D01*
X212000Y340000D02*
X211981Y340436D01*
X211924Y340868D01*
X211830Y341294D01*
X211698Y341710D01*
X211532Y342113D01*
X211330Y342500D01*
X211096Y342868D01*
X210830Y343214D01*
X210536Y343536D01*
X210214Y343830D01*
X209868Y344096D01*
X209500Y344330D01*
X209113Y344532D01*
X208710Y344698D01*
X208294Y344830D01*
X207868Y344924D01*
X207436Y344981D01*
X207000Y345000D01*
X206564Y344981D01*
X206132Y344924D01*
X205706Y344830D01*
X205290Y344698D01*
X204887Y344532D01*
X204500Y344330D01*
X204132Y344096D01*
X203786Y343830D01*
X203464Y343536D01*
X203170Y343214D01*
X202904Y342868D01*
X202670Y342500D01*
X202468Y342113D01*
X202302Y341710D01*
X202170Y341294D01*
X202076Y340868D01*
X202019Y340436D01*
X202000Y340000D01*
X201981Y340436D01*
X201924Y340868D01*
X201830Y341294D01*
X201698Y341710D01*
X201532Y342113D01*
X201330Y342500D01*
X201096Y342868D01*
X200830Y343214D01*
X200536Y343536D01*
X200214Y343830D01*
X199868Y344096D01*
X199500Y344330D01*
X199113Y344532D01*
X198710Y344698D01*
X198294Y344830D01*
X197868Y344924D01*
X197436Y344981D01*
X197000Y345000D01*
X196564Y344981D01*
X196132Y344924D01*
X195706Y344830D01*
X195290Y344698D01*
X194887Y344532D01*
X194500Y344330D01*
X194132Y344096D01*
X193786Y343830D01*
X193464Y343536D01*
X193170Y343214D01*
X192904Y342868D01*
X192670Y342500D01*
X192468Y342113D01*
X192302Y341710D01*
X192170Y341294D01*
X192076Y340868D01*
X192019Y340436D01*
X192000Y340000D01*
X308000Y340000D02*
X307981Y340436D01*
X307924Y340868D01*
X307830Y341294D01*
X307698Y341710D01*
X307532Y342113D01*
X307330Y342500D01*
X307096Y342868D01*
X306830Y343214D01*
X306536Y343536D01*
X306214Y343830D01*
X305868Y344096D01*
X305500Y344330D01*
X305113Y344532D01*
X304710Y344698D01*
X304294Y344830D01*
X303868Y344924D01*
X303436Y344981D01*
X303000Y345000D01*
X302564Y344981D01*
X302132Y344924D01*
X301706Y344830D01*
X301290Y344698D01*
X300887Y344532D01*
X300500Y344330D01*
X300132Y344096D01*
X299786Y343830D01*
X299464Y343536D01*
X299170Y343214D01*
X298904Y342868D01*
X298670Y342500D01*
X298468Y342113D01*
X298302Y341710D01*
X298170Y341294D01*
X298076Y340868D01*
X298019Y340436D01*
X298000Y340000D01*
X297981Y340436D01*
X297924Y340868D01*
X297830Y341294D01*
X297698Y341710D01*
X297532Y342113D01*
X297330Y342500D01*
X297096Y342868D01*
X296830Y343214D01*
X296536Y343536D01*
X296214Y343830D01*
X295868Y344096D01*
X295500Y344330D01*
X295113Y344532D01*
X294710Y344698D01*
X294294Y344830D01*
X293868Y344924D01*
X293436Y344981D01*
X293000Y345000D01*
X292564Y344981D01*
X292132Y344924D01*
X291706Y344830D01*
X291290Y344698D01*
X290887Y344532D01*
X290500Y344330D01*
X290132Y344096D01*
X289786Y343830D01*
X289464Y343536D01*
X289170Y343214D01*
X288904Y342868D01*
X288670Y342500D01*
X288468Y342113D01*
X288302Y341710D01*
X288170Y341294D01*
X288076Y340868D01*
X288019Y340436D01*
X288000Y340000D01*
X328000Y340000D02*
X327981Y340436D01*
X327924Y340868D01*
X327830Y341294D01*
X327698Y341710D01*
X327532Y342113D01*
X327330Y342500D01*
X327096Y342868D01*
X326830Y343214D01*
X326536Y343536D01*
X326214Y343830D01*
X325868Y344096D01*
X325500Y344330D01*
X325113Y344532D01*
X324710Y344698D01*
X324294Y344830D01*
X323868Y344924D01*
X323436Y344981D01*
X323000Y345000D01*
X322564Y344981D01*
X322132Y344924D01*
X321706Y344830D01*
X321290Y344698D01*
X320887Y344532D01*
X320500Y344330D01*
X320132Y344096D01*
X319786Y343830D01*
X319464Y343536D01*
X319170Y343214D01*
X318904Y342868D01*
X318670Y342500D01*
X318468Y342113D01*
X318302Y341710D01*
X318170Y341294D01*
X318076Y340868D01*
X318019Y340436D01*
X318000Y340000D01*
X317981Y340436D01*
X317924Y340868D01*
X317830Y341294D01*
X317698Y341710D01*
X317532Y342113D01*
X317330Y342500D01*
X317096Y342868D01*
X316830Y343214D01*
X316536Y343536D01*
X316214Y343830D01*
X315868Y344096D01*
X315500Y344330D01*
X315113Y344532D01*
X314710Y344698D01*
X314294Y344830D01*
X313868Y344924D01*
X313436Y344981D01*
X313000Y345000D01*
X312564Y344981D01*
X312132Y344924D01*
X311706Y344830D01*
X311290Y344698D01*
X310887Y344532D01*
X310500Y344330D01*
X310132Y344096D01*
X309786Y343830D01*
X309464Y343536D01*
X309170Y343214D01*
X308904Y342868D01*
X308670Y342500D01*
X308468Y342113D01*
X308302Y341710D01*
X308170Y341294D01*
X308076Y340868D01*
X308019Y340436D01*
X308000Y340000D01*
X76000Y340000D02*
X75981Y340436D01*
X75924Y340868D01*
X75830Y341294D01*
X75698Y341710D01*
X75532Y342113D01*
X75330Y342500D01*
X75096Y342868D01*
X74830Y343214D01*
X74536Y343536D01*
X74214Y343830D01*
X73868Y344096D01*
X73500Y344330D01*
X73113Y344532D01*
X72710Y344698D01*
X72294Y344830D01*
X71868Y344924D01*
X71436Y344981D01*
X71000Y345000D01*
X70564Y344981D01*
X70132Y344924D01*
X69706Y344830D01*
X69290Y344698D01*
X68887Y344532D01*
X68500Y344330D01*
X68132Y344096D01*
X67786Y343830D01*
X67464Y343536D01*
X67170Y343214D01*
X66904Y342868D01*
X66670Y342500D01*
X66468Y342113D01*
X66302Y341710D01*
X66170Y341294D01*
X66076Y340868D01*
X66019Y340436D01*
X66000Y340000D01*
X65981Y340436D01*
X65924Y340868D01*
X65830Y341294D01*
X65698Y341710D01*
X65532Y342113D01*
X65330Y342500D01*
X65096Y342868D01*
X64830Y343214D01*
X64536Y343536D01*
X64214Y343830D01*
X63868Y344096D01*
X63500Y344330D01*
X63113Y344532D01*
X62710Y344698D01*
X62294Y344830D01*
X61868Y344924D01*
X61436Y344981D01*
X61000Y345000D01*
X60564Y344981D01*
X60132Y344924D01*
X59706Y344830D01*
X59290Y344698D01*
X58887Y344532D01*
X58500Y344330D01*
X58132Y344096D01*
X57786Y343830D01*
X57464Y343536D01*
X57170Y343214D01*
X56904Y342868D01*
X56670Y342500D01*
X56468Y342113D01*
X56302Y341710D01*
X56170Y341294D01*
X56076Y340868D01*
X56019Y340436D01*
X56000Y340000D01*
X96000Y340000D02*
X95981Y340436D01*
X95924Y340868D01*
X95830Y341294D01*
X95698Y341710D01*
X95532Y342113D01*
X95330Y342500D01*
X95096Y342868D01*
X94830Y343214D01*
X94536Y343536D01*
X94214Y343830D01*
X93868Y344096D01*
X93500Y344330D01*
X93113Y344532D01*
X92710Y344698D01*
X92294Y344830D01*
X91868Y344924D01*
X91436Y344981D01*
X91000Y345000D01*
X90564Y344981D01*
X90132Y344924D01*
X89706Y344830D01*
X89290Y344698D01*
X88887Y344532D01*
X88500Y344330D01*
X88132Y344096D01*
X87786Y343830D01*
X87464Y343536D01*
X87170Y343214D01*
X86904Y342868D01*
X86670Y342500D01*
X86468Y342113D01*
X86302Y341710D01*
X86170Y341294D01*
X86076Y340868D01*
X86019Y340436D01*
X86000Y340000D01*
X85981Y340436D01*
X85924Y340868D01*
X85830Y341294D01*
X85698Y341710D01*
X85532Y342113D01*
X85330Y342500D01*
X85096Y342868D01*
X84830Y343214D01*
X84536Y343536D01*
X84214Y343830D01*
X83868Y344096D01*
X83500Y344330D01*
X83113Y344532D01*
X82710Y344698D01*
X82294Y344830D01*
X81868Y344924D01*
X81436Y344981D01*
X81000Y345000D01*
X80564Y344981D01*
X80132Y344924D01*
X79706Y344830D01*
X79290Y344698D01*
X78887Y344532D01*
X78500Y344330D01*
X78132Y344096D01*
X77786Y343830D01*
X77464Y343536D01*
X77170Y343214D01*
X76904Y342868D01*
X76670Y342500D01*
X76468Y342113D01*
X76302Y341710D01*
X76170Y341294D01*
X76076Y340868D01*
X76019Y340436D01*
X76000Y340000D01*
X-1500Y-1500D02*
X-1500Y39800D01*
X-1500Y-1500D02*
X63800Y-1500D01*
X651500Y-1500D02*
X586200Y-1500D01*
X651500Y-1500D02*
X651500Y39800D01*
X651500Y411500D02*
X651500Y370200D01*
X651500Y411500D02*
X586200Y411500D01*
X-1500Y411500D02*
X63800Y411500D01*
X-1500Y411500D02*
X-1500Y370200D01*
X-21185Y-1500D02*
X-60555Y-1500D01*
X-40870Y-21185D02*
X-40870Y18185D01*
X-55634Y-1500D02*
G75*
D01*
G02X-55634Y-1500I14764J0*
G01*
X671185Y-1500D02*
X710555Y-1500D01*
X690870Y-21185D02*
X690870Y18185D01*
X676106Y-1500D02*
G75*
D01*
G02X676106Y-1500I14764J0*
G01*
X685949Y-1500D02*
G75*
D01*
G02X685949Y-1500I4921J0*
G01*
X-21185Y411500D02*
X-60555Y411500D01*
X-40870Y391815D02*
X-40870Y431185D01*
X-55634Y411500D02*
G75*
D01*
G02X-55634Y411500I14764J0*
G01*
X-50713Y411500D02*
G75*
D01*
G02X-50713Y411500I9843J0*
G01*
X-45791Y411500D02*
G75*
D01*
G02X-45791Y411500I4921J0*
G01*
G54D14*
X239464Y74609D02*
X238679Y73827D01*
X238679Y73044D01*
X239464Y72262D01*
X241821Y72262D01*
X242607Y73044D01*
X242607Y73827D01*
X241821Y74609D01*
X239464Y74609D01*
X239464Y73044D02*
X238679Y72262D01*
X241821Y71089D02*
X242607Y70307D01*
X242607Y69524D01*
X241821Y68742D01*
X241429Y68742D01*
X238679Y71089D01*
X238679Y68742D01*
X239071Y68742D01*
X397391Y327464D02*
X398173Y326679D01*
X398956Y326679D01*
X399738Y327464D01*
X399738Y329821D01*
X398956Y330607D01*
X398173Y330607D01*
X397391Y329821D01*
X397391Y327464D01*
X398956Y327464D02*
X399738Y326679D01*
X401302Y329821D02*
X402084Y330607D01*
X402084Y326679D01*
X400911Y326679D02*
X403258Y326679D01*
G54D15*
X247716Y87061D02*
X248287Y86492D01*
X245430Y86492D01*
X245430Y87346D02*
X245430Y85639D01*
X247967Y67136D02*
X248253Y66852D01*
X248253Y66283D01*
X247682Y65714D01*
X247110Y65714D01*
X246825Y65999D01*
X246539Y65714D01*
X245967Y65714D01*
X245396Y66283D01*
X245396Y66852D01*
X245682Y67136D01*
X246825Y66852D02*
X246825Y65999D01*
X247744Y77642D02*
X248315Y77073D01*
X248315Y76504D01*
X247744Y75935D01*
X247458Y75935D01*
X245458Y77642D01*
X245458Y75935D01*
X245744Y75935D01*
X384939Y335716D02*
X385508Y336287D01*
X385508Y333430D01*
X384654Y333430D02*
X386361Y333430D01*
X404864Y335967D02*
X405148Y336253D01*
X405717Y336253D01*
X406286Y335682D01*
X406286Y335110D01*
X406001Y334825D01*
X406286Y334539D01*
X406286Y333967D01*
X405717Y333396D01*
X405148Y333396D01*
X404864Y333682D01*
X405148Y334825D02*
X406001Y334825D01*
X394358Y335744D02*
X394927Y336315D01*
X395496Y336315D01*
X396065Y335744D01*
X396065Y335458D01*
X394358Y333458D01*
X396065Y333458D01*
X396065Y333744D01*
G54D16*
X73937Y176819D02*
G75*
D01*
G02X73937Y176819I492J0*
G01*
X580681Y273402D02*
G75*
D01*
G02X580681Y273402I492J0*
G01*
G54D17*
X73827Y178689D02*
X74664Y179006D01*
X75470Y179394D01*
X76239Y179851D01*
X76966Y180374D01*
X77644Y180957D01*
X78269Y181598D01*
X78836Y182291D01*
X79340Y183030D01*
X79777Y183811D01*
X80145Y184627D01*
X80441Y185472D01*
X80662Y186339D01*
X80806Y187222D01*
X80873Y188114D01*
X80862Y189009D01*
X80772Y189900D01*
X80606Y190779D01*
X80363Y191641D01*
X80047Y192478D01*
X79658Y193284D01*
X79201Y194053D01*
X78679Y194780D01*
X78095Y195458D01*
X77454Y196083D01*
X76761Y196649D01*
X76022Y197154D01*
X75241Y197591D01*
X74426Y197959D01*
X73827Y198177D01*
X66156Y197659D02*
X65386Y197260D01*
X64654Y196794D01*
X64334Y196561D01*
X64331Y180295D02*
X65044Y179801D01*
X65798Y179371D01*
X66154Y179197D01*
X601646Y279701D02*
X601646Y292299D01*
X582354Y292299D02*
X582354Y279701D01*
X601646Y279701D01*
X601646Y292299D02*
X582354Y292299D01*
G54D18*
X223978Y183043D02*
X251537Y183043D01*
X251537Y173004D01*
X223978Y173004D01*
X223978Y183043D01*
X217679Y177965D02*
X223978Y177965D01*
X251537Y177965D02*
X258230Y177965D01*
G36*
X249648Y192565D02*
X249648Y201389D01*
X252797Y201389D01*
X252797Y192565D01*
X249648Y192565D01*
G37*
X572921Y215811D02*
X582961Y215811D01*
X582961Y243370D01*
X572921Y243370D01*
X572921Y215811D01*
X578000Y209512D02*
X578000Y215811D01*
X578000Y243370D02*
X578000Y250063D01*
G36*
X615449Y241783D02*
X615449Y244933D01*
X624272Y244933D01*
X624272Y241783D01*
X615449Y241783D01*
G37*
G54D19*
X239420Y202360D02*
X241100Y202360D01*
X241940Y203204D01*
X241940Y205735D01*
X241100Y206578D01*
X239420Y206578D01*
X239840Y206578D02*
X239840Y202360D01*
X245719Y206578D02*
X243199Y206578D01*
X243199Y204891D01*
X244879Y204891D01*
X245719Y204047D01*
X245719Y203204D01*
X244879Y202360D01*
X243199Y202360D01*
X610035Y238092D02*
X610035Y236413D01*
X610879Y235573D01*
X613409Y235573D01*
X614253Y236413D01*
X614253Y238092D01*
X614253Y237673D02*
X610035Y237673D01*
X614253Y232213D02*
X614253Y233473D01*
X613409Y234313D01*
X611722Y234313D01*
X610879Y234313D01*
X610035Y233473D01*
X610035Y232633D01*
X610879Y231793D01*
X611722Y231793D01*
X612566Y232633D01*
X612566Y233473D01*
X611722Y234313D01*
G54D20*
X253581Y196838D02*
X255943Y196838D01*
X230746Y196838D02*
X233306Y196838D01*
X620000Y245717D02*
X620000Y248079D01*
X620000Y222882D02*
X620000Y225441D01*
G54D21*
X230882Y196016D02*
X230882Y195173D01*
X230602Y194610D01*
X230322Y194610D01*
X230042Y195173D01*
X230042Y196016D01*
X230882Y195595D02*
X230042Y195595D01*
X257516Y195753D02*
X257797Y195473D01*
X257797Y195193D01*
X257516Y194913D01*
X256672Y194913D01*
X256391Y195193D01*
X256391Y195473D01*
X256672Y195753D01*
X620821Y223017D02*
X621665Y223017D01*
X622228Y222737D01*
X622228Y222457D01*
X621665Y222177D01*
X620821Y222177D01*
X621243Y223017D02*
X621243Y222177D01*
X621085Y249651D02*
X621365Y249933D01*
X621645Y249933D01*
X621925Y249651D01*
X621925Y248808D01*
X621645Y248526D01*
X621365Y248526D01*
X621085Y248808D01*
G54D22*
X585307Y283638D02*
G75*
D01*
G02X585307Y283638I984J0*
G01*
G54D23*
X278984Y132000D03*
X384984Y235000D03*
X375016Y288000D03*
X622984Y388000D03*
G54D24*
X276969Y122000D03*
X384969Y224000D03*
X377031Y298000D03*
X620969Y378000D03*

M02*
