M48
INCH,TZ
VER,1
FMAT,2
DETECT,ON
ATC,ON
T1C0.03200
T2C0.02559
T3C0.04667
T4C0.03500
T5C0.05906
T6C0.05118
T7C0.05118
T8C0.02953
T9C0.03700
T10C0.03917
T11C0.03543
T12C0.04724
T13C0.02362
T14C0.03937
T15C0.02598
T16C0.06102
%
T1
X2.54500Y3.32000
X3.45500
X0.22500
X1.13500
X1.38500
X2.29500
X6.11500Y0.62000
X5.20500
X4.93500
X4.02500
X3.75500
X2.84500
T2
X3.77079Y3.52000
X3.86921
X2.66000Y0.80921
Y0.71079
T3
X3.82000Y3.32000
X4.02000
X3.92000
X2.44000Y0.74000
Y0.54000
Y0.64000
T4
X3.72000Y3.12000
X3.82000Y2.82000
X4.02000
X3.92000
X4.02000Y3.12000
X3.82000
X3.92000
X3.72000Y2.82000
X3.92000Y3.78000
X0.58000Y2.46000
X2.44000Y0.22000
X6.08000Y2.84000
X2.66000Y0.92000
X2.56000Y1.22000
X2.36000
X2.46000
X2.36000Y0.92000
X2.56000
X2.46000
X2.66000Y1.22000
X2.12000Y0.74000
X3.42000Y1.70000
X3.52000
X3.62000
X3.22000
X3.32000
X3.12000
X2.92000
X3.02000
X2.82000
X3.42000Y2.48000
X3.52000
X3.62000
X3.22000
X3.32000
X3.12000
X2.92000
X3.02000
X2.82000
X6.16000Y1.20000
X0.62000Y1.80433
Y1.90866
Y1.70000
X3.72000Y1.94000
X3.62000Y2.24000
X3.42000
X3.52000
X3.32000
X3.12000
X3.22000
X3.02000
X2.92000
X2.82000
X3.12000Y1.94000
X3.42000
X3.62000
X3.52000
X3.32000
X3.22000
X3.02000
X2.92000
X2.82000
X3.72000Y2.24000
X6.10000Y3.48000
X6.00000Y3.78000
X5.80000
X5.90000
X5.80000Y3.48000
X6.00000
X5.90000
X6.10000Y3.78000
T5
X2.61559Y2.60000
X2.06441
X4.44000Y3.69559
Y3.14441
X2.13559Y0.26000
X1.58441
X2.80441Y1.34000
X3.35559
T6
X0.24000Y2.50157
Y1.02157
X6.06000Y1.87843
T7
X0.24000Y2.69843
Y1.21843
X6.06000Y1.68157
T8
X5.62000Y3.22890
Y3.09110
X1.68890Y0.66000
X1.55110
T9
X4.74000Y3.14000
X5.26000
X0.76000Y0.20000
Y0.72000
T10
X3.82000Y3.78000
X0.58000Y2.36000
X2.34000Y0.22000
X6.08000Y2.74000
X2.22000Y0.74000
X3.72000Y1.70000
Y2.48000
X6.16000Y1.10000
T11
X5.70000Y2.47181
Y1.96000
X6.12000Y2.08000
Y2.48000
X2.04441Y2.28000
X2.59559
X0.60000Y1.02441
Y1.57559
X2.55348Y1.69965
X2.04167
X2.15865Y1.88838
X2.55865
X5.76000Y1.20441
Y1.75559
X2.59559Y1.50000
X2.04441
T12
X4.02181Y1.82000
X5.49819
X1.36000Y2.55819
Y1.08181
T13
X0.16157Y2.26000
X0.35843
X5.08000Y0.12157
Y0.31843
X3.90000Y0.12157
Y0.31843
X3.46283Y1.48000
X3.81717
X3.62157Y1.26000
X3.81843
X2.68000Y0.26157
Y0.45843
X3.84000Y2.35000
X2.16000Y1.11843
Y0.92157
X4.09843Y2.56000
X3.90157
X3.91843Y2.72000
X3.72157
X3.58000Y3.73843
Y3.54157
X2.42000Y3.73843
Y3.54157
X1.26000Y3.71843
Y3.52157
X6.05843Y3.10000
X5.86157
T14
X0.57000Y2.14000
X0.67000
X6.07000Y1.44000
X6.17000
X0.27000Y1.56000
X0.17000
T15
X0.10252Y2.06000
X0.41748
X2.24419Y2.05965
X2.55915
X5.62000Y3.46252
Y3.77748
X5.94000Y2.16252
Y2.47748
X6.15748Y3.34000
X5.84252
T16
X0.41843Y1.91315
X0.22157
X0.32000Y1.80685
M30
