G04 Generated by Ultiboard 13.0 *
%FSLAX25Y25*%
%MOIN*%

%ADD10C,0.00001*%
%ADD11C,0.00039*%
%ADD12C,0.00394*%
%ADD13C,0.00004*%
%ADD14C,0.00500*%


G04 ColorRGB 000000 for the following layer *
%LNDrill Symbols-Copper Top-Copper Bottom*%
%LPD*%
G54D11*
X254500Y330400D02*
X254500Y333600D01*
X252900Y332000D02*
X256100Y332000D01*
X345500Y330400D02*
X345500Y333600D01*
X343900Y332000D02*
X347100Y332000D01*
X376174Y352905D02*
X377984Y351095D01*
X376174Y351095D02*
X377984Y352905D01*
X386017Y352905D02*
X387826Y351095D01*
X386017Y351095D02*
X387826Y352905D01*
X370250Y310250D02*
X373750Y310250D01*
X373750Y313750D01*
X370250Y313750D01*
X370250Y310250D01*
X380250Y280250D02*
X383750Y280250D01*
X383750Y283750D01*
X380250Y283750D01*
X380250Y280250D01*
X400250Y280250D02*
X403750Y280250D01*
X403750Y283750D01*
X400250Y283750D01*
X400250Y280250D01*
X390250Y280250D02*
X393750Y280250D01*
X393750Y283750D01*
X390250Y283750D01*
X390250Y280250D01*
X400250Y310250D02*
X403750Y310250D01*
X403750Y313750D01*
X400250Y313750D01*
X400250Y310250D01*
X380250Y310250D02*
X383750Y310250D01*
X383750Y313750D01*
X380250Y313750D01*
X380250Y310250D01*
X390250Y310250D02*
X393750Y310250D01*
X393750Y313750D01*
X390250Y313750D01*
X390250Y310250D01*
X370250Y280250D02*
X373750Y280250D01*
X373750Y283750D01*
X370250Y283750D01*
X370250Y280250D01*
X22500Y330400D02*
X22500Y333600D01*
X20900Y332000D02*
X24100Y332000D01*
X113500Y330400D02*
X113500Y333600D01*
X111900Y332000D02*
X115100Y332000D01*
X138500Y330400D02*
X138500Y333600D01*
X136900Y332000D02*
X140100Y332000D01*
X229500Y330400D02*
X229500Y333600D01*
X227900Y332000D02*
X231100Y332000D01*
X561426Y322468D02*
X561426Y323101D01*
X561754Y323522D01*
X562082Y323522D01*
X562410Y323101D01*
X562410Y322468D01*
X561426Y322784D02*
X562410Y322784D01*
X560524Y321413D02*
X563476Y321413D01*
X563476Y324366D01*
X560524Y324366D01*
X560524Y321413D01*
X561426Y308688D02*
X561426Y309321D01*
X561754Y309743D01*
X562082Y309743D01*
X562410Y309321D01*
X562410Y308688D01*
X561426Y309005D02*
X562410Y309005D01*
X560524Y307634D02*
X563476Y307634D01*
X563476Y310587D01*
X560524Y310587D01*
X560524Y307634D01*
X473281Y313471D02*
X473281Y314264D01*
X473692Y314793D01*
X474103Y314793D01*
X474514Y314264D01*
X474514Y313471D01*
X473281Y313868D02*
X474514Y313868D01*
X474000Y311384D02*
X476616Y314000D01*
X474000Y316616D01*
X471384Y314000D01*
X474000Y311384D01*
X525281Y313471D02*
X525281Y314264D01*
X525692Y314793D01*
X526103Y314793D01*
X526514Y314264D01*
X526514Y313471D01*
X525281Y313868D02*
X526514Y313868D01*
X526000Y311384D02*
X528616Y314000D01*
X526000Y316616D01*
X523384Y314000D01*
X526000Y311384D01*
X381238Y376461D02*
X381238Y377301D01*
X381674Y377860D01*
X382109Y377860D01*
X382544Y377301D01*
X382544Y376461D01*
X381238Y376881D02*
X382544Y376881D01*
X380042Y376042D02*
X383959Y376042D01*
X382000Y379385D01*
X380042Y376042D01*
X390250Y376250D02*
X393750Y376250D01*
X393750Y379750D01*
X390250Y379750D01*
X390250Y376250D01*
X569311Y246675D02*
X570098Y246675D01*
X570492Y246928D01*
X570492Y247055D01*
X570098Y247308D01*
X570492Y247561D01*
X570492Y247687D01*
X570098Y247940D01*
X569508Y247940D01*
X569311Y247940D01*
X569508Y247308D02*
X570098Y247308D01*
X569508Y247940D02*
X569508Y246675D01*
X568228Y247181D02*
G75*
D01*
G02X568228Y247181I1772J0*
G01*
X569311Y195494D02*
X570098Y195494D01*
X570492Y195747D01*
X570492Y195873D01*
X570098Y196127D01*
X570492Y196380D01*
X570492Y196506D01*
X570098Y196759D01*
X569508Y196759D01*
X569311Y196759D01*
X569508Y196127D02*
X570098Y196127D01*
X569508Y196759D02*
X569508Y195494D01*
X568228Y196000D02*
G75*
D01*
G02X568228Y196000I1772J0*
G01*
X611311Y207494D02*
X612098Y207494D01*
X612492Y207747D01*
X612492Y207873D01*
X612098Y208127D01*
X612492Y208380D01*
X612492Y208506D01*
X612098Y208759D01*
X611508Y208759D01*
X611311Y208759D01*
X611508Y208127D02*
X612098Y208127D01*
X611508Y208759D02*
X611508Y207494D01*
X610228Y208000D02*
G75*
D01*
G02X610228Y208000I1772J0*
G01*
X611311Y247494D02*
X612098Y247494D01*
X612492Y247747D01*
X612492Y247873D01*
X612098Y248127D01*
X612492Y248380D01*
X612492Y248506D01*
X612098Y248759D01*
X611508Y248759D01*
X611311Y248759D01*
X611508Y248127D02*
X612098Y248127D01*
X611508Y248759D02*
X611508Y247494D01*
X610228Y248000D02*
G75*
D01*
G02X610228Y248000I1772J0*
G01*
X57238Y234461D02*
X57238Y235301D01*
X57674Y235860D01*
X58109Y235860D01*
X58544Y235301D01*
X58544Y234461D01*
X57238Y234881D02*
X58544Y234881D01*
X56042Y234042D02*
X59959Y234042D01*
X58000Y237385D01*
X56042Y234042D01*
X56250Y244250D02*
X59750Y244250D01*
X59750Y247750D01*
X56250Y247750D01*
X56250Y244250D01*
X15698Y225663D02*
X16223Y225663D01*
X16486Y225831D01*
X16486Y225916D01*
X16223Y226084D01*
X16486Y226253D01*
X16486Y226337D01*
X16223Y226506D01*
X15829Y226506D01*
X15698Y226506D01*
X15829Y226084D02*
X16223Y226084D01*
X15829Y226506D02*
X15829Y225663D01*
X16157Y224330D02*
X17828Y226000D01*
X16157Y227670D01*
X14487Y226000D01*
X16157Y224330D01*
X35383Y225663D02*
X35908Y225663D01*
X36171Y225831D01*
X36171Y225916D01*
X35908Y226084D01*
X36171Y226253D01*
X36171Y226337D01*
X35908Y226506D01*
X35514Y226506D01*
X35383Y226506D01*
X35514Y226084D02*
X35908Y226084D01*
X35514Y226506D02*
X35514Y225663D01*
X35843Y224330D02*
X37513Y226000D01*
X35843Y227670D01*
X34172Y226000D01*
X35843Y224330D01*
X10613Y205814D02*
X10324Y205629D01*
X10035Y205629D01*
X9747Y205814D01*
X9747Y206371D01*
X10035Y206557D01*
X10324Y206557D01*
X10613Y206371D01*
X8953Y206000D02*
G75*
D01*
G02X8953Y206000I1299J0*
G01*
X42109Y205814D02*
X41820Y205629D01*
X41531Y205629D01*
X41243Y205814D01*
X41243Y206371D01*
X41531Y206557D01*
X41820Y206557D01*
X42109Y206371D01*
X40449Y206000D02*
G75*
D01*
G02X40449Y206000I1299J0*
G01*
X203752Y227494D02*
X204539Y227494D01*
X204933Y227747D01*
X204933Y227873D01*
X204539Y228127D01*
X204933Y228380D01*
X204933Y228506D01*
X204539Y228759D01*
X203949Y228759D01*
X203752Y228759D01*
X203949Y228127D02*
X204539Y228127D01*
X203949Y228759D02*
X203949Y227494D01*
X202669Y228000D02*
G75*
D01*
G02X202669Y228000I1772J0*
G01*
X258870Y227494D02*
X259657Y227494D01*
X260051Y227747D01*
X260051Y227873D01*
X259657Y228127D01*
X260051Y228380D01*
X260051Y228506D01*
X259657Y228759D01*
X259067Y228759D01*
X258870Y228759D01*
X259067Y228127D02*
X259657Y228127D01*
X259067Y228759D02*
X259067Y227494D01*
X257787Y228000D02*
G75*
D01*
G02X257787Y228000I1772J0*
G01*
X224780Y205779D02*
X224491Y205593D01*
X224202Y205593D01*
X223914Y205779D01*
X223914Y206336D01*
X224202Y206521D01*
X224491Y206521D01*
X224780Y206336D01*
X223120Y205965D02*
G75*
D01*
G02X223120Y205965I1299J0*
G01*
X256276Y205779D02*
X255987Y205593D01*
X255698Y205593D01*
X255410Y205779D01*
X255410Y206336D01*
X255698Y206521D01*
X255987Y206521D01*
X256276Y206336D01*
X254616Y205965D02*
G75*
D01*
G02X254616Y205965I1299J0*
G01*
X59311Y101935D02*
X60098Y101935D01*
X60492Y102188D01*
X60492Y102314D01*
X60098Y102567D01*
X60492Y102821D01*
X60492Y102947D01*
X60098Y103200D01*
X59508Y103200D01*
X59311Y103200D01*
X59508Y102567D02*
X60098Y102567D01*
X59508Y103200D02*
X59508Y101935D01*
X58228Y102441D02*
G75*
D01*
G02X58228Y102441I1772J0*
G01*
X59311Y157053D02*
X60098Y157053D01*
X60492Y157306D01*
X60492Y157433D01*
X60098Y157686D01*
X60492Y157939D01*
X60492Y158065D01*
X60098Y158318D01*
X59508Y158318D01*
X59311Y158318D01*
X59508Y157686D02*
X60098Y157686D01*
X59508Y158318D02*
X59508Y157053D01*
X58228Y157559D02*
G75*
D01*
G02X58228Y157559I1772J0*
G01*
X168316Y65578D02*
X168316Y66211D01*
X168644Y66633D01*
X168972Y66633D01*
X169300Y66211D01*
X169300Y65578D01*
X168316Y65895D02*
X169300Y65895D01*
X167413Y64524D02*
X170366Y64524D01*
X170366Y67476D01*
X167413Y67476D01*
X167413Y64524D01*
X154536Y65578D02*
X154536Y66211D01*
X154864Y66633D01*
X155192Y66633D01*
X155520Y66211D01*
X155520Y65578D01*
X154536Y65895D02*
X155520Y65895D01*
X153634Y64524D02*
X156587Y64524D01*
X156587Y67476D01*
X153634Y67476D01*
X153634Y64524D01*
X562361Y346066D02*
X562072Y345881D01*
X561783Y345881D01*
X561495Y346066D01*
X561495Y346623D01*
X561783Y346809D01*
X562072Y346809D01*
X562361Y346623D01*
X560701Y346252D02*
G75*
D01*
G02X560701Y346252I1299J0*
G01*
X562361Y377562D02*
X562072Y377377D01*
X561783Y377377D01*
X561495Y377562D01*
X561495Y378119D01*
X561783Y378305D01*
X562072Y378305D01*
X562361Y378119D01*
X560701Y377748D02*
G75*
D01*
G02X560701Y377748I1299J0*
G01*
X507541Y11820D02*
X508066Y11820D01*
X508328Y11989D01*
X508328Y12073D01*
X508066Y12242D01*
X508328Y12411D01*
X508328Y12495D01*
X508066Y12664D01*
X507672Y12664D01*
X507541Y12664D01*
X507672Y12242D02*
X508066Y12242D01*
X507672Y12664D02*
X507672Y11820D01*
X508000Y10487D02*
X509670Y12157D01*
X508000Y13828D01*
X506330Y12157D01*
X508000Y10487D01*
X507541Y31505D02*
X508066Y31505D01*
X508328Y31674D01*
X508328Y31758D01*
X508066Y31927D01*
X508328Y32096D01*
X508328Y32180D01*
X508066Y32349D01*
X507672Y32349D01*
X507541Y32349D01*
X507672Y31927D02*
X508066Y31927D01*
X507672Y32349D02*
X507672Y31505D01*
X508000Y30172D02*
X509670Y31843D01*
X508000Y33513D01*
X506330Y31843D01*
X508000Y30172D01*
X233238Y20461D02*
X233238Y21301D01*
X233674Y21860D01*
X234109Y21860D01*
X234544Y21301D01*
X234544Y20461D01*
X233238Y20881D02*
X234544Y20881D01*
X232042Y20042D02*
X235958Y20042D01*
X234000Y23385D01*
X232042Y20042D01*
X242250Y20250D02*
X245750Y20250D01*
X245750Y23750D01*
X242250Y23750D01*
X242250Y20250D01*
X607238Y272461D02*
X607238Y273301D01*
X607674Y273860D01*
X608109Y273860D01*
X608544Y273301D01*
X608544Y272461D01*
X607238Y272881D02*
X608544Y272881D01*
X606042Y272042D02*
X609959Y272042D01*
X608000Y275385D01*
X606042Y272042D01*
X606250Y282250D02*
X609750Y282250D01*
X609750Y285750D01*
X606250Y285750D01*
X606250Y282250D01*
X389541Y11820D02*
X390066Y11820D01*
X390328Y11989D01*
X390328Y12073D01*
X390066Y12242D01*
X390328Y12411D01*
X390328Y12495D01*
X390066Y12664D01*
X389672Y12664D01*
X389541Y12664D01*
X389672Y12242D02*
X390066Y12242D01*
X389672Y12664D02*
X389672Y11820D01*
X390000Y10487D02*
X391670Y12157D01*
X390000Y13828D01*
X388330Y12157D01*
X390000Y10487D01*
X389541Y31505D02*
X390066Y31505D01*
X390328Y31674D01*
X390328Y31758D01*
X390066Y31927D01*
X390328Y32096D01*
X390328Y32180D01*
X390066Y32349D01*
X389672Y32349D01*
X389541Y32349D01*
X389672Y31927D02*
X390066Y31927D01*
X389672Y32349D02*
X389672Y31505D01*
X390000Y30172D02*
X391670Y31843D01*
X390000Y33513D01*
X388330Y31843D01*
X390000Y30172D01*
X345824Y147663D02*
X346349Y147663D01*
X346612Y147831D01*
X346612Y147916D01*
X346349Y148084D01*
X346612Y148253D01*
X346612Y148337D01*
X346349Y148506D01*
X345955Y148506D01*
X345824Y148506D01*
X345955Y148084D02*
X346349Y148084D01*
X345955Y148506D02*
X345955Y147663D01*
X346283Y146330D02*
X347954Y148000D01*
X346283Y149670D01*
X344613Y148000D01*
X346283Y146330D01*
X381257Y147663D02*
X381782Y147663D01*
X382045Y147831D01*
X382045Y147916D01*
X381782Y148084D01*
X382045Y148253D01*
X382045Y148337D01*
X381782Y148506D01*
X381388Y148506D01*
X381257Y148506D01*
X381388Y148084D02*
X381782Y148084D01*
X381388Y148506D02*
X381388Y147663D01*
X381717Y146330D02*
X383387Y148000D01*
X381717Y149670D01*
X380046Y148000D01*
X381717Y146330D01*
X361698Y125663D02*
X362223Y125663D01*
X362486Y125831D01*
X362486Y125916D01*
X362223Y126084D01*
X362486Y126253D01*
X362486Y126337D01*
X362223Y126506D01*
X361829Y126506D01*
X361698Y126506D01*
X361829Y126084D02*
X362223Y126084D01*
X361829Y126506D02*
X361829Y125663D01*
X362157Y124330D02*
X363828Y126000D01*
X362157Y127670D01*
X360487Y126000D01*
X362157Y124330D01*
X381383Y125663D02*
X381908Y125663D01*
X382171Y125831D01*
X382171Y125916D01*
X381908Y126084D01*
X382171Y126253D01*
X382171Y126337D01*
X381908Y126506D01*
X381514Y126506D01*
X381383Y126506D01*
X381514Y126084D02*
X381908Y126084D01*
X381514Y126506D02*
X381514Y125663D01*
X381843Y124330D02*
X383513Y126000D01*
X381843Y127670D01*
X380172Y126000D01*
X381843Y124330D01*
X594361Y216066D02*
X594072Y215881D01*
X593783Y215881D01*
X593495Y216066D01*
X593495Y216623D01*
X593783Y216809D01*
X594072Y216809D01*
X594361Y216623D01*
X592701Y216252D02*
G75*
D01*
G02X592701Y216252I1299J0*
G01*
X594361Y247562D02*
X594072Y247377D01*
X593783Y247377D01*
X593495Y247562D01*
X593495Y248119D01*
X593783Y248305D01*
X594072Y248305D01*
X594361Y248119D01*
X592701Y247748D02*
G75*
D01*
G02X592701Y247748I1299J0*
G01*
X264250Y90250D02*
X267750Y90250D01*
X267750Y93750D01*
X264250Y93750D01*
X264250Y90250D01*
X254250Y120250D02*
X257750Y120250D01*
X257750Y123750D01*
X254250Y123750D01*
X254250Y120250D01*
X234250Y120250D02*
X237750Y120250D01*
X237750Y123750D01*
X234250Y123750D01*
X234250Y120250D01*
X244250Y120250D02*
X247750Y120250D01*
X247750Y123750D01*
X244250Y123750D01*
X244250Y120250D01*
X234250Y90250D02*
X237750Y90250D01*
X237750Y93750D01*
X234250Y93750D01*
X234250Y90250D01*
X254250Y90250D02*
X257750Y90250D01*
X257750Y93750D01*
X254250Y93750D01*
X254250Y90250D01*
X244250Y90250D02*
X247750Y90250D01*
X247750Y93750D01*
X244250Y93750D01*
X244250Y90250D01*
X264250Y120250D02*
X267750Y120250D01*
X267750Y123750D01*
X264250Y123750D01*
X264250Y120250D01*
X267541Y25820D02*
X268066Y25820D01*
X268328Y25989D01*
X268328Y26073D01*
X268066Y26242D01*
X268328Y26411D01*
X268328Y26495D01*
X268066Y26664D01*
X267672Y26664D01*
X267541Y26664D01*
X267672Y26242D02*
X268066Y26242D01*
X267672Y26664D02*
X267672Y25820D01*
X268000Y24487D02*
X269670Y26157D01*
X268000Y27828D01*
X266330Y26157D01*
X268000Y24487D01*
X267541Y45505D02*
X268066Y45505D01*
X268328Y45674D01*
X268328Y45758D01*
X268066Y45927D01*
X268328Y46096D01*
X268328Y46180D01*
X268066Y46349D01*
X267672Y46349D01*
X267541Y46349D01*
X267672Y45927D02*
X268066Y45927D01*
X267672Y46349D02*
X267672Y45505D01*
X268000Y44172D02*
X269670Y45843D01*
X268000Y47513D01*
X266330Y45843D01*
X268000Y44172D01*
X254659Y169458D02*
X255446Y169458D01*
X255840Y169711D01*
X255840Y169838D01*
X255446Y170091D01*
X255840Y170344D01*
X255840Y170471D01*
X255446Y170724D01*
X254856Y170724D01*
X254659Y170724D01*
X254856Y170091D02*
X255446Y170091D01*
X254856Y170724D02*
X254856Y169458D01*
X253576Y169965D02*
G75*
D01*
G02X253576Y169965I1772J0*
G01*
X203478Y169458D02*
X204265Y169458D01*
X204659Y169711D01*
X204659Y169838D01*
X204265Y170091D01*
X204659Y170344D01*
X204659Y170471D01*
X204265Y170724D01*
X203675Y170724D01*
X203478Y170724D01*
X203675Y170091D02*
X204265Y170091D01*
X203675Y170724D02*
X203675Y169458D01*
X202395Y169965D02*
G75*
D01*
G02X202395Y169965I1772J0*
G01*
X383541Y234663D02*
X384066Y234663D01*
X384328Y234831D01*
X384328Y234916D01*
X384066Y235084D01*
X384328Y235253D01*
X384328Y235337D01*
X384066Y235506D01*
X383672Y235506D01*
X383541Y235506D01*
X383672Y235084D02*
X384066Y235084D01*
X383672Y235506D02*
X383672Y234663D01*
X384000Y233330D02*
X385670Y235000D01*
X384000Y236670D01*
X382330Y235000D01*
X384000Y233330D01*
X215176Y188332D02*
X215963Y188332D01*
X216357Y188585D01*
X216357Y188711D01*
X215963Y188964D01*
X216357Y189217D01*
X216357Y189344D01*
X215963Y189597D01*
X215372Y189597D01*
X215176Y189597D01*
X215372Y188964D02*
X215963Y188964D01*
X215372Y189597D02*
X215372Y188332D01*
X214093Y188838D02*
G75*
D01*
G02X214093Y188838I1772J0*
G01*
X255176Y188332D02*
X255963Y188332D01*
X256357Y188585D01*
X256357Y188711D01*
X255963Y188964D01*
X256357Y189217D01*
X256357Y189344D01*
X255963Y189597D01*
X255372Y189597D01*
X255176Y189597D01*
X255372Y188964D02*
X255963Y188964D01*
X255372Y189597D02*
X255372Y188332D01*
X254093Y188838D02*
G75*
D01*
G02X254093Y188838I1772J0*
G01*
X575311Y119935D02*
X576098Y119935D01*
X576492Y120188D01*
X576492Y120314D01*
X576098Y120567D01*
X576492Y120821D01*
X576492Y120947D01*
X576098Y121200D01*
X575508Y121200D01*
X575311Y121200D01*
X575508Y120567D02*
X576098Y120567D01*
X575508Y121200D02*
X575508Y119935D01*
X574228Y120441D02*
G75*
D01*
G02X574228Y120441I1772J0*
G01*
X575311Y175053D02*
X576098Y175053D01*
X576492Y175306D01*
X576492Y175433D01*
X576098Y175686D01*
X576492Y175939D01*
X576492Y176065D01*
X576098Y176318D01*
X575508Y176318D01*
X575311Y176318D01*
X575508Y175686D02*
X576098Y175686D01*
X575508Y176318D02*
X575508Y175053D01*
X574228Y175559D02*
G75*
D01*
G02X574228Y175559I1772J0*
G01*
X75281Y19471D02*
X75281Y20264D01*
X75692Y20793D01*
X76103Y20793D01*
X76514Y20264D01*
X76514Y19471D01*
X75281Y19868D02*
X76514Y19868D01*
X76000Y17384D02*
X78616Y20000D01*
X76000Y22616D01*
X73384Y20000D01*
X76000Y17384D01*
X75281Y71471D02*
X75281Y72264D01*
X75692Y72793D01*
X76103Y72793D01*
X76514Y72264D01*
X76514Y71471D01*
X75281Y71868D02*
X76514Y71868D01*
X76000Y69384D02*
X78616Y72000D01*
X76000Y74616D01*
X73384Y72000D01*
X76000Y69384D01*
X258870Y149494D02*
X259657Y149494D01*
X260051Y149747D01*
X260051Y149873D01*
X259657Y150127D01*
X260051Y150380D01*
X260051Y150506D01*
X259657Y150759D01*
X259067Y150759D01*
X258870Y150759D01*
X259067Y150127D02*
X259657Y150127D01*
X259067Y150759D02*
X259067Y149494D01*
X257787Y150000D02*
G75*
D01*
G02X257787Y150000I1772J0*
G01*
X203752Y149494D02*
X204539Y149494D01*
X204933Y149747D01*
X204933Y149873D01*
X204539Y150127D01*
X204933Y150380D01*
X204933Y150506D01*
X204539Y150759D01*
X203949Y150759D01*
X203752Y150759D01*
X203949Y150127D02*
X204539Y150127D01*
X203949Y150759D02*
X203949Y149494D01*
X202669Y150000D02*
G75*
D01*
G02X202669Y150000I1772J0*
G01*
X215541Y111505D02*
X216066Y111505D01*
X216328Y111674D01*
X216328Y111758D01*
X216066Y111927D01*
X216328Y112096D01*
X216328Y112180D01*
X216066Y112349D01*
X215672Y112349D01*
X215541Y112349D01*
X215672Y111927D02*
X216066Y111927D01*
X215672Y112349D02*
X215672Y111505D01*
X216000Y110172D02*
X217670Y111843D01*
X216000Y113513D01*
X214330Y111843D01*
X216000Y110172D01*
X215541Y91820D02*
X216066Y91820D01*
X216328Y91989D01*
X216328Y92073D01*
X216066Y92242D01*
X216328Y92411D01*
X216328Y92495D01*
X216066Y92664D01*
X215672Y92664D01*
X215541Y92664D01*
X215672Y92242D02*
X216066Y92242D01*
X215672Y92664D02*
X215672Y91820D01*
X216000Y90487D02*
X217670Y92157D01*
X216000Y93828D01*
X214330Y92157D01*
X216000Y90487D01*
X221238Y72461D02*
X221238Y73301D01*
X221674Y73860D01*
X222109Y73860D01*
X222544Y73301D01*
X222544Y72461D01*
X221238Y72881D02*
X222544Y72881D01*
X220042Y72042D02*
X223958Y72042D01*
X222000Y75385D01*
X220042Y72042D01*
X210250Y72250D02*
X213750Y72250D01*
X213750Y75750D01*
X210250Y75750D01*
X210250Y72250D01*
X265095Y81826D02*
X266905Y80017D01*
X265095Y80017D02*
X266905Y81826D01*
X265095Y71984D02*
X266905Y70174D01*
X265095Y70174D02*
X266905Y71984D01*
X340250Y168250D02*
X343750Y168250D01*
X343750Y171750D01*
X340250Y171750D01*
X340250Y168250D01*
X371238Y168461D02*
X371238Y169301D01*
X371674Y169860D01*
X372109Y169860D01*
X372544Y169301D01*
X372544Y168461D01*
X371238Y168881D02*
X372544Y168881D01*
X370042Y168042D02*
X373959Y168042D01*
X372000Y171385D01*
X370042Y168042D01*
X350250Y168250D02*
X353750Y168250D01*
X353750Y171750D01*
X350250Y171750D01*
X350250Y168250D01*
X360250Y168250D02*
X363750Y168250D01*
X363750Y171750D01*
X360250Y171750D01*
X360250Y168250D01*
X320250Y168250D02*
X323750Y168250D01*
X323750Y171750D01*
X320250Y171750D01*
X320250Y168250D01*
X330250Y168250D02*
X333750Y168250D01*
X333750Y171750D01*
X330250Y171750D01*
X330250Y168250D01*
X310250Y168250D02*
X313750Y168250D01*
X313750Y171750D01*
X310250Y171750D01*
X310250Y168250D01*
X290250Y168250D02*
X293750Y168250D01*
X293750Y171750D01*
X290250Y171750D01*
X290250Y168250D01*
X300250Y168250D02*
X303750Y168250D01*
X303750Y171750D01*
X300250Y171750D01*
X300250Y168250D01*
X280250Y168250D02*
X283750Y168250D01*
X283750Y171750D01*
X280250Y171750D01*
X280250Y168250D01*
X409383Y255663D02*
X409908Y255663D01*
X410171Y255831D01*
X410171Y255916D01*
X409908Y256084D01*
X410171Y256253D01*
X410171Y256337D01*
X409908Y256506D01*
X409514Y256506D01*
X409383Y256506D01*
X409514Y256084D02*
X409908Y256084D01*
X409514Y256506D02*
X409514Y255663D01*
X409843Y254330D02*
X411513Y256000D01*
X409843Y257670D01*
X408172Y256000D01*
X409843Y254330D01*
X389698Y255663D02*
X390223Y255663D01*
X390486Y255831D01*
X390486Y255916D01*
X390223Y256084D01*
X390486Y256253D01*
X390486Y256337D01*
X390223Y256506D01*
X389829Y256506D01*
X389698Y256506D01*
X389829Y256084D02*
X390223Y256084D01*
X389829Y256506D02*
X389829Y255663D01*
X390157Y254330D02*
X391828Y256000D01*
X390157Y257670D01*
X388487Y256000D01*
X390157Y254330D01*
X391383Y271663D02*
X391908Y271663D01*
X392171Y271831D01*
X392171Y271916D01*
X391908Y272084D01*
X392171Y272253D01*
X392171Y272337D01*
X391908Y272506D01*
X391514Y272506D01*
X391383Y272506D01*
X391514Y272084D02*
X391908Y272084D01*
X391514Y272506D02*
X391514Y271663D01*
X391843Y270330D02*
X393513Y272000D01*
X391843Y273670D01*
X390172Y272000D01*
X391843Y270330D01*
X371698Y271663D02*
X372223Y271663D01*
X372486Y271831D01*
X372486Y271916D01*
X372223Y272084D01*
X372486Y272253D01*
X372486Y272337D01*
X372223Y272506D01*
X371829Y272506D01*
X371698Y272506D01*
X371829Y272084D02*
X372223Y272084D01*
X371829Y272506D02*
X371829Y271663D01*
X372157Y270330D02*
X373828Y272000D01*
X372157Y273670D01*
X370487Y272000D01*
X372157Y270330D01*
X340250Y246250D02*
X343750Y246250D01*
X343750Y249750D01*
X340250Y249750D01*
X340250Y246250D01*
X371238Y246461D02*
X371238Y247301D01*
X371674Y247860D01*
X372109Y247860D01*
X372544Y247301D01*
X372544Y246461D01*
X371238Y246881D02*
X372544Y246881D01*
X370042Y246042D02*
X373959Y246042D01*
X372000Y249385D01*
X370042Y246042D01*
X350250Y246250D02*
X353750Y246250D01*
X353750Y249750D01*
X350250Y249750D01*
X350250Y246250D01*
X360250Y246250D02*
X363750Y246250D01*
X363750Y249750D01*
X360250Y249750D01*
X360250Y246250D01*
X320250Y246250D02*
X323750Y246250D01*
X323750Y249750D01*
X320250Y249750D01*
X320250Y246250D01*
X330250Y246250D02*
X333750Y246250D01*
X333750Y249750D01*
X330250Y249750D01*
X330250Y246250D01*
X310250Y246250D02*
X313750Y246250D01*
X313750Y249750D01*
X310250Y249750D01*
X310250Y246250D01*
X290250Y246250D02*
X293750Y246250D01*
X293750Y249750D01*
X290250Y249750D01*
X290250Y246250D01*
X300250Y246250D02*
X303750Y246250D01*
X303750Y249750D01*
X300250Y249750D01*
X300250Y246250D01*
X280250Y246250D02*
X283750Y246250D01*
X283750Y249750D01*
X280250Y249750D01*
X280250Y246250D01*
X357541Y373505D02*
X358066Y373505D01*
X358328Y373674D01*
X358328Y373758D01*
X358066Y373927D01*
X358328Y374096D01*
X358328Y374180D01*
X358066Y374349D01*
X357672Y374349D01*
X357541Y374349D01*
X357672Y373927D02*
X358066Y373927D01*
X357672Y374349D02*
X357672Y373505D01*
X358000Y372172D02*
X359670Y373843D01*
X358000Y375513D01*
X356330Y373843D01*
X358000Y372172D01*
X357541Y353820D02*
X358066Y353820D01*
X358328Y353989D01*
X358328Y354073D01*
X358066Y354242D01*
X358328Y354411D01*
X358328Y354495D01*
X358066Y354664D01*
X357672Y354664D01*
X357541Y354664D01*
X357672Y354242D02*
X358066Y354242D01*
X357672Y354664D02*
X357672Y353820D01*
X358000Y352487D02*
X359670Y354157D01*
X358000Y355828D01*
X356330Y354157D01*
X358000Y352487D01*
X241541Y373505D02*
X242066Y373505D01*
X242328Y373674D01*
X242328Y373758D01*
X242066Y373927D01*
X242328Y374096D01*
X242328Y374180D01*
X242066Y374349D01*
X241672Y374349D01*
X241541Y374349D01*
X241672Y373927D02*
X242066Y373927D01*
X241672Y374349D02*
X241672Y373505D01*
X242000Y372172D02*
X243670Y373843D01*
X242000Y375513D01*
X240330Y373843D01*
X242000Y372172D01*
X241541Y353820D02*
X242066Y353820D01*
X242328Y353989D01*
X242328Y354073D01*
X242066Y354242D01*
X242328Y354411D01*
X242328Y354495D01*
X242066Y354664D01*
X241672Y354664D01*
X241541Y354664D01*
X241672Y354242D02*
X242066Y354242D01*
X241672Y354664D02*
X241672Y353820D01*
X242000Y352487D02*
X243670Y354157D01*
X242000Y355828D01*
X240330Y354157D01*
X242000Y352487D01*
X125541Y371505D02*
X126066Y371505D01*
X126328Y371674D01*
X126328Y371758D01*
X126066Y371927D01*
X126328Y372096D01*
X126328Y372180D01*
X126066Y372349D01*
X125672Y372349D01*
X125541Y372349D01*
X125672Y371927D02*
X126066Y371927D01*
X125672Y372349D02*
X125672Y371505D01*
X126000Y370172D02*
X127670Y371843D01*
X126000Y373513D01*
X124330Y371843D01*
X126000Y370172D01*
X125541Y351820D02*
X126066Y351820D01*
X126328Y351989D01*
X126328Y352073D01*
X126066Y352242D01*
X126328Y352411D01*
X126328Y352495D01*
X126066Y352664D01*
X125672Y352664D01*
X125541Y352664D01*
X125672Y352242D02*
X126066Y352242D01*
X125672Y352664D02*
X125672Y351820D01*
X126000Y350487D02*
X127670Y352157D01*
X126000Y353828D01*
X124330Y352157D01*
X126000Y350487D01*
X616109Y333814D02*
X615820Y333629D01*
X615531Y333629D01*
X615243Y333814D01*
X615243Y334371D01*
X615531Y334557D01*
X615820Y334557D01*
X616109Y334371D01*
X614449Y334000D02*
G75*
D01*
G02X614449Y334000I1299J0*
G01*
X584613Y333814D02*
X584324Y333629D01*
X584035Y333629D01*
X583747Y333814D01*
X583747Y334371D01*
X584035Y334557D01*
X584324Y334557D01*
X584613Y334371D01*
X582953Y334000D02*
G75*
D01*
G02X582953Y334000I1299J0*
G01*
X605383Y309663D02*
X605908Y309663D01*
X606171Y309831D01*
X606171Y309916D01*
X605908Y310084D01*
X606171Y310253D01*
X606171Y310337D01*
X605908Y310506D01*
X605514Y310506D01*
X605383Y310506D01*
X605514Y310084D02*
X605908Y310084D01*
X605514Y310506D02*
X605514Y309663D01*
X605843Y308330D02*
X607513Y310000D01*
X605843Y311670D01*
X604172Y310000D01*
X605843Y308330D01*
X585698Y309663D02*
X586223Y309663D01*
X586486Y309831D01*
X586486Y309916D01*
X586223Y310084D01*
X586486Y310253D01*
X586486Y310337D01*
X586223Y310506D01*
X585829Y310506D01*
X585698Y310506D01*
X585829Y310084D02*
X586223Y310084D01*
X585829Y310506D02*
X585829Y309663D01*
X586157Y308330D02*
X587828Y310000D01*
X586157Y311670D01*
X584487Y310000D01*
X586157Y308330D01*
X611500Y60400D02*
X611500Y63600D01*
X609900Y62000D02*
X613100Y62000D01*
X520500Y60400D02*
X520500Y63600D01*
X518900Y62000D02*
X522100Y62000D01*
X615238Y108461D02*
X615238Y109301D01*
X615674Y109860D01*
X616109Y109860D01*
X616544Y109301D01*
X616544Y108461D01*
X615238Y108881D02*
X616544Y108881D01*
X614042Y108042D02*
X617959Y108042D01*
X616000Y111385D01*
X614042Y108042D01*
X614250Y118250D02*
X617750Y118250D01*
X617750Y121750D01*
X614250Y121750D01*
X614250Y118250D01*
X493500Y60400D02*
X493500Y63600D01*
X491900Y62000D02*
X495100Y62000D01*
X402500Y60400D02*
X402500Y63600D01*
X400900Y62000D02*
X404100Y62000D01*
X375500Y60400D02*
X375500Y63600D01*
X373900Y62000D02*
X377100Y62000D01*
X284500Y60400D02*
X284500Y63600D01*
X282900Y62000D02*
X286100Y62000D01*
X60250Y178683D02*
X63750Y178683D01*
X63750Y182183D01*
X60250Y182183D01*
X60250Y178683D01*
X60250Y189116D02*
X63750Y189116D01*
X63750Y192616D01*
X60250Y192616D01*
X60250Y189116D01*
X60250Y168250D02*
X63750Y168250D01*
X63750Y171750D01*
X60250Y171750D01*
X60250Y168250D01*
X370250Y192250D02*
X373750Y192250D01*
X373750Y195750D01*
X370250Y195750D01*
X370250Y192250D01*
X360250Y222250D02*
X363750Y222250D01*
X363750Y225750D01*
X360250Y225750D01*
X360250Y222250D01*
X340250Y222250D02*
X343750Y222250D01*
X343750Y225750D01*
X340250Y225750D01*
X340250Y222250D01*
X350250Y222250D02*
X353750Y222250D01*
X353750Y225750D01*
X350250Y225750D01*
X350250Y222250D01*
X330250Y222250D02*
X333750Y222250D01*
X333750Y225750D01*
X330250Y225750D01*
X330250Y222250D01*
X310250Y222250D02*
X313750Y222250D01*
X313750Y225750D01*
X310250Y225750D01*
X310250Y222250D01*
X320250Y222250D02*
X323750Y222250D01*
X323750Y225750D01*
X320250Y225750D01*
X320250Y222250D01*
X300250Y222250D02*
X303750Y222250D01*
X303750Y225750D01*
X300250Y225750D01*
X300250Y222250D01*
X290250Y222250D02*
X293750Y222250D01*
X293750Y225750D01*
X290250Y225750D01*
X290250Y222250D01*
X280250Y222250D02*
X283750Y222250D01*
X283750Y225750D01*
X280250Y225750D01*
X280250Y222250D01*
X310250Y192250D02*
X313750Y192250D01*
X313750Y195750D01*
X310250Y195750D01*
X310250Y192250D01*
X340250Y192250D02*
X343750Y192250D01*
X343750Y195750D01*
X340250Y195750D01*
X340250Y192250D01*
X360250Y192250D02*
X363750Y192250D01*
X363750Y195750D01*
X360250Y195750D01*
X360250Y192250D01*
X350250Y192250D02*
X353750Y192250D01*
X353750Y195750D01*
X350250Y195750D01*
X350250Y192250D01*
X330250Y192250D02*
X333750Y192250D01*
X333750Y195750D01*
X330250Y195750D01*
X330250Y192250D01*
X320250Y192250D02*
X323750Y192250D01*
X323750Y195750D01*
X320250Y195750D01*
X320250Y192250D01*
X300250Y192250D02*
X303750Y192250D01*
X303750Y195750D01*
X300250Y195750D01*
X300250Y192250D01*
X290250Y192250D02*
X293750Y192250D01*
X293750Y195750D01*
X290250Y195750D01*
X290250Y192250D01*
X280250Y192250D02*
X283750Y192250D01*
X283750Y195750D01*
X280250Y195750D01*
X280250Y192250D01*
X370250Y222250D02*
X373750Y222250D01*
X373750Y225750D01*
X370250Y225750D01*
X370250Y222250D01*
X608250Y346250D02*
X611750Y346250D01*
X611750Y349750D01*
X608250Y349750D01*
X608250Y346250D01*
X598250Y376250D02*
X601750Y376250D01*
X601750Y379750D01*
X598250Y379750D01*
X598250Y376250D01*
X578250Y376250D02*
X581750Y376250D01*
X581750Y379750D01*
X578250Y379750D01*
X578250Y376250D01*
X588250Y376250D02*
X591750Y376250D01*
X591750Y379750D01*
X588250Y379750D01*
X588250Y376250D01*
X578250Y346250D02*
X581750Y346250D01*
X581750Y349750D01*
X578250Y349750D01*
X578250Y346250D01*
X598250Y346250D02*
X601750Y346250D01*
X601750Y349750D01*
X598250Y349750D01*
X598250Y346250D01*
X588250Y346250D02*
X591750Y346250D01*
X591750Y349750D01*
X588250Y349750D01*
X588250Y346250D01*
X608250Y376250D02*
X611750Y376250D01*
X611750Y379750D01*
X608250Y379750D01*
X608250Y376250D01*
X748967Y210001D02*
X748967Y210840D01*
X749402Y211399D01*
X749837Y211399D01*
X750272Y210840D01*
X750272Y210001D01*
X748967Y210420D02*
X750272Y210420D01*
X747770Y209581D02*
X751687Y209581D01*
X749728Y212924D01*
X747770Y209581D01*
X749009Y227153D02*
X749009Y227945D01*
X749420Y228474D01*
X749831Y228474D01*
X750242Y227945D01*
X750242Y227153D01*
X749009Y227549D02*
X750242Y227549D01*
X749728Y225065D02*
X752345Y227681D01*
X749728Y230297D01*
X747112Y227681D01*
X749728Y225065D01*
X749039Y243317D02*
X749827Y243317D01*
X750220Y243570D01*
X750220Y243696D01*
X749827Y243949D01*
X750220Y244202D01*
X750220Y244329D01*
X749827Y244582D01*
X749236Y244582D01*
X749039Y244582D01*
X749236Y243949D02*
X749827Y243949D01*
X749236Y244582D02*
X749236Y243317D01*
X747957Y243823D02*
G75*
D01*
G02X747957Y243823I1771J0*
G01*
X747978Y258215D02*
X751478Y258215D01*
X751478Y261715D01*
X747978Y261715D01*
X747978Y258215D01*
X749728Y274506D02*
X749728Y277706D01*
X748128Y276106D02*
X751328Y276106D01*
X749154Y291826D02*
X749154Y292459D01*
X749482Y292881D01*
X749810Y292881D01*
X750138Y292459D01*
X750138Y291826D01*
X749154Y292143D02*
X750138Y292143D01*
X748252Y290772D02*
X751205Y290772D01*
X751205Y293724D01*
X748252Y293724D01*
X748252Y290772D01*
X750089Y308204D02*
X749801Y308019D01*
X749512Y308019D01*
X749223Y308204D01*
X749223Y308761D01*
X749512Y308947D01*
X749801Y308947D01*
X750089Y308761D01*
X748429Y308390D02*
G75*
D01*
G02X748429Y308390I1299J0*
G01*
X748824Y325436D02*
X750633Y323627D01*
X748824Y323627D02*
X750633Y325436D01*
X749269Y340336D02*
X749794Y340336D01*
X750056Y340504D01*
X750056Y340589D01*
X749794Y340758D01*
X750056Y340926D01*
X750056Y341011D01*
X749794Y341179D01*
X749400Y341179D01*
X749269Y341179D01*
X749400Y340758D02*
X749794Y340758D01*
X749400Y341179D02*
X749400Y340336D01*
X749728Y339003D02*
X751399Y340673D01*
X749728Y342344D01*
X748058Y340673D01*
X749728Y339003D01*
G54D12*
X379667Y332000D02*
G75*
D01*
G02X379667Y332000I2333J0*
G01*
X399667Y332000D02*
G75*
D01*
G02X399667Y332000I2333J0*
G01*
X389667Y332000D02*
G75*
D01*
G02X389667Y332000I2333J0*
G01*
X261559Y255824D02*
X265735Y260000D01*
X261559Y264176D01*
X257383Y260000D01*
X261559Y255824D01*
X206441Y255824D02*
X210617Y260000D01*
X206441Y264176D01*
X202265Y260000D01*
X206441Y255824D01*
X21441Y247598D02*
X26559Y247598D01*
X24000Y251967D01*
X21441Y247598D01*
X23005Y269111D02*
X23005Y270208D01*
X23573Y270939D01*
X24142Y270939D01*
X24711Y270208D01*
X24711Y269111D01*
X23005Y269660D02*
X24711Y269660D01*
X21441Y269843D02*
G75*
D01*
G02X21441Y269843I2559J0*
G01*
X444000Y365383D02*
X448176Y369559D01*
X444000Y373735D01*
X439824Y369559D01*
X444000Y365383D01*
X444000Y310265D02*
X448176Y314441D01*
X444000Y318617D01*
X439824Y314441D01*
X444000Y310265D01*
X135081Y255144D02*
X136131Y255144D01*
X136656Y255481D01*
X136656Y255650D01*
X136131Y255988D01*
X136656Y256325D01*
X136656Y256494D01*
X136131Y256831D01*
X135344Y256831D01*
X135081Y256831D01*
X135344Y255988D02*
X136131Y255988D01*
X135344Y256831D02*
X135344Y255144D01*
X133638Y253457D02*
X138362Y253457D01*
X138362Y258181D01*
X133638Y258181D01*
X133638Y253457D01*
X135081Y107506D02*
X136131Y107506D01*
X136656Y107844D01*
X136656Y108012D01*
X136131Y108350D01*
X136656Y108687D01*
X136656Y108856D01*
X136131Y109193D01*
X135344Y109193D01*
X135081Y109193D01*
X135344Y108350D02*
X136131Y108350D01*
X135344Y109193D02*
X135344Y107506D01*
X133638Y105819D02*
X138362Y105819D01*
X138362Y110543D01*
X133638Y110543D01*
X133638Y105819D01*
X56234Y212453D02*
X57109Y212453D01*
X57547Y212735D01*
X57547Y212875D01*
X57109Y213156D01*
X57547Y213438D01*
X57547Y213578D01*
X57109Y213859D01*
X56453Y213859D01*
X56234Y213859D01*
X56453Y213156D02*
X57109Y213156D01*
X56453Y213859D02*
X56453Y212453D01*
X55031Y212031D02*
X58969Y212031D01*
X57000Y215392D01*
X55031Y212031D01*
X66234Y212453D02*
X67109Y212453D01*
X67547Y212735D01*
X67547Y212875D01*
X67109Y213156D01*
X67547Y213438D01*
X67547Y213578D01*
X67109Y213859D01*
X66453Y213859D01*
X66234Y213859D01*
X66453Y213156D02*
X67109Y213156D01*
X66453Y213859D02*
X66453Y212453D01*
X65031Y212031D02*
X68969Y212031D01*
X67000Y215392D01*
X65031Y212031D01*
X213559Y21824D02*
X217735Y26000D01*
X213559Y30176D01*
X209383Y26000D01*
X213559Y21824D01*
X158441Y21824D02*
X162617Y26000D01*
X158441Y30176D01*
X154265Y26000D01*
X158441Y21824D01*
X241667Y74000D02*
G75*
D01*
G02X241667Y74000I2333J0*
G01*
X241667Y54000D02*
G75*
D01*
G02X241667Y54000I2333J0*
G01*
X241667Y64000D02*
G75*
D01*
G02X241667Y64000I2333J0*
G01*
X21441Y99598D02*
X26559Y99598D01*
X24000Y103967D01*
X21441Y99598D01*
X23005Y121111D02*
X23005Y122208D01*
X23573Y122939D01*
X24142Y122939D01*
X24711Y122208D01*
X24711Y121111D01*
X23005Y121660D02*
X24711Y121660D01*
X21441Y121843D02*
G75*
D01*
G02X21441Y121843I2559J0*
G01*
X603441Y185283D02*
X608559Y185283D01*
X606000Y189652D01*
X603441Y185283D01*
X605005Y167426D02*
X605005Y168523D01*
X605573Y169254D01*
X606142Y169254D01*
X606711Y168523D01*
X606711Y167426D01*
X605005Y167975D02*
X606711Y167975D01*
X603441Y168157D02*
G75*
D01*
G02X603441Y168157I2559J0*
G01*
X606234Y142453D02*
X607109Y142453D01*
X607547Y142735D01*
X607547Y142875D01*
X607109Y143156D01*
X607547Y143438D01*
X607547Y143578D01*
X607109Y143859D01*
X606453Y143859D01*
X606234Y143859D01*
X606453Y143156D02*
X607109Y143156D01*
X606453Y143859D02*
X606453Y142453D01*
X605031Y142031D02*
X608969Y142031D01*
X607000Y145392D01*
X605031Y142031D01*
X616234Y142453D02*
X617109Y142453D01*
X617547Y142735D01*
X617547Y142875D01*
X617109Y143156D01*
X617547Y143438D01*
X617547Y143578D01*
X617109Y143859D01*
X616453Y143859D01*
X616234Y143859D01*
X616453Y143156D02*
X617109Y143156D01*
X616453Y143859D02*
X616453Y142453D01*
X615031Y142031D02*
X618969Y142031D01*
X617000Y145392D01*
X615031Y142031D01*
X26234Y154453D02*
X27109Y154453D01*
X27547Y154735D01*
X27547Y154875D01*
X27109Y155156D01*
X27547Y155438D01*
X27547Y155578D01*
X27109Y155859D01*
X26453Y155859D01*
X26234Y155859D01*
X26453Y155156D02*
X27109Y155156D01*
X26453Y155859D02*
X26453Y154453D01*
X25031Y154031D02*
X28969Y154031D01*
X27000Y157392D01*
X25031Y154031D01*
X16234Y154453D02*
X17109Y154453D01*
X17547Y154735D01*
X17547Y154875D01*
X17109Y155156D01*
X17547Y155438D01*
X17547Y155578D01*
X17109Y155859D01*
X16453Y155859D01*
X16234Y155859D01*
X16453Y155156D02*
X17109Y155156D01*
X16453Y155859D02*
X16453Y154453D01*
X15031Y154031D02*
X18969Y154031D01*
X17000Y157392D01*
X15031Y154031D01*
X280441Y129824D02*
X284617Y134000D01*
X280441Y138176D01*
X276265Y134000D01*
X280441Y129824D01*
X335559Y129824D02*
X339735Y134000D01*
X335559Y138176D01*
X331383Y134000D01*
X335559Y129824D01*
X42690Y190879D02*
X42012Y190443D01*
X41334Y190443D01*
X40656Y190879D01*
X40656Y192187D01*
X41334Y192623D01*
X42012Y192623D01*
X42690Y192187D01*
X38791Y188264D02*
X44894Y188264D01*
X44894Y194366D01*
X38791Y194366D01*
X38791Y188264D01*
X23005Y190879D02*
X22327Y190443D01*
X21649Y190443D01*
X20971Y190879D01*
X20971Y192187D01*
X21649Y192623D01*
X22327Y192623D01*
X23005Y192187D01*
X19106Y188264D02*
X25209Y188264D01*
X25209Y194366D01*
X19106Y194366D01*
X19106Y188264D01*
X32848Y180249D02*
X32170Y179813D01*
X31491Y179813D01*
X30813Y180249D01*
X30813Y181557D01*
X31491Y181993D01*
X32170Y181993D01*
X32848Y181557D01*
X28949Y177634D02*
X35051Y177634D01*
X35051Y183736D01*
X28949Y183736D01*
X28949Y177634D01*
X401262Y181325D02*
X402312Y181325D01*
X402837Y181663D01*
X402837Y181831D01*
X402312Y182169D01*
X402837Y182506D01*
X402837Y182675D01*
X402312Y183012D01*
X401525Y183012D01*
X401262Y183012D01*
X401525Y182169D02*
X402312Y182169D01*
X401525Y183012D02*
X401525Y181325D01*
X399819Y179638D02*
X404543Y179638D01*
X404543Y184362D01*
X399819Y184362D01*
X399819Y179638D01*
X548900Y181325D02*
X549950Y181325D01*
X550475Y181663D01*
X550475Y181831D01*
X549950Y182169D01*
X550475Y182506D01*
X550475Y182675D01*
X549950Y183012D01*
X549163Y183012D01*
X548900Y183012D01*
X549163Y182169D02*
X549950Y182169D01*
X549163Y183012D02*
X549163Y181325D01*
X547457Y179638D02*
X552181Y179638D01*
X552181Y184362D01*
X547457Y184362D01*
X547457Y179638D01*
X797366Y103609D02*
X793429Y103609D01*
X790804Y101922D01*
X790804Y98547D01*
X790804Y96860D01*
X793429Y95173D01*
X796054Y95173D01*
X798678Y96860D01*
X798678Y98547D01*
X796054Y100235D01*
X793429Y100235D01*
X790804Y98547D01*
X803928Y101922D02*
X806552Y103609D01*
X806552Y95173D01*
X802615Y95173D02*
X810490Y95173D01*
X818364Y95173D02*
X818364Y96016D01*
X826238Y101922D02*
X828862Y103609D01*
X831487Y103609D01*
X834112Y101922D01*
X834112Y96860D01*
X831487Y95173D01*
X828862Y95173D01*
X826238Y96860D01*
X826238Y101922D01*
X834112Y101922D02*
X826238Y96860D01*
X838049Y101922D02*
X840673Y103609D01*
X843298Y103609D01*
X845923Y101922D01*
X845923Y101078D01*
X838049Y95173D01*
X845923Y95173D01*
X845923Y96016D01*
X851172Y102765D02*
X852484Y103609D01*
X855109Y103609D01*
X857734Y101922D01*
X857734Y100235D01*
X856421Y99391D01*
X857734Y98547D01*
X857734Y96860D01*
X855109Y95173D01*
X852484Y95173D01*
X851172Y96016D01*
X852484Y99391D02*
X856421Y99391D01*
X868232Y103609D02*
X864295Y103609D01*
X861671Y101922D01*
X861671Y98547D01*
X861671Y96860D01*
X864295Y95173D01*
X866920Y95173D01*
X869545Y96860D01*
X869545Y98547D01*
X866920Y100235D01*
X864295Y100235D01*
X861671Y98547D01*
X873482Y101922D02*
X876106Y103609D01*
X878731Y103609D01*
X881356Y101922D01*
X881356Y101078D01*
X873482Y95173D01*
X881356Y95173D01*
X881356Y96016D01*
X932274Y102765D02*
X933587Y103609D01*
X936211Y103609D01*
X938836Y101922D01*
X938836Y100235D01*
X937524Y99391D01*
X938836Y98547D01*
X938836Y96860D01*
X936211Y95173D01*
X933587Y95173D01*
X932274Y96016D01*
X933587Y99391D02*
X937524Y99391D01*
X1006159Y95173D02*
X1006159Y103609D01*
X1011408Y103609D01*
X1014033Y101922D01*
X1014033Y101078D01*
X1011408Y99391D01*
X1006159Y99391D01*
X1021907Y95173D02*
X1021907Y103609D01*
X1017970Y103609D02*
X1025844Y103609D01*
X1029781Y95173D02*
X1029781Y103609D01*
X1037655Y95173D02*
X1037655Y103609D01*
X1029781Y99391D02*
X1037655Y99391D01*
X1075450Y101922D02*
X1078075Y103609D01*
X1080699Y103609D01*
X1083324Y101922D01*
X1083324Y96860D01*
X1080699Y95173D01*
X1078075Y95173D01*
X1075450Y96860D01*
X1075450Y101922D01*
X1083324Y101922D02*
X1075450Y96860D01*
X1105634Y95173D02*
X1104322Y95173D01*
X1101697Y96860D01*
X1101697Y101922D01*
X1104322Y103609D01*
X1105634Y103609D01*
X1110883Y95173D02*
X1110883Y103609D01*
X1116133Y103609D01*
X1118757Y101922D01*
X1118757Y101078D01*
X1116133Y99391D01*
X1110883Y99391D01*
X1112196Y99391D02*
X1118757Y95173D01*
X1122694Y96860D02*
X1125319Y95173D01*
X1127944Y95173D01*
X1130568Y96860D01*
X1130568Y101922D01*
X1127944Y103609D01*
X1125319Y103609D01*
X1122694Y101922D01*
X1122694Y96860D01*
X1134505Y103609D02*
X1134505Y96860D01*
X1137130Y95173D01*
X1139755Y95173D01*
X1142379Y96860D01*
X1142379Y103609D01*
X1146316Y95173D02*
X1146316Y103609D01*
X1154190Y95173D01*
X1154190Y103609D01*
X1158127Y95173D02*
X1163377Y95173D01*
X1166001Y96860D01*
X1166001Y101922D01*
X1163377Y103609D01*
X1158127Y103609D01*
X1159440Y103609D02*
X1159440Y95173D01*
X1171251Y103609D02*
X1172563Y103609D01*
X1175188Y101922D01*
X1175188Y96860D01*
X1172563Y95173D01*
X1171251Y95173D01*
X750576Y98111D02*
X749898Y97675D01*
X749220Y97675D01*
X748542Y98111D01*
X748542Y99419D01*
X749220Y99855D01*
X749898Y99855D01*
X750576Y99419D01*
X746677Y95496D02*
X752780Y95496D01*
X752780Y101598D01*
X746677Y101598D01*
X746677Y95496D01*
X798678Y119751D02*
X790804Y119751D01*
X790804Y116376D01*
X796054Y116376D01*
X798678Y114689D01*
X798678Y113002D01*
X796054Y111314D01*
X790804Y111314D01*
X802615Y113002D02*
X805240Y111314D01*
X807865Y111314D01*
X810490Y113002D01*
X810490Y116376D01*
X810490Y118064D01*
X807865Y119751D01*
X805240Y119751D01*
X802615Y118064D01*
X802615Y116376D01*
X805240Y114689D01*
X807865Y114689D01*
X810490Y116376D01*
X818364Y111314D02*
X818364Y112158D01*
X826238Y118064D02*
X828862Y119751D01*
X831487Y119751D01*
X834112Y118064D01*
X834112Y113002D01*
X831487Y111314D01*
X828862Y111314D01*
X826238Y113002D01*
X826238Y118064D01*
X834112Y118064D02*
X826238Y113002D01*
X845923Y119751D02*
X838049Y119751D01*
X838049Y116376D01*
X843298Y116376D01*
X845923Y114689D01*
X845923Y113002D01*
X843298Y111314D01*
X838049Y111314D01*
X857734Y119751D02*
X849860Y119751D01*
X849860Y116376D01*
X855109Y116376D01*
X857734Y114689D01*
X857734Y113002D01*
X855109Y111314D01*
X849860Y111314D01*
X862983Y118064D02*
X865608Y119751D01*
X865608Y111314D01*
X861671Y111314D02*
X869545Y111314D01*
X873482Y118064D02*
X876106Y119751D01*
X878731Y119751D01*
X881356Y118064D01*
X881356Y117220D01*
X873482Y111314D01*
X881356Y111314D01*
X881356Y112158D01*
X936211Y111314D02*
X933587Y111314D01*
X930962Y113002D01*
X930962Y114689D01*
X932274Y115533D01*
X930962Y116376D01*
X930962Y118064D01*
X933587Y119751D01*
X936211Y119751D01*
X938836Y118064D01*
X938836Y116376D01*
X937524Y115533D01*
X938836Y114689D01*
X938836Y113002D01*
X936211Y111314D01*
X932274Y115533D02*
X937524Y115533D01*
X1006159Y111314D02*
X1006159Y119751D01*
X1011408Y119751D01*
X1014033Y118064D01*
X1014033Y117220D01*
X1011408Y115533D01*
X1006159Y115533D01*
X1021907Y111314D02*
X1021907Y119751D01*
X1017970Y119751D02*
X1025844Y119751D01*
X1029781Y111314D02*
X1029781Y119751D01*
X1037655Y111314D02*
X1037655Y119751D01*
X1029781Y115533D02*
X1037655Y115533D01*
X1075450Y118064D02*
X1078075Y119751D01*
X1080699Y119751D01*
X1083324Y118064D01*
X1083324Y113002D01*
X1080699Y111314D01*
X1078075Y111314D01*
X1075450Y113002D01*
X1075450Y118064D01*
X1083324Y118064D02*
X1075450Y113002D01*
X1105634Y111314D02*
X1104322Y111314D01*
X1101697Y113002D01*
X1101697Y118064D01*
X1104322Y119751D01*
X1105634Y119751D01*
X1110883Y111314D02*
X1110883Y119751D01*
X1116133Y119751D01*
X1118757Y118064D01*
X1118757Y117220D01*
X1116133Y115533D01*
X1110883Y115533D01*
X1112196Y115533D02*
X1118757Y111314D01*
X1122694Y113002D02*
X1125319Y111314D01*
X1127944Y111314D01*
X1130568Y113002D01*
X1130568Y118064D01*
X1127944Y119751D01*
X1125319Y119751D01*
X1122694Y118064D01*
X1122694Y113002D01*
X1134505Y119751D02*
X1134505Y113002D01*
X1137130Y111314D01*
X1139755Y111314D01*
X1142379Y113002D01*
X1142379Y119751D01*
X1146316Y111314D02*
X1146316Y119751D01*
X1154190Y111314D01*
X1154190Y119751D01*
X1158127Y111314D02*
X1163377Y111314D01*
X1166001Y113002D01*
X1166001Y118064D01*
X1163377Y119751D01*
X1158127Y119751D01*
X1159440Y119751D02*
X1159440Y111314D01*
X1171251Y119751D02*
X1172563Y119751D01*
X1175188Y118064D01*
X1175188Y113002D01*
X1172563Y111314D01*
X1171251Y111314D01*
X749728Y110513D02*
X753904Y114689D01*
X749728Y118865D01*
X745553Y114689D01*
X749728Y110513D01*
X798678Y135893D02*
X790804Y135893D01*
X790804Y132518D01*
X796054Y132518D01*
X798678Y130831D01*
X798678Y129143D01*
X796054Y127456D01*
X790804Y127456D01*
X803928Y134205D02*
X806552Y135893D01*
X806552Y127456D01*
X802615Y127456D02*
X810490Y127456D01*
X818364Y127456D02*
X818364Y128300D01*
X827550Y134205D02*
X830175Y135893D01*
X830175Y127456D01*
X826238Y127456D02*
X834112Y127456D01*
X843298Y127456D02*
X840673Y127456D01*
X838049Y129143D01*
X838049Y130831D01*
X839361Y131674D01*
X838049Y132518D01*
X838049Y134205D01*
X840673Y135893D01*
X843298Y135893D01*
X845923Y134205D01*
X845923Y132518D01*
X844610Y131674D01*
X845923Y130831D01*
X845923Y129143D01*
X843298Y127456D01*
X839361Y131674D02*
X844610Y131674D01*
X851172Y134205D02*
X853797Y135893D01*
X853797Y127456D01*
X849860Y127456D02*
X857734Y127456D01*
X862983Y134205D02*
X865608Y135893D01*
X865608Y127456D01*
X861671Y127456D02*
X869545Y127456D01*
X873482Y134205D02*
X876106Y135893D01*
X878731Y135893D01*
X881356Y134205D01*
X881356Y129143D01*
X878731Y127456D01*
X876106Y127456D01*
X873482Y129143D01*
X873482Y134205D01*
X881356Y134205D02*
X873482Y129143D01*
X932274Y135049D02*
X933587Y135893D01*
X936211Y135893D01*
X938836Y134205D01*
X938836Y132518D01*
X937524Y131674D01*
X938836Y130831D01*
X938836Y129143D01*
X936211Y127456D01*
X933587Y127456D01*
X932274Y128300D01*
X933587Y131674D02*
X937524Y131674D01*
X1006159Y127456D02*
X1006159Y135893D01*
X1011408Y135893D01*
X1014033Y134205D01*
X1014033Y133362D01*
X1011408Y131674D01*
X1006159Y131674D01*
X1021907Y127456D02*
X1021907Y135893D01*
X1017970Y135893D02*
X1025844Y135893D01*
X1029781Y127456D02*
X1029781Y135893D01*
X1037655Y127456D02*
X1037655Y135893D01*
X1029781Y131674D02*
X1037655Y131674D01*
X1075450Y134205D02*
X1078075Y135893D01*
X1080699Y135893D01*
X1083324Y134205D01*
X1083324Y129143D01*
X1080699Y127456D01*
X1078075Y127456D01*
X1075450Y129143D01*
X1075450Y134205D01*
X1083324Y134205D02*
X1075450Y129143D01*
X1105634Y127456D02*
X1104322Y127456D01*
X1101697Y129143D01*
X1101697Y134205D01*
X1104322Y135893D01*
X1105634Y135893D01*
X1110883Y127456D02*
X1110883Y135893D01*
X1116133Y135893D01*
X1118757Y134205D01*
X1118757Y133362D01*
X1116133Y131674D01*
X1110883Y131674D01*
X1112196Y131674D02*
X1118757Y127456D01*
X1122694Y129143D02*
X1125319Y127456D01*
X1127944Y127456D01*
X1130568Y129143D01*
X1130568Y134205D01*
X1127944Y135893D01*
X1125319Y135893D01*
X1122694Y134205D01*
X1122694Y129143D01*
X1134505Y135893D02*
X1134505Y129143D01*
X1137130Y127456D01*
X1139755Y127456D01*
X1142379Y129143D01*
X1142379Y135893D01*
X1146316Y127456D02*
X1146316Y135893D01*
X1154190Y127456D01*
X1154190Y135893D01*
X1158127Y127456D02*
X1163377Y127456D01*
X1166001Y129143D01*
X1166001Y134205D01*
X1163377Y135893D01*
X1158127Y135893D01*
X1159440Y135893D02*
X1159440Y127456D01*
X1171251Y135893D02*
X1172563Y135893D01*
X1175188Y134205D01*
X1175188Y129143D01*
X1172563Y127456D01*
X1171251Y127456D01*
X747169Y128272D02*
X752287Y128272D01*
X749728Y132640D01*
X747169Y128272D01*
X798678Y152034D02*
X790804Y152034D01*
X790804Y148660D01*
X796054Y148660D01*
X798678Y146972D01*
X798678Y145285D01*
X796054Y143598D01*
X790804Y143598D01*
X803928Y150347D02*
X806552Y152034D01*
X806552Y143598D01*
X802615Y143598D02*
X810490Y143598D01*
X818364Y143598D02*
X818364Y144442D01*
X827550Y150347D02*
X830175Y152034D01*
X830175Y143598D01*
X826238Y143598D02*
X834112Y143598D01*
X843298Y143598D02*
X840673Y143598D01*
X838049Y145285D01*
X838049Y146972D01*
X839361Y147816D01*
X838049Y148660D01*
X838049Y150347D01*
X840673Y152034D01*
X843298Y152034D01*
X845923Y150347D01*
X845923Y148660D01*
X844610Y147816D01*
X845923Y146972D01*
X845923Y145285D01*
X843298Y143598D01*
X839361Y147816D02*
X844610Y147816D01*
X851172Y150347D02*
X853797Y152034D01*
X853797Y143598D01*
X849860Y143598D02*
X857734Y143598D01*
X861671Y150347D02*
X864295Y152034D01*
X866920Y152034D01*
X869545Y150347D01*
X869545Y145285D01*
X866920Y143598D01*
X864295Y143598D01*
X861671Y145285D01*
X861671Y150347D01*
X869545Y150347D02*
X861671Y145285D01*
X873482Y150347D02*
X876106Y152034D01*
X878731Y152034D01*
X881356Y150347D01*
X881356Y149503D01*
X873482Y143598D01*
X881356Y143598D01*
X881356Y144442D01*
X932274Y151191D02*
X933587Y152034D01*
X936211Y152034D01*
X938836Y150347D01*
X938836Y148660D01*
X937524Y147816D01*
X938836Y146972D01*
X938836Y145285D01*
X936211Y143598D01*
X933587Y143598D01*
X932274Y144442D01*
X933587Y147816D02*
X937524Y147816D01*
X1006159Y143598D02*
X1006159Y152034D01*
X1011408Y152034D01*
X1014033Y150347D01*
X1014033Y149503D01*
X1011408Y147816D01*
X1006159Y147816D01*
X1021907Y143598D02*
X1021907Y152034D01*
X1017970Y152034D02*
X1025844Y152034D01*
X1029781Y143598D02*
X1029781Y152034D01*
X1037655Y143598D02*
X1037655Y152034D01*
X1029781Y147816D02*
X1037655Y147816D01*
X1075450Y150347D02*
X1078075Y152034D01*
X1080699Y152034D01*
X1083324Y150347D01*
X1083324Y145285D01*
X1080699Y143598D01*
X1078075Y143598D01*
X1075450Y145285D01*
X1075450Y150347D01*
X1083324Y150347D02*
X1075450Y145285D01*
X1105634Y143598D02*
X1104322Y143598D01*
X1101697Y145285D01*
X1101697Y150347D01*
X1104322Y152034D01*
X1105634Y152034D01*
X1110883Y143598D02*
X1110883Y152034D01*
X1116133Y152034D01*
X1118757Y150347D01*
X1118757Y149503D01*
X1116133Y147816D01*
X1110883Y147816D01*
X1112196Y147816D02*
X1118757Y143598D01*
X1122694Y145285D02*
X1125319Y143598D01*
X1127944Y143598D01*
X1130568Y145285D01*
X1130568Y150347D01*
X1127944Y152034D01*
X1125319Y152034D01*
X1122694Y150347D01*
X1122694Y145285D01*
X1134505Y152034D02*
X1134505Y145285D01*
X1137130Y143598D01*
X1139755Y143598D01*
X1142379Y145285D01*
X1142379Y152034D01*
X1146316Y143598D02*
X1146316Y152034D01*
X1154190Y143598D01*
X1154190Y152034D01*
X1158127Y143598D02*
X1163377Y143598D01*
X1166001Y145285D01*
X1166001Y150347D01*
X1163377Y152034D01*
X1158127Y152034D01*
X1159440Y152034D02*
X1159440Y143598D01*
X1171251Y152034D02*
X1172563Y152034D01*
X1175188Y150347D01*
X1175188Y145285D01*
X1172563Y143598D01*
X1171251Y143598D01*
X748733Y146241D02*
X748733Y147338D01*
X749302Y148069D01*
X749871Y148069D01*
X750439Y147338D01*
X750439Y146241D01*
X748733Y146790D02*
X750439Y146790D01*
X747169Y146972D02*
G75*
D01*
G02X747169Y146972I2559J0*
G01*
X798678Y163114D02*
X790804Y163114D01*
X797366Y168176D01*
X797366Y159740D01*
X796054Y159740D02*
X798678Y159740D01*
X806552Y159740D02*
X806552Y163958D01*
X810490Y166489D01*
X810490Y168176D01*
X802615Y168176D01*
X802615Y166489D01*
X818364Y159740D02*
X818364Y160583D01*
X826238Y166489D02*
X828862Y168176D01*
X831487Y168176D01*
X834112Y166489D01*
X834112Y165645D01*
X826238Y159740D01*
X834112Y159740D01*
X834112Y160583D01*
X845923Y163114D02*
X838049Y163114D01*
X844610Y168176D01*
X844610Y159740D01*
X843298Y159740D02*
X845923Y159740D01*
X857734Y163114D02*
X849860Y163114D01*
X856421Y168176D01*
X856421Y159740D01*
X855109Y159740D02*
X857734Y159740D01*
X861671Y166489D02*
X864295Y168176D01*
X866920Y168176D01*
X869545Y166489D01*
X869545Y161427D01*
X866920Y159740D01*
X864295Y159740D01*
X861671Y161427D01*
X861671Y166489D01*
X869545Y166489D02*
X861671Y161427D01*
X873482Y161427D02*
X876106Y159740D01*
X878731Y159740D01*
X881356Y161427D01*
X881356Y164801D01*
X881356Y166489D01*
X878731Y168176D01*
X876106Y168176D01*
X873482Y166489D01*
X873482Y164801D01*
X876106Y163114D01*
X878731Y163114D01*
X881356Y164801D01*
X938836Y163114D02*
X930962Y163114D01*
X937524Y168176D01*
X937524Y159740D01*
X936211Y159740D02*
X938836Y159740D01*
X1006159Y159740D02*
X1006159Y168176D01*
X1011408Y168176D01*
X1014033Y166489D01*
X1014033Y165645D01*
X1011408Y163958D01*
X1006159Y163958D01*
X1021907Y159740D02*
X1021907Y168176D01*
X1017970Y168176D02*
X1025844Y168176D01*
X1029781Y159740D02*
X1029781Y168176D01*
X1037655Y159740D02*
X1037655Y168176D01*
X1029781Y163958D02*
X1037655Y163958D01*
X1075450Y166489D02*
X1078075Y168176D01*
X1080699Y168176D01*
X1083324Y166489D01*
X1083324Y161427D01*
X1080699Y159740D01*
X1078075Y159740D01*
X1075450Y161427D01*
X1075450Y166489D01*
X1083324Y166489D02*
X1075450Y161427D01*
X1105634Y159740D02*
X1104322Y159740D01*
X1101697Y161427D01*
X1101697Y166489D01*
X1104322Y168176D01*
X1105634Y168176D01*
X1110883Y159740D02*
X1110883Y168176D01*
X1116133Y168176D01*
X1118757Y166489D01*
X1118757Y165645D01*
X1116133Y163958D01*
X1110883Y163958D01*
X1112196Y163958D02*
X1118757Y159740D01*
X1122694Y161427D02*
X1125319Y159740D01*
X1127944Y159740D01*
X1130568Y161427D01*
X1130568Y166489D01*
X1127944Y168176D01*
X1125319Y168176D01*
X1122694Y166489D01*
X1122694Y161427D01*
X1134505Y168176D02*
X1134505Y161427D01*
X1137130Y159740D01*
X1139755Y159740D01*
X1142379Y161427D01*
X1142379Y168176D01*
X1146316Y159740D02*
X1146316Y168176D01*
X1154190Y159740D01*
X1154190Y168176D01*
X1158127Y159740D02*
X1163377Y159740D01*
X1166001Y161427D01*
X1166001Y166489D01*
X1163377Y168176D01*
X1158127Y168176D01*
X1159440Y168176D02*
X1159440Y159740D01*
X1171251Y168176D02*
X1172563Y168176D01*
X1175188Y166489D01*
X1175188Y161427D01*
X1172563Y159740D01*
X1171251Y159740D01*
X748810Y162439D02*
X749860Y162439D01*
X750385Y162777D01*
X750385Y162945D01*
X749860Y163283D01*
X750385Y163620D01*
X750385Y163789D01*
X749860Y164127D01*
X749072Y164127D01*
X748810Y164127D01*
X749072Y163283D02*
X749860Y163283D01*
X749072Y164127D02*
X749072Y162439D01*
X747366Y160752D02*
X752091Y160752D01*
X752091Y165476D01*
X747366Y165476D01*
X747366Y160752D01*
X798678Y179256D02*
X790804Y179256D01*
X797366Y184318D01*
X797366Y175881D01*
X796054Y175881D02*
X798678Y175881D01*
X809177Y184318D02*
X805240Y184318D01*
X802615Y182630D01*
X802615Y179256D01*
X802615Y177569D01*
X805240Y175881D01*
X807865Y175881D01*
X810490Y177569D01*
X810490Y179256D01*
X807865Y180943D01*
X805240Y180943D01*
X802615Y179256D01*
X818364Y175881D02*
X818364Y176725D01*
X832799Y184318D02*
X828862Y184318D01*
X826238Y182630D01*
X826238Y179256D01*
X826238Y177569D01*
X828862Y175881D01*
X831487Y175881D01*
X834112Y177569D01*
X834112Y179256D01*
X831487Y180943D01*
X828862Y180943D01*
X826238Y179256D01*
X841986Y175881D02*
X841986Y180100D01*
X845923Y182630D01*
X845923Y184318D01*
X838049Y184318D01*
X838049Y182630D01*
X849860Y182630D02*
X852484Y184318D01*
X855109Y184318D01*
X857734Y182630D01*
X857734Y177569D01*
X855109Y175881D01*
X852484Y175881D01*
X849860Y177569D01*
X849860Y182630D01*
X857734Y182630D02*
X849860Y177569D01*
X861671Y182630D02*
X864295Y184318D01*
X866920Y184318D01*
X869545Y182630D01*
X869545Y177569D01*
X866920Y175881D01*
X864295Y175881D01*
X861671Y177569D01*
X861671Y182630D01*
X869545Y182630D02*
X861671Y177569D01*
X873482Y182630D02*
X876106Y184318D01*
X878731Y184318D01*
X881356Y182630D01*
X881356Y177569D01*
X878731Y175881D01*
X876106Y175881D01*
X873482Y177569D01*
X873482Y182630D01*
X881356Y182630D02*
X873482Y177569D01*
X937524Y184318D02*
X933587Y184318D01*
X930962Y182630D01*
X930962Y179256D01*
X930962Y177569D01*
X933587Y175881D01*
X936211Y175881D01*
X938836Y177569D01*
X938836Y179256D01*
X936211Y180943D01*
X933587Y180943D01*
X930962Y179256D01*
X1006159Y175881D02*
X1006159Y184318D01*
X1011408Y184318D01*
X1014033Y182630D01*
X1014033Y181787D01*
X1011408Y180100D01*
X1006159Y180100D01*
X1021907Y175881D02*
X1021907Y184318D01*
X1017970Y184318D02*
X1025844Y184318D01*
X1029781Y175881D02*
X1029781Y184318D01*
X1037655Y175881D02*
X1037655Y184318D01*
X1029781Y180100D02*
X1037655Y180100D01*
X1075450Y182630D02*
X1078075Y184318D01*
X1080699Y184318D01*
X1083324Y182630D01*
X1083324Y177569D01*
X1080699Y175881D01*
X1078075Y175881D01*
X1075450Y177569D01*
X1075450Y182630D01*
X1083324Y182630D02*
X1075450Y177569D01*
X1105634Y175881D02*
X1104322Y175881D01*
X1101697Y177569D01*
X1101697Y182630D01*
X1104322Y184318D01*
X1105634Y184318D01*
X1110883Y175881D02*
X1110883Y184318D01*
X1116133Y184318D01*
X1118757Y182630D01*
X1118757Y181787D01*
X1116133Y180100D01*
X1110883Y180100D01*
X1112196Y180100D02*
X1118757Y175881D01*
X1122694Y177569D02*
X1125319Y175881D01*
X1127944Y175881D01*
X1130568Y177569D01*
X1130568Y182630D01*
X1127944Y184318D01*
X1125319Y184318D01*
X1122694Y182630D01*
X1122694Y177569D01*
X1134505Y184318D02*
X1134505Y177569D01*
X1137130Y175881D01*
X1139755Y175881D01*
X1142379Y177569D01*
X1142379Y184318D01*
X1146316Y175881D02*
X1146316Y184318D01*
X1154190Y175881D01*
X1154190Y184318D01*
X1158127Y175881D02*
X1163377Y175881D01*
X1166001Y177569D01*
X1166001Y182630D01*
X1163377Y184318D01*
X1158127Y184318D01*
X1159440Y184318D02*
X1159440Y175881D01*
X1171251Y184318D02*
X1172563Y184318D01*
X1175188Y182630D01*
X1175188Y177569D01*
X1172563Y175881D01*
X1171251Y175881D01*
X747395Y179256D02*
G75*
D01*
G02X747395Y179256I2333J0*
G01*
X748963Y193851D02*
X749838Y193851D01*
X750275Y194132D01*
X750275Y194273D01*
X749838Y194554D01*
X750275Y194835D01*
X750275Y194976D01*
X749838Y195257D01*
X749182Y195257D01*
X748963Y195257D01*
X749182Y194554D02*
X749838Y194554D01*
X749182Y195257D02*
X749182Y193851D01*
X747760Y193429D02*
X751697Y193429D01*
X749728Y196790D01*
X747760Y193429D01*
X792117Y199616D02*
X793429Y200460D01*
X796054Y200460D01*
X798678Y198772D01*
X798678Y197085D01*
X797366Y196241D01*
X798678Y195398D01*
X798678Y193710D01*
X796054Y192023D01*
X793429Y192023D01*
X792117Y192867D01*
X793429Y196241D02*
X797366Y196241D01*
X802615Y193710D02*
X805240Y192023D01*
X807865Y192023D01*
X810490Y193710D01*
X810490Y197085D01*
X810490Y198772D01*
X807865Y200460D01*
X805240Y200460D01*
X802615Y198772D01*
X802615Y197085D01*
X805240Y195398D01*
X807865Y195398D01*
X810490Y197085D01*
X818364Y192023D02*
X818364Y192867D01*
X827550Y199616D02*
X828862Y200460D01*
X831487Y200460D01*
X834112Y198772D01*
X834112Y197085D01*
X832799Y196241D01*
X834112Y195398D01*
X834112Y193710D01*
X831487Y192023D01*
X828862Y192023D01*
X827550Y192867D01*
X828862Y196241D02*
X832799Y196241D01*
X841986Y192023D02*
X841986Y196241D01*
X845923Y198772D01*
X845923Y200460D01*
X838049Y200460D01*
X838049Y198772D01*
X849860Y198772D02*
X852484Y200460D01*
X855109Y200460D01*
X857734Y198772D01*
X857734Y193710D01*
X855109Y192023D01*
X852484Y192023D01*
X849860Y193710D01*
X849860Y198772D01*
X857734Y198772D02*
X849860Y193710D01*
X861671Y198772D02*
X864295Y200460D01*
X866920Y200460D01*
X869545Y198772D01*
X869545Y193710D01*
X866920Y192023D01*
X864295Y192023D01*
X861671Y193710D01*
X861671Y198772D01*
X869545Y198772D02*
X861671Y193710D01*
X878731Y192023D02*
X876106Y192023D01*
X873482Y193710D01*
X873482Y195398D01*
X874794Y196241D01*
X873482Y197085D01*
X873482Y198772D01*
X876106Y200460D01*
X878731Y200460D01*
X881356Y198772D01*
X881356Y197085D01*
X880043Y196241D01*
X881356Y195398D01*
X881356Y193710D01*
X878731Y192023D01*
X874794Y196241D02*
X880043Y196241D01*
X937524Y200460D02*
X933587Y200460D01*
X930962Y198772D01*
X930962Y195398D01*
X930962Y193710D01*
X933587Y192023D01*
X936211Y192023D01*
X938836Y193710D01*
X938836Y195398D01*
X936211Y197085D01*
X933587Y197085D01*
X930962Y195398D01*
X1006159Y192023D02*
X1006159Y200460D01*
X1011408Y200460D01*
X1014033Y198772D01*
X1014033Y197929D01*
X1011408Y196241D01*
X1006159Y196241D01*
X1021907Y192023D02*
X1021907Y200460D01*
X1017970Y200460D02*
X1025844Y200460D01*
X1029781Y192023D02*
X1029781Y200460D01*
X1037655Y192023D02*
X1037655Y200460D01*
X1029781Y196241D02*
X1037655Y196241D01*
X1075450Y198772D02*
X1078075Y200460D01*
X1080699Y200460D01*
X1083324Y198772D01*
X1083324Y193710D01*
X1080699Y192023D01*
X1078075Y192023D01*
X1075450Y193710D01*
X1075450Y198772D01*
X1083324Y198772D02*
X1075450Y193710D01*
X1105634Y192023D02*
X1104322Y192023D01*
X1101697Y193710D01*
X1101697Y198772D01*
X1104322Y200460D01*
X1105634Y200460D01*
X1110883Y192023D02*
X1110883Y200460D01*
X1116133Y200460D01*
X1118757Y198772D01*
X1118757Y197929D01*
X1116133Y196241D01*
X1110883Y196241D01*
X1112196Y196241D02*
X1118757Y192023D01*
X1122694Y193710D02*
X1125319Y192023D01*
X1127944Y192023D01*
X1130568Y193710D01*
X1130568Y198772D01*
X1127944Y200460D01*
X1125319Y200460D01*
X1122694Y198772D01*
X1122694Y193710D01*
X1134505Y200460D02*
X1134505Y193710D01*
X1137130Y192023D01*
X1139755Y192023D01*
X1142379Y193710D01*
X1142379Y200460D01*
X1146316Y192023D02*
X1146316Y200460D01*
X1154190Y192023D01*
X1154190Y200460D01*
X1158127Y192023D02*
X1163377Y192023D01*
X1166001Y193710D01*
X1166001Y198772D01*
X1163377Y200460D01*
X1158127Y200460D01*
X1159440Y200460D02*
X1159440Y192023D01*
X1171251Y200460D02*
X1172563Y200460D01*
X1175188Y198772D01*
X1175188Y193710D01*
X1172563Y192023D01*
X1171251Y192023D01*
X792117Y215758D02*
X793429Y216601D01*
X796054Y216601D01*
X798678Y214914D01*
X798678Y213227D01*
X797366Y212383D01*
X798678Y211539D01*
X798678Y209852D01*
X796054Y208165D01*
X793429Y208165D01*
X792117Y209008D01*
X793429Y212383D02*
X797366Y212383D01*
X802615Y209852D02*
X805240Y208165D01*
X807865Y208165D01*
X810490Y209852D01*
X810490Y213227D01*
X810490Y214914D01*
X807865Y216601D01*
X805240Y216601D01*
X802615Y214914D01*
X802615Y213227D01*
X805240Y211539D01*
X807865Y211539D01*
X810490Y213227D01*
X818364Y208165D02*
X818364Y209008D01*
X827550Y214914D02*
X830175Y216601D01*
X830175Y208165D01*
X826238Y208165D02*
X834112Y208165D01*
X841986Y208165D02*
X841986Y212383D01*
X845923Y214914D01*
X845923Y216601D01*
X838049Y216601D01*
X838049Y214914D01*
X849860Y214914D02*
X852484Y216601D01*
X855109Y216601D01*
X857734Y214914D01*
X857734Y209852D01*
X855109Y208165D01*
X852484Y208165D01*
X849860Y209852D01*
X849860Y214914D01*
X857734Y214914D02*
X849860Y209852D01*
X861671Y214914D02*
X864295Y216601D01*
X866920Y216601D01*
X869545Y214914D01*
X869545Y209852D01*
X866920Y208165D01*
X864295Y208165D01*
X861671Y209852D01*
X861671Y214914D01*
X869545Y214914D02*
X861671Y209852D01*
X873482Y214914D02*
X876106Y216601D01*
X878731Y216601D01*
X881356Y214914D01*
X881356Y209852D01*
X878731Y208165D01*
X876106Y208165D01*
X873482Y209852D01*
X873482Y214914D01*
X881356Y214914D02*
X873482Y209852D01*
X936211Y208165D02*
X933587Y208165D01*
X930962Y209852D01*
X930962Y211539D01*
X932274Y212383D01*
X930962Y213227D01*
X930962Y214914D01*
X933587Y216601D01*
X936211Y216601D01*
X938836Y214914D01*
X938836Y213227D01*
X937524Y212383D01*
X938836Y211539D01*
X938836Y209852D01*
X936211Y208165D01*
X932274Y212383D02*
X937524Y212383D01*
X1006159Y208165D02*
X1006159Y216601D01*
X1011408Y216601D01*
X1014033Y214914D01*
X1014033Y214070D01*
X1011408Y212383D01*
X1006159Y212383D01*
X1021907Y208165D02*
X1021907Y216601D01*
X1017970Y216601D02*
X1025844Y216601D01*
X1029781Y208165D02*
X1029781Y216601D01*
X1037655Y208165D02*
X1037655Y216601D01*
X1029781Y212383D02*
X1037655Y212383D01*
X1075450Y214914D02*
X1078075Y216601D01*
X1080699Y216601D01*
X1083324Y214914D01*
X1083324Y209852D01*
X1080699Y208165D01*
X1078075Y208165D01*
X1075450Y209852D01*
X1075450Y214914D01*
X1083324Y214914D02*
X1075450Y209852D01*
X1105634Y208165D02*
X1104322Y208165D01*
X1101697Y209852D01*
X1101697Y214914D01*
X1104322Y216601D01*
X1105634Y216601D01*
X1110883Y208165D02*
X1110883Y216601D01*
X1116133Y216601D01*
X1118757Y214914D01*
X1118757Y214070D01*
X1116133Y212383D01*
X1110883Y212383D01*
X1112196Y212383D02*
X1118757Y208165D01*
X1122694Y209852D02*
X1125319Y208165D01*
X1127944Y208165D01*
X1130568Y209852D01*
X1130568Y214914D01*
X1127944Y216601D01*
X1125319Y216601D01*
X1122694Y214914D01*
X1122694Y209852D01*
X1134505Y216601D02*
X1134505Y209852D01*
X1137130Y208165D01*
X1139755Y208165D01*
X1142379Y209852D01*
X1142379Y216601D01*
X1146316Y208165D02*
X1146316Y216601D01*
X1154190Y208165D01*
X1154190Y216601D01*
X1158127Y208165D02*
X1163377Y208165D01*
X1166001Y209852D01*
X1166001Y214914D01*
X1163377Y216601D01*
X1158127Y216601D01*
X1159440Y216601D02*
X1159440Y208165D01*
X1171251Y216601D02*
X1172563Y216601D01*
X1175188Y214914D01*
X1175188Y209852D01*
X1172563Y208165D01*
X1171251Y208165D01*
X792117Y231899D02*
X793429Y232743D01*
X796054Y232743D01*
X798678Y231056D01*
X798678Y229368D01*
X797366Y228525D01*
X798678Y227681D01*
X798678Y225994D01*
X796054Y224307D01*
X793429Y224307D01*
X792117Y225150D01*
X793429Y228525D02*
X797366Y228525D01*
X806552Y224307D02*
X806552Y228525D01*
X810490Y231056D01*
X810490Y232743D01*
X802615Y232743D01*
X802615Y231056D01*
X818364Y224307D02*
X818364Y225150D01*
X826238Y231056D02*
X828862Y232743D01*
X831487Y232743D01*
X834112Y231056D01*
X834112Y225994D01*
X831487Y224307D01*
X828862Y224307D01*
X826238Y225994D01*
X826238Y231056D01*
X834112Y231056D02*
X826238Y225994D01*
X838049Y231056D02*
X840673Y232743D01*
X843298Y232743D01*
X845923Y231056D01*
X845923Y225994D01*
X843298Y224307D01*
X840673Y224307D01*
X838049Y225994D01*
X838049Y231056D01*
X845923Y231056D02*
X838049Y225994D01*
X849860Y231056D02*
X852484Y232743D01*
X855109Y232743D01*
X857734Y231056D01*
X857734Y225994D01*
X855109Y224307D01*
X852484Y224307D01*
X849860Y225994D01*
X849860Y231056D01*
X857734Y231056D02*
X849860Y225994D01*
X861671Y231056D02*
X864295Y232743D01*
X866920Y232743D01*
X869545Y231056D01*
X869545Y225994D01*
X866920Y224307D01*
X864295Y224307D01*
X861671Y225994D01*
X861671Y231056D01*
X869545Y231056D02*
X861671Y225994D01*
X873482Y231056D02*
X876106Y232743D01*
X878731Y232743D01*
X881356Y231056D01*
X881356Y225994D01*
X878731Y224307D01*
X876106Y224307D01*
X873482Y225994D01*
X873482Y231056D01*
X881356Y231056D02*
X873482Y225994D01*
X938836Y227681D02*
X930962Y227681D01*
X937524Y232743D01*
X937524Y224307D01*
X936211Y224307D02*
X938836Y224307D01*
X1006159Y224307D02*
X1006159Y232743D01*
X1011408Y232743D01*
X1014033Y231056D01*
X1014033Y230212D01*
X1011408Y228525D01*
X1006159Y228525D01*
X1021907Y224307D02*
X1021907Y232743D01*
X1017970Y232743D02*
X1025844Y232743D01*
X1029781Y224307D02*
X1029781Y232743D01*
X1037655Y224307D02*
X1037655Y232743D01*
X1029781Y228525D02*
X1037655Y228525D01*
X1075450Y231056D02*
X1078075Y232743D01*
X1080699Y232743D01*
X1083324Y231056D01*
X1083324Y225994D01*
X1080699Y224307D01*
X1078075Y224307D01*
X1075450Y225994D01*
X1075450Y231056D01*
X1083324Y231056D02*
X1075450Y225994D01*
X1105634Y224307D02*
X1104322Y224307D01*
X1101697Y225994D01*
X1101697Y231056D01*
X1104322Y232743D01*
X1105634Y232743D01*
X1110883Y224307D02*
X1110883Y232743D01*
X1116133Y232743D01*
X1118757Y231056D01*
X1118757Y230212D01*
X1116133Y228525D01*
X1110883Y228525D01*
X1112196Y228525D02*
X1118757Y224307D01*
X1122694Y225994D02*
X1125319Y224307D01*
X1127944Y224307D01*
X1130568Y225994D01*
X1130568Y231056D01*
X1127944Y232743D01*
X1125319Y232743D01*
X1122694Y231056D01*
X1122694Y225994D01*
X1134505Y232743D02*
X1134505Y225994D01*
X1137130Y224307D01*
X1139755Y224307D01*
X1142379Y225994D01*
X1142379Y232743D01*
X1146316Y224307D02*
X1146316Y232743D01*
X1154190Y224307D01*
X1154190Y232743D01*
X1158127Y224307D02*
X1163377Y224307D01*
X1166001Y225994D01*
X1166001Y231056D01*
X1163377Y232743D01*
X1158127Y232743D01*
X1159440Y232743D02*
X1159440Y224307D01*
X1171251Y232743D02*
X1172563Y232743D01*
X1175188Y231056D01*
X1175188Y225994D01*
X1172563Y224307D01*
X1171251Y224307D01*
X792117Y248041D02*
X793429Y248885D01*
X796054Y248885D01*
X798678Y247197D01*
X798678Y245510D01*
X797366Y244666D01*
X798678Y243823D01*
X798678Y242136D01*
X796054Y240448D01*
X793429Y240448D01*
X792117Y241292D01*
X793429Y244666D02*
X797366Y244666D01*
X810490Y248885D02*
X802615Y248885D01*
X802615Y245510D01*
X807865Y245510D01*
X810490Y243823D01*
X810490Y242136D01*
X807865Y240448D01*
X802615Y240448D01*
X818364Y240448D02*
X818364Y241292D01*
X834112Y243823D02*
X826238Y243823D01*
X832799Y248885D01*
X832799Y240448D01*
X831487Y240448D02*
X834112Y240448D01*
X839361Y248041D02*
X840673Y248885D01*
X843298Y248885D01*
X845923Y247197D01*
X845923Y245510D01*
X844610Y244666D01*
X845923Y243823D01*
X845923Y242136D01*
X843298Y240448D01*
X840673Y240448D01*
X839361Y241292D01*
X840673Y244666D02*
X844610Y244666D01*
X851172Y248041D02*
X852484Y248885D01*
X855109Y248885D01*
X857734Y247197D01*
X857734Y245510D01*
X856421Y244666D01*
X857734Y243823D01*
X857734Y242136D01*
X855109Y240448D01*
X852484Y240448D01*
X851172Y241292D01*
X852484Y244666D02*
X856421Y244666D01*
X861671Y247197D02*
X864295Y248885D01*
X866920Y248885D01*
X869545Y247197D01*
X869545Y242136D01*
X866920Y240448D01*
X864295Y240448D01*
X861671Y242136D01*
X861671Y247197D01*
X869545Y247197D02*
X861671Y242136D01*
X877419Y240448D02*
X877419Y244666D01*
X881356Y247197D01*
X881356Y248885D01*
X873482Y248885D01*
X873482Y247197D01*
X926369Y247197D02*
X928993Y248885D01*
X928993Y240448D01*
X925056Y240448D02*
X932930Y240448D01*
X943429Y248885D02*
X939492Y248885D01*
X936867Y247197D01*
X936867Y243823D01*
X936867Y242136D01*
X939492Y240448D01*
X942117Y240448D01*
X944741Y242136D01*
X944741Y243823D01*
X942117Y245510D01*
X939492Y245510D01*
X936867Y243823D01*
X1006159Y240448D02*
X1006159Y248885D01*
X1011408Y248885D01*
X1014033Y247197D01*
X1014033Y246354D01*
X1011408Y244666D01*
X1006159Y244666D01*
X1021907Y240448D02*
X1021907Y248885D01*
X1017970Y248885D02*
X1025844Y248885D01*
X1029781Y240448D02*
X1029781Y248885D01*
X1037655Y240448D02*
X1037655Y248885D01*
X1029781Y244666D02*
X1037655Y244666D01*
X1075450Y247197D02*
X1078075Y248885D01*
X1080699Y248885D01*
X1083324Y247197D01*
X1083324Y242136D01*
X1080699Y240448D01*
X1078075Y240448D01*
X1075450Y242136D01*
X1075450Y247197D01*
X1083324Y247197D02*
X1075450Y242136D01*
X1105634Y240448D02*
X1104322Y240448D01*
X1101697Y242136D01*
X1101697Y247197D01*
X1104322Y248885D01*
X1105634Y248885D01*
X1110883Y240448D02*
X1110883Y248885D01*
X1116133Y248885D01*
X1118757Y247197D01*
X1118757Y246354D01*
X1116133Y244666D01*
X1110883Y244666D01*
X1112196Y244666D02*
X1118757Y240448D01*
X1122694Y242136D02*
X1125319Y240448D01*
X1127944Y240448D01*
X1130568Y242136D01*
X1130568Y247197D01*
X1127944Y248885D01*
X1125319Y248885D01*
X1122694Y247197D01*
X1122694Y242136D01*
X1134505Y248885D02*
X1134505Y242136D01*
X1137130Y240448D01*
X1139755Y240448D01*
X1142379Y242136D01*
X1142379Y248885D01*
X1146316Y240448D02*
X1146316Y248885D01*
X1154190Y240448D01*
X1154190Y248885D01*
X1158127Y240448D02*
X1163377Y240448D01*
X1166001Y242136D01*
X1166001Y247197D01*
X1163377Y248885D01*
X1158127Y248885D01*
X1159440Y248885D02*
X1159440Y240448D01*
X1171251Y248885D02*
X1172563Y248885D01*
X1175188Y247197D01*
X1175188Y242136D01*
X1172563Y240448D01*
X1171251Y240448D01*
X792117Y264183D02*
X793429Y265026D01*
X796054Y265026D01*
X798678Y263339D01*
X798678Y261652D01*
X797366Y260808D01*
X798678Y259965D01*
X798678Y258277D01*
X796054Y256590D01*
X793429Y256590D01*
X792117Y257434D01*
X793429Y260808D02*
X797366Y260808D01*
X810490Y265026D02*
X802615Y265026D01*
X802615Y261652D01*
X807865Y261652D01*
X810490Y259965D01*
X810490Y258277D01*
X807865Y256590D01*
X802615Y256590D01*
X818364Y256590D02*
X818364Y257434D01*
X826238Y263339D02*
X828862Y265026D01*
X831487Y265026D01*
X834112Y263339D01*
X834112Y258277D01*
X831487Y256590D01*
X828862Y256590D01*
X826238Y258277D01*
X826238Y263339D01*
X834112Y263339D02*
X826238Y258277D01*
X838049Y263339D02*
X840673Y265026D01*
X843298Y265026D01*
X845923Y263339D01*
X845923Y258277D01*
X843298Y256590D01*
X840673Y256590D01*
X838049Y258277D01*
X838049Y263339D01*
X845923Y263339D02*
X838049Y258277D01*
X849860Y263339D02*
X852484Y265026D01*
X855109Y265026D01*
X857734Y263339D01*
X857734Y258277D01*
X855109Y256590D01*
X852484Y256590D01*
X849860Y258277D01*
X849860Y263339D01*
X857734Y263339D02*
X849860Y258277D01*
X861671Y263339D02*
X864295Y265026D01*
X866920Y265026D01*
X869545Y263339D01*
X869545Y258277D01*
X866920Y256590D01*
X864295Y256590D01*
X861671Y258277D01*
X861671Y263339D01*
X869545Y263339D02*
X861671Y258277D01*
X873482Y263339D02*
X876106Y265026D01*
X878731Y265026D01*
X881356Y263339D01*
X881356Y258277D01*
X878731Y256590D01*
X876106Y256590D01*
X873482Y258277D01*
X873482Y263339D01*
X881356Y263339D02*
X873482Y258277D01*
X928993Y256590D02*
X928993Y260808D01*
X932930Y263339D01*
X932930Y265026D01*
X925056Y265026D01*
X925056Y263339D01*
X938180Y263339D02*
X940804Y265026D01*
X940804Y256590D01*
X936867Y256590D02*
X944741Y256590D01*
X1006159Y256590D02*
X1006159Y265026D01*
X1011408Y265026D01*
X1014033Y263339D01*
X1014033Y262496D01*
X1011408Y260808D01*
X1006159Y260808D01*
X1021907Y256590D02*
X1021907Y265026D01*
X1017970Y265026D02*
X1025844Y265026D01*
X1029781Y256590D02*
X1029781Y265026D01*
X1037655Y256590D02*
X1037655Y265026D01*
X1029781Y260808D02*
X1037655Y260808D01*
X1075450Y263339D02*
X1078075Y265026D01*
X1080699Y265026D01*
X1083324Y263339D01*
X1083324Y258277D01*
X1080699Y256590D01*
X1078075Y256590D01*
X1075450Y258277D01*
X1075450Y263339D01*
X1083324Y263339D02*
X1075450Y258277D01*
X1105634Y256590D02*
X1104322Y256590D01*
X1101697Y258277D01*
X1101697Y263339D01*
X1104322Y265026D01*
X1105634Y265026D01*
X1110883Y256590D02*
X1110883Y265026D01*
X1116133Y265026D01*
X1118757Y263339D01*
X1118757Y262496D01*
X1116133Y260808D01*
X1110883Y260808D01*
X1112196Y260808D02*
X1118757Y256590D01*
X1122694Y258277D02*
X1125319Y256590D01*
X1127944Y256590D01*
X1130568Y258277D01*
X1130568Y263339D01*
X1127944Y265026D01*
X1125319Y265026D01*
X1122694Y263339D01*
X1122694Y258277D01*
X1134505Y265026D02*
X1134505Y258277D01*
X1137130Y256590D01*
X1139755Y256590D01*
X1142379Y258277D01*
X1142379Y265026D01*
X1146316Y256590D02*
X1146316Y265026D01*
X1154190Y256590D01*
X1154190Y265026D01*
X1158127Y256590D02*
X1163377Y256590D01*
X1166001Y258277D01*
X1166001Y263339D01*
X1163377Y265026D01*
X1158127Y265026D01*
X1159440Y265026D02*
X1159440Y256590D01*
X1171251Y265026D02*
X1172563Y265026D01*
X1175188Y263339D01*
X1175188Y258277D01*
X1172563Y256590D01*
X1171251Y256590D01*
X792117Y280325D02*
X793429Y281168D01*
X796054Y281168D01*
X798678Y279481D01*
X798678Y277794D01*
X797366Y276950D01*
X798678Y276106D01*
X798678Y274419D01*
X796054Y272732D01*
X793429Y272732D01*
X792117Y273575D01*
X793429Y276950D02*
X797366Y276950D01*
X802615Y279481D02*
X805240Y281168D01*
X807865Y281168D01*
X810490Y279481D01*
X810490Y278637D01*
X802615Y272732D01*
X810490Y272732D01*
X810490Y273575D01*
X818364Y272732D02*
X818364Y273575D01*
X826238Y279481D02*
X828862Y281168D01*
X831487Y281168D01*
X834112Y279481D01*
X834112Y274419D01*
X831487Y272732D01*
X828862Y272732D01*
X826238Y274419D01*
X826238Y279481D01*
X834112Y279481D02*
X826238Y274419D01*
X838049Y279481D02*
X840673Y281168D01*
X843298Y281168D01*
X845923Y279481D01*
X845923Y274419D01*
X843298Y272732D01*
X840673Y272732D01*
X838049Y274419D01*
X838049Y279481D01*
X845923Y279481D02*
X838049Y274419D01*
X849860Y279481D02*
X852484Y281168D01*
X855109Y281168D01*
X857734Y279481D01*
X857734Y274419D01*
X855109Y272732D01*
X852484Y272732D01*
X849860Y274419D01*
X849860Y279481D01*
X857734Y279481D02*
X849860Y274419D01*
X861671Y279481D02*
X864295Y281168D01*
X866920Y281168D01*
X869545Y279481D01*
X869545Y274419D01*
X866920Y272732D01*
X864295Y272732D01*
X861671Y274419D01*
X861671Y279481D01*
X869545Y279481D02*
X861671Y274419D01*
X873482Y279481D02*
X876106Y281168D01*
X878731Y281168D01*
X881356Y279481D01*
X881356Y274419D01*
X878731Y272732D01*
X876106Y272732D01*
X873482Y274419D01*
X873482Y279481D01*
X881356Y279481D02*
X873482Y274419D01*
X926369Y279481D02*
X928993Y281168D01*
X928993Y272732D01*
X925056Y272732D02*
X932930Y272732D01*
X936867Y279481D02*
X939492Y281168D01*
X942117Y281168D01*
X944741Y279481D01*
X944741Y278637D01*
X936867Y272732D01*
X944741Y272732D01*
X944741Y273575D01*
X1006159Y272732D02*
X1006159Y281168D01*
X1011408Y281168D01*
X1014033Y279481D01*
X1014033Y278637D01*
X1011408Y276950D01*
X1006159Y276950D01*
X1021907Y272732D02*
X1021907Y281168D01*
X1017970Y281168D02*
X1025844Y281168D01*
X1029781Y272732D02*
X1029781Y281168D01*
X1037655Y272732D02*
X1037655Y281168D01*
X1029781Y276950D02*
X1037655Y276950D01*
X1075450Y279481D02*
X1078075Y281168D01*
X1080699Y281168D01*
X1083324Y279481D01*
X1083324Y274419D01*
X1080699Y272732D01*
X1078075Y272732D01*
X1075450Y274419D01*
X1075450Y279481D01*
X1083324Y279481D02*
X1075450Y274419D01*
X1105634Y272732D02*
X1104322Y272732D01*
X1101697Y274419D01*
X1101697Y279481D01*
X1104322Y281168D01*
X1105634Y281168D01*
X1110883Y272732D02*
X1110883Y281168D01*
X1116133Y281168D01*
X1118757Y279481D01*
X1118757Y278637D01*
X1116133Y276950D01*
X1110883Y276950D01*
X1112196Y276950D02*
X1118757Y272732D01*
X1122694Y274419D02*
X1125319Y272732D01*
X1127944Y272732D01*
X1130568Y274419D01*
X1130568Y279481D01*
X1127944Y281168D01*
X1125319Y281168D01*
X1122694Y279481D01*
X1122694Y274419D01*
X1134505Y281168D02*
X1134505Y274419D01*
X1137130Y272732D01*
X1139755Y272732D01*
X1142379Y274419D01*
X1142379Y281168D01*
X1146316Y272732D02*
X1146316Y281168D01*
X1154190Y272732D01*
X1154190Y281168D01*
X1158127Y272732D02*
X1163377Y272732D01*
X1166001Y274419D01*
X1166001Y279481D01*
X1163377Y281168D01*
X1158127Y281168D01*
X1159440Y281168D02*
X1159440Y272732D01*
X1171251Y281168D02*
X1172563Y281168D01*
X1175188Y279481D01*
X1175188Y274419D01*
X1172563Y272732D01*
X1171251Y272732D01*
X790804Y295623D02*
X793429Y297310D01*
X796054Y297310D01*
X798678Y295623D01*
X798678Y294779D01*
X790804Y288873D01*
X798678Y288873D01*
X798678Y289717D01*
X802615Y290561D02*
X805240Y288873D01*
X807865Y288873D01*
X810490Y290561D01*
X810490Y293935D01*
X810490Y295623D01*
X807865Y297310D01*
X805240Y297310D01*
X802615Y295623D01*
X802615Y293935D01*
X805240Y292248D01*
X807865Y292248D01*
X810490Y293935D01*
X818364Y288873D02*
X818364Y289717D01*
X834112Y297310D02*
X826238Y297310D01*
X826238Y293935D01*
X831487Y293935D01*
X834112Y292248D01*
X834112Y290561D01*
X831487Y288873D01*
X826238Y288873D01*
X838049Y295623D02*
X840673Y297310D01*
X843298Y297310D01*
X845923Y295623D01*
X845923Y294779D01*
X838049Y288873D01*
X845923Y288873D01*
X845923Y289717D01*
X853797Y288873D02*
X853797Y293092D01*
X857734Y295623D01*
X857734Y297310D01*
X849860Y297310D01*
X849860Y295623D01*
X869545Y297310D02*
X861671Y297310D01*
X861671Y293935D01*
X866920Y293935D01*
X869545Y292248D01*
X869545Y290561D01*
X866920Y288873D01*
X861671Y288873D01*
X880043Y297310D02*
X876106Y297310D01*
X873482Y295623D01*
X873482Y292248D01*
X873482Y290561D01*
X876106Y288873D01*
X878731Y288873D01*
X881356Y290561D01*
X881356Y292248D01*
X878731Y293935D01*
X876106Y293935D01*
X873482Y292248D01*
X938836Y292248D02*
X930962Y292248D01*
X937524Y297310D01*
X937524Y288873D01*
X936211Y288873D02*
X938836Y288873D01*
X1006159Y288873D02*
X1006159Y297310D01*
X1011408Y297310D01*
X1014033Y295623D01*
X1014033Y294779D01*
X1011408Y293092D01*
X1006159Y293092D01*
X1021907Y288873D02*
X1021907Y297310D01*
X1017970Y297310D02*
X1025844Y297310D01*
X1029781Y288873D02*
X1029781Y297310D01*
X1037655Y288873D02*
X1037655Y297310D01*
X1029781Y293092D02*
X1037655Y293092D01*
X1075450Y295623D02*
X1078075Y297310D01*
X1080699Y297310D01*
X1083324Y295623D01*
X1083324Y290561D01*
X1080699Y288873D01*
X1078075Y288873D01*
X1075450Y290561D01*
X1075450Y295623D01*
X1083324Y295623D02*
X1075450Y290561D01*
X1105634Y288873D02*
X1104322Y288873D01*
X1101697Y290561D01*
X1101697Y295623D01*
X1104322Y297310D01*
X1105634Y297310D01*
X1110883Y288873D02*
X1110883Y297310D01*
X1116133Y297310D01*
X1118757Y295623D01*
X1118757Y294779D01*
X1116133Y293092D01*
X1110883Y293092D01*
X1112196Y293092D02*
X1118757Y288873D01*
X1122694Y290561D02*
X1125319Y288873D01*
X1127944Y288873D01*
X1130568Y290561D01*
X1130568Y295623D01*
X1127944Y297310D01*
X1125319Y297310D01*
X1122694Y295623D01*
X1122694Y290561D01*
X1134505Y297310D02*
X1134505Y290561D01*
X1137130Y288873D01*
X1139755Y288873D01*
X1142379Y290561D01*
X1142379Y297310D01*
X1146316Y288873D02*
X1146316Y297310D01*
X1154190Y288873D01*
X1154190Y297310D01*
X1158127Y288873D02*
X1163377Y288873D01*
X1166001Y290561D01*
X1166001Y295623D01*
X1163377Y297310D01*
X1158127Y297310D01*
X1159440Y297310D02*
X1159440Y288873D01*
X1171251Y297310D02*
X1172563Y297310D01*
X1175188Y295623D01*
X1175188Y290561D01*
X1172563Y288873D01*
X1171251Y288873D01*
X790804Y311764D02*
X793429Y313452D01*
X796054Y313452D01*
X798678Y311764D01*
X798678Y310921D01*
X790804Y305015D01*
X798678Y305015D01*
X798678Y305859D01*
X810490Y313452D02*
X802615Y313452D01*
X802615Y310077D01*
X807865Y310077D01*
X810490Y308390D01*
X810490Y306702D01*
X807865Y305015D01*
X802615Y305015D01*
X818364Y305015D02*
X818364Y305859D01*
X826238Y306702D02*
X828862Y305015D01*
X831487Y305015D01*
X834112Y306702D01*
X834112Y310077D01*
X834112Y311764D01*
X831487Y313452D01*
X828862Y313452D01*
X826238Y311764D01*
X826238Y310077D01*
X828862Y308390D01*
X831487Y308390D01*
X834112Y310077D01*
X843298Y305015D02*
X840673Y305015D01*
X838049Y306702D01*
X838049Y308390D01*
X839361Y309233D01*
X838049Y310077D01*
X838049Y311764D01*
X840673Y313452D01*
X843298Y313452D01*
X845923Y311764D01*
X845923Y310077D01*
X844610Y309233D01*
X845923Y308390D01*
X845923Y306702D01*
X843298Y305015D01*
X839361Y309233D02*
X844610Y309233D01*
X857734Y308390D02*
X849860Y308390D01*
X856421Y313452D01*
X856421Y305015D01*
X855109Y305015D02*
X857734Y305015D01*
X861671Y311764D02*
X864295Y313452D01*
X866920Y313452D01*
X869545Y311764D01*
X869545Y310921D01*
X861671Y305015D01*
X869545Y305015D01*
X869545Y305859D01*
X881356Y313452D02*
X873482Y313452D01*
X873482Y310077D01*
X878731Y310077D01*
X881356Y308390D01*
X881356Y306702D01*
X878731Y305015D01*
X873482Y305015D01*
X926369Y311764D02*
X928993Y313452D01*
X928993Y305015D01*
X925056Y305015D02*
X932930Y305015D01*
X936867Y311764D02*
X939492Y313452D01*
X942117Y313452D01*
X944741Y311764D01*
X944741Y306702D01*
X942117Y305015D01*
X939492Y305015D01*
X936867Y306702D01*
X936867Y311764D01*
X944741Y311764D02*
X936867Y306702D01*
X1006159Y305015D02*
X1006159Y313452D01*
X1011408Y313452D01*
X1014033Y311764D01*
X1014033Y310921D01*
X1011408Y309233D01*
X1006159Y309233D01*
X1021907Y305015D02*
X1021907Y313452D01*
X1017970Y313452D02*
X1025844Y313452D01*
X1029781Y305015D02*
X1029781Y313452D01*
X1037655Y305015D02*
X1037655Y313452D01*
X1029781Y309233D02*
X1037655Y309233D01*
X1075450Y311764D02*
X1078075Y313452D01*
X1080699Y313452D01*
X1083324Y311764D01*
X1083324Y306702D01*
X1080699Y305015D01*
X1078075Y305015D01*
X1075450Y306702D01*
X1075450Y311764D01*
X1083324Y311764D02*
X1075450Y306702D01*
X1105634Y305015D02*
X1104322Y305015D01*
X1101697Y306702D01*
X1101697Y311764D01*
X1104322Y313452D01*
X1105634Y313452D01*
X1110883Y305015D02*
X1110883Y313452D01*
X1116133Y313452D01*
X1118757Y311764D01*
X1118757Y310921D01*
X1116133Y309233D01*
X1110883Y309233D01*
X1112196Y309233D02*
X1118757Y305015D01*
X1122694Y306702D02*
X1125319Y305015D01*
X1127944Y305015D01*
X1130568Y306702D01*
X1130568Y311764D01*
X1127944Y313452D01*
X1125319Y313452D01*
X1122694Y311764D01*
X1122694Y306702D01*
X1134505Y313452D02*
X1134505Y306702D01*
X1137130Y305015D01*
X1139755Y305015D01*
X1142379Y306702D01*
X1142379Y313452D01*
X1146316Y305015D02*
X1146316Y313452D01*
X1154190Y305015D01*
X1154190Y313452D01*
X1158127Y305015D02*
X1163377Y305015D01*
X1166001Y306702D01*
X1166001Y311764D01*
X1163377Y313452D01*
X1158127Y313452D01*
X1159440Y313452D02*
X1159440Y305015D01*
X1171251Y313452D02*
X1172563Y313452D01*
X1175188Y311764D01*
X1175188Y306702D01*
X1172563Y305015D01*
X1171251Y305015D01*
X790804Y327906D02*
X793429Y329593D01*
X796054Y329593D01*
X798678Y327906D01*
X798678Y327062D01*
X790804Y321157D01*
X798678Y321157D01*
X798678Y322001D01*
X810490Y329593D02*
X802615Y329593D01*
X802615Y326219D01*
X807865Y326219D01*
X810490Y324531D01*
X810490Y322844D01*
X807865Y321157D01*
X802615Y321157D01*
X818364Y321157D02*
X818364Y322001D01*
X834112Y329593D02*
X826238Y329593D01*
X826238Y326219D01*
X831487Y326219D01*
X834112Y324531D01*
X834112Y322844D01*
X831487Y321157D01*
X826238Y321157D01*
X838049Y322844D02*
X840673Y321157D01*
X843298Y321157D01*
X845923Y322844D01*
X845923Y326219D01*
X845923Y327906D01*
X843298Y329593D01*
X840673Y329593D01*
X838049Y327906D01*
X838049Y326219D01*
X840673Y324531D01*
X843298Y324531D01*
X845923Y326219D01*
X849860Y327906D02*
X852484Y329593D01*
X855109Y329593D01*
X857734Y327906D01*
X857734Y322844D01*
X855109Y321157D01*
X852484Y321157D01*
X849860Y322844D01*
X849860Y327906D01*
X857734Y327906D02*
X849860Y322844D01*
X869545Y329593D02*
X861671Y329593D01*
X861671Y326219D01*
X866920Y326219D01*
X869545Y324531D01*
X869545Y322844D01*
X866920Y321157D01*
X861671Y321157D01*
X881356Y329593D02*
X873482Y329593D01*
X873482Y326219D01*
X878731Y326219D01*
X881356Y324531D01*
X881356Y322844D01*
X878731Y321157D01*
X873482Y321157D01*
X938836Y324531D02*
X930962Y324531D01*
X937524Y329593D01*
X937524Y321157D01*
X936211Y321157D02*
X938836Y321157D01*
X1006159Y321157D02*
X1006159Y329593D01*
X1011408Y329593D01*
X1014033Y327906D01*
X1014033Y327062D01*
X1011408Y325375D01*
X1006159Y325375D01*
X1021907Y321157D02*
X1021907Y329593D01*
X1017970Y329593D02*
X1025844Y329593D01*
X1029781Y321157D02*
X1029781Y329593D01*
X1037655Y321157D02*
X1037655Y329593D01*
X1029781Y325375D02*
X1037655Y325375D01*
X1075450Y327906D02*
X1078075Y329593D01*
X1080699Y329593D01*
X1083324Y327906D01*
X1083324Y322844D01*
X1080699Y321157D01*
X1078075Y321157D01*
X1075450Y322844D01*
X1075450Y327906D01*
X1083324Y327906D02*
X1075450Y322844D01*
X1105634Y321157D02*
X1104322Y321157D01*
X1101697Y322844D01*
X1101697Y327906D01*
X1104322Y329593D01*
X1105634Y329593D01*
X1110883Y321157D02*
X1110883Y329593D01*
X1116133Y329593D01*
X1118757Y327906D01*
X1118757Y327062D01*
X1116133Y325375D01*
X1110883Y325375D01*
X1112196Y325375D02*
X1118757Y321157D01*
X1122694Y322844D02*
X1125319Y321157D01*
X1127944Y321157D01*
X1130568Y322844D01*
X1130568Y327906D01*
X1127944Y329593D01*
X1125319Y329593D01*
X1122694Y327906D01*
X1122694Y322844D01*
X1134505Y329593D02*
X1134505Y322844D01*
X1137130Y321157D01*
X1139755Y321157D01*
X1142379Y322844D01*
X1142379Y329593D01*
X1146316Y321157D02*
X1146316Y329593D01*
X1154190Y321157D01*
X1154190Y329593D01*
X1158127Y321157D02*
X1163377Y321157D01*
X1166001Y322844D01*
X1166001Y327906D01*
X1163377Y329593D01*
X1158127Y329593D01*
X1159440Y329593D02*
X1159440Y321157D01*
X1171251Y329593D02*
X1172563Y329593D01*
X1175188Y327906D01*
X1175188Y322844D01*
X1172563Y321157D01*
X1171251Y321157D01*
X790804Y344048D02*
X793429Y345735D01*
X796054Y345735D01*
X798678Y344048D01*
X798678Y343204D01*
X790804Y337299D01*
X798678Y337299D01*
X798678Y338142D01*
X803928Y344891D02*
X805240Y345735D01*
X807865Y345735D01*
X810490Y344048D01*
X810490Y342361D01*
X809177Y341517D01*
X810490Y340673D01*
X810490Y338986D01*
X807865Y337299D01*
X805240Y337299D01*
X803928Y338142D01*
X805240Y341517D02*
X809177Y341517D01*
X818364Y337299D02*
X818364Y338142D01*
X832799Y345735D02*
X828862Y345735D01*
X826238Y344048D01*
X826238Y340673D01*
X826238Y338986D01*
X828862Y337299D01*
X831487Y337299D01*
X834112Y338986D01*
X834112Y340673D01*
X831487Y342361D01*
X828862Y342361D01*
X826238Y340673D01*
X838049Y344048D02*
X840673Y345735D01*
X843298Y345735D01*
X845923Y344048D01*
X845923Y343204D01*
X838049Y337299D01*
X845923Y337299D01*
X845923Y338142D01*
X849860Y344048D02*
X852484Y345735D01*
X855109Y345735D01*
X857734Y344048D01*
X857734Y343204D01*
X849860Y337299D01*
X857734Y337299D01*
X857734Y338142D01*
X861671Y344048D02*
X864295Y345735D01*
X866920Y345735D01*
X869545Y344048D01*
X869545Y338986D01*
X866920Y337299D01*
X864295Y337299D01*
X861671Y338986D01*
X861671Y344048D01*
X869545Y344048D02*
X861671Y338986D01*
X881356Y345735D02*
X873482Y345735D01*
X873482Y342361D01*
X878731Y342361D01*
X881356Y340673D01*
X881356Y338986D01*
X878731Y337299D01*
X873482Y337299D01*
X925056Y344048D02*
X927681Y345735D01*
X930306Y345735D01*
X932930Y344048D01*
X932930Y343204D01*
X925056Y337299D01*
X932930Y337299D01*
X932930Y338142D01*
X940804Y337299D02*
X940804Y341517D01*
X944741Y344048D01*
X944741Y345735D01*
X936867Y345735D01*
X936867Y344048D01*
X1006159Y337299D02*
X1006159Y345735D01*
X1011408Y345735D01*
X1014033Y344048D01*
X1014033Y343204D01*
X1011408Y341517D01*
X1006159Y341517D01*
X1021907Y337299D02*
X1021907Y345735D01*
X1017970Y345735D02*
X1025844Y345735D01*
X1029781Y337299D02*
X1029781Y345735D01*
X1037655Y337299D02*
X1037655Y345735D01*
X1029781Y341517D02*
X1037655Y341517D01*
X1075450Y344048D02*
X1078075Y345735D01*
X1080699Y345735D01*
X1083324Y344048D01*
X1083324Y338986D01*
X1080699Y337299D01*
X1078075Y337299D01*
X1075450Y338986D01*
X1075450Y344048D01*
X1083324Y344048D02*
X1075450Y338986D01*
X1105634Y337299D02*
X1104322Y337299D01*
X1101697Y338986D01*
X1101697Y344048D01*
X1104322Y345735D01*
X1105634Y345735D01*
X1110883Y337299D02*
X1110883Y345735D01*
X1116133Y345735D01*
X1118757Y344048D01*
X1118757Y343204D01*
X1116133Y341517D01*
X1110883Y341517D01*
X1112196Y341517D02*
X1118757Y337299D01*
X1122694Y338986D02*
X1125319Y337299D01*
X1127944Y337299D01*
X1130568Y338986D01*
X1130568Y344048D01*
X1127944Y345735D01*
X1125319Y345735D01*
X1122694Y344048D01*
X1122694Y338986D01*
X1134505Y345735D02*
X1134505Y338986D01*
X1137130Y337299D01*
X1139755Y337299D01*
X1142379Y338986D01*
X1142379Y345735D01*
X1146316Y337299D02*
X1146316Y345735D01*
X1154190Y337299D01*
X1154190Y345735D01*
X1158127Y337299D02*
X1163377Y337299D01*
X1166001Y338986D01*
X1166001Y344048D01*
X1163377Y345735D01*
X1158127Y345735D01*
X1159440Y345735D02*
X1159440Y337299D01*
X1171251Y345735D02*
X1172563Y345735D01*
X1175188Y344048D01*
X1175188Y338986D01*
X1172563Y337299D01*
X1171251Y337299D01*
G04 ColorRGB 00FFFF for the following layer *
%LNBoard Outline*%
%LPD*%
G54D10*
G54D13*
X0Y0D02*
X629921Y0D01*
X629921Y393701D01*
X0Y393701D01*
X0Y0D01*
G54D14*
X-1500Y-1500D02*
X-1500Y38170D01*
X-1500Y-1500D02*
X61792Y-1500D01*
X631421Y-1500D02*
X568129Y-1500D01*
X631421Y-1500D02*
X631421Y38170D01*
X631421Y395201D02*
X631421Y355531D01*
X631421Y395201D02*
X568129Y395201D01*
X-1500Y395201D02*
X61792Y395201D01*
X-1500Y395201D02*
X-1500Y355531D01*
X-21185Y-1500D02*
X-60555Y-1500D01*
X-40870Y-21185D02*
X-40870Y18185D01*
X-55634Y-1500D02*
G75*
D01*
G02X-55634Y-1500I14764J0*
G01*
X651106Y-1500D02*
X690476Y-1500D01*
X670791Y-21185D02*
X670791Y18185D01*
X656028Y-1500D02*
G75*
D01*
G02X656028Y-1500I14763J0*
G01*
X665870Y-1500D02*
G75*
D01*
G02X665870Y-1500I4921J0*
G01*
X-21185Y395201D02*
X-60555Y395201D01*
X-40870Y375516D02*
X-40870Y414886D01*
X-55634Y395201D02*
G75*
D01*
G02X-55634Y395201I14764J0*
G01*
X-50713Y395201D02*
G75*
D01*
G02X-50713Y395201I9843J0*
G01*
X-45791Y395201D02*
G75*
D01*
G02X-45791Y395201I4921J0*
G01*
G04 ColorRGB 66FFCC for the following layer *
%LNLegend Description*%
%LPD*%
G54D12*
X712130Y90476D02*
X1194413Y90476D01*
X1194413Y397169D01*
X712130Y397169D01*
X712130Y90476D01*
X787327Y364886D02*
X787327Y90476D01*
X886146Y364886D02*
X886146Y90476D01*
X984965Y364886D02*
X984965Y90476D01*
X1060161Y364886D02*
X1060161Y90476D01*
X1194413Y364886D02*
X1194413Y90476D01*
X712130Y106618D02*
X1194413Y106618D01*
X712130Y122760D02*
X1194413Y122760D01*
X712130Y138902D02*
X1194413Y138902D01*
X712130Y155043D02*
X1194413Y155043D01*
X712130Y171185D02*
X1194413Y171185D01*
X712130Y187327D02*
X1194413Y187327D01*
X712130Y203469D02*
X1194413Y203469D01*
X712130Y219610D02*
X1194413Y219610D01*
X712130Y235752D02*
X1194413Y235752D01*
X712130Y251894D02*
X1194413Y251894D01*
X712130Y268035D02*
X1194413Y268035D01*
X712130Y284177D02*
X1194413Y284177D01*
X712130Y300319D02*
X1194413Y300319D01*
X712130Y316461D02*
X1194413Y316461D01*
X712130Y332602D02*
X1194413Y332602D01*
X715608Y355128D02*
X718232Y353440D01*
X720857Y353440D01*
X723482Y355128D01*
X715608Y360190D01*
X718232Y361877D01*
X720857Y361877D01*
X723482Y360190D01*
X727419Y350909D02*
X728731Y350909D01*
X735293Y359346D01*
X727419Y359346D02*
X731356Y354284D01*
X739230Y353440D02*
X739230Y358502D01*
X739230Y359346D01*
X739230Y358502D02*
X740542Y359346D01*
X741854Y359346D01*
X743167Y358502D01*
X744479Y359346D01*
X745791Y359346D01*
X747104Y358502D01*
X747104Y353440D01*
X743167Y358502D02*
X743167Y353440D01*
X751041Y355128D02*
X753665Y353440D01*
X756290Y353440D01*
X758915Y355128D01*
X758915Y356815D01*
X756290Y358502D01*
X753665Y358502D01*
X751041Y356815D01*
X751041Y361877D02*
X751041Y353440D01*
X762852Y355128D02*
X765476Y353440D01*
X768101Y353440D01*
X770726Y355128D01*
X770726Y357659D01*
X768101Y359346D01*
X765476Y359346D01*
X762852Y357659D01*
X762852Y355128D01*
X775975Y361877D02*
X775975Y355128D01*
X778600Y353440D01*
X712130Y348744D02*
X1194413Y348744D01*
X814427Y355128D02*
X817051Y353440D01*
X819676Y353440D01*
X822301Y355128D01*
X814427Y360190D01*
X817051Y361877D01*
X819676Y361877D01*
X822301Y360190D01*
X830175Y353440D02*
X830175Y358502D01*
X830175Y360190D02*
X830175Y361033D01*
X838049Y359346D02*
X845923Y359346D01*
X838049Y353440D01*
X845923Y353440D01*
X857734Y355128D02*
X855109Y353440D01*
X852484Y353440D01*
X849860Y355128D01*
X849860Y357659D01*
X852484Y359346D01*
X855109Y359346D01*
X857734Y357659D01*
X856421Y356815D01*
X849860Y356815D01*
X889623Y355128D02*
X892248Y353440D01*
X894873Y353440D01*
X897497Y355128D01*
X897497Y360190D01*
X894873Y361877D01*
X892248Y361877D01*
X889623Y360190D01*
X889623Y355128D01*
X894873Y355128D02*
X897497Y353440D01*
X901434Y359346D02*
X901434Y355128D01*
X904059Y353440D01*
X906684Y353440D01*
X909308Y355128D01*
X909308Y359346D01*
X909308Y355128D02*
X909308Y353440D01*
X914558Y359346D02*
X918495Y359346D01*
X919807Y358502D01*
X919807Y354284D01*
X918495Y353440D01*
X914558Y353440D01*
X913245Y354284D01*
X913245Y355971D01*
X914558Y356815D01*
X919807Y356815D01*
X919807Y354284D02*
X921119Y353440D01*
X925056Y353440D02*
X925056Y358502D01*
X925056Y359346D01*
X925056Y358502D02*
X926369Y359346D01*
X928993Y359346D01*
X930306Y358502D01*
X930306Y353440D01*
X943429Y354284D02*
X942117Y353440D01*
X940804Y354284D01*
X940804Y361877D01*
X938180Y359346D02*
X943429Y359346D01*
X952615Y353440D02*
X952615Y358502D01*
X952615Y360190D02*
X952615Y361033D01*
X967051Y354284D02*
X965739Y353440D01*
X964427Y354284D01*
X964427Y361877D01*
X961802Y359346D02*
X967051Y359346D01*
X972301Y350909D02*
X973613Y350909D01*
X980175Y359346D01*
X972301Y359346D02*
X976238Y354284D01*
X988442Y353440D02*
X988442Y361877D01*
X993692Y361877D01*
X996316Y360190D01*
X996316Y359346D01*
X993692Y357659D01*
X988442Y357659D01*
X1001566Y361877D02*
X1001566Y355128D01*
X1004190Y353440D01*
X1013377Y359346D02*
X1017314Y359346D01*
X1018626Y358502D01*
X1018626Y354284D01*
X1017314Y353440D01*
X1013377Y353440D01*
X1012064Y354284D01*
X1012064Y355971D01*
X1013377Y356815D01*
X1018626Y356815D01*
X1018626Y354284D02*
X1019938Y353440D01*
X1030437Y354284D02*
X1029125Y353440D01*
X1027812Y354284D01*
X1027812Y361877D01*
X1025188Y359346D02*
X1030437Y359346D01*
X1043560Y355128D02*
X1040936Y353440D01*
X1038311Y353440D01*
X1035686Y355128D01*
X1035686Y357659D01*
X1038311Y359346D01*
X1040936Y359346D01*
X1043560Y357659D01*
X1042248Y356815D01*
X1035686Y356815D01*
X1055371Y355128D02*
X1052747Y353440D01*
X1050122Y353440D01*
X1047497Y355128D01*
X1047497Y356815D01*
X1050122Y358502D01*
X1052747Y358502D01*
X1055371Y356815D01*
X1055371Y361877D02*
X1055371Y353440D01*
X1063639Y355128D02*
X1066264Y353440D01*
X1068888Y353440D01*
X1071513Y355128D01*
X1063639Y360190D01*
X1066264Y361877D01*
X1068888Y361877D01*
X1071513Y360190D01*
X1076762Y361877D02*
X1076762Y355128D01*
X1079387Y353440D01*
X1087261Y355128D02*
X1089886Y353440D01*
X1092510Y353440D01*
X1095135Y355128D01*
X1095135Y357659D01*
X1092510Y359346D01*
X1089886Y359346D01*
X1087261Y357659D01*
X1087261Y355128D01*
X1105634Y354284D02*
X1104322Y353440D01*
X1103009Y354284D01*
X1103009Y361877D01*
X1100385Y359346D02*
X1105634Y359346D01*
X1122694Y361877D02*
X1122694Y353440D01*
X1130568Y353440D01*
X1142379Y355128D02*
X1139755Y353440D01*
X1137130Y353440D01*
X1134505Y355128D01*
X1134505Y357659D01*
X1137130Y359346D01*
X1139755Y359346D01*
X1142379Y357659D01*
X1141067Y356815D01*
X1134505Y356815D01*
X1146316Y353440D02*
X1146316Y358502D01*
X1146316Y359346D01*
X1146316Y358502D02*
X1147629Y359346D01*
X1150253Y359346D01*
X1151566Y358502D01*
X1151566Y353440D01*
X1158127Y352597D02*
X1160752Y350909D01*
X1163377Y350909D01*
X1166001Y352597D01*
X1166001Y355128D01*
X1166001Y357659D01*
X1163377Y359346D01*
X1160752Y359346D01*
X1158127Y357659D01*
X1158127Y355128D01*
X1160752Y353440D01*
X1163377Y353440D01*
X1166001Y355128D01*
X1176500Y354284D02*
X1175188Y353440D01*
X1173875Y354284D01*
X1173875Y361877D01*
X1171251Y359346D02*
X1176500Y359346D01*
X1181749Y357659D02*
X1184374Y359346D01*
X1186999Y359346D01*
X1189623Y357659D01*
X1189623Y353440D01*
X1181749Y361877D02*
X1181749Y353440D01*
X712130Y364886D02*
X1194413Y364886D01*
X836474Y369582D02*
X836474Y374644D01*
X839098Y378019D01*
X841723Y378019D01*
X844348Y374644D01*
X844348Y369582D01*
X836474Y372113D02*
X844348Y372113D01*
X849597Y378019D02*
X849597Y371269D01*
X852222Y369582D01*
X861408Y378019D02*
X861408Y371269D01*
X864033Y369582D01*
X883718Y375488D02*
X883718Y371269D01*
X886343Y369582D01*
X888967Y369582D01*
X891592Y371269D01*
X891592Y375488D01*
X891592Y371269D02*
X891592Y369582D01*
X895529Y369582D02*
X895529Y374644D01*
X895529Y375488D01*
X895529Y374644D02*
X896841Y375488D01*
X899466Y375488D01*
X900778Y374644D01*
X900778Y369582D01*
X911277Y369582D02*
X911277Y374644D01*
X911277Y376331D02*
X911277Y377175D01*
X925713Y370426D02*
X924400Y369582D01*
X923088Y370426D01*
X923088Y378019D01*
X920463Y375488D02*
X925713Y375488D01*
X930962Y371269D02*
X933587Y369582D01*
X936211Y369582D01*
X938836Y371269D01*
X930962Y373800D01*
X933587Y375488D01*
X936211Y375488D01*
X938836Y373800D01*
X955896Y375488D02*
X959833Y375488D01*
X961146Y374644D01*
X961146Y370426D01*
X959833Y369582D01*
X955896Y369582D01*
X954584Y370426D01*
X954584Y372113D01*
X955896Y372957D01*
X961146Y372957D01*
X961146Y370426D02*
X962458Y369582D01*
X966395Y372957D02*
X970332Y375488D01*
X971644Y375488D01*
X974269Y373800D01*
X966395Y369582D02*
X966395Y375488D01*
X986080Y371269D02*
X983455Y369582D01*
X980831Y369582D01*
X978206Y371269D01*
X978206Y373800D01*
X980831Y375488D01*
X983455Y375488D01*
X986080Y373800D01*
X984768Y372957D01*
X978206Y372957D01*
X1005765Y369582D02*
X1005765Y374644D01*
X1005765Y376331D02*
X1005765Y377175D01*
X1013639Y369582D02*
X1013639Y374644D01*
X1013639Y375488D01*
X1013639Y374644D02*
X1014951Y375488D01*
X1017576Y375488D01*
X1018888Y374644D01*
X1018888Y369582D01*
X1037261Y369582D02*
X1037261Y374644D01*
X1037261Y375488D01*
X1037261Y374644D02*
X1038573Y375488D01*
X1039886Y375488D01*
X1041198Y374644D01*
X1042510Y375488D01*
X1043823Y375488D01*
X1045135Y374644D01*
X1045135Y369582D01*
X1041198Y374644D02*
X1041198Y369582D01*
X1053009Y369582D02*
X1053009Y374644D01*
X1053009Y376331D02*
X1053009Y377175D01*
X1062196Y378019D02*
X1062196Y371269D01*
X1064820Y369582D01*
X712130Y381028D02*
X1194413Y381028D01*
X883718Y385724D02*
X888967Y385724D01*
X891592Y387411D01*
X891592Y392473D01*
X888967Y394160D01*
X883718Y394160D01*
X885030Y394160D02*
X885030Y385724D01*
X895529Y389098D02*
X899466Y391629D01*
X900778Y391629D01*
X903403Y389942D01*
X895529Y385724D02*
X895529Y391629D01*
X911277Y385724D02*
X911277Y390786D01*
X911277Y392473D02*
X911277Y393317D01*
X920463Y394160D02*
X920463Y387411D01*
X923088Y385724D01*
X932274Y394160D02*
X932274Y387411D01*
X934899Y385724D01*
X954584Y394160D02*
X954584Y385724D01*
X962458Y385724D01*
X974269Y387411D02*
X971644Y385724D01*
X969020Y385724D01*
X966395Y387411D01*
X966395Y389942D01*
X969020Y391629D01*
X971644Y391629D01*
X974269Y389942D01*
X972957Y389098D01*
X966395Y389098D01*
X978206Y384880D02*
X980831Y383193D01*
X983455Y383193D01*
X986080Y384880D01*
X986080Y387411D01*
X986080Y389942D01*
X983455Y391629D01*
X980831Y391629D01*
X978206Y389942D01*
X978206Y387411D01*
X980831Y385724D01*
X983455Y385724D01*
X986080Y387411D01*
X997891Y387411D02*
X995266Y385724D01*
X992642Y385724D01*
X990017Y387411D01*
X990017Y389942D01*
X992642Y391629D01*
X995266Y391629D01*
X997891Y389942D01*
X996579Y389098D01*
X990017Y389098D01*
X1001828Y385724D02*
X1001828Y390786D01*
X1001828Y391629D01*
X1001828Y390786D02*
X1003140Y391629D01*
X1005765Y391629D01*
X1007077Y390786D01*
X1007077Y385724D01*
X1021513Y387411D02*
X1018888Y385724D01*
X1016264Y385724D01*
X1013639Y387411D01*
X1013639Y389098D01*
X1016264Y390786D01*
X1018888Y390786D01*
X1021513Y389098D01*
X1021513Y394160D02*
X1021513Y385724D01*

M02*
