G04 Generated by Ultiboard 13.0 *
%FSLAX25Y25*%
%MOIN*%

%ADD11C,0.00004*%
%ADD12C,0.00500*%


G04 ColorRGB 00FFFF for the following layer *
%LNBoard Outline*%
%LPD*%
G54D10*
G54D11*
X0Y0D02*
X650000Y0D01*
X650000Y410000D01*
X0Y410000D01*
X0Y0D01*
G54D12*
X-1500Y-1500D02*
X-1500Y39800D01*
X-1500Y-1500D02*
X63800Y-1500D01*
X651500Y-1500D02*
X586200Y-1500D01*
X651500Y-1500D02*
X651500Y39800D01*
X651500Y411500D02*
X651500Y370200D01*
X651500Y411500D02*
X586200Y411500D01*
X-1500Y411500D02*
X63800Y411500D01*
X-1500Y411500D02*
X-1500Y370200D01*
X-21185Y-1500D02*
X-60555Y-1500D01*
X-40870Y-21185D02*
X-40870Y18185D01*
X-55634Y-1500D02*
G75*
D01*
G02X-55634Y-1500I14764J0*
G01*
X671185Y-1500D02*
X710555Y-1500D01*
X690870Y-21185D02*
X690870Y18185D01*
X676106Y-1500D02*
G75*
D01*
G02X676106Y-1500I14764J0*
G01*
X685949Y-1500D02*
G75*
D01*
G02X685949Y-1500I4921J0*
G01*
X-21185Y411500D02*
X-60555Y411500D01*
X-40870Y391815D02*
X-40870Y431185D01*
X-55634Y411500D02*
G75*
D01*
G02X-55634Y411500I14764J0*
G01*
X-50713Y411500D02*
G75*
D01*
G02X-50713Y411500I9843J0*
G01*
X-45791Y411500D02*
G75*
D01*
G02X-45791Y411500I4921J0*
G01*

M02*
