G04 Generated by Ultiboard 13.0 *
%FSLAX25Y25*%
%MOIN*%

%ADD10C,0.00001*%
%ADD11C,0.00500*%
%ADD12C,0.09200*%
%ADD13C,0.05709*%
%ADD14C,0.07834*%
%ADD15C,0.04900*%
%ADD16C,0.09843*%
%ADD17C,0.11024*%
%ADD18R,0.11024X0.11024*%
%ADD19R,0.05709X0.05709*%
%ADD20C,0.11574*%
%ADD21R,0.02083X0.02083*%
%ADD22C,0.03917*%
%ADD23C,0.06334*%
%ADD24C,0.05906*%
%ADD25R,0.05906X0.05906*%
%ADD26C,0.12598*%
%ADD27C,0.06299*%
%ADD28C,0.07087*%
%ADD29C,0.05354*%
%ADD30C,0.03937*%
%ADD31C,0.08858*%
%ADD32R,0.04900X0.04900*%


G04 ColorRGB 9900CC for the following layer *
%LNSolder Mask Bottom*%
%LPD*%
G54D10*
G54D11*
X-1500Y-1500D02*
X-1500Y38170D01*
X-1500Y-1500D02*
X61792Y-1500D01*
X631421Y-1500D02*
X568129Y-1500D01*
X631421Y-1500D02*
X631421Y38170D01*
X631421Y395201D02*
X631421Y355531D01*
X631421Y395201D02*
X568129Y395201D01*
X-1500Y395201D02*
X61792Y395201D01*
X-1500Y395201D02*
X-1500Y355531D01*
X-21185Y-1500D02*
X-60555Y-1500D01*
X-40870Y-21185D02*
X-40870Y18185D01*
X-55634Y-1500D02*
G75*
D01*
G02X-55634Y-1500I14764J0*
G01*
X651106Y-1500D02*
X690476Y-1500D01*
X670791Y-21185D02*
X670791Y18185D01*
X656028Y-1500D02*
G75*
D01*
G02X656028Y-1500I14763J0*
G01*
X665870Y-1500D02*
G75*
D01*
G02X665870Y-1500I4921J0*
G01*
X-21185Y395201D02*
X-60555Y395201D01*
X-40870Y375516D02*
X-40870Y414886D01*
X-55634Y395201D02*
G75*
D01*
G02X-55634Y395201I14764J0*
G01*
X-50713Y395201D02*
G75*
D01*
G02X-50713Y395201I9843J0*
G01*
X-45791Y395201D02*
G75*
D01*
G02X-45791Y395201I4921J0*
G01*
G54D12*
X254500Y332000D03*
X345500Y332000D03*
X22500Y332000D03*
X113500Y332000D03*
X138500Y332000D03*
X229500Y332000D03*
X611500Y62000D03*
X520500Y62000D03*
X493500Y62000D03*
X402500Y62000D03*
X375500Y62000D03*
X284500Y62000D03*
G54D13*
X377079Y352000D03*
X386921Y352000D03*
X562000Y322890D03*
X168890Y66000D03*
X266000Y80921D03*
X266000Y71079D03*
G54D14*
X382000Y332000D03*
X402000Y332000D03*
X392000Y332000D03*
X244000Y74000D03*
X244000Y54000D03*
X244000Y64000D03*
G54D15*
X372000Y312000D03*
X382000Y282000D03*
X402000Y282000D03*
X392000Y282000D03*
X402000Y312000D03*
X382000Y312000D03*
X392000Y312000D03*
X372000Y282000D03*
X266000Y92000D03*
X256000Y122000D03*
X236000Y122000D03*
X246000Y122000D03*
X236000Y92000D03*
X256000Y92000D03*
X246000Y92000D03*
X266000Y122000D03*
X62000Y180433D03*
X62000Y190866D03*
X372000Y194000D03*
X362000Y224000D03*
X342000Y224000D03*
X352000Y224000D03*
X332000Y224000D03*
X312000Y224000D03*
X322000Y224000D03*
X302000Y224000D03*
X292000Y224000D03*
X282000Y224000D03*
X312000Y194000D03*
X342000Y194000D03*
X362000Y194000D03*
X352000Y194000D03*
X332000Y194000D03*
X322000Y194000D03*
X302000Y194000D03*
X292000Y194000D03*
X282000Y194000D03*
X372000Y224000D03*
X610000Y348000D03*
X600000Y378000D03*
X580000Y378000D03*
X590000Y378000D03*
X580000Y348000D03*
X600000Y348000D03*
X590000Y348000D03*
X610000Y378000D03*
G54D16*
X261559Y260000D03*
X206441Y260000D03*
X444000Y369559D03*
X444000Y314441D03*
X213559Y26000D03*
X158441Y26000D03*
X280441Y134000D03*
X335559Y134000D03*
G54D17*
X24000Y250157D03*
X24000Y102157D03*
X606000Y187843D03*
G54D18*
X24000Y269843D03*
X24000Y121843D03*
X606000Y168157D03*
G54D19*
X562000Y309110D03*
X155110Y66000D03*
G54D20*
X474000Y314000D03*
X526000Y314000D03*
X76000Y20000D03*
X76000Y72000D03*
G54D21*
X382000Y378000D03*
X58000Y236000D03*
X234000Y22000D03*
X608000Y274000D03*
X222000Y74000D03*
X372000Y170000D03*
X372000Y248000D03*
X616000Y110000D03*
G54D22*
X380959Y376959D02*
X383041Y376959D01*
X383041Y379041D01*
X380959Y379041D01*
X380959Y376959D01*D02*
X56959Y234959D02*
X59041Y234959D01*
X59041Y237041D01*
X56959Y237041D01*
X56959Y234959D01*D02*
X232959Y20959D02*
X235041Y20959D01*
X235041Y23041D01*
X232959Y23041D01*
X232959Y20959D01*D02*
X606959Y272959D02*
X609041Y272959D01*
X609041Y275041D01*
X606959Y275041D01*
X606959Y272959D01*D02*
X220959Y72959D02*
X223041Y72959D01*
X223041Y75041D01*
X220959Y75041D01*
X220959Y72959D01*D02*
X370959Y168959D02*
X373041Y168959D01*
X373041Y171041D01*
X370959Y171041D01*
X370959Y168959D01*D02*
X370959Y246959D02*
X373041Y246959D01*
X373041Y249041D01*
X370959Y249041D01*
X370959Y246959D01*D02*
X614959Y108959D02*
X617041Y108959D01*
X617041Y111041D01*
X614959Y111041D01*
X614959Y108959D01*D02*
G54D23*
X392000Y378000D03*
X58000Y246000D03*
X244000Y22000D03*
X608000Y284000D03*
X212000Y74000D03*
X342000Y170000D03*
X352000Y170000D03*
X362000Y170000D03*
X322000Y170000D03*
X332000Y170000D03*
X312000Y170000D03*
X292000Y170000D03*
X302000Y170000D03*
X282000Y170000D03*
X342000Y248000D03*
X352000Y248000D03*
X362000Y248000D03*
X322000Y248000D03*
X332000Y248000D03*
X312000Y248000D03*
X292000Y248000D03*
X302000Y248000D03*
X282000Y248000D03*
X616000Y120000D03*
G54D24*
X570000Y247181D03*
X570000Y196000D03*
X612000Y208000D03*
X255348Y169965D03*
X204167Y169965D03*
X215865Y188838D03*
G54D25*
X612000Y248000D03*
X255865Y188838D03*
G54D26*
X136000Y255819D03*
X136000Y108181D03*
X402181Y182000D03*
X549819Y182000D03*
G54D27*
X16157Y226000D03*
X35843Y226000D03*
X204441Y228000D03*
X259559Y228000D03*
X60000Y102441D03*
X60000Y157559D03*
X508000Y12157D03*
X508000Y31843D03*
X390000Y12157D03*
X390000Y31843D03*
X362157Y126000D03*
X381843Y126000D03*
X268000Y26157D03*
X268000Y45843D03*
X576000Y120441D03*
X576000Y175559D03*
X259559Y150000D03*
X204441Y150000D03*
X216000Y111843D03*
X216000Y92157D03*
X409843Y256000D03*
X390157Y256000D03*
X391843Y272000D03*
X372157Y272000D03*
X358000Y373843D03*
X358000Y354157D03*
X242000Y373843D03*
X242000Y354157D03*
X126000Y371843D03*
X126000Y352157D03*
X605843Y310000D03*
X586157Y310000D03*
G54D28*
X57000Y214000D03*
X67000Y214000D03*
X346283Y148000D03*
X381717Y148000D03*
X607000Y144000D03*
X617000Y144000D03*
X27000Y156000D03*
X17000Y156000D03*
G54D29*
X10252Y206000D03*
X41748Y206000D03*
X224419Y205965D03*
X255915Y205965D03*
X562000Y346252D03*
X562000Y377748D03*
X594000Y216252D03*
X594000Y247748D03*
X615748Y334000D03*
X584252Y334000D03*
G54D30*
X384000Y235000D03*
G54D31*
X41843Y191315D03*
X22157Y191315D03*
X32000Y180685D03*
G54D32*
X62000Y170000D03*

M02*
