G04 Generated by Ultiboard 13.0 *
%FSLAX25Y25*%
%MOIN*%

%ADD10C,0.00001*%
%ADD11C,0.00612*%
%ADD12C,0.00800*%
%ADD13C,0.00500*%
%ADD14C,0.00611*%
%ADD15C,0.00444*%
%ADD16C,0.00394*%
%ADD17C,0.00591*%
%ADD18C,0.01000*%
%ADD19C,0.00219*%
%ADD20C,0.00787*%
%ADD21C,0.01969*%
%ADD22C,0.00984*%
%ADD23C,0.01969*%
%ADD24C,0.03937*%


G04 ColorRGB FFFF00 for the following layer *
%LNSilkscreen Top*%
%LPD*%
G54D10*
G54D11*
X242394Y329337D02*
X246331Y329337D01*
X246331Y331689D01*
X244756Y335216D02*
X244756Y332864D01*
X242394Y334824D01*
X246331Y334824D01*
X246331Y334432D02*
X246331Y335216D01*
X381744Y359457D02*
X380960Y358669D01*
X380176Y358669D01*
X379392Y359457D01*
X379392Y361819D01*
X380176Y362606D01*
X380960Y362606D01*
X381744Y361819D01*
X384879Y362606D02*
X383703Y362606D01*
X382920Y361819D01*
X382920Y360244D01*
X382920Y359457D01*
X383703Y358669D01*
X384487Y358669D01*
X385271Y359457D01*
X385271Y360244D01*
X384487Y361031D01*
X383703Y361031D01*
X382920Y360244D01*
X10394Y329337D02*
X14331Y329337D01*
X14331Y331689D01*
X11181Y332864D02*
X10394Y333648D01*
X10394Y334432D01*
X11181Y335216D01*
X11575Y335216D01*
X14331Y332864D01*
X14331Y335216D01*
X13937Y335216D01*
X126394Y329337D02*
X130331Y329337D01*
X130331Y331689D01*
X126787Y333256D02*
X126394Y333648D01*
X126394Y334432D01*
X127181Y335216D01*
X127969Y335216D01*
X128362Y334824D01*
X128756Y335216D01*
X129543Y335216D01*
X130331Y334432D01*
X130331Y333648D01*
X129937Y333256D01*
X128362Y333648D02*
X128362Y334824D01*
X231392Y270669D02*
X232960Y270669D01*
X233744Y271457D01*
X233744Y273819D01*
X232960Y274606D01*
X231392Y274606D01*
X231784Y274606D02*
X231784Y270669D01*
X234920Y273819D02*
X235703Y274606D01*
X236487Y274606D01*
X237271Y273819D01*
X237271Y273425D01*
X234920Y270669D01*
X237271Y270669D01*
X237271Y271063D01*
X46031Y268337D02*
X46819Y269121D01*
X46819Y269905D01*
X46031Y270689D01*
X42882Y270689D01*
X43669Y272256D02*
X42882Y273040D01*
X46819Y273040D01*
X46819Y271864D02*
X46819Y274216D01*
X543543Y314744D02*
X544331Y313960D01*
X544331Y313176D01*
X543543Y312392D01*
X541181Y312392D01*
X540394Y313176D01*
X540394Y313960D01*
X541181Y314744D01*
X544331Y317095D02*
X542362Y317095D01*
X541181Y318271D01*
X540394Y318271D01*
X540394Y315920D01*
X541181Y315920D01*
X461394Y311337D02*
X465331Y311337D01*
X465331Y313689D01*
X462181Y315256D02*
X461394Y316040D01*
X465331Y316040D01*
X465331Y314864D02*
X465331Y317216D01*
X433331Y339392D02*
X433331Y340960D01*
X432543Y341744D01*
X430181Y341744D01*
X429394Y340960D01*
X429394Y339392D01*
X429394Y339784D02*
X433331Y339784D01*
X430181Y343311D02*
X429394Y344095D01*
X433331Y344095D01*
X433331Y342920D02*
X433331Y345271D01*
X133925Y270457D02*
X133141Y269669D01*
X132357Y269669D01*
X131573Y270457D01*
X131573Y272819D01*
X132357Y273606D01*
X133141Y273606D01*
X133925Y272819D01*
X135493Y272819D02*
X136276Y273606D01*
X136276Y269669D01*
X135101Y269669D02*
X137452Y269669D01*
X140588Y273606D02*
X139412Y273606D01*
X138628Y272819D01*
X138628Y271244D01*
X138628Y270457D01*
X139412Y269669D01*
X140196Y269669D01*
X140980Y270457D01*
X140980Y271244D01*
X140196Y272031D01*
X139412Y272031D01*
X138628Y271244D01*
X25744Y234457D02*
X24960Y233669D01*
X24176Y233669D01*
X23392Y234457D01*
X23392Y236819D01*
X24176Y237606D01*
X24960Y237606D01*
X25744Y236819D01*
X26920Y236819D02*
X27703Y237606D01*
X28487Y237606D01*
X29271Y236819D01*
X29271Y236425D01*
X26920Y233669D01*
X29271Y233669D01*
X29271Y234063D01*
X47394Y207809D02*
X51331Y207809D01*
X51331Y210161D01*
X51331Y213689D02*
X51331Y211337D01*
X49362Y211337D01*
X47394Y211337D01*
X47394Y213689D01*
X49362Y211337D02*
X49362Y212905D01*
X51331Y214864D02*
X51331Y216432D01*
X50543Y217216D01*
X48181Y217216D01*
X47394Y216432D01*
X47394Y214864D01*
X47394Y215256D02*
X51331Y215256D01*
X47787Y218784D02*
X47394Y219176D01*
X47394Y219960D01*
X48181Y220744D01*
X48969Y220744D01*
X49362Y220352D01*
X49756Y220744D01*
X50543Y220744D01*
X51331Y219960D01*
X51331Y219176D01*
X50937Y218784D01*
X49362Y219176D02*
X49362Y220352D01*
X22392Y212669D02*
X22392Y216606D01*
X23960Y216606D01*
X24744Y215819D01*
X24744Y215425D01*
X23960Y214638D01*
X22392Y214638D01*
X22784Y214638D02*
X24744Y212669D01*
X27879Y216606D02*
X26703Y216606D01*
X25920Y215819D01*
X25920Y214244D01*
X25920Y213457D01*
X26703Y212669D01*
X27487Y212669D01*
X28271Y213457D01*
X28271Y214244D01*
X27487Y215031D01*
X26703Y215031D01*
X25920Y214244D01*
X229392Y240669D02*
X229392Y244606D01*
X230960Y244606D01*
X231744Y243819D01*
X231744Y243425D01*
X230960Y242638D01*
X229392Y242638D01*
X229784Y242638D02*
X231744Y240669D01*
X232920Y243819D02*
X233703Y244606D01*
X234487Y244606D01*
X235271Y243819D01*
X235271Y243425D01*
X232920Y240669D01*
X235271Y240669D01*
X235271Y241063D01*
X236559Y212634D02*
X236559Y216571D01*
X238127Y216571D01*
X238911Y215783D01*
X238911Y215390D01*
X238127Y214602D01*
X236559Y214602D01*
X236951Y214602D02*
X238911Y212634D01*
X241654Y212634D02*
X240870Y212634D01*
X240086Y213421D01*
X240086Y214209D01*
X240478Y214602D01*
X240086Y214996D01*
X240086Y215783D01*
X240870Y216571D01*
X241654Y216571D01*
X242438Y215783D01*
X242438Y214996D01*
X242046Y214602D01*
X242438Y214209D01*
X242438Y213421D01*
X241654Y212634D01*
X240478Y214602D02*
X242046Y214602D01*
X47331Y127392D02*
X43394Y127392D01*
X43394Y128960D01*
X44181Y129744D01*
X44575Y129744D01*
X45362Y128960D01*
X45362Y127392D01*
X45362Y127784D02*
X47331Y129744D01*
X43394Y133271D02*
X43394Y130920D01*
X44969Y130920D01*
X44969Y132487D01*
X45756Y133271D01*
X46543Y133271D01*
X47331Y132487D01*
X47331Y130920D01*
X158980Y84457D02*
X158196Y83669D01*
X157412Y83669D01*
X156628Y84457D01*
X156628Y86819D01*
X157412Y87606D01*
X158196Y87606D01*
X158980Y86819D01*
X160548Y86819D02*
X161332Y87606D01*
X161332Y83669D01*
X160156Y83669D02*
X162507Y83669D01*
X164859Y83669D02*
X164859Y85638D01*
X166035Y86819D01*
X166035Y87606D01*
X163683Y87606D01*
X163683Y86819D01*
X555331Y356628D02*
X551394Y356628D01*
X551394Y358196D01*
X552181Y358980D01*
X552575Y358980D01*
X553362Y358196D01*
X553362Y356628D01*
X553362Y357020D02*
X555331Y358980D01*
X552181Y360548D02*
X551394Y361332D01*
X555331Y361332D01*
X555331Y360156D02*
X555331Y362507D01*
X552181Y364075D02*
X551394Y364859D01*
X555331Y364859D01*
X555331Y363683D02*
X555331Y366035D01*
X595614Y274864D02*
X598764Y274864D01*
X599551Y275648D01*
X599551Y276432D01*
X598764Y277216D01*
X595614Y277216D01*
X596402Y278784D02*
X595614Y279568D01*
X599551Y279568D01*
X599551Y278392D02*
X599551Y280744D01*
X499543Y19980D02*
X500331Y19196D01*
X500331Y18412D01*
X499543Y17628D01*
X497181Y17628D01*
X496394Y18412D01*
X496394Y19196D01*
X497181Y19980D01*
X497181Y21548D02*
X496394Y22332D01*
X500331Y22332D01*
X500331Y21156D02*
X500331Y23507D01*
X496787Y25075D02*
X496394Y25467D01*
X496394Y26251D01*
X497181Y27035D01*
X497969Y27035D01*
X498362Y26643D01*
X498756Y27035D01*
X499543Y27035D01*
X500331Y26251D01*
X500331Y25467D01*
X499937Y25075D01*
X498362Y25467D02*
X498362Y26643D01*
X381543Y19980D02*
X382331Y19196D01*
X382331Y18412D01*
X381543Y17628D01*
X379181Y17628D01*
X378394Y18412D01*
X378394Y19196D01*
X379181Y19980D01*
X379181Y21548D02*
X378394Y22332D01*
X382331Y22332D01*
X382331Y21156D02*
X382331Y23507D01*
X380756Y27035D02*
X380756Y24683D01*
X378394Y26643D01*
X382331Y26643D01*
X382331Y26251D02*
X382331Y27035D01*
X360392Y154669D02*
X360392Y158606D01*
X361960Y158606D01*
X362744Y157819D01*
X362744Y157425D01*
X361960Y156638D01*
X360392Y156638D01*
X360784Y156638D02*
X362744Y154669D01*
X364311Y157819D02*
X365095Y158606D01*
X365095Y154669D01*
X363920Y154669D02*
X366271Y154669D01*
X371744Y134457D02*
X370960Y133669D01*
X370176Y133669D01*
X369392Y134457D01*
X369392Y136819D01*
X370176Y137606D01*
X370960Y137606D01*
X371744Y136819D01*
X373311Y137213D02*
X373703Y137606D01*
X374487Y137606D01*
X375271Y136819D01*
X375271Y136031D01*
X374879Y135638D01*
X375271Y135244D01*
X375271Y134457D01*
X374487Y133669D01*
X373703Y133669D01*
X373311Y134063D01*
X373703Y135638D02*
X374879Y135638D01*
X587331Y226628D02*
X583394Y226628D01*
X583394Y228196D01*
X584181Y228980D01*
X584575Y228980D01*
X585362Y228196D01*
X585362Y226628D01*
X585362Y227020D02*
X587331Y228980D01*
X584181Y230548D02*
X583394Y231332D01*
X587331Y231332D01*
X587331Y230156D02*
X587331Y232507D01*
X584181Y233683D02*
X583394Y234467D01*
X583394Y235251D01*
X584181Y236035D01*
X586543Y236035D01*
X587331Y235251D01*
X587331Y234467D01*
X586543Y233683D01*
X584181Y233683D01*
X584181Y236035D02*
X586543Y233683D01*
X183392Y36669D02*
X184960Y36669D01*
X185744Y37457D01*
X185744Y39819D01*
X184960Y40606D01*
X183392Y40606D01*
X183784Y40606D02*
X183784Y36669D01*
X189271Y38244D02*
X186920Y38244D01*
X188879Y40606D01*
X188879Y36669D01*
X188487Y36669D02*
X189271Y36669D01*
X259543Y33980D02*
X260331Y33196D01*
X260331Y32412D01*
X259543Y31628D01*
X257181Y31628D01*
X256394Y32412D01*
X256394Y33196D01*
X257181Y33980D01*
X257181Y35548D02*
X256394Y36332D01*
X260331Y36332D01*
X260331Y35156D02*
X260331Y37507D01*
X256394Y41035D02*
X256394Y38683D01*
X257969Y38683D01*
X257969Y40251D01*
X258756Y41035D01*
X259543Y41035D01*
X260331Y40251D01*
X260331Y38683D01*
X44543Y93337D02*
X45331Y94121D01*
X45331Y94905D01*
X44543Y95689D01*
X41394Y95689D01*
X44543Y96864D02*
X45331Y97648D01*
X45331Y98432D01*
X44543Y99216D01*
X42969Y99216D01*
X42181Y99216D01*
X41394Y98432D01*
X41394Y97648D01*
X42181Y96864D01*
X42969Y96864D01*
X43756Y97648D01*
X43756Y98432D01*
X42969Y99216D01*
X591331Y125337D02*
X587394Y125337D01*
X587394Y126905D01*
X588181Y127689D01*
X588575Y127689D01*
X589362Y126905D01*
X589362Y125337D01*
X589362Y125729D02*
X591331Y127689D01*
X589756Y131216D02*
X589756Y128864D01*
X587394Y130824D01*
X591331Y130824D01*
X591331Y130432D02*
X591331Y131216D01*
X584969Y197608D02*
X584181Y196824D01*
X584181Y196040D01*
X584969Y195256D01*
X588118Y195256D01*
X588118Y191729D02*
X588118Y194080D01*
X586543Y194080D01*
X586543Y192513D01*
X585756Y191729D01*
X584969Y191729D01*
X584181Y192513D01*
X584181Y194080D01*
X597394Y137809D02*
X601331Y137809D01*
X601331Y140161D01*
X601331Y143689D02*
X601331Y141337D01*
X599362Y141337D01*
X597394Y141337D01*
X597394Y143689D01*
X599362Y141337D02*
X599362Y142905D01*
X601331Y144864D02*
X601331Y146432D01*
X600543Y147216D01*
X598181Y147216D01*
X597394Y146432D01*
X597394Y144864D01*
X597394Y145256D02*
X601331Y145256D01*
X598181Y148784D02*
X597394Y149568D01*
X601331Y149568D01*
X601331Y148392D02*
X601331Y150744D01*
X31882Y148864D02*
X35819Y148864D01*
X35819Y151216D01*
X35819Y154744D02*
X35819Y152392D01*
X33850Y152392D01*
X31882Y152392D01*
X31882Y154744D01*
X33850Y152392D02*
X33850Y153960D01*
X35819Y155920D02*
X35819Y157487D01*
X35031Y158271D01*
X32669Y158271D01*
X31882Y157487D01*
X31882Y155920D01*
X31882Y156311D02*
X35819Y156311D01*
X32669Y159447D02*
X31882Y160231D01*
X31882Y161015D01*
X32669Y161799D01*
X33063Y161799D01*
X35819Y159447D01*
X35819Y161799D01*
X35425Y161799D01*
X72392Y12118D02*
X72392Y8181D01*
X74744Y8181D01*
X77487Y8181D02*
X76703Y8181D01*
X75920Y8969D01*
X75920Y9756D01*
X76311Y10150D01*
X75920Y10543D01*
X75920Y11331D01*
X76703Y12118D01*
X77487Y12118D01*
X78271Y11331D01*
X78271Y10543D01*
X77879Y10150D01*
X78271Y9756D01*
X78271Y8969D01*
X77487Y8181D01*
X76311Y10150D02*
X77879Y10150D01*
X228337Y134181D02*
X228337Y138118D01*
X229905Y138118D01*
X230689Y137331D01*
X230689Y136937D01*
X229905Y136150D01*
X228337Y136150D01*
X228729Y136150D02*
X230689Y134181D01*
X232256Y137724D02*
X232648Y138118D01*
X233432Y138118D01*
X234216Y137331D01*
X234216Y136543D01*
X233824Y136150D01*
X234216Y135756D01*
X234216Y134969D01*
X233432Y134181D01*
X232648Y134181D01*
X232256Y134575D01*
X232648Y136150D02*
X233824Y136150D01*
X304337Y120181D02*
X305905Y120181D01*
X306689Y120969D01*
X306689Y123331D01*
X305905Y124118D01*
X304337Y124118D01*
X304729Y124118D02*
X304729Y120181D01*
X308256Y123724D02*
X308648Y124118D01*
X309432Y124118D01*
X310216Y123331D01*
X310216Y122543D01*
X309824Y122150D01*
X310216Y121756D01*
X310216Y120969D01*
X309432Y120181D01*
X308648Y120181D01*
X308256Y120575D01*
X308648Y122150D02*
X309824Y122150D01*
X208543Y99161D02*
X209331Y98377D01*
X209331Y97593D01*
X208543Y96809D01*
X206181Y96809D01*
X205394Y97593D01*
X205394Y98377D01*
X206181Y99161D01*
X206181Y100729D02*
X205394Y101513D01*
X209331Y101513D01*
X209331Y100337D02*
X209331Y102689D01*
X206181Y104256D02*
X205394Y105040D01*
X209331Y105040D01*
X209331Y103864D02*
X209331Y106216D01*
X275031Y72925D02*
X275819Y72141D01*
X275819Y71357D01*
X275031Y70573D01*
X272669Y70573D01*
X271882Y71357D01*
X271882Y72141D01*
X272669Y72925D01*
X272669Y74493D02*
X271882Y75276D01*
X275819Y75276D01*
X275819Y74101D02*
X275819Y76452D01*
X272669Y77628D02*
X271882Y78412D01*
X271882Y79196D01*
X272669Y79980D01*
X273063Y79980D01*
X275819Y77628D01*
X275819Y79980D01*
X275425Y79980D01*
X396925Y245969D02*
X396141Y245181D01*
X395357Y245181D01*
X394573Y245969D01*
X394573Y248331D01*
X395357Y249118D01*
X396141Y249118D01*
X396925Y248331D01*
X398493Y248331D02*
X399276Y249118D01*
X399276Y245181D01*
X398101Y245181D02*
X400452Y245181D01*
X403196Y245181D02*
X402412Y245181D01*
X401628Y245969D01*
X401628Y246756D01*
X402020Y247150D01*
X401628Y247543D01*
X401628Y248331D01*
X402412Y249118D01*
X403196Y249118D01*
X403980Y248331D01*
X403980Y247543D01*
X403588Y247150D01*
X403980Y246756D01*
X403980Y245969D01*
X403196Y245181D01*
X402020Y247150D02*
X403588Y247150D01*
X380689Y261969D02*
X379905Y261181D01*
X379121Y261181D01*
X378337Y261969D01*
X378337Y264331D01*
X379121Y265118D01*
X379905Y265118D01*
X380689Y264331D01*
X384216Y265118D02*
X381864Y265118D01*
X381864Y263543D01*
X383432Y263543D01*
X384216Y262756D01*
X384216Y261969D01*
X383432Y261181D01*
X381864Y261181D01*
X368031Y360925D02*
X368819Y360141D01*
X368819Y359357D01*
X368031Y358573D01*
X365669Y358573D01*
X364882Y359357D01*
X364882Y360141D01*
X365669Y360925D01*
X365669Y362493D02*
X364882Y363276D01*
X368819Y363276D01*
X368819Y362101D02*
X368819Y364452D01*
X365669Y365628D02*
X364882Y366412D01*
X364882Y367196D01*
X365669Y367980D01*
X368031Y367980D01*
X368819Y367196D01*
X368819Y366412D01*
X368031Y365628D01*
X365669Y365628D01*
X365669Y367980D02*
X368031Y365628D01*
X252031Y362689D02*
X252819Y361905D01*
X252819Y361121D01*
X252031Y360337D01*
X249669Y360337D01*
X248882Y361121D01*
X248882Y361905D01*
X249669Y362689D01*
X252031Y363864D02*
X252819Y364648D01*
X252819Y365432D01*
X252031Y366216D01*
X250457Y366216D01*
X249669Y366216D01*
X248882Y365432D01*
X248882Y364648D01*
X249669Y363864D01*
X250457Y363864D01*
X251244Y364648D01*
X251244Y365432D01*
X250457Y366216D01*
X136031Y360689D02*
X136819Y359905D01*
X136819Y359121D01*
X136031Y358337D01*
X133669Y358337D01*
X132882Y359121D01*
X132882Y359905D01*
X133669Y360689D01*
X136819Y363432D02*
X136819Y362648D01*
X136031Y361864D01*
X135244Y361864D01*
X134850Y362256D01*
X134457Y361864D01*
X133669Y361864D01*
X132882Y362648D01*
X132882Y363432D01*
X133669Y364216D01*
X134457Y364216D01*
X134850Y363824D01*
X135244Y364216D01*
X136031Y364216D01*
X136819Y363432D01*
X134850Y362256D02*
X134850Y363824D01*
X595573Y324181D02*
X595573Y328118D01*
X597141Y328118D01*
X597925Y327331D01*
X597925Y326937D01*
X597141Y326150D01*
X595573Y326150D01*
X595965Y326150D02*
X597925Y324181D01*
X599493Y327331D02*
X600276Y328118D01*
X600276Y324181D01*
X599101Y324181D02*
X601452Y324181D01*
X602628Y327331D02*
X603412Y328118D01*
X604196Y328118D01*
X604980Y327331D01*
X604980Y326937D01*
X602628Y324181D01*
X604980Y324181D01*
X604980Y324575D01*
X594689Y299969D02*
X593905Y299181D01*
X593121Y299181D01*
X592337Y299969D01*
X592337Y302331D01*
X593121Y303118D01*
X593905Y303118D01*
X594689Y302331D01*
X598216Y300756D02*
X595864Y300756D01*
X597824Y303118D01*
X597824Y299181D01*
X597432Y299181D02*
X598216Y299181D01*
X618882Y58392D02*
X622819Y58392D01*
X622819Y60744D01*
X618882Y64271D02*
X618882Y61920D01*
X620457Y61920D01*
X620457Y63487D01*
X621244Y64271D01*
X622031Y64271D01*
X622819Y63487D01*
X622819Y61920D01*
X500882Y58392D02*
X504819Y58392D01*
X504819Y60744D01*
X500882Y63879D02*
X500882Y62703D01*
X501669Y61920D01*
X503244Y61920D01*
X504031Y61920D01*
X504819Y62703D01*
X504819Y63487D01*
X504031Y64271D01*
X503244Y64271D01*
X502457Y63487D01*
X502457Y62703D01*
X503244Y61920D01*
X382882Y58392D02*
X386819Y58392D01*
X386819Y60744D01*
X386819Y63095D02*
X384850Y63095D01*
X383669Y64271D01*
X382882Y64271D01*
X382882Y61920D01*
X383669Y61920D01*
X52031Y182392D02*
X52819Y183176D01*
X52819Y183960D01*
X52031Y184744D01*
X48882Y184744D01*
X48882Y187879D02*
X48882Y186703D01*
X49669Y185920D01*
X51244Y185920D01*
X52031Y185920D01*
X52819Y186703D01*
X52819Y187487D01*
X52031Y188271D01*
X51244Y188271D01*
X50457Y187487D01*
X50457Y186703D01*
X51244Y185920D01*
X68392Y166606D02*
X68392Y163457D01*
X69176Y162669D01*
X69960Y162669D01*
X70744Y163457D01*
X70744Y166606D01*
X72311Y166213D02*
X72703Y166606D01*
X73487Y166606D01*
X74271Y165819D01*
X74271Y165031D01*
X73879Y164638D01*
X74271Y164244D01*
X74271Y163457D01*
X73487Y162669D01*
X72703Y162669D01*
X72311Y163063D01*
X72703Y164638D02*
X73879Y164638D01*
X387543Y181689D02*
X388331Y180905D01*
X388331Y180121D01*
X387543Y179337D01*
X385181Y179337D01*
X384394Y180121D01*
X384394Y180905D01*
X385181Y181689D01*
X385181Y183256D02*
X384394Y184040D01*
X388331Y184040D01*
X388331Y182864D02*
X388331Y185216D01*
G54D12*
X249000Y332000D02*
G75*
D01*
G02X249000Y332000I51000J0*
G01*
X280000Y332000D02*
X264000Y332000D01*
X320000Y332000D02*
X336000Y332000D01*
X391821Y352322D02*
X391653Y352960D01*
X391320Y353582D01*
X390827Y354177D01*
X390184Y354734D01*
X389400Y355245D01*
X388490Y355700D01*
X387468Y356092D01*
X386353Y356414D01*
X385164Y356660D01*
X383920Y356827D01*
X382644Y356911D01*
X381356Y356911D01*
X380080Y356827D01*
X378836Y356660D01*
X377647Y356414D01*
X376532Y356092D01*
X375510Y355700D01*
X374600Y355245D01*
X373816Y354734D01*
X373173Y354177D01*
X372680Y353582D01*
X372347Y352960D01*
X372179Y352322D01*
X372179Y351678D01*
X372347Y351040D01*
X372680Y350418D01*
X373173Y349823D01*
X373816Y349266D01*
X374600Y348755D01*
X375510Y348300D01*
X376532Y347908D01*
X377647Y347586D01*
X378836Y347340D01*
X380080Y347173D01*
X381356Y347089D01*
X382644Y347089D01*
X383920Y347173D01*
X385164Y347340D01*
X386353Y347586D01*
X387468Y347908D01*
X388490Y348300D01*
X389400Y348755D01*
X390184Y349266D01*
X390827Y349823D01*
X391320Y350418D01*
X391653Y351040D01*
X391821Y351678D01*
X391821Y352322D01*
X412000Y324500D02*
X372000Y324500D01*
X372000Y343000D02*
X412000Y343000D01*
X412000Y338000D02*
X372000Y338000D01*
X372000Y337500D02*
X372000Y324500D01*
X372000Y343000D02*
X372000Y337500D01*
X412000Y337500D02*
X412000Y324500D01*
X412000Y343000D02*
X412000Y337500D01*
X359165Y294108D02*
X362315Y294108D01*
X363102Y294892D01*
X363102Y295676D01*
X362315Y296460D01*
X359165Y296460D01*
X359953Y297636D02*
X359165Y298420D01*
X359165Y299204D01*
X359953Y299988D01*
X360346Y299988D01*
X363102Y297636D01*
X363102Y299988D01*
X362709Y299988D01*
X408496Y307776D02*
X365504Y307776D01*
X365504Y286224D02*
X408496Y286224D01*
X365504Y307776D02*
X365504Y286224D01*
X408496Y286224D02*
X408496Y307776D01*
X17000Y332000D02*
G75*
D01*
G02X17000Y332000I51000J0*
G01*
X48000Y332000D02*
X32000Y332000D01*
X88000Y332000D02*
X104000Y332000D01*
X133000Y332000D02*
G75*
D01*
G02X133000Y332000I51000J0*
G01*
X164000Y332000D02*
X148000Y332000D01*
X204000Y332000D02*
X220000Y332000D01*
X230000Y256000D02*
X230000Y264000D01*
G36*
X230000Y260000D02*
X230000Y260000D01*
X237000Y264000D01*
X237000Y256000D01*
X230000Y260000D01*
D02*
G37*
X237000Y264000D01*
X237000Y256000D01*
X230000Y260000D01*
X216000Y260000D02*
X252000Y260000D01*
X39748Y240315D02*
X39748Y279685D01*
X4315Y279685D02*
X4315Y240315D01*
X39748Y279685D02*
X4315Y279685D01*
X4315Y240315D02*
X39748Y240315D01*
X24000Y260000D02*
X8000Y260000D01*
X8000Y265000D02*
X8000Y256000D01*
X8000Y255000D01*
G36*
X8000Y260000D02*
X8000Y260000D01*
X14000Y264000D01*
X14000Y256000D01*
X8000Y260000D01*
D02*
G37*
X14000Y264000D01*
X14000Y256000D01*
X8000Y260000D01*
X546252Y316000D02*
G75*
D01*
G02X546252Y316000I15748J0*
G01*
X552000Y309000D02*
X556000Y309000D01*
X554000Y307000D02*
X554000Y311000D01*
X467500Y250000D02*
X532500Y250000D01*
X532500Y378000D01*
X467500Y378000D01*
X467500Y250000D01*
X448000Y338000D02*
X440000Y338000D01*
G36*
X444000Y338000D02*
X444000Y338000D01*
X440000Y345000D01*
X448000Y345000D01*
X444000Y338000D01*
D02*
G37*
X440000Y345000D01*
X448000Y345000D01*
X444000Y338000D01*
X444000Y324000D02*
X444000Y360000D01*
X377556Y369321D02*
X378667Y368726D01*
X379778Y368726D01*
X380889Y369321D01*
X380889Y371702D01*
X383111Y371405D02*
X383667Y371702D01*
X384778Y371702D01*
X385889Y371107D01*
X385889Y370512D01*
X385333Y370214D01*
X385889Y369917D01*
X385889Y369321D01*
X384778Y368726D01*
X383667Y368726D01*
X383111Y369024D01*
X383667Y370214D02*
X385333Y370214D01*
X397000Y373000D02*
X377000Y373000D01*
X384500Y383000D02*
X377000Y383000D01*
X377000Y373000D01*
X397000Y383000D02*
X387833Y383000D01*
X386167Y383000D02*
X386167Y379667D01*
X385333Y382167D02*
X386167Y383000D01*
X397000Y383000D02*
X397000Y373000D01*
X582205Y218045D02*
X578268Y218045D01*
X578268Y219613D01*
X579055Y220397D01*
X579449Y220397D01*
X580236Y219613D01*
X580236Y218045D01*
X580236Y218437D02*
X582205Y220397D01*
X581417Y221573D02*
X582205Y222357D01*
X582205Y223141D01*
X581417Y223925D01*
X579843Y223925D01*
X579055Y223925D01*
X578268Y223141D01*
X578268Y222357D01*
X579055Y221573D01*
X579843Y221573D01*
X580630Y222357D01*
X580630Y223141D01*
X579843Y223925D01*
X616528Y237323D02*
X607472Y237323D01*
X607472Y217638D02*
X616528Y217638D01*
X607472Y237323D02*
X607472Y217638D01*
X616528Y217638D02*
X616528Y237323D01*
X76945Y265661D02*
X76945Y98339D01*
X195055Y98339D01*
X195055Y265661D01*
X76945Y265661D01*
X66679Y231556D02*
X67274Y232667D01*
X67274Y233778D01*
X66679Y234889D01*
X64298Y234889D01*
X64893Y236556D02*
X64298Y237667D01*
X64298Y238778D01*
X64893Y239889D01*
X65190Y239889D01*
X67274Y236556D01*
X67274Y239889D01*
X66976Y239889D01*
X63000Y251000D02*
X63000Y231000D01*
X53000Y238500D02*
X53000Y231000D01*
X63000Y231000D01*
X53000Y251000D02*
X53000Y241833D01*
X53000Y240167D02*
X56333Y240167D01*
X53833Y239333D02*
X53000Y240167D01*
X53000Y251000D02*
X63000Y251000D01*
X18913Y221472D02*
X33087Y221472D01*
X33087Y230528D02*
X18913Y230528D01*
X13500Y201374D02*
X38500Y201374D01*
X38500Y210626D01*
X13500Y210626D01*
X13500Y201374D01*
X254638Y237843D02*
X209362Y237843D01*
X209362Y218157D02*
X254638Y218157D01*
X209362Y237843D02*
X209362Y218157D01*
X254638Y218157D02*
X254638Y237843D01*
X227667Y201339D02*
X252667Y201339D01*
X252667Y210591D01*
X227667Y210591D01*
X227667Y201339D01*
X50157Y152638D02*
X50157Y107362D01*
X69843Y107362D02*
X69843Y152638D01*
X50157Y107362D02*
X69843Y107362D01*
X69843Y152638D02*
X50157Y152638D01*
X146252Y66000D02*
G75*
D01*
G02X146252Y66000I15748J0*
G01*
X155000Y76000D02*
X155000Y72000D01*
X153000Y74000D02*
X157000Y74000D01*
X566626Y349500D02*
X566626Y374500D01*
X557374Y374500D01*
X557374Y349500D01*
X566626Y349500D01*
X512528Y14913D02*
X512528Y29087D01*
X503472Y29087D02*
X503472Y14913D01*
X229556Y13321D02*
X230667Y12726D01*
X231778Y12726D01*
X232889Y13321D01*
X232889Y15702D01*
X236778Y12726D02*
X235667Y12726D01*
X234556Y13321D01*
X234556Y13917D01*
X235111Y14214D01*
X234556Y14512D01*
X234556Y15107D01*
X235667Y15702D01*
X236778Y15702D01*
X237889Y15107D01*
X237889Y14512D01*
X237333Y14214D01*
X237889Y13917D01*
X237889Y13321D01*
X236778Y12726D01*
X235111Y14214D02*
X237333Y14214D01*
X249000Y17000D02*
X229000Y17000D01*
X236500Y27000D02*
X229000Y27000D01*
X229000Y17000D01*
X249000Y27000D02*
X239833Y27000D01*
X238167Y27000D02*
X238167Y23667D01*
X237333Y26167D02*
X238167Y27000D01*
X249000Y27000D02*
X249000Y17000D01*
X616679Y269556D02*
X617274Y270667D01*
X617274Y271778D01*
X616679Y272889D01*
X614298Y272889D01*
X616083Y277889D02*
X616083Y274556D01*
X614298Y277333D01*
X617274Y277333D01*
X617274Y276778D02*
X617274Y277889D01*
X613000Y289000D02*
X613000Y269000D01*
X603000Y276500D02*
X603000Y269000D01*
X613000Y269000D01*
X603000Y289000D02*
X603000Y279833D01*
X603000Y278167D02*
X606333Y278167D01*
X603833Y277333D02*
X603000Y278167D01*
X603000Y289000D02*
X613000Y289000D01*
X394528Y14913D02*
X394528Y29087D01*
X385472Y29087D02*
X385472Y14913D01*
X351500Y143374D02*
X376500Y143374D01*
X376500Y152626D01*
X351500Y152626D01*
X351500Y143374D01*
X364913Y121472D02*
X379087Y121472D01*
X379087Y130528D02*
X364913Y130528D01*
X598626Y219500D02*
X598626Y244500D01*
X589374Y244500D01*
X589374Y219500D01*
X598626Y219500D01*
X182000Y22000D02*
X182000Y30000D01*
G36*
X182000Y26000D02*
X182000Y26000D01*
X189000Y30000D01*
X189000Y22000D01*
X182000Y26000D01*
D02*
G37*
X189000Y30000D01*
X189000Y22000D01*
X182000Y26000D01*
X168000Y26000D02*
X204000Y26000D01*
X236500Y44000D02*
X236500Y84000D01*
X255000Y84000D02*
X255000Y44000D01*
X250000Y44000D02*
X250000Y84000D01*
X249500Y84000D02*
X236500Y84000D01*
X255000Y84000D02*
X249500Y84000D01*
X249500Y44000D02*
X236500Y44000D01*
X255000Y44000D02*
X249500Y44000D01*
X278835Y109892D02*
X275685Y109892D01*
X274898Y109108D01*
X274898Y108324D01*
X275685Y107540D01*
X278835Y107540D01*
X276472Y104012D02*
X276472Y106364D01*
X278835Y104404D01*
X274898Y104404D01*
X274898Y104796D02*
X274898Y104012D01*
X229504Y96224D02*
X272496Y96224D01*
X272496Y117776D02*
X229504Y117776D01*
X272496Y96224D02*
X272496Y117776D01*
X229504Y117776D02*
X229504Y96224D01*
X272528Y28913D02*
X272528Y43087D01*
X263472Y43087D02*
X263472Y28913D01*
X227392Y176669D02*
X227392Y180606D01*
X228960Y180606D01*
X229744Y179819D01*
X229744Y179425D01*
X228960Y178638D01*
X227392Y178638D01*
X227784Y178638D02*
X229744Y176669D01*
X232095Y176669D02*
X232095Y178638D01*
X233271Y179819D01*
X233271Y180606D01*
X230920Y180606D01*
X230920Y179819D01*
X245187Y184310D02*
X245187Y193365D01*
X225502Y193365D02*
X225502Y184310D01*
X245187Y193365D02*
X225502Y193365D01*
X225502Y184310D02*
X245187Y184310D01*
X39748Y92315D02*
X39748Y131685D01*
X4315Y131685D02*
X4315Y92315D01*
X39748Y131685D02*
X4315Y131685D01*
X4315Y92315D02*
X39748Y92315D01*
X24000Y112000D02*
X8000Y112000D01*
X8000Y117000D02*
X8000Y108000D01*
X8000Y107000D01*
G36*
X8000Y112000D02*
X8000Y112000D01*
X14000Y116000D01*
X14000Y108000D01*
X8000Y112000D01*
D02*
G37*
X14000Y116000D01*
X14000Y108000D01*
X8000Y112000D01*
X566157Y170638D02*
X566157Y125362D01*
X585843Y125362D02*
X585843Y170638D01*
X566157Y125362D02*
X585843Y125362D01*
X585843Y170638D02*
X566157Y170638D01*
X590252Y197685D02*
X590252Y158315D01*
X625685Y158315D02*
X625685Y197685D01*
X590252Y158315D02*
X625685Y158315D01*
X625685Y197685D02*
X590252Y197685D01*
X606000Y178000D02*
X622000Y178000D01*
X622000Y173000D02*
X622000Y182000D01*
X622000Y183000D01*
G36*
X622000Y178000D02*
X622000Y178000D01*
X616000Y174000D01*
X616000Y182000D01*
X622000Y178000D01*
D02*
G37*
X616000Y174000D01*
X616000Y182000D01*
X622000Y178000D01*
X140000Y13500D02*
X140000Y78500D01*
X12000Y78500D01*
X12000Y13500D01*
X140000Y13500D01*
X209362Y140157D02*
X254638Y140157D01*
X254638Y159843D02*
X209362Y159843D01*
X254638Y140157D02*
X254638Y159843D01*
X209362Y159843D02*
X209362Y140157D01*
X312000Y138000D02*
X312000Y130000D01*
G36*
X312000Y134000D02*
X312000Y134000D01*
X305000Y130000D01*
X305000Y138000D01*
X312000Y134000D01*
D02*
G37*
X305000Y130000D01*
X305000Y138000D01*
X312000Y134000D01*
X326000Y134000D02*
X290000Y134000D01*
X211472Y109087D02*
X211472Y94913D01*
X220528Y94913D02*
X220528Y109087D01*
X217556Y81488D02*
X218667Y80893D01*
X219778Y80893D01*
X220889Y81488D01*
X220889Y83869D01*
X224222Y80893D02*
X224222Y82381D01*
X225889Y83274D01*
X225889Y83869D01*
X222556Y83869D01*
X222556Y83274D01*
X207000Y79000D02*
X227000Y79000D01*
X219500Y69000D02*
X227000Y69000D01*
X227000Y79000D01*
X207000Y69000D02*
X216167Y69000D01*
X217833Y69000D02*
X217833Y72333D01*
X218667Y69833D02*
X217833Y69000D01*
X207000Y69000D02*
X207000Y79000D01*
X266322Y66179D02*
X266960Y66347D01*
X267582Y66680D01*
X268177Y67173D01*
X268734Y67816D01*
X269245Y68600D01*
X269700Y69510D01*
X270092Y70532D01*
X270414Y71647D01*
X270660Y72836D01*
X270827Y74080D01*
X270911Y75356D01*
X270911Y76644D01*
X270827Y77920D01*
X270660Y79164D01*
X270414Y80353D01*
X270092Y81468D01*
X269700Y82490D01*
X269245Y83400D01*
X268734Y84184D01*
X268177Y84827D01*
X267582Y85320D01*
X266960Y85653D01*
X266322Y85821D01*
X265678Y85821D01*
X265040Y85653D01*
X264418Y85320D01*
X263823Y84827D01*
X263266Y84184D01*
X262755Y83400D01*
X262300Y82490D01*
X261908Y81468D01*
X261586Y80353D01*
X261340Y79164D01*
X261173Y77920D01*
X261089Y76644D01*
X261089Y75356D01*
X261173Y74080D01*
X261340Y72836D01*
X261586Y71647D01*
X261908Y70532D01*
X262300Y69510D01*
X262755Y68600D01*
X263266Y67816D01*
X263823Y67173D01*
X264418Y66680D01*
X265040Y66347D01*
X265678Y66179D01*
X266322Y66179D01*
X364056Y178488D02*
X365167Y177893D01*
X366278Y177893D01*
X367389Y178488D01*
X367389Y180869D01*
X369611Y180274D02*
X370722Y180869D01*
X370722Y177893D01*
X369056Y177893D02*
X372389Y177893D01*
X374611Y180274D02*
X375722Y180869D01*
X375722Y177893D01*
X374056Y177893D02*
X377389Y177893D01*
X277000Y175000D02*
X377000Y175000D01*
X367000Y165000D02*
X329500Y165000D01*
X377000Y165000D02*
X369500Y165000D01*
X377000Y175000D02*
X377000Y165000D01*
X367833Y165000D02*
X367833Y168333D01*
X368667Y165833D02*
X367833Y165000D01*
X277000Y165000D02*
X326167Y165000D01*
X328667Y165000D02*
X327000Y165000D01*
X328667Y166667D02*
X328667Y165000D01*
X328667Y166667D02*
X327833Y166667D01*
X328667Y168333D02*
X327833Y168333D01*
X327761Y168330D01*
X327689Y168321D01*
X327618Y168305D01*
X327548Y168283D01*
X327481Y168255D01*
X327417Y168222D01*
X327355Y168183D01*
X327298Y168138D01*
X327244Y168089D01*
X327195Y168036D01*
X327151Y167978D01*
X327112Y167917D01*
X327078Y167852D01*
X327050Y167785D01*
X327029Y167716D01*
X327013Y167645D01*
X327003Y167573D01*
X327000Y167500D01*
X327003Y167427D01*
X327013Y167355D01*
X327029Y167284D01*
X327050Y167215D01*
X327078Y167148D01*
X327112Y167083D01*
X327151Y167022D01*
X327195Y166964D01*
X327244Y166911D01*
X327298Y166862D01*
X327355Y166817D01*
X327417Y166778D01*
X327481Y166745D01*
X327548Y166717D01*
X327618Y166695D01*
X327689Y166679D01*
X327761Y166670D01*
X327833Y166667D01*
X277000Y165000D02*
X277000Y175000D01*
X407087Y260528D02*
X392913Y260528D01*
X392913Y251472D02*
X407087Y251472D01*
X389087Y276528D02*
X374913Y276528D01*
X374913Y267472D02*
X389087Y267472D01*
X364056Y256488D02*
X365167Y255893D01*
X366278Y255893D01*
X367389Y256488D01*
X367389Y258869D01*
X369611Y258274D02*
X370722Y258869D01*
X370722Y255893D01*
X369056Y255893D02*
X372389Y255893D01*
X374056Y258274D02*
X375167Y258869D01*
X376278Y258869D01*
X377389Y258274D01*
X377389Y256488D01*
X376278Y255893D01*
X375167Y255893D01*
X374056Y256488D01*
X374056Y258274D01*
X377389Y258274D02*
X374056Y256488D01*
X277000Y253000D02*
X377000Y253000D01*
X367000Y243000D02*
X329500Y243000D01*
X377000Y243000D02*
X369500Y243000D01*
X377000Y253000D02*
X377000Y243000D01*
X367833Y243000D02*
X367833Y246333D01*
X368667Y243833D02*
X367833Y243000D01*
X277000Y243000D02*
X326167Y243000D01*
X328667Y243000D02*
X327000Y243000D01*
X328667Y244667D02*
X328667Y243000D01*
X328667Y244667D02*
X327833Y244667D01*
X328667Y246333D02*
X327833Y246333D01*
X327761Y246330D01*
X327689Y246321D01*
X327618Y246305D01*
X327548Y246283D01*
X327481Y246255D01*
X327417Y246222D01*
X327355Y246183D01*
X327298Y246138D01*
X327244Y246089D01*
X327195Y246036D01*
X327151Y245978D01*
X327112Y245917D01*
X327078Y245852D01*
X327050Y245785D01*
X327029Y245716D01*
X327013Y245645D01*
X327003Y245573D01*
X327000Y245500D01*
X327003Y245427D01*
X327013Y245355D01*
X327029Y245284D01*
X327050Y245215D01*
X327078Y245148D01*
X327112Y245083D01*
X327151Y245022D01*
X327195Y244964D01*
X327244Y244911D01*
X327298Y244862D01*
X327355Y244817D01*
X327417Y244778D01*
X327481Y244745D01*
X327548Y244717D01*
X327618Y244695D01*
X327689Y244679D01*
X327761Y244670D01*
X327833Y244667D01*
X277000Y243000D02*
X277000Y253000D01*
X353472Y371087D02*
X353472Y356913D01*
X362528Y356913D02*
X362528Y371087D01*
X237472Y371087D02*
X237472Y356913D01*
X246528Y356913D02*
X246528Y371087D01*
X121472Y369087D02*
X121472Y354913D01*
X130528Y354913D02*
X130528Y369087D01*
X612500Y338626D02*
X587500Y338626D01*
X587500Y329374D01*
X612500Y329374D01*
X612500Y338626D01*
X603087Y314528D02*
X588913Y314528D01*
X588913Y305472D02*
X603087Y305472D01*
X515000Y62000D02*
G75*
D01*
G02X515000Y62000I51000J0*
G01*
X586000Y62000D02*
X602000Y62000D01*
X546000Y62000D02*
X530000Y62000D01*
X624679Y103056D02*
X625274Y104167D01*
X625274Y105278D01*
X624679Y106389D01*
X622298Y106389D01*
X622893Y108611D02*
X622298Y109722D01*
X625274Y109722D01*
X625274Y108056D02*
X625274Y111389D01*
X622893Y113056D02*
X622298Y114167D01*
X622298Y115278D01*
X622893Y116389D01*
X623190Y116389D01*
X625274Y113056D01*
X625274Y116389D01*
X624976Y116389D01*
X621000Y125000D02*
X621000Y105000D01*
X611000Y112500D02*
X611000Y105000D01*
X621000Y105000D01*
X611000Y125000D02*
X611000Y115833D01*
X611000Y114167D02*
X614333Y114167D01*
X611833Y113333D02*
X611000Y114167D01*
X611000Y125000D02*
X621000Y125000D01*
X397000Y62000D02*
G75*
D01*
G02X397000Y62000I51000J0*
G01*
X468000Y62000D02*
X484000Y62000D01*
X428000Y62000D02*
X412000Y62000D01*
X279000Y62000D02*
G75*
D01*
G02X279000Y62000I51000J0*
G01*
X350000Y62000D02*
X366000Y62000D01*
X310000Y62000D02*
X294000Y62000D01*
X4441Y175173D02*
X47441Y175173D01*
X47441Y196827D02*
X4441Y196827D01*
X47441Y175173D02*
X47441Y196827D01*
X56331Y172307D02*
X56331Y188559D01*
X381882Y204392D02*
X385031Y204392D01*
X385819Y205176D01*
X385819Y205960D01*
X385031Y206744D01*
X381882Y206744D01*
X381882Y210271D02*
X381882Y207920D01*
X383457Y207920D01*
X383457Y209487D01*
X384244Y210271D01*
X385031Y210271D01*
X385819Y209487D01*
X385819Y207920D01*
X273516Y198232D02*
X380484Y198232D01*
X380484Y219768D02*
X273516Y219768D01*
X380484Y198232D02*
X380484Y219768D01*
X273516Y219768D02*
X273516Y198232D01*
X622835Y365892D02*
X619685Y365892D01*
X618898Y365108D01*
X618898Y364324D01*
X619685Y363540D01*
X622835Y363540D01*
X622835Y360404D02*
X622835Y361580D01*
X622047Y362364D01*
X620472Y362364D01*
X619685Y362364D01*
X618898Y361580D01*
X618898Y360796D01*
X619685Y360012D01*
X620472Y360012D01*
X621260Y360796D01*
X621260Y361580D01*
X620472Y362364D01*
X573504Y352224D02*
X616496Y352224D01*
X616496Y373776D02*
X573504Y373776D01*
X616496Y352224D02*
X616496Y373776D01*
X573504Y373776D02*
X573504Y352224D01*
X392339Y122945D02*
X559661Y122945D01*
X559661Y241055D01*
X392339Y241055D01*
X392339Y122945D01*
G54D13*
X300000Y332000D02*
X299981Y332436D01*
X299924Y332868D01*
X299830Y333294D01*
X299698Y333710D01*
X299532Y334113D01*
X299330Y334500D01*
X299096Y334868D01*
X298830Y335214D01*
X298536Y335536D01*
X298214Y335830D01*
X297868Y336096D01*
X297500Y336330D01*
X297113Y336532D01*
X296710Y336698D01*
X296294Y336830D01*
X295868Y336924D01*
X295436Y336981D01*
X295000Y337000D01*
X294564Y336981D01*
X294132Y336924D01*
X293706Y336830D01*
X293290Y336698D01*
X292887Y336532D01*
X292500Y336330D01*
X292132Y336096D01*
X291786Y335830D01*
X291464Y335536D01*
X291170Y335214D01*
X290904Y334868D01*
X290670Y334500D01*
X290468Y334113D01*
X290302Y333710D01*
X290170Y333294D01*
X290076Y332868D01*
X290019Y332436D01*
X290000Y332000D01*
X289981Y332436D01*
X289924Y332868D01*
X289830Y333294D01*
X289698Y333710D01*
X289532Y334113D01*
X289330Y334500D01*
X289096Y334868D01*
X288830Y335214D01*
X288536Y335536D01*
X288214Y335830D01*
X287868Y336096D01*
X287500Y336330D01*
X287113Y336532D01*
X286710Y336698D01*
X286294Y336830D01*
X285868Y336924D01*
X285436Y336981D01*
X285000Y337000D01*
X284564Y336981D01*
X284132Y336924D01*
X283706Y336830D01*
X283290Y336698D01*
X282887Y336532D01*
X282500Y336330D01*
X282132Y336096D01*
X281786Y335830D01*
X281464Y335536D01*
X281170Y335214D01*
X280904Y334868D01*
X280670Y334500D01*
X280468Y334113D01*
X280302Y333710D01*
X280170Y333294D01*
X280076Y332868D01*
X280019Y332436D01*
X280000Y332000D01*
X320000Y332000D02*
X319981Y332436D01*
X319924Y332868D01*
X319830Y333294D01*
X319698Y333710D01*
X319532Y334113D01*
X319330Y334500D01*
X319096Y334868D01*
X318830Y335214D01*
X318536Y335536D01*
X318214Y335830D01*
X317868Y336096D01*
X317500Y336330D01*
X317113Y336532D01*
X316710Y336698D01*
X316294Y336830D01*
X315868Y336924D01*
X315436Y336981D01*
X315000Y337000D01*
X314564Y336981D01*
X314132Y336924D01*
X313706Y336830D01*
X313290Y336698D01*
X312887Y336532D01*
X312500Y336330D01*
X312132Y336096D01*
X311786Y335830D01*
X311464Y335536D01*
X311170Y335214D01*
X310904Y334868D01*
X310670Y334500D01*
X310468Y334113D01*
X310302Y333710D01*
X310170Y333294D01*
X310076Y332868D01*
X310019Y332436D01*
X310000Y332000D01*
X309981Y332436D01*
X309924Y332868D01*
X309830Y333294D01*
X309698Y333710D01*
X309532Y334113D01*
X309330Y334500D01*
X309096Y334868D01*
X308830Y335214D01*
X308536Y335536D01*
X308214Y335830D01*
X307868Y336096D01*
X307500Y336330D01*
X307113Y336532D01*
X306710Y336698D01*
X306294Y336830D01*
X305868Y336924D01*
X305436Y336981D01*
X305000Y337000D01*
X304564Y336981D01*
X304132Y336924D01*
X303706Y336830D01*
X303290Y336698D01*
X302887Y336532D01*
X302500Y336330D01*
X302132Y336096D01*
X301786Y335830D01*
X301464Y335536D01*
X301170Y335214D01*
X300904Y334868D01*
X300670Y334500D01*
X300468Y334113D01*
X300302Y333710D01*
X300170Y333294D01*
X300076Y332868D01*
X300019Y332436D01*
X300000Y332000D01*
X68000Y332000D02*
X67981Y332436D01*
X67924Y332868D01*
X67830Y333294D01*
X67698Y333710D01*
X67532Y334113D01*
X67330Y334500D01*
X67096Y334868D01*
X66830Y335214D01*
X66536Y335536D01*
X66214Y335830D01*
X65868Y336096D01*
X65500Y336330D01*
X65113Y336532D01*
X64710Y336698D01*
X64294Y336830D01*
X63868Y336924D01*
X63436Y336981D01*
X63000Y337000D01*
X62564Y336981D01*
X62132Y336924D01*
X61706Y336830D01*
X61290Y336698D01*
X60887Y336532D01*
X60500Y336330D01*
X60132Y336096D01*
X59786Y335830D01*
X59464Y335536D01*
X59170Y335214D01*
X58904Y334868D01*
X58670Y334500D01*
X58468Y334113D01*
X58302Y333710D01*
X58170Y333294D01*
X58076Y332868D01*
X58019Y332436D01*
X58000Y332000D01*
X57981Y332436D01*
X57924Y332868D01*
X57830Y333294D01*
X57698Y333710D01*
X57532Y334113D01*
X57330Y334500D01*
X57096Y334868D01*
X56830Y335214D01*
X56536Y335536D01*
X56214Y335830D01*
X55868Y336096D01*
X55500Y336330D01*
X55113Y336532D01*
X54710Y336698D01*
X54294Y336830D01*
X53868Y336924D01*
X53436Y336981D01*
X53000Y337000D01*
X52564Y336981D01*
X52132Y336924D01*
X51706Y336830D01*
X51290Y336698D01*
X50887Y336532D01*
X50500Y336330D01*
X50132Y336096D01*
X49786Y335830D01*
X49464Y335536D01*
X49170Y335214D01*
X48904Y334868D01*
X48670Y334500D01*
X48468Y334113D01*
X48302Y333710D01*
X48170Y333294D01*
X48076Y332868D01*
X48019Y332436D01*
X48000Y332000D01*
X88000Y332000D02*
X87981Y332436D01*
X87924Y332868D01*
X87830Y333294D01*
X87698Y333710D01*
X87532Y334113D01*
X87330Y334500D01*
X87096Y334868D01*
X86830Y335214D01*
X86536Y335536D01*
X86214Y335830D01*
X85868Y336096D01*
X85500Y336330D01*
X85113Y336532D01*
X84710Y336698D01*
X84294Y336830D01*
X83868Y336924D01*
X83436Y336981D01*
X83000Y337000D01*
X82564Y336981D01*
X82132Y336924D01*
X81706Y336830D01*
X81290Y336698D01*
X80887Y336532D01*
X80500Y336330D01*
X80132Y336096D01*
X79786Y335830D01*
X79464Y335536D01*
X79170Y335214D01*
X78904Y334868D01*
X78670Y334500D01*
X78468Y334113D01*
X78302Y333710D01*
X78170Y333294D01*
X78076Y332868D01*
X78019Y332436D01*
X78000Y332000D01*
X77981Y332436D01*
X77924Y332868D01*
X77830Y333294D01*
X77698Y333710D01*
X77532Y334113D01*
X77330Y334500D01*
X77096Y334868D01*
X76830Y335214D01*
X76536Y335536D01*
X76214Y335830D01*
X75868Y336096D01*
X75500Y336330D01*
X75113Y336532D01*
X74710Y336698D01*
X74294Y336830D01*
X73868Y336924D01*
X73436Y336981D01*
X73000Y337000D01*
X72564Y336981D01*
X72132Y336924D01*
X71706Y336830D01*
X71290Y336698D01*
X70887Y336532D01*
X70500Y336330D01*
X70132Y336096D01*
X69786Y335830D01*
X69464Y335536D01*
X69170Y335214D01*
X68904Y334868D01*
X68670Y334500D01*
X68468Y334113D01*
X68302Y333710D01*
X68170Y333294D01*
X68076Y332868D01*
X68019Y332436D01*
X68000Y332000D01*
X184000Y332000D02*
X183981Y332436D01*
X183924Y332868D01*
X183830Y333294D01*
X183698Y333710D01*
X183532Y334113D01*
X183330Y334500D01*
X183096Y334868D01*
X182830Y335214D01*
X182536Y335536D01*
X182214Y335830D01*
X181868Y336096D01*
X181500Y336330D01*
X181113Y336532D01*
X180710Y336698D01*
X180294Y336830D01*
X179868Y336924D01*
X179436Y336981D01*
X179000Y337000D01*
X178564Y336981D01*
X178132Y336924D01*
X177706Y336830D01*
X177290Y336698D01*
X176887Y336532D01*
X176500Y336330D01*
X176132Y336096D01*
X175786Y335830D01*
X175464Y335536D01*
X175170Y335214D01*
X174904Y334868D01*
X174670Y334500D01*
X174468Y334113D01*
X174302Y333710D01*
X174170Y333294D01*
X174076Y332868D01*
X174019Y332436D01*
X174000Y332000D01*
X173981Y332436D01*
X173924Y332868D01*
X173830Y333294D01*
X173698Y333710D01*
X173532Y334113D01*
X173330Y334500D01*
X173096Y334868D01*
X172830Y335214D01*
X172536Y335536D01*
X172214Y335830D01*
X171868Y336096D01*
X171500Y336330D01*
X171113Y336532D01*
X170710Y336698D01*
X170294Y336830D01*
X169868Y336924D01*
X169436Y336981D01*
X169000Y337000D01*
X168564Y336981D01*
X168132Y336924D01*
X167706Y336830D01*
X167290Y336698D01*
X166887Y336532D01*
X166500Y336330D01*
X166132Y336096D01*
X165786Y335830D01*
X165464Y335536D01*
X165170Y335214D01*
X164904Y334868D01*
X164670Y334500D01*
X164468Y334113D01*
X164302Y333710D01*
X164170Y333294D01*
X164076Y332868D01*
X164019Y332436D01*
X164000Y332000D01*
X204000Y332000D02*
X203981Y332436D01*
X203924Y332868D01*
X203830Y333294D01*
X203698Y333710D01*
X203532Y334113D01*
X203330Y334500D01*
X203096Y334868D01*
X202830Y335214D01*
X202536Y335536D01*
X202214Y335830D01*
X201868Y336096D01*
X201500Y336330D01*
X201113Y336532D01*
X200710Y336698D01*
X200294Y336830D01*
X199868Y336924D01*
X199436Y336981D01*
X199000Y337000D01*
X198564Y336981D01*
X198132Y336924D01*
X197706Y336830D01*
X197290Y336698D01*
X196887Y336532D01*
X196500Y336330D01*
X196132Y336096D01*
X195786Y335830D01*
X195464Y335536D01*
X195170Y335214D01*
X194904Y334868D01*
X194670Y334500D01*
X194468Y334113D01*
X194302Y333710D01*
X194170Y333294D01*
X194076Y332868D01*
X194019Y332436D01*
X194000Y332000D01*
X193981Y332436D01*
X193924Y332868D01*
X193830Y333294D01*
X193698Y333710D01*
X193532Y334113D01*
X193330Y334500D01*
X193096Y334868D01*
X192830Y335214D01*
X192536Y335536D01*
X192214Y335830D01*
X191868Y336096D01*
X191500Y336330D01*
X191113Y336532D01*
X190710Y336698D01*
X190294Y336830D01*
X189868Y336924D01*
X189436Y336981D01*
X189000Y337000D01*
X188564Y336981D01*
X188132Y336924D01*
X187706Y336830D01*
X187290Y336698D01*
X186887Y336532D01*
X186500Y336330D01*
X186132Y336096D01*
X185786Y335830D01*
X185464Y335536D01*
X185170Y335214D01*
X184904Y334868D01*
X184670Y334500D01*
X184468Y334113D01*
X184302Y333710D01*
X184170Y333294D01*
X184076Y332868D01*
X184019Y332436D01*
X184000Y332000D01*
X53000Y208000D02*
X53557Y207238D01*
X54179Y206528D01*
X54860Y205875D01*
X55595Y205284D01*
X56379Y204759D01*
X57206Y204304D01*
X58069Y203923D01*
X58962Y203619D01*
X59879Y203393D01*
X60811Y203249D01*
X61753Y203186D01*
X62696Y203206D01*
X63634Y203308D01*
X64560Y203491D01*
X65466Y203754D01*
X66346Y204095D01*
X67193Y204511D01*
X68000Y205000D01*
X68762Y205557D01*
X69472Y206179D01*
X70125Y206860D01*
X70716Y207595D01*
X71241Y208379D01*
X71696Y209206D01*
X72077Y210069D01*
X72381Y210962D01*
X72607Y211879D01*
X72751Y212811D01*
X72814Y213753D01*
X72794Y214696D01*
X72692Y215634D01*
X72509Y216560D01*
X72246Y217466D01*
X71905Y218346D01*
X71489Y219193D01*
X71000Y220000D01*
X70443Y220762D01*
X69821Y221472D01*
X69140Y222125D01*
X68405Y222716D01*
X67621Y223241D01*
X66794Y223696D01*
X65931Y224077D01*
X65038Y224381D01*
X64121Y224607D01*
X63189Y224751D01*
X62247Y224814D01*
X61304Y224794D01*
X60366Y224692D01*
X59440Y224509D01*
X58534Y224246D01*
X57654Y223905D01*
X56807Y223489D01*
X56000Y223000D01*
X55238Y222443D01*
X54528Y221821D01*
X53875Y221140D01*
X53284Y220405D01*
X53000Y220000D01*
X53000Y208000D01*
X603000Y138000D02*
X603557Y137238D01*
X604179Y136528D01*
X604860Y135875D01*
X605595Y135284D01*
X606379Y134759D01*
X607206Y134304D01*
X608069Y133923D01*
X608962Y133619D01*
X609879Y133393D01*
X610811Y133249D01*
X611753Y133186D01*
X612696Y133206D01*
X613634Y133308D01*
X614560Y133491D01*
X615466Y133754D01*
X616346Y134095D01*
X617193Y134511D01*
X618000Y135000D01*
X618762Y135557D01*
X619472Y136179D01*
X620125Y136860D01*
X620716Y137595D01*
X621241Y138379D01*
X621696Y139206D01*
X622077Y140069D01*
X622381Y140962D01*
X622607Y141879D01*
X622751Y142811D01*
X622814Y143753D01*
X622794Y144696D01*
X622692Y145634D01*
X622509Y146560D01*
X622246Y147466D01*
X621905Y148346D01*
X621489Y149193D01*
X621000Y150000D01*
X620443Y150762D01*
X619821Y151472D01*
X619140Y152125D01*
X618405Y152716D01*
X617621Y153241D01*
X616794Y153696D01*
X615931Y154077D01*
X615038Y154381D01*
X614121Y154607D01*
X613189Y154751D01*
X612247Y154814D01*
X611304Y154794D01*
X610366Y154692D01*
X609440Y154509D01*
X608534Y154246D01*
X607654Y153905D01*
X606807Y153489D01*
X606000Y153000D01*
X605238Y152443D01*
X604528Y151821D01*
X603875Y151140D01*
X603284Y150405D01*
X603000Y150000D01*
X603000Y138000D01*
X31000Y162000D02*
X30443Y162762D01*
X29821Y163472D01*
X29140Y164125D01*
X28405Y164716D01*
X27621Y165241D01*
X26794Y165696D01*
X25931Y166077D01*
X25038Y166381D01*
X24121Y166607D01*
X23189Y166751D01*
X22247Y166814D01*
X21304Y166794D01*
X20366Y166692D01*
X19440Y166509D01*
X18534Y166246D01*
X17654Y165905D01*
X16807Y165489D01*
X16000Y165000D01*
X15238Y164443D01*
X14528Y163821D01*
X13875Y163140D01*
X13284Y162405D01*
X12759Y161621D01*
X12304Y160794D01*
X11923Y159931D01*
X11619Y159038D01*
X11393Y158121D01*
X11249Y157189D01*
X11186Y156247D01*
X11206Y155304D01*
X11308Y154366D01*
X11491Y153440D01*
X11754Y152534D01*
X12095Y151654D01*
X12511Y150807D01*
X13000Y150000D01*
X13557Y149238D01*
X14179Y148528D01*
X14860Y147875D01*
X15595Y147284D01*
X16379Y146759D01*
X17206Y146304D01*
X18069Y145923D01*
X18962Y145619D01*
X19879Y145393D01*
X20811Y145249D01*
X21753Y145186D01*
X22696Y145206D01*
X23634Y145308D01*
X24560Y145491D01*
X25466Y145754D01*
X26346Y146095D01*
X27193Y146511D01*
X28000Y147000D01*
X28762Y147557D01*
X29472Y148179D01*
X30125Y148860D01*
X30716Y149595D01*
X31000Y150000D01*
X31000Y162000D01*
X566000Y62000D02*
X566019Y61564D01*
X566076Y61132D01*
X566170Y60706D01*
X566302Y60290D01*
X566468Y59887D01*
X566670Y59500D01*
X566904Y59132D01*
X567170Y58786D01*
X567464Y58464D01*
X567786Y58170D01*
X568132Y57904D01*
X568500Y57670D01*
X568887Y57468D01*
X569290Y57302D01*
X569706Y57170D01*
X570132Y57076D01*
X570564Y57019D01*
X571000Y57000D01*
X571436Y57019D01*
X571868Y57076D01*
X572294Y57170D01*
X572710Y57302D01*
X573113Y57468D01*
X573500Y57670D01*
X573868Y57904D01*
X574214Y58170D01*
X574536Y58464D01*
X574830Y58786D01*
X575096Y59132D01*
X575330Y59500D01*
X575532Y59887D01*
X575698Y60290D01*
X575830Y60706D01*
X575924Y61132D01*
X575981Y61564D01*
X576000Y62000D01*
X576000Y62000D01*
X576019Y61564D01*
X576076Y61132D01*
X576170Y60706D01*
X576302Y60290D01*
X576468Y59887D01*
X576670Y59500D01*
X576904Y59132D01*
X577170Y58786D01*
X577464Y58464D01*
X577786Y58170D01*
X578132Y57904D01*
X578500Y57670D01*
X578887Y57468D01*
X579290Y57302D01*
X579706Y57170D01*
X580132Y57076D01*
X580564Y57019D01*
X581000Y57000D01*
X581436Y57019D01*
X581868Y57076D01*
X582294Y57170D01*
X582710Y57302D01*
X583113Y57468D01*
X583500Y57670D01*
X583868Y57904D01*
X584214Y58170D01*
X584536Y58464D01*
X584830Y58786D01*
X585096Y59132D01*
X585330Y59500D01*
X585532Y59887D01*
X585698Y60290D01*
X585830Y60706D01*
X585924Y61132D01*
X585981Y61564D01*
X586000Y62000D01*
X586000Y62000D01*
X546000Y62000D02*
X546019Y61564D01*
X546076Y61132D01*
X546170Y60706D01*
X546302Y60290D01*
X546468Y59887D01*
X546670Y59500D01*
X546904Y59132D01*
X547170Y58786D01*
X547464Y58464D01*
X547786Y58170D01*
X548132Y57904D01*
X548500Y57670D01*
X548887Y57468D01*
X549290Y57302D01*
X549706Y57170D01*
X550132Y57076D01*
X550564Y57019D01*
X551000Y57000D01*
X551436Y57019D01*
X551868Y57076D01*
X552294Y57170D01*
X552710Y57302D01*
X553113Y57468D01*
X553500Y57670D01*
X553868Y57904D01*
X554214Y58170D01*
X554536Y58464D01*
X554830Y58786D01*
X555096Y59132D01*
X555330Y59500D01*
X555532Y59887D01*
X555698Y60290D01*
X555830Y60706D01*
X555924Y61132D01*
X555981Y61564D01*
X556000Y62000D01*
X556000Y62000D01*
X556019Y61564D01*
X556076Y61132D01*
X556170Y60706D01*
X556302Y60290D01*
X556468Y59887D01*
X556670Y59500D01*
X556904Y59132D01*
X557170Y58786D01*
X557464Y58464D01*
X557786Y58170D01*
X558132Y57904D01*
X558500Y57670D01*
X558887Y57468D01*
X559290Y57302D01*
X559706Y57170D01*
X560132Y57076D01*
X560564Y57019D01*
X561000Y57000D01*
X561436Y57019D01*
X561868Y57076D01*
X562294Y57170D01*
X562710Y57302D01*
X563113Y57468D01*
X563500Y57670D01*
X563868Y57904D01*
X564214Y58170D01*
X564536Y58464D01*
X564830Y58786D01*
X565096Y59132D01*
X565330Y59500D01*
X565532Y59887D01*
X565698Y60290D01*
X565830Y60706D01*
X565924Y61132D01*
X565981Y61564D01*
X566000Y62000D01*
X566000Y62000D01*
X448000Y62000D02*
X448019Y61564D01*
X448076Y61132D01*
X448170Y60706D01*
X448302Y60290D01*
X448468Y59887D01*
X448670Y59500D01*
X448904Y59132D01*
X449170Y58786D01*
X449464Y58464D01*
X449786Y58170D01*
X450132Y57904D01*
X450500Y57670D01*
X450887Y57468D01*
X451290Y57302D01*
X451706Y57170D01*
X452132Y57076D01*
X452564Y57019D01*
X453000Y57000D01*
X453436Y57019D01*
X453868Y57076D01*
X454294Y57170D01*
X454710Y57302D01*
X455113Y57468D01*
X455500Y57670D01*
X455868Y57904D01*
X456214Y58170D01*
X456536Y58464D01*
X456830Y58786D01*
X457096Y59132D01*
X457330Y59500D01*
X457532Y59887D01*
X457698Y60290D01*
X457830Y60706D01*
X457924Y61132D01*
X457981Y61564D01*
X458000Y62000D01*
X458000Y62000D01*
X458019Y61564D01*
X458076Y61132D01*
X458170Y60706D01*
X458302Y60290D01*
X458468Y59887D01*
X458670Y59500D01*
X458904Y59132D01*
X459170Y58786D01*
X459464Y58464D01*
X459786Y58170D01*
X460132Y57904D01*
X460500Y57670D01*
X460887Y57468D01*
X461290Y57302D01*
X461706Y57170D01*
X462132Y57076D01*
X462564Y57019D01*
X463000Y57000D01*
X463436Y57019D01*
X463868Y57076D01*
X464294Y57170D01*
X464710Y57302D01*
X465113Y57468D01*
X465500Y57670D01*
X465868Y57904D01*
X466214Y58170D01*
X466536Y58464D01*
X466830Y58786D01*
X467096Y59132D01*
X467330Y59500D01*
X467532Y59887D01*
X467698Y60290D01*
X467830Y60706D01*
X467924Y61132D01*
X467981Y61564D01*
X468000Y62000D01*
X468000Y62000D01*
X428000Y62000D02*
X428019Y61564D01*
X428076Y61132D01*
X428170Y60706D01*
X428302Y60290D01*
X428468Y59887D01*
X428670Y59500D01*
X428904Y59132D01*
X429170Y58786D01*
X429464Y58464D01*
X429786Y58170D01*
X430132Y57904D01*
X430500Y57670D01*
X430887Y57468D01*
X431290Y57302D01*
X431706Y57170D01*
X432132Y57076D01*
X432564Y57019D01*
X433000Y57000D01*
X433436Y57019D01*
X433868Y57076D01*
X434294Y57170D01*
X434710Y57302D01*
X435113Y57468D01*
X435500Y57670D01*
X435868Y57904D01*
X436214Y58170D01*
X436536Y58464D01*
X436830Y58786D01*
X437096Y59132D01*
X437330Y59500D01*
X437532Y59887D01*
X437698Y60290D01*
X437830Y60706D01*
X437924Y61132D01*
X437981Y61564D01*
X438000Y62000D01*
X438000Y62000D01*
X438019Y61564D01*
X438076Y61132D01*
X438170Y60706D01*
X438302Y60290D01*
X438468Y59887D01*
X438670Y59500D01*
X438904Y59132D01*
X439170Y58786D01*
X439464Y58464D01*
X439786Y58170D01*
X440132Y57904D01*
X440500Y57670D01*
X440887Y57468D01*
X441290Y57302D01*
X441706Y57170D01*
X442132Y57076D01*
X442564Y57019D01*
X443000Y57000D01*
X443436Y57019D01*
X443868Y57076D01*
X444294Y57170D01*
X444710Y57302D01*
X445113Y57468D01*
X445500Y57670D01*
X445868Y57904D01*
X446214Y58170D01*
X446536Y58464D01*
X446830Y58786D01*
X447096Y59132D01*
X447330Y59500D01*
X447532Y59887D01*
X447698Y60290D01*
X447830Y60706D01*
X447924Y61132D01*
X447981Y61564D01*
X448000Y62000D01*
X448000Y62000D01*
X330000Y62000D02*
X330019Y61564D01*
X330076Y61132D01*
X330170Y60706D01*
X330302Y60290D01*
X330468Y59887D01*
X330670Y59500D01*
X330904Y59132D01*
X331170Y58786D01*
X331464Y58464D01*
X331786Y58170D01*
X332132Y57904D01*
X332500Y57670D01*
X332887Y57468D01*
X333290Y57302D01*
X333706Y57170D01*
X334132Y57076D01*
X334564Y57019D01*
X335000Y57000D01*
X335436Y57019D01*
X335868Y57076D01*
X336294Y57170D01*
X336710Y57302D01*
X337113Y57468D01*
X337500Y57670D01*
X337868Y57904D01*
X338214Y58170D01*
X338536Y58464D01*
X338830Y58786D01*
X339096Y59132D01*
X339330Y59500D01*
X339532Y59887D01*
X339698Y60290D01*
X339830Y60706D01*
X339924Y61132D01*
X339981Y61564D01*
X340000Y62000D01*
X340000Y62000D01*
X340019Y61564D01*
X340076Y61132D01*
X340170Y60706D01*
X340302Y60290D01*
X340468Y59887D01*
X340670Y59500D01*
X340904Y59132D01*
X341170Y58786D01*
X341464Y58464D01*
X341786Y58170D01*
X342132Y57904D01*
X342500Y57670D01*
X342887Y57468D01*
X343290Y57302D01*
X343706Y57170D01*
X344132Y57076D01*
X344564Y57019D01*
X345000Y57000D01*
X345436Y57019D01*
X345868Y57076D01*
X346294Y57170D01*
X346710Y57302D01*
X347113Y57468D01*
X347500Y57670D01*
X347868Y57904D01*
X348214Y58170D01*
X348536Y58464D01*
X348830Y58786D01*
X349096Y59132D01*
X349330Y59500D01*
X349532Y59887D01*
X349698Y60290D01*
X349830Y60706D01*
X349924Y61132D01*
X349981Y61564D01*
X350000Y62000D01*
X350000Y62000D01*
X310000Y62000D02*
X310019Y61564D01*
X310076Y61132D01*
X310170Y60706D01*
X310302Y60290D01*
X310468Y59887D01*
X310670Y59500D01*
X310904Y59132D01*
X311170Y58786D01*
X311464Y58464D01*
X311786Y58170D01*
X312132Y57904D01*
X312500Y57670D01*
X312887Y57468D01*
X313290Y57302D01*
X313706Y57170D01*
X314132Y57076D01*
X314564Y57019D01*
X315000Y57000D01*
X315436Y57019D01*
X315868Y57076D01*
X316294Y57170D01*
X316710Y57302D01*
X317113Y57468D01*
X317500Y57670D01*
X317868Y57904D01*
X318214Y58170D01*
X318536Y58464D01*
X318830Y58786D01*
X319096Y59132D01*
X319330Y59500D01*
X319532Y59887D01*
X319698Y60290D01*
X319830Y60706D01*
X319924Y61132D01*
X319981Y61564D01*
X320000Y62000D01*
X320000Y62000D01*
X320019Y61564D01*
X320076Y61132D01*
X320170Y60706D01*
X320302Y60290D01*
X320468Y59887D01*
X320670Y59500D01*
X320904Y59132D01*
X321170Y58786D01*
X321464Y58464D01*
X321786Y58170D01*
X322132Y57904D01*
X322500Y57670D01*
X322887Y57468D01*
X323290Y57302D01*
X323706Y57170D01*
X324132Y57076D01*
X324564Y57019D01*
X325000Y57000D01*
X325436Y57019D01*
X325868Y57076D01*
X326294Y57170D01*
X326710Y57302D01*
X327113Y57468D01*
X327500Y57670D01*
X327868Y57904D01*
X328214Y58170D01*
X328536Y58464D01*
X328830Y58786D01*
X329096Y59132D01*
X329330Y59500D01*
X329532Y59887D01*
X329698Y60290D01*
X329830Y60706D01*
X329924Y61132D01*
X329981Y61564D01*
X330000Y62000D01*
X330000Y62000D01*
X-1500Y-1500D02*
X-1500Y38170D01*
X-1500Y-1500D02*
X61792Y-1500D01*
X631421Y-1500D02*
X568129Y-1500D01*
X631421Y-1500D02*
X631421Y38170D01*
X631421Y395201D02*
X631421Y355531D01*
X631421Y395201D02*
X568129Y395201D01*
X-1500Y395201D02*
X61792Y395201D01*
X-1500Y395201D02*
X-1500Y355531D01*
X-21185Y-1500D02*
X-60555Y-1500D01*
X-40870Y-21185D02*
X-40870Y18185D01*
X-55634Y-1500D02*
G75*
D01*
G02X-55634Y-1500I14764J0*
G01*
X651106Y-1500D02*
X690476Y-1500D01*
X670791Y-21185D02*
X670791Y18185D01*
X656028Y-1500D02*
G75*
D01*
G02X656028Y-1500I14763J0*
G01*
X665870Y-1500D02*
G75*
D01*
G02X665870Y-1500I4921J0*
G01*
X-21185Y395201D02*
X-60555Y395201D01*
X-40870Y375516D02*
X-40870Y414886D01*
X-55634Y395201D02*
G75*
D01*
G02X-55634Y395201I14764J0*
G01*
X-50713Y395201D02*
G75*
D01*
G02X-50713Y395201I9843J0*
G01*
X-45791Y395201D02*
G75*
D01*
G02X-45791Y395201I4921J0*
G01*
G54D14*
X389391Y319464D02*
X390173Y318679D01*
X390956Y318679D01*
X391738Y319464D01*
X391738Y321821D01*
X390956Y322607D01*
X390173Y322607D01*
X389391Y321821D01*
X389391Y319464D01*
X390956Y319464D02*
X391738Y318679D01*
X393302Y321821D02*
X394084Y322607D01*
X394084Y318679D01*
X392911Y318679D02*
X395258Y318679D01*
X231464Y66609D02*
X230679Y65827D01*
X230679Y65044D01*
X231464Y64262D01*
X233821Y64262D01*
X234607Y65044D01*
X234607Y65827D01*
X233821Y66609D01*
X231464Y66609D01*
X231464Y65044D02*
X230679Y64262D01*
X233821Y63089D02*
X234607Y62307D01*
X234607Y61524D01*
X233821Y60742D01*
X233429Y60742D01*
X230679Y63089D01*
X230679Y60742D01*
X231071Y60742D01*
G54D15*
X376939Y327716D02*
X377508Y328287D01*
X377508Y325430D01*
X376654Y325430D02*
X378361Y325430D01*
X396864Y327967D02*
X397148Y328253D01*
X397717Y328253D01*
X398286Y327682D01*
X398286Y327110D01*
X398001Y326825D01*
X398286Y326539D01*
X398286Y325967D01*
X397717Y325396D01*
X397148Y325396D01*
X396864Y325682D01*
X397148Y326825D02*
X398001Y326825D01*
X386358Y327744D02*
X386927Y328315D01*
X387496Y328315D01*
X388065Y327744D01*
X388065Y327458D01*
X386358Y325458D01*
X388065Y325458D01*
X388065Y325744D01*
X239716Y79061D02*
X240287Y78492D01*
X237430Y78492D01*
X237430Y79346D02*
X237430Y77639D01*
X239967Y59136D02*
X240253Y58852D01*
X240253Y58283D01*
X239682Y57714D01*
X239110Y57714D01*
X238825Y57999D01*
X238539Y57714D01*
X237967Y57714D01*
X237396Y58283D01*
X237396Y58852D01*
X237682Y59136D01*
X238825Y58852D02*
X238825Y57999D01*
X239744Y69642D02*
X240315Y69073D01*
X240315Y68504D01*
X239744Y67935D01*
X239458Y67935D01*
X237458Y69642D01*
X237458Y67935D01*
X237744Y67935D01*
G54D16*
X564921Y207811D02*
X574961Y207811D01*
X574961Y235370D01*
X564921Y235370D01*
X564921Y207811D01*
X570000Y201512D02*
X570000Y207811D01*
X570000Y235370D02*
X570000Y242063D01*
G36*
X607449Y233783D02*
X607449Y236933D01*
X616272Y236933D01*
X616272Y233783D01*
X607449Y233783D01*
G37*
X215978Y175043D02*
X243537Y175043D01*
X243537Y165004D01*
X215978Y165004D01*
X215978Y175043D01*
X209679Y169965D02*
X215978Y169965D01*
X243537Y169965D02*
X250230Y169965D01*
G36*
X241648Y184565D02*
X241648Y193389D01*
X244797Y193389D01*
X244797Y184565D01*
X241648Y184565D01*
G37*
G54D17*
X602035Y230092D02*
X602035Y228413D01*
X602879Y227573D01*
X605409Y227573D01*
X606253Y228413D01*
X606253Y230092D01*
X606253Y229673D02*
X602035Y229673D01*
X606253Y224213D02*
X606253Y225473D01*
X605409Y226313D01*
X603722Y226313D01*
X602879Y226313D01*
X602035Y225473D01*
X602035Y224633D01*
X602879Y223793D01*
X603722Y223793D01*
X604566Y224633D01*
X604566Y225473D01*
X603722Y226313D01*
X231420Y194360D02*
X233100Y194360D01*
X233940Y195204D01*
X233940Y197735D01*
X233100Y198578D01*
X231420Y198578D01*
X231840Y198578D02*
X231840Y194360D01*
X237719Y198578D02*
X235199Y198578D01*
X235199Y196891D01*
X236879Y196891D01*
X237719Y196047D01*
X237719Y195204D01*
X236879Y194360D01*
X235199Y194360D01*
G54D18*
X612000Y237717D02*
X612000Y240079D01*
X612000Y214882D02*
X612000Y217441D01*
X245581Y188838D02*
X247943Y188838D01*
X222746Y188838D02*
X225306Y188838D01*
G54D19*
X612821Y215017D02*
X613665Y215017D01*
X614228Y214737D01*
X614228Y214457D01*
X613665Y214177D01*
X612821Y214177D01*
X613243Y215017D02*
X613243Y214177D01*
X613085Y241651D02*
X613365Y241933D01*
X613645Y241933D01*
X613925Y241651D01*
X613925Y240808D01*
X613645Y240526D01*
X613365Y240526D01*
X613085Y240808D01*
X222882Y188016D02*
X222882Y187173D01*
X222602Y186610D01*
X222322Y186610D01*
X222042Y187173D01*
X222042Y188016D01*
X222882Y187595D02*
X222042Y187595D01*
X249516Y187753D02*
X249797Y187473D01*
X249797Y187193D01*
X249516Y186913D01*
X248672Y186913D01*
X248391Y187193D01*
X248391Y187473D01*
X248672Y187753D01*
G54D20*
X593646Y271701D02*
X593646Y284299D01*
X574354Y284299D02*
X574354Y271701D01*
X593646Y271701D01*
X593646Y284299D02*
X574354Y284299D01*
X65827Y170689D02*
X66664Y171006D01*
X67470Y171394D01*
X68239Y171851D01*
X68966Y172374D01*
X69644Y172957D01*
X70269Y173598D01*
X70836Y174291D01*
X71340Y175030D01*
X71777Y175811D01*
X72145Y176627D01*
X72441Y177472D01*
X72662Y178339D01*
X72806Y179222D01*
X72873Y180114D01*
X72862Y181009D01*
X72772Y181900D01*
X72606Y182779D01*
X72363Y183641D01*
X72047Y184478D01*
X71658Y185284D01*
X71201Y186053D01*
X70679Y186780D01*
X70095Y187458D01*
X69454Y188083D01*
X68761Y188649D01*
X68022Y189154D01*
X67241Y189591D01*
X66426Y189959D01*
X65827Y190177D01*
X58156Y189659D02*
X57386Y189260D01*
X56654Y188794D01*
X56334Y188561D01*
X56331Y172295D02*
X57044Y171801D01*
X57798Y171371D01*
X58154Y171197D01*
G54D21*
X577307Y275638D02*
G75*
D01*
G02X577307Y275638I984J0*
G01*
G54D22*
X572681Y265402D02*
G75*
D01*
G02X572681Y265402I492J0*
G01*
X65937Y168819D02*
G75*
D01*
G02X65937Y168819I492J0*
G01*
G54D23*
X367016Y280000D03*
X270984Y124000D03*
X376984Y227000D03*
X614984Y380000D03*
G54D24*
X369031Y290000D03*
X268969Y114000D03*
X376969Y216000D03*
X612969Y370000D03*

M02*
