M48
INCH,TZ
VER,1
FMAT,2
DETECT,ON
ATC,ON
T1C0.02362
T2C0.14950
T3C0.03917
T4C0.03500
T5C0.03200
T6C0.02559
T7C0.04667
T8C0.03700
T9C0.05906
T10C0.03543
T11C0.02598
T12C0.03937
T13C0.04724
T14C0.06102
T15C0.02953
T16C0.05118
T17C0.05118
%
T1
X3.92000Y2.43000
X0.24157Y2.34000
X0.43843
X3.54283Y1.56000
X3.89717
X3.70157Y1.34000
X3.89843
X2.76000Y0.34157
Y0.53843
X6.00000Y3.08157
Y3.27843
X3.66000Y3.81843
Y3.62157
X2.50000Y3.81843
Y3.62157
X1.34000Y3.79843
Y3.60157
X3.99843Y2.80000
X3.80157
X4.17843Y2.64000
X3.98157
X3.98000Y0.20157
Y0.39843
X2.24000Y1.19843
Y1.00157
X5.16000Y0.20157
Y0.39843
T2
X6.29000Y0.21000
X0.21000
X6.29000Y3.17000
X0.21000Y3.89000
T3
X2.50000Y0.32000
X3.90000Y3.86000
X2.30000Y0.78000
X6.16000Y2.82000
X3.80000Y2.56000
X0.66000Y2.44000
X3.80000Y1.78000
X6.24000Y1.18000
T4
X2.60000Y0.32000
X4.00000Y3.86000
X3.80000Y3.20000
X3.90000Y2.90000
X4.10000
X4.00000
X4.10000Y3.20000
X3.90000
X4.00000
X3.80000Y2.90000
X2.30000Y0.88000
X6.16000Y2.92000
X3.50000Y2.56000
X3.60000
X3.70000
X3.30000
X3.40000
X3.20000
X3.00000
X3.10000
X2.90000
X0.66000Y2.54000
X3.50000Y1.78000
X3.60000
X3.70000
X3.30000
X3.40000
X3.20000
X3.00000
X3.10000
X2.90000
X6.24000Y1.28000
X0.70000Y1.88433
Y1.98866
Y1.78000
X6.18000Y3.56000
X6.08000Y3.86000
X5.88000
X5.98000
X5.88000Y3.56000
X6.08000
X5.98000
X6.18000Y3.86000
X3.80000Y2.02000
X3.70000Y2.32000
X3.50000
X3.60000
X3.40000
X3.20000
X3.30000
X3.10000
X3.00000
X2.90000
X3.20000Y2.02000
X3.50000
X3.70000
X3.60000
X3.40000
X3.30000
X3.10000
X3.00000
X2.90000
X3.80000Y2.32000
X2.74000Y1.00000
X2.64000Y1.30000
X2.44000
X2.54000
X2.44000Y1.00000
X2.64000
X2.54000
X2.74000Y1.30000
T5
X0.30500Y3.40000
X1.21500
X2.62500
X3.53500
X1.46500
X2.37500
X6.19500Y0.70000
X5.28500
X3.83500
X2.92500
X5.01500
X4.10500
T6
X3.85079Y3.60000
X3.94921
X2.74000Y0.88921
Y0.79079
T7
X3.90000Y3.40000
X4.10000
X4.00000
X2.52000Y0.82000
Y0.62000
Y0.72000
T8
X4.82000Y3.22000
X5.34000
X1.20000Y0.36000
Y0.88000
T9
X2.69559Y2.68000
X2.14441
X2.06000Y0.89559
Y0.34441
X4.52000Y3.77559
Y3.22441
X2.88441Y1.42000
X3.43559
T10
X2.12441Y2.36000
X2.67559
X2.63348Y1.77965
X2.12167
X5.84000Y1.28441
Y1.83559
X0.68000Y1.10441
Y1.65559
X2.67559Y1.58000
X2.12441
X5.78000Y2.55181
Y2.04000
X6.20000Y2.16000
Y2.56000
X2.23865Y1.96838
X2.63865
T11
X2.32419Y2.13965
X2.63915
X0.18252Y2.14000
X0.49748
X6.23748Y3.42000
X5.92252
X5.70000Y3.54252
Y3.85748
X6.02000Y2.24252
Y2.55748
T12
X0.65000Y2.22000
X0.75000
X6.15000Y1.52000
X6.25000
X0.35000Y1.64000
X0.25000
T13
X4.10181Y1.90000
X5.57819
X1.44000Y2.63819
Y1.16181
T14
X0.49843Y1.99315
X0.30157
X0.40000Y1.88685
T15
X5.70000Y3.30890
Y3.17110
X0.23110Y0.70000
X0.36890
T16
X0.32000Y2.58157
X6.14000Y1.95843
X0.32000Y1.10157
T17
X0.32000Y2.77843
X6.14000Y1.76157
X0.32000Y1.29843
M30
