G04 Generated by Ultiboard 13.0 *
%FSLAX25Y25*%
%MOIN*%

%ADD10C,0.00001*%
%ADD11C,0.00005*%
%ADD12C,0.05000*%
%ADD13C,0.02000*%
%ADD14C,0.06000*%
%ADD15C,0.03000*%
%ADD16C,0.04000*%
%ADD17C,0.08000*%
%ADD18C,0.00500*%
%ADD19C,0.09200*%
%ADD20C,0.05709*%
%ADD21C,0.07834*%
%ADD22C,0.04900*%
%ADD23R,0.04900X0.04900*%
%ADD24C,0.09843*%
%ADD25C,0.11024*%
%ADD26R,0.11024X0.11024*%
%ADD27R,0.05709X0.05709*%
%ADD28C,0.11574*%
%ADD29R,0.02083X0.02083*%
%ADD30C,0.03917*%
%ADD31C,0.06334*%
%ADD32C,0.05906*%
%ADD33R,0.05906X0.05906*%
%ADD34C,0.12598*%
%ADD35C,0.06299*%
%ADD36C,0.07087*%
%ADD37C,0.05354*%
%ADD38R,0.02362X0.06102*%
%ADD39C,0.03937*%
%ADD40C,0.08858*%


G04 ColorRGB 00FF00 for the following layer *
%LNCopper Top*%
%LPD*%
G54D10*
G36*
X615869Y337678D02*
X615869Y337678D01*
X616000Y337808D01*
X616000Y372000D01*
X544000Y372000D01*
X544000Y318022D01*
X557110Y318022D01*
G74*
D01*
G02X559957Y316841I0J4022*
G01*
X559957Y316841D01*
X563826Y312972D01*
X564854Y312972D01*
G74*
D01*
G02X565862Y311965I1J1007*
G01*
X565862Y311965D01*
X565862Y310234D01*
G74*
D01*
G02X566022Y309110I3862J1123*
G01*
X566022Y309110D01*
X566022Y272000D01*
X601733Y272000D01*
X603983Y274250D01*
X603983Y275042D01*
G75*
D01*
G02X606959Y278017I2976J-1*
G01*
X606959Y278017D01*
X609042Y278017D01*
G74*
D01*
G02X612017Y275042I0J2975*
G01*
X612017Y275042D01*
X612017Y272959D01*
G75*
D01*
G02X611858Y272000I-2975J1*
G01*
X611858Y272000D01*
X616000Y272000D01*
X616000Y330329D01*
G75*
D01*
G02X612810Y331785I-252J3670*
G01*
G74*
D01*
G02X612222Y332222I1190J2215*
G01*
X612222Y332222D01*
X600077Y344367D01*
G75*
D01*
G02X603633Y347923I-76J3632*
G01*
X603633Y347923D01*
X614212Y337344D01*
G75*
D01*
G02X615869Y337678I1536J-3343*
G01*
D02*
G37*
%LPC*%
G36*
X582781Y358775D02*
X582781Y358775D01*
X589090Y352466D01*
X589096Y352461D01*
X589923Y351633D01*
G75*
D01*
G02X589923Y344367I0J-3633*
G01*
X589923Y344367D01*
X586767Y341210D01*
X586767Y336686D01*
G75*
D01*
G02X581737Y336686I-2515J-2685*
G01*
X581737Y336686D01*
X581737Y342249D01*
G75*
D01*
G02X582474Y344030I2515J2*
G01*
X582474Y344030D01*
X586367Y347923D01*
G75*
D01*
G02X586367Y348077I3632J77*
G01*
X586367Y348077D01*
X581977Y352466D01*
X581977Y352466D01*
X579958Y354485D01*
X573790Y354485D01*
X571771Y352466D01*
X571771Y352466D01*
X565678Y346373D01*
G75*
D01*
G02X562121Y349930I-3677J-120*
G01*
X562121Y349930D01*
X564658Y352466D01*
X570970Y358778D01*
G74*
D01*
G02X572102Y359430I1778J1778*
G01*
G75*
D01*
G02X572748Y359515I648J-2429*
G01*
X572748Y359515D01*
X580996Y359515D01*
G75*
D01*
G02X581910Y359344I2J-2515*
G01*
G74*
D01*
G02X582781Y358775I910J2344*
G01*
D02*
G37*
G36*
X592681Y284571D02*
X592681Y284571D01*
X590319Y284571D01*
G75*
D01*
G02X589312Y285579I1J1008*
G01*
X589312Y285579D01*
X589312Y285613D01*
X588688Y285613D01*
X588688Y285579D01*
G75*
D01*
G02X587681Y284571I-1007J-1*
G01*
X587681Y284571D01*
X585319Y284571D01*
G75*
D01*
G02X584312Y285579I1J1008*
G01*
X584312Y285579D01*
X584312Y286553D01*
G74*
D01*
G02X583722Y287453I2187J2077*
G01*
G74*
D01*
G02X583688Y287391I2221J1178*
G01*
X583688Y287391D01*
X583688Y285579D01*
G75*
D01*
G02X582681Y284571I-1007J-1*
G01*
X582681Y284571D01*
X580319Y284571D01*
G75*
D01*
G02X579312Y285579I1J1008*
G01*
X579312Y285579D01*
X579312Y287391D01*
G75*
D01*
G02X578985Y288630I2187J1240*
G01*
X578985Y288630D01*
X578985Y299458D01*
X572222Y306222D01*
G75*
D01*
G02X571485Y308004I1777J1778*
G01*
X571485Y308004D01*
X571485Y341995D01*
G75*
D01*
G02X572222Y343778I2515J4*
G01*
X572222Y343778D01*
X576367Y347923D01*
G75*
D01*
G02X579923Y344367I3632J76*
G01*
X579923Y344367D01*
X576515Y340958D01*
X576515Y309042D01*
X583275Y302281D01*
G74*
D01*
G02X584015Y300500I1774J1781*
G01*
X584015Y300500D01*
X584015Y290340D01*
G74*
D01*
G02X584312Y290707I2486J1708*
G01*
X584312Y290707D01*
X584312Y291681D01*
G75*
D01*
G02X585319Y292688I1007J0*
G01*
X585319Y292688D01*
X587681Y292688D01*
G74*
D01*
G02X588688Y291681I0J1007*
G01*
X588688Y291681D01*
X588688Y291647D01*
X589312Y291647D01*
X589312Y291681D01*
G75*
D01*
G02X590319Y292688I1007J0*
G01*
X590319Y292688D01*
X592681Y292688D01*
G74*
D01*
G02X593688Y291681I0J1007*
G01*
X593688Y291681D01*
X593688Y291647D01*
X603370Y291647D01*
G74*
D01*
G02X605506Y290760I1J3017*
G01*
X605506Y290760D01*
X608098Y288168D01*
G75*
D01*
G02X603832Y283902I-98J-4168*
G01*
X603832Y283902D01*
X602120Y285613D01*
X593688Y285613D01*
X593688Y285579D01*
G75*
D01*
G02X592681Y284571I-1007J-1*
G01*
D02*
G37*
G36*
X611289Y351397D02*
G74*
D01*
G02X613397Y349289I1289J3397*
G01*
X613397Y349289D01*
X611289Y349289D01*
X611289Y351397D01*
D02*
G37*
G36*
X601690Y310000D02*
G75*
D01*
G02X601690Y310000I4153J0*
G01*
D02*
G37*
G36*
X613397Y346711D02*
G74*
D01*
G02X611289Y344603I3397J1289*
G01*
X611289Y344603D01*
X611289Y346711D01*
X613397Y346711D01*
D02*
G37*
G36*
X608711Y344603D02*
G74*
D01*
G02X606603Y346711I1289J3397*
G01*
X606603Y346711D01*
X608711Y346711D01*
X608711Y344603D01*
D02*
G37*
G36*
X608250Y348000D02*
G75*
D01*
G02X608250Y348000I1750J0*
G01*
D02*
G37*
G36*
X606603Y349289D02*
G74*
D01*
G02X608711Y351397I3397J1289*
G01*
X608711Y351397D01*
X608711Y349289D01*
X606603Y349289D01*
D02*
G37*
G36*
X584685Y306118D02*
G74*
D01*
G02X582275Y308528I1471J3881*
G01*
X582275Y308528D01*
X584685Y308528D01*
X584685Y306118D01*
D02*
G37*
G36*
X574312Y285579D02*
X574312Y285579D01*
X574312Y287854D01*
X575724Y287854D01*
X575724Y284571D01*
X575319Y284571D01*
G75*
D01*
G02X574312Y285579I1J1008*
G01*
D02*
G37*
G36*
X575319Y292688D02*
X575319Y292688D01*
X575724Y292688D01*
X575724Y289406D01*
X574312Y289406D01*
X574312Y291681D01*
G75*
D01*
G02X575319Y292688I1007J0*
G01*
D02*
G37*
G36*
X577681Y292688D02*
G74*
D01*
G02X578688Y291681I0J1007*
G01*
X578688Y291681D01*
X578688Y289406D01*
X577276Y289406D01*
X577276Y292688D01*
X577681Y292688D01*
D02*
G37*
G36*
X577681Y284571D02*
X577681Y284571D01*
X577276Y284571D01*
X577276Y287854D01*
X578688Y287854D01*
X578688Y285579D01*
G75*
D01*
G02X577681Y284571I-1007J-1*
G01*
D02*
G37*
G36*
X590040Y308528D02*
G74*
D01*
G02X587630Y306118I3882J1472*
G01*
X587630Y306118D01*
X587630Y308528D01*
X590040Y308528D01*
D02*
G37*
G36*
X582275Y311472D02*
G74*
D01*
G02X584685Y313882I3881J1471*
G01*
X584685Y313882D01*
X584685Y311472D01*
X582275Y311472D01*
D02*
G37*
G36*
X587630Y313882D02*
G74*
D01*
G02X590040Y311472I1472J3882*
G01*
X590040Y311472D01*
X587630Y311472D01*
X587630Y313882D01*
D02*
G37*
G36*
X584976Y310000D02*
G75*
D01*
G02X584976Y310000I1181J0*
G01*
D02*
G37*
G36*
X558143Y322890D02*
G75*
D01*
G02X558143Y322890I3857J0*
G01*
D02*
G37*
%LPD*%
G36*
X18139Y253000D02*
G75*
D01*
G03X29861Y253000I5861J-2843*
G01*
X29861Y253000D01*
X77000Y253000D01*
X77000Y164000D01*
X4000Y164000D01*
X4000Y253000D01*
X18139Y253000D01*
D02*
G37*
%LPC*%
G36*
X63226Y168751D02*
X63226Y168751D01*
X63226Y166543D01*
X64450Y166543D01*
G75*
D01*
G03X65457Y167550I0J1007*
G01*
X65457Y167550D01*
X65457Y168774D01*
X63249Y168774D01*
G75*
D01*
G03X63249Y171226I-1249J1226*
G01*
X63249Y171226D01*
X65457Y171226D01*
X65457Y172450D01*
G74*
D01*
G03X64450Y173457I1007J0*
G01*
X64450Y173457D01*
X63226Y173457D01*
X63226Y171249D01*
G75*
D01*
G03X60774Y171249I-1226J-1249*
G01*
X60774Y171249D01*
X60774Y173457D01*
X59550Y173457D01*
G75*
D01*
G03X58543Y172450I0J-1007*
G01*
X58543Y172450D01*
X58543Y171226D01*
X60751Y171226D01*
G75*
D01*
G03X60751Y168774I1249J-1226*
G01*
X60751Y168774D01*
X58543Y168774D01*
X58543Y167550D01*
G75*
D01*
G03X59550Y166543I1007J0*
G01*
X59550Y166543D01*
X60774Y166543D01*
X60774Y168751D01*
G75*
D01*
G03X63226Y168751I1226J1249*
G01*
D02*
G37*
G36*
X58548Y180433D02*
G75*
D01*
G03X58548Y180433I3452J0*
G01*
D02*
G37*
G36*
X26568Y180685D02*
G75*
D01*
G03X26568Y180685I5432J0*
G01*
D02*
G37*
G36*
X16726Y191315D02*
G75*
D01*
G03X16726Y191315I5431J0*
G01*
D02*
G37*
G36*
X59693Y188298D02*
G75*
D01*
G03X61862Y194316I2306J2569*
G01*
G74*
D01*
G03X61551Y194332I310J3001*
G01*
X61551Y194332D01*
X46359Y194332D01*
G75*
D01*
G03X46359Y188298I-4516J-3017*
G01*
X46359Y188298D01*
X59693Y188298D01*
D02*
G37*
G36*
X6572Y206000D02*
G75*
D01*
G03X6572Y206000I3680J0*
G01*
D02*
G37*
G36*
X62750Y215612D02*
X62750Y215612D01*
X65388Y215612D01*
X65388Y218250D01*
G74*
D01*
G03X62750Y215612I1612J4250*
G01*
D02*
G37*
G36*
X68612Y218250D02*
X68612Y218250D01*
X68612Y215612D01*
X71250Y215612D01*
G74*
D01*
G03X68612Y218250I4250J1612*
G01*
D02*
G37*
G36*
X71250Y212388D02*
X71250Y212388D01*
X68612Y212388D01*
X68612Y209750D01*
G74*
D01*
G03X71250Y212388I1612J4250*
G01*
D02*
G37*
G36*
X65388Y209750D02*
X65388Y209750D01*
X65388Y212388D01*
X62750Y212388D01*
G74*
D01*
G03X65388Y209750I4250J1612*
G01*
D02*
G37*
G36*
X65031Y214000D02*
G75*
D01*
G03X65031Y214000I1969J0*
G01*
D02*
G37*
G36*
X52462Y213729D02*
X52462Y213729D01*
X47750Y209017D01*
X43855Y209017D01*
G75*
D01*
G03X43855Y202983I-2105J-3017*
G01*
X43855Y202983D01*
X48999Y202983D01*
G75*
D01*
G03X49043Y202983I22J3017*
G01*
G74*
D01*
G03X51136Y203870I44J3017*
G01*
X51136Y203870D01*
X56729Y209462D01*
G75*
D01*
G03X52462Y213729I271J4538*
G01*
D02*
G37*
G36*
X12005Y226000D02*
G75*
D01*
G03X12005Y226000I4152J0*
G01*
D02*
G37*
G36*
X31960Y227472D02*
X31960Y227472D01*
X34370Y227472D01*
X34370Y229882D01*
G74*
D01*
G03X31960Y227472I1472J3882*
G01*
D02*
G37*
G36*
X37315Y229882D02*
X37315Y229882D01*
X37315Y227472D01*
X39725Y227472D01*
G74*
D01*
G03X37315Y229882I3881J1471*
G01*
D02*
G37*
G36*
X39725Y224528D02*
X39725Y224528D01*
X37315Y224528D01*
X37315Y222118D01*
G74*
D01*
G03X39725Y224528I1471J3881*
G01*
D02*
G37*
G36*
X34370Y222118D02*
X34370Y222118D01*
X34370Y224528D01*
X31960Y224528D01*
G74*
D01*
G03X34370Y222118I3882J1472*
G01*
D02*
G37*
G36*
X34661Y226000D02*
G75*
D01*
G03X34661Y226000I1182J0*
G01*
D02*
G37*
G36*
X59424Y232008D02*
G74*
D01*
G03X61992Y234576I381J2949*
G01*
X61992Y234576D01*
X59424Y234576D01*
X59424Y232008D01*
D02*
G37*
G36*
X61992Y237424D02*
G74*
D01*
G03X59424Y239992I2949J381*
G01*
X59424Y239992D01*
X59424Y237424D01*
X61992Y237424D01*
D02*
G37*
G36*
X56576Y239992D02*
G74*
D01*
G03X54008Y237424I381J2949*
G01*
X54008Y237424D01*
X56576Y237424D01*
X56576Y239992D01*
D02*
G37*
G36*
X54008Y234576D02*
G74*
D01*
G03X56576Y232008I2950J382*
G01*
X56576Y232008D01*
X56576Y234576D01*
X54008Y234576D01*
D02*
G37*
G36*
X56042Y236000D02*
G75*
D01*
G03X56042Y236000I1958J0*
G01*
D02*
G37*
G36*
X53831Y246000D02*
G75*
D01*
G03X53831Y246000I4169J0*
G01*
D02*
G37*
%LPD*%
G54D11*
X63226Y168751D02*
X63226Y166543D01*
X64450Y166543D01*
G75*
D01*
G03X65457Y167550I0J1007*
G01*
X65457Y168774D01*
X63249Y168774D01*
G75*
D01*
G03X63249Y171226I-1249J1226*
G01*
X65457Y171226D01*
X65457Y172450D01*
G74*
D01*
G03X64450Y173457I1007J0*
G01*
X63226Y173457D01*
X63226Y171249D01*
G75*
D01*
G03X60774Y171249I-1226J-1249*
G01*
X60774Y173457D01*
X59550Y173457D01*
G75*
D01*
G03X58543Y172450I0J-1007*
G01*
X58543Y171226D01*
X60751Y171226D01*
G75*
D01*
G03X60751Y168774I1249J-1226*
G01*
X58543Y168774D01*
X58543Y167550D01*
G75*
D01*
G03X59550Y166543I1007J0*
G01*
X60774Y166543D01*
X60774Y168751D01*
G75*
D01*
G03X63226Y168751I1226J1249*
G01*
X58548Y180433D02*
G75*
D01*
G03X58548Y180433I3452J0*
G01*
X26568Y180685D02*
G75*
D01*
G03X26568Y180685I5432J0*
G01*
X16726Y191315D02*
G75*
D01*
G03X16726Y191315I5431J0*
G01*
X59693Y188298D02*
G75*
D01*
G03X61862Y194316I2306J2569*
G01*
G74*
D01*
G03X61551Y194332I310J3001*
G01*
X46359Y194332D01*
G75*
D01*
G03X46359Y188298I-4516J-3017*
G01*
X59693Y188298D01*
X6572Y206000D02*
G75*
D01*
G03X6572Y206000I3680J0*
G01*
X62750Y215612D02*
X65388Y215612D01*
X65388Y218250D01*
G74*
D01*
G03X62750Y215612I1612J4250*
G01*
X68612Y218250D02*
X68612Y215612D01*
X71250Y215612D01*
G74*
D01*
G03X68612Y218250I4250J1612*
G01*
X71250Y212388D02*
X68612Y212388D01*
X68612Y209750D01*
G74*
D01*
G03X71250Y212388I1612J4250*
G01*
X65388Y209750D02*
X65388Y212388D01*
X62750Y212388D01*
G74*
D01*
G03X65388Y209750I4250J1612*
G01*
X65031Y214000D02*
G75*
D01*
G03X65031Y214000I1969J0*
G01*
X52462Y213729D02*
X47750Y209017D01*
X43855Y209017D01*
G75*
D01*
G03X43855Y202983I-2105J-3017*
G01*
X48999Y202983D01*
G75*
D01*
G03X49043Y202983I22J3017*
G01*
G74*
D01*
G03X51136Y203870I44J3017*
G01*
X56729Y209462D01*
G75*
D01*
G03X52462Y213729I271J4538*
G01*
X12005Y226000D02*
G75*
D01*
G03X12005Y226000I4152J0*
G01*
X31960Y227472D02*
X34370Y227472D01*
X34370Y229882D01*
G74*
D01*
G03X31960Y227472I1472J3882*
G01*
X37315Y229882D02*
X37315Y227472D01*
X39725Y227472D01*
G74*
D01*
G03X37315Y229882I3881J1471*
G01*
X39725Y224528D02*
X37315Y224528D01*
X37315Y222118D01*
G74*
D01*
G03X39725Y224528I1471J3881*
G01*
X34370Y222118D02*
X34370Y224528D01*
X31960Y224528D01*
G74*
D01*
G03X34370Y222118I3882J1472*
G01*
X34661Y226000D02*
G75*
D01*
G03X34661Y226000I1182J0*
G01*
X59424Y232008D02*
G74*
D01*
G03X61992Y234576I381J2949*
G01*
X59424Y234576D01*
X59424Y232008D01*
X61992Y237424D02*
G74*
D01*
G03X59424Y239992I2949J381*
G01*
X59424Y237424D01*
X61992Y237424D01*
X56576Y239992D02*
G74*
D01*
G03X54008Y237424I381J2949*
G01*
X56576Y237424D01*
X56576Y239992D01*
X54008Y234576D02*
G74*
D01*
G03X56576Y232008I2950J382*
G01*
X56576Y234576D01*
X54008Y234576D01*
X56042Y236000D02*
G75*
D01*
G03X56042Y236000I1958J0*
G01*
X53831Y246000D02*
G75*
D01*
G03X53831Y246000I4169J0*
G01*
X18139Y253000D02*
G75*
D01*
G03X29861Y253000I5861J-2843*
G01*
X77000Y253000D01*
X77000Y164000D01*
X4000Y164000D01*
X4000Y253000D01*
X18139Y253000D01*
X582781Y358775D02*
X589090Y352466D01*
X589096Y352461D01*
X589923Y351633D01*
G75*
D01*
G02X589923Y344367I0J-3633*
G01*
X586767Y341210D01*
X586767Y336686D01*
G75*
D01*
G02X581737Y336686I-2515J-2685*
G01*
X581737Y342249D01*
G75*
D01*
G02X582474Y344030I2515J2*
G01*
X586367Y347923D01*
G75*
D01*
G02X586367Y348077I3632J77*
G01*
X581977Y352466D01*
X581977Y352466D01*
X579958Y354485D01*
X573790Y354485D01*
X571771Y352466D01*
X571771Y352466D01*
X565678Y346373D01*
G75*
D01*
G02X562121Y349930I-3677J-120*
G01*
X564658Y352466D01*
X570970Y358778D01*
G74*
D01*
G02X572102Y359430I1778J1778*
G01*
G75*
D01*
G02X572748Y359515I648J-2429*
G01*
X580996Y359515D01*
G75*
D01*
G02X581910Y359344I2J-2515*
G01*
G74*
D01*
G02X582781Y358775I910J2344*
G01*
X592681Y284571D02*
X590319Y284571D01*
G75*
D01*
G02X589312Y285579I1J1008*
G01*
X589312Y285613D01*
X588688Y285613D01*
X588688Y285579D01*
G75*
D01*
G02X587681Y284571I-1007J-1*
G01*
X585319Y284571D01*
G75*
D01*
G02X584312Y285579I1J1008*
G01*
X584312Y286553D01*
G74*
D01*
G02X583722Y287453I2187J2077*
G01*
G74*
D01*
G02X583688Y287391I2221J1178*
G01*
X583688Y285579D01*
G75*
D01*
G02X582681Y284571I-1007J-1*
G01*
X580319Y284571D01*
G75*
D01*
G02X579312Y285579I1J1008*
G01*
X579312Y287391D01*
G75*
D01*
G02X578985Y288630I2187J1240*
G01*
X578985Y299458D01*
X572222Y306222D01*
G75*
D01*
G02X571485Y308004I1777J1778*
G01*
X571485Y341995D01*
G75*
D01*
G02X572222Y343778I2515J4*
G01*
X576367Y347923D01*
G75*
D01*
G02X579923Y344367I3632J76*
G01*
X576515Y340958D01*
X576515Y309042D01*
X583275Y302281D01*
G74*
D01*
G02X584015Y300500I1774J1781*
G01*
X584015Y290340D01*
G74*
D01*
G02X584312Y290707I2486J1708*
G01*
X584312Y291681D01*
G75*
D01*
G02X585319Y292688I1007J0*
G01*
X587681Y292688D01*
G74*
D01*
G02X588688Y291681I0J1007*
G01*
X588688Y291647D01*
X589312Y291647D01*
X589312Y291681D01*
G75*
D01*
G02X590319Y292688I1007J0*
G01*
X592681Y292688D01*
G74*
D01*
G02X593688Y291681I0J1007*
G01*
X593688Y291647D01*
X603370Y291647D01*
G74*
D01*
G02X605506Y290760I1J3017*
G01*
X608098Y288168D01*
G75*
D01*
G02X603832Y283902I-98J-4168*
G01*
X602120Y285613D01*
X593688Y285613D01*
X593688Y285579D01*
G75*
D01*
G02X592681Y284571I-1007J-1*
G01*
X611289Y351397D02*
G74*
D01*
G02X613397Y349289I1289J3397*
G01*
X611289Y349289D01*
X611289Y351397D01*
X601690Y310000D02*
G75*
D01*
G02X601690Y310000I4153J0*
G01*
X613397Y346711D02*
G74*
D01*
G02X611289Y344603I3397J1289*
G01*
X611289Y346711D01*
X613397Y346711D01*
X608711Y344603D02*
G74*
D01*
G02X606603Y346711I1289J3397*
G01*
X608711Y346711D01*
X608711Y344603D01*
X608250Y348000D02*
G75*
D01*
G02X608250Y348000I1750J0*
G01*
X606603Y349289D02*
G74*
D01*
G02X608711Y351397I3397J1289*
G01*
X608711Y349289D01*
X606603Y349289D01*
X584685Y306118D02*
G74*
D01*
G02X582275Y308528I1471J3881*
G01*
X584685Y308528D01*
X584685Y306118D01*
X574312Y285579D02*
X574312Y287854D01*
X575724Y287854D01*
X575724Y284571D01*
X575319Y284571D01*
G75*
D01*
G02X574312Y285579I1J1008*
G01*
X575319Y292688D02*
X575724Y292688D01*
X575724Y289406D01*
X574312Y289406D01*
X574312Y291681D01*
G75*
D01*
G02X575319Y292688I1007J0*
G01*
X577681Y292688D02*
G74*
D01*
G02X578688Y291681I0J1007*
G01*
X578688Y289406D01*
X577276Y289406D01*
X577276Y292688D01*
X577681Y292688D01*
X577681Y284571D02*
X577276Y284571D01*
X577276Y287854D01*
X578688Y287854D01*
X578688Y285579D01*
G75*
D01*
G02X577681Y284571I-1007J-1*
G01*
X590040Y308528D02*
G74*
D01*
G02X587630Y306118I3882J1472*
G01*
X587630Y308528D01*
X590040Y308528D01*
X582275Y311472D02*
G74*
D01*
G02X584685Y313882I3881J1471*
G01*
X584685Y311472D01*
X582275Y311472D01*
X587630Y313882D02*
G74*
D01*
G02X590040Y311472I1472J3882*
G01*
X587630Y311472D01*
X587630Y313882D01*
X584976Y310000D02*
G75*
D01*
G02X584976Y310000I1181J0*
G01*
X558143Y322890D02*
G75*
D01*
G02X558143Y322890I3857J0*
G01*
X615869Y337678D02*
X616000Y337808D01*
X616000Y372000D01*
X544000Y372000D01*
X544000Y318022D01*
X557110Y318022D01*
G74*
D01*
G02X559957Y316841I0J4022*
G01*
X563826Y312972D01*
X564854Y312972D01*
G74*
D01*
G02X565862Y311965I1J1007*
G01*
X565862Y310234D01*
G74*
D01*
G02X566022Y309110I3862J1123*
G01*
X566022Y272000D01*
X601733Y272000D01*
X603983Y274250D01*
X603983Y275042D01*
G75*
D01*
G02X606959Y278017I2976J-1*
G01*
X609042Y278017D01*
G74*
D01*
G02X612017Y275042I0J2975*
G01*
X612017Y272959D01*
G75*
D01*
G02X611858Y272000I-2975J1*
G01*
X616000Y272000D01*
X616000Y330329D01*
G75*
D01*
G02X612810Y331785I-252J3670*
G01*
G74*
D01*
G02X612222Y332222I1190J2215*
G01*
X600077Y344367D01*
G75*
D01*
G02X603633Y347923I-76J3632*
G01*
X614212Y337344D01*
G75*
D01*
G02X615869Y337678I1536J-3343*
G01*
G54D12*
X382000Y268000D02*
X382000Y282000D01*
X382000Y268000D02*
X377000Y263000D01*
X295000Y263000D02*
X377000Y263000D01*
X295000Y263000D02*
X292000Y260000D01*
X292000Y224000D02*
X292000Y260000D01*
X292000Y166000D02*
X292000Y194000D01*
X292000Y166000D02*
X256000Y130000D01*
X256000Y122000D01*
X244000Y74000D02*
X256000Y86000D01*
X256000Y92000D01*
X382000Y312000D02*
X382000Y332000D01*
X244000Y74000D02*
X222000Y74000D01*
G54D13*
X382000Y332000D02*
X382000Y378000D01*
G54D14*
X24000Y269843D02*
X24000Y330500D01*
X22500Y332000D01*
X229500Y332000D02*
X254500Y332000D01*
X242000Y354157D02*
X242000Y332000D01*
X345500Y341657D02*
X358000Y354157D01*
X345500Y316500D02*
X345500Y341657D01*
X345500Y316500D02*
X362000Y300000D01*
X388000Y300000D01*
X392000Y304000D01*
X392000Y332000D01*
X402000Y312000D02*
X392000Y312000D01*
X372000Y282000D02*
X372000Y300000D01*
X372157Y272000D02*
X372157Y281843D01*
X372157Y272000D02*
X290000Y272000D01*
X259559Y241559D01*
X259559Y228000D01*
X206441Y260000D02*
X178000Y260000D01*
X141000Y297000D01*
X24000Y297000D01*
X204441Y228000D02*
X229559Y228000D01*
X261559Y260000D01*
X402000Y332000D02*
X419559Y314441D01*
X473559Y314441D01*
X526000Y314000D02*
X557110Y314000D01*
X562000Y309110D01*
X562000Y262000D01*
X549819Y249819D01*
X549819Y182000D01*
X576500Y267370D02*
X562630Y267370D01*
X591500Y267370D02*
X591500Y262500D01*
X581000Y252000D01*
X570000Y196000D02*
X579000Y196000D01*
X581000Y198000D01*
X520500Y62000D02*
X493500Y62000D01*
X508000Y31843D02*
X508000Y62000D01*
X402500Y62000D02*
X375500Y62000D01*
X390000Y31843D02*
X390000Y62000D01*
X284500Y62000D02*
X258000Y62000D01*
X256000Y64000D01*
X244000Y64000D01*
X266000Y122000D02*
X284500Y103500D01*
X284500Y62000D01*
X246000Y92000D02*
X271000Y117000D01*
X216157Y92000D02*
X246000Y92000D01*
X186441Y54000D02*
X244000Y54000D01*
X186441Y54000D02*
X158441Y26000D01*
X82000Y26000D01*
X76000Y20000D01*
X335559Y134000D02*
X335559Y128441D01*
X353000Y111000D01*
X268000Y45843D02*
X268000Y62000D01*
X244000Y22000D02*
X244000Y31000D01*
X249000Y36000D01*
X258157Y36000D01*
X268000Y45843D01*
X234000Y22000D02*
X234000Y18000D01*
X238000Y14000D01*
X278000Y14000D01*
X353000Y111000D02*
X323000Y81000D01*
X323000Y59000D01*
X278000Y14000D01*
X216000Y92157D02*
X210843Y92157D01*
X204441Y98559D01*
X204441Y150000D01*
X113500Y332000D02*
X138500Y332000D01*
X126000Y352157D02*
X126000Y332000D01*
X581000Y252000D02*
X581000Y185157D01*
X617000Y157157D02*
X606000Y168157D01*
X598000Y168157D01*
X581000Y185157D01*
X617000Y121000D02*
X617000Y157157D01*
X617000Y121000D02*
X616000Y120000D01*
X615000Y111000D02*
X616000Y110000D01*
X353000Y111000D02*
X615000Y111000D01*
X616000Y110000D02*
X616000Y66500D01*
X611500Y62000D01*
G54D15*
X581500Y267370D02*
X576500Y267370D01*
X372000Y312000D02*
X372000Y346921D01*
X377079Y352000D01*
X386921Y352000D02*
X396000Y352000D01*
X402000Y346000D01*
X402000Y332000D01*
X576000Y157000D02*
X576000Y175559D01*
X615748Y334000D02*
X621000Y339252D01*
X621000Y378000D01*
X614000Y385000D01*
X547000Y385000D02*
X614000Y385000D01*
X547000Y385000D02*
X501000Y339000D01*
X501000Y307000D01*
X470000Y276000D01*
X388000Y263000D02*
X381000Y256000D01*
X370000Y256000D01*
X362000Y248000D01*
X407000Y276000D02*
X394000Y263000D01*
X388000Y263000D01*
X470000Y276000D02*
X407000Y276000D01*
X266000Y92000D02*
X266000Y80921D01*
X362000Y224000D02*
X362000Y248000D01*
X576000Y157000D02*
X589000Y144000D01*
X607000Y144000D01*
X580000Y348000D02*
X574000Y342000D01*
X574000Y308000D01*
X581500Y300500D01*
X581500Y288630D01*
X584252Y334000D02*
X584252Y342252D01*
X590000Y348000D01*
X581000Y357000D01*
X572748Y357000D01*
X562000Y346252D01*
X615748Y334000D02*
X614000Y334000D01*
X600000Y348000D01*
G54D16*
X586500Y267370D02*
X601370Y267370D01*
X608000Y274000D02*
X601370Y267370D01*
X255348Y169965D02*
X255348Y188321D01*
X255915Y205965D02*
X255915Y188888D01*
X41843Y191315D02*
X61551Y191315D01*
X322000Y224000D02*
X322000Y248000D01*
X372000Y248000D02*
X372000Y224000D01*
X362000Y194000D02*
X362000Y170000D01*
X352000Y194000D02*
X352000Y170000D01*
X342000Y194000D02*
X342000Y170000D01*
X322000Y194000D02*
X322000Y170000D01*
X312000Y194000D02*
X312000Y170000D01*
X302000Y194000D02*
X302000Y170000D01*
X282000Y194000D02*
X282000Y170000D01*
X352000Y224000D02*
X352000Y248000D01*
X342000Y224000D02*
X342000Y248000D01*
X332000Y224000D02*
X332000Y248000D01*
X302000Y224000D02*
X302000Y248000D01*
X282000Y224000D02*
X282000Y248000D01*
X612000Y248000D02*
X594252Y248000D01*
X312000Y224000D02*
X312000Y248000D01*
X332000Y162283D02*
X332000Y194000D01*
X332000Y162283D02*
X346283Y148000D01*
X381717Y126126D02*
X381717Y214283D01*
X372000Y224000D01*
X372000Y248000D02*
X382157Y248000D01*
X390157Y256000D01*
X398000Y256000D01*
X398000Y257000D01*
X409000Y268000D01*
X472000Y268000D01*
X508000Y304000D01*
X508000Y336000D01*
X521000Y349000D01*
X552000Y349000D01*
X372000Y224000D02*
X363000Y215000D01*
X570000Y247181D02*
X570000Y217000D01*
X561000Y208000D01*
X561000Y176000D01*
X554000Y169000D01*
X450000Y169000D01*
X384000Y235000D01*
X75000Y215000D02*
X363000Y215000D01*
X57000Y214000D02*
X49000Y206000D01*
X41748Y206000D01*
X58441Y156000D02*
X60000Y157559D01*
X586500Y288630D02*
X603370Y288630D01*
X27000Y156000D02*
X58441Y156000D01*
X603370Y288630D02*
X608000Y284000D01*
X372000Y194000D02*
X372000Y170000D01*
G54D17*
X184965Y169965D02*
X204167Y169965D01*
X136000Y121000D02*
X184965Y169965D01*
X136000Y72000D02*
X136000Y121000D01*
X76000Y72000D02*
X149110Y72000D01*
X155110Y66000D01*
X76000Y72000D02*
X26157Y121843D01*
X24000Y121843D02*
X24000Y133000D01*
X26157Y121843D02*
X24000Y121843D01*
X24000Y133000D02*
X17000Y140000D01*
X17000Y156000D01*
G54D18*
X-1500Y-1500D02*
X-1500Y38170D01*
X-1500Y-1500D02*
X61792Y-1500D01*
X631421Y-1500D02*
X568129Y-1500D01*
X631421Y-1500D02*
X631421Y38170D01*
X631421Y395201D02*
X631421Y355531D01*
X631421Y395201D02*
X568129Y395201D01*
X-1500Y395201D02*
X61792Y395201D01*
X-1500Y395201D02*
X-1500Y355531D01*
X-21185Y-1500D02*
X-60555Y-1500D01*
X-40870Y-21185D02*
X-40870Y18185D01*
X-55634Y-1500D02*
G75*
D01*
G02X-55634Y-1500I14764J0*
G01*
X651106Y-1500D02*
X690476Y-1500D01*
X670791Y-21185D02*
X670791Y18185D01*
X656028Y-1500D02*
G75*
D01*
G02X656028Y-1500I14763J0*
G01*
X665870Y-1500D02*
G75*
D01*
G02X665870Y-1500I4921J0*
G01*
X-21185Y395201D02*
X-60555Y395201D01*
X-40870Y375516D02*
X-40870Y414886D01*
X-55634Y395201D02*
G75*
D01*
G02X-55634Y395201I14764J0*
G01*
X-50713Y395201D02*
G75*
D01*
G02X-50713Y395201I9843J0*
G01*
X-45791Y395201D02*
G75*
D01*
G02X-45791Y395201I4921J0*
G01*
G54D19*
X254500Y332000D03*
X345500Y332000D03*
X22500Y332000D03*
X113500Y332000D03*
X138500Y332000D03*
X229500Y332000D03*
X611500Y62000D03*
X520500Y62000D03*
X493500Y62000D03*
X402500Y62000D03*
X375500Y62000D03*
X284500Y62000D03*
G54D20*
X377079Y352000D03*
X386921Y352000D03*
X562000Y322890D03*
X168890Y66000D03*
X266000Y80921D03*
X266000Y71079D03*
G54D21*
X382000Y332000D03*
X402000Y332000D03*
X392000Y332000D03*
X244000Y74000D03*
X244000Y54000D03*
X244000Y64000D03*
G54D22*
X372000Y312000D03*
X382000Y282000D03*
X402000Y282000D03*
X392000Y282000D03*
X402000Y312000D03*
X382000Y312000D03*
X392000Y312000D03*
X266000Y92000D03*
X256000Y122000D03*
X236000Y122000D03*
X246000Y122000D03*
X236000Y92000D03*
X256000Y92000D03*
X246000Y92000D03*
X62000Y180433D03*
X62000Y190866D03*
X372000Y194000D03*
X362000Y224000D03*
X342000Y224000D03*
X352000Y224000D03*
X332000Y224000D03*
X312000Y224000D03*
X322000Y224000D03*
X302000Y224000D03*
X292000Y224000D03*
X282000Y224000D03*
X312000Y194000D03*
X342000Y194000D03*
X362000Y194000D03*
X352000Y194000D03*
X332000Y194000D03*
X322000Y194000D03*
X302000Y194000D03*
X292000Y194000D03*
X282000Y194000D03*
X610000Y348000D03*
X600000Y378000D03*
X580000Y378000D03*
X590000Y378000D03*
X580000Y348000D03*
X600000Y348000D03*
X590000Y348000D03*
G54D23*
X372000Y282000D03*
X266000Y122000D03*
X62000Y170000D03*
X372000Y224000D03*
X610000Y378000D03*
G54D24*
X261559Y260000D03*
X206441Y260000D03*
X444000Y369559D03*
X444000Y314441D03*
X213559Y26000D03*
X158441Y26000D03*
X280441Y134000D03*
X335559Y134000D03*
G54D25*
X24000Y250157D03*
X24000Y102157D03*
X606000Y187843D03*
G54D26*
X24000Y269843D03*
X24000Y121843D03*
X606000Y168157D03*
G54D27*
X562000Y309110D03*
X155110Y66000D03*
G54D28*
X474000Y314000D03*
X526000Y314000D03*
X76000Y20000D03*
X76000Y72000D03*
G54D29*
X382000Y378000D03*
X58000Y236000D03*
X234000Y22000D03*
X608000Y274000D03*
X222000Y74000D03*
X372000Y170000D03*
X372000Y248000D03*
X616000Y110000D03*
G54D30*
X380959Y376959D02*
X383041Y376959D01*
X383041Y379041D01*
X380959Y379041D01*
X380959Y376959D01*D02*
X56959Y234959D02*
X59041Y234959D01*
X59041Y237041D01*
X56959Y237041D01*
X56959Y234959D01*D02*
X232959Y20959D02*
X235041Y20959D01*
X235041Y23041D01*
X232959Y23041D01*
X232959Y20959D01*D02*
X606959Y272959D02*
X609041Y272959D01*
X609041Y275041D01*
X606959Y275041D01*
X606959Y272959D01*D02*
X220959Y72959D02*
X223041Y72959D01*
X223041Y75041D01*
X220959Y75041D01*
X220959Y72959D01*D02*
X370959Y168959D02*
X373041Y168959D01*
X373041Y171041D01*
X370959Y171041D01*
X370959Y168959D01*D02*
X370959Y246959D02*
X373041Y246959D01*
X373041Y249041D01*
X370959Y249041D01*
X370959Y246959D01*D02*
X614959Y108959D02*
X617041Y108959D01*
X617041Y111041D01*
X614959Y111041D01*
X614959Y108959D01*D02*
G54D31*
X392000Y378000D03*
X58000Y246000D03*
X244000Y22000D03*
X608000Y284000D03*
X212000Y74000D03*
X342000Y170000D03*
X352000Y170000D03*
X362000Y170000D03*
X322000Y170000D03*
X332000Y170000D03*
X312000Y170000D03*
X292000Y170000D03*
X302000Y170000D03*
X282000Y170000D03*
X342000Y248000D03*
X352000Y248000D03*
X362000Y248000D03*
X322000Y248000D03*
X332000Y248000D03*
X312000Y248000D03*
X292000Y248000D03*
X302000Y248000D03*
X282000Y248000D03*
X616000Y120000D03*
G54D32*
X570000Y247181D03*
X612000Y208000D03*
X255348Y169965D03*
X215865Y188838D03*
G54D33*
X570000Y196000D03*
X612000Y248000D03*
X204167Y169965D03*
X255865Y188838D03*
G54D34*
X402181Y182000D03*
X549819Y182000D03*
X136000Y255819D03*
X136000Y108181D03*
G54D35*
X16157Y226000D03*
X35843Y226000D03*
X204441Y228000D03*
X259559Y228000D03*
X60000Y102441D03*
X60000Y157559D03*
X508000Y12157D03*
X508000Y31843D03*
X390000Y12157D03*
X390000Y31843D03*
X362157Y126000D03*
X381843Y126000D03*
X268000Y26157D03*
X268000Y45843D03*
X576000Y120441D03*
X576000Y175559D03*
X259559Y150000D03*
X204441Y150000D03*
X216000Y111843D03*
X216000Y92157D03*
X409843Y256000D03*
X390157Y256000D03*
X391843Y272000D03*
X372157Y272000D03*
X358000Y373843D03*
X358000Y354157D03*
X242000Y373843D03*
X242000Y354157D03*
X126000Y371843D03*
X126000Y352157D03*
X605843Y310000D03*
X586157Y310000D03*
G54D36*
X57000Y214000D03*
X67000Y214000D03*
X346283Y148000D03*
X381717Y148000D03*
X607000Y144000D03*
X617000Y144000D03*
X27000Y156000D03*
X17000Y156000D03*
G54D37*
X10252Y206000D03*
X41748Y206000D03*
X224419Y205965D03*
X255915Y205965D03*
X562000Y346252D03*
X562000Y377748D03*
X594000Y216252D03*
X594000Y247748D03*
X615748Y334000D03*
X584252Y334000D03*
G54D38*
X586500Y267370D03*
X591500Y267370D03*
X576500Y267370D03*
X581500Y267370D03*
X591500Y288630D03*
X586500Y288630D03*
X581500Y288630D03*
X576500Y288630D03*
G54D39*
X384000Y235000D03*
G54D40*
X41843Y191315D03*
X22157Y191315D03*
X32000Y180685D03*

M02*
