G04 Generated by Ultiboard 13.0 *
%FSLAX25Y25*%
%MOIN*%

%ADD11C,0.00004*%
%ADD12C,0.00500*%


G04 ColorRGB 00FFFF for the following layer *
%LNBoard Outline*%
%LPD*%
G54D10*
G54D11*
X0Y0D02*
X629921Y0D01*
X629921Y393701D01*
X0Y393701D01*
X0Y0D01*
G54D12*
X-1500Y-1500D02*
X-1500Y38170D01*
X-1500Y-1500D02*
X61792Y-1500D01*
X631421Y-1500D02*
X568129Y-1500D01*
X631421Y-1500D02*
X631421Y38170D01*
X631421Y395201D02*
X631421Y355531D01*
X631421Y395201D02*
X568129Y395201D01*
X-1500Y395201D02*
X61792Y395201D01*
X-1500Y395201D02*
X-1500Y355531D01*
X-21185Y-1500D02*
X-60555Y-1500D01*
X-40870Y-21185D02*
X-40870Y18185D01*
X-55634Y-1500D02*
G75*
D01*
G02X-55634Y-1500I14764J0*
G01*
X651106Y-1500D02*
X690476Y-1500D01*
X670791Y-21185D02*
X670791Y18185D01*
X656028Y-1500D02*
G75*
D01*
G02X656028Y-1500I14763J0*
G01*
X665870Y-1500D02*
G75*
D01*
G02X665870Y-1500I4921J0*
G01*
X-21185Y395201D02*
X-60555Y395201D01*
X-40870Y375516D02*
X-40870Y414886D01*
X-55634Y395201D02*
G75*
D01*
G02X-55634Y395201I14764J0*
G01*
X-50713Y395201D02*
G75*
D01*
G02X-50713Y395201I9843J0*
G01*
X-45791Y395201D02*
G75*
D01*
G02X-45791Y395201I4921J0*
G01*

M02*
