G04 Generated by Ultiboard 13.0 *
%FSLAX25Y25*%
%MOIN*%

%ADD10C,0.00001*%
%ADD11C,0.00039*%
%ADD12C,0.00394*%
%ADD13C,0.00004*%
%ADD14C,0.00500*%


G04 ColorRGB 000000 for the following layer *
%LNDrill Symbols-Copper Top-Copper Bottom*%
%LPD*%
G54D11*
X392000Y241819D02*
X392000Y244181D01*
X390819Y243000D02*
X393181Y243000D01*
X248042Y32000D02*
G75*
D01*
G02X248042Y32000I1958J0*
G01*
X258250Y30250D02*
X261750Y30250D01*
X261750Y33750D01*
X258250Y33750D01*
X258250Y30250D01*
X30500Y337737D02*
X32763Y340000D01*
X30500Y342263D01*
X28237Y340000D01*
X30500Y337737D01*
X121500Y337737D02*
X123763Y340000D01*
X121500Y342263D01*
X119237Y340000D01*
X121500Y337737D01*
X388042Y386000D02*
G75*
D01*
G02X388042Y386000I1958J0*
G01*
X398250Y384250D02*
X401750Y384250D01*
X401750Y387750D01*
X398250Y387750D01*
X398250Y384250D01*
X383799Y358720D02*
X386358Y358720D01*
X385079Y360905D01*
X383799Y358720D01*
X393642Y358720D02*
X396201Y358720D01*
X394921Y360905D01*
X393642Y358720D01*
X378250Y318250D02*
X381750Y318250D01*
X381750Y321750D01*
X378250Y321750D01*
X378250Y318250D01*
X388250Y288250D02*
X391750Y288250D01*
X391750Y291750D01*
X388250Y291750D01*
X388250Y288250D01*
X408250Y288250D02*
X411750Y288250D01*
X411750Y291750D01*
X408250Y291750D01*
X408250Y288250D01*
X398250Y288250D02*
X401750Y288250D01*
X401750Y291750D01*
X398250Y291750D01*
X398250Y288250D01*
X408250Y318250D02*
X411750Y318250D01*
X411750Y321750D01*
X408250Y321750D01*
X408250Y318250D01*
X388250Y318250D02*
X391750Y318250D01*
X391750Y321750D01*
X388250Y321750D01*
X388250Y318250D01*
X398250Y318250D02*
X401750Y318250D01*
X401750Y321750D01*
X398250Y321750D01*
X398250Y318250D01*
X378250Y288250D02*
X381750Y288250D01*
X381750Y291750D01*
X378250Y291750D01*
X378250Y288250D01*
X262500Y337737D02*
X264763Y340000D01*
X262500Y342263D01*
X260237Y340000D01*
X262500Y337737D01*
X353500Y337737D02*
X355763Y340000D01*
X353500Y342263D01*
X351237Y340000D01*
X353500Y337737D01*
X146500Y337737D02*
X148763Y340000D01*
X146500Y342263D01*
X144237Y340000D01*
X146500Y337737D01*
X237500Y337737D02*
X239763Y340000D01*
X237500Y342263D01*
X235237Y340000D01*
X237500Y337737D01*
X480150Y320150D02*
X483850Y320150D01*
X483850Y323850D01*
X480150Y323850D01*
X480150Y320150D01*
X481281Y321471D02*
X481281Y322264D01*
X481692Y322793D01*
X482103Y322793D01*
X482514Y322264D01*
X482514Y321471D01*
X481281Y321868D02*
X482514Y321868D01*
X532150Y320150D02*
X535850Y320150D01*
X535850Y323850D01*
X532150Y323850D01*
X532150Y320150D01*
X533281Y321471D02*
X533281Y322264D01*
X533692Y322793D01*
X534103Y322793D01*
X534514Y322264D01*
X534514Y321471D01*
X533281Y321868D02*
X534514Y321868D01*
X24157Y232819D02*
X24157Y235181D01*
X22976Y234000D02*
X25339Y234000D01*
X43843Y232819D02*
X43843Y235181D01*
X42661Y234000D02*
X45024Y234000D01*
X210669Y234228D02*
X214213Y234228D01*
X212441Y237253D01*
X210669Y234228D01*
X211752Y234608D02*
X211752Y235367D01*
X212146Y235873D01*
X212539Y235873D01*
X212933Y235367D01*
X212933Y234608D01*
X211752Y234988D02*
X212933Y234988D01*
X265787Y234228D02*
X269331Y234228D01*
X267559Y237253D01*
X265787Y234228D01*
X266870Y234608D02*
X266870Y235367D01*
X267264Y235873D01*
X267657Y235873D01*
X268051Y235367D01*
X268051Y234608D01*
X266870Y234988D02*
X268051Y234988D01*
X231120Y213965D02*
G75*
D01*
G02X231120Y213965I1299J0*
G01*
X231914Y213593D02*
X232491Y213593D01*
X232780Y213779D01*
X232780Y213872D01*
X232491Y214057D01*
X232780Y214243D01*
X232780Y214336D01*
X232491Y214521D01*
X232058Y214521D01*
X231914Y214521D01*
X232058Y214057D02*
X232491Y214057D01*
X232058Y214521D02*
X232058Y213593D01*
X262616Y213965D02*
G75*
D01*
G02X262616Y213965I1299J0*
G01*
X263410Y213593D02*
X263987Y213593D01*
X264276Y213779D01*
X264276Y213872D01*
X263987Y214057D01*
X264276Y214243D01*
X264276Y214336D01*
X263987Y214521D01*
X263554Y214521D01*
X263410Y214521D01*
X263554Y214057D02*
X263987Y214057D01*
X263554Y214521D02*
X263554Y213593D01*
X16953Y214000D02*
G75*
D01*
G02X16953Y214000I1299J0*
G01*
X17747Y213629D02*
X18324Y213629D01*
X18613Y213814D01*
X18613Y213907D01*
X18324Y214093D01*
X18613Y214278D01*
X18613Y214371D01*
X18324Y214557D01*
X17891Y214557D01*
X17747Y214557D01*
X17891Y214093D02*
X18324Y214093D01*
X17891Y214557D02*
X17891Y213629D01*
X48449Y214000D02*
G75*
D01*
G02X48449Y214000I1299J0*
G01*
X49243Y213629D02*
X49820Y213629D01*
X50109Y213814D01*
X50109Y213907D01*
X49820Y214093D01*
X50109Y214278D01*
X50109Y214371D01*
X49820Y214557D01*
X49387Y214557D01*
X49243Y214557D01*
X49387Y214093D02*
X49820Y214093D01*
X49387Y214557D02*
X49387Y213629D01*
X354283Y154819D02*
X354283Y157181D01*
X353102Y156000D02*
X355465Y156000D01*
X389717Y154819D02*
X389717Y157181D01*
X388535Y156000D02*
X390898Y156000D01*
X370157Y132819D02*
X370157Y135181D01*
X368976Y134000D02*
X371339Y134000D01*
X389843Y132819D02*
X389843Y135181D01*
X388661Y134000D02*
X391024Y134000D01*
X261576Y176193D02*
X265120Y176193D01*
X263348Y179217D01*
X261576Y176193D01*
X262659Y176573D02*
X262659Y177332D01*
X263053Y177838D01*
X263446Y177838D01*
X263840Y177332D01*
X263840Y176573D01*
X262659Y176952D02*
X263840Y176952D01*
X210395Y176193D02*
X213939Y176193D01*
X212167Y179217D01*
X210395Y176193D01*
X211478Y176573D02*
X211478Y177332D01*
X211872Y177838D01*
X212265Y177838D01*
X212659Y177332D01*
X212659Y176573D01*
X211478Y176952D02*
X212659Y176952D01*
X228042Y78000D02*
G75*
D01*
G02X228042Y78000I1958J0*
G01*
X228250Y86250D02*
X231750Y86250D01*
X231750Y89750D01*
X228250Y89750D01*
X228250Y86250D01*
X276000Y32976D02*
X276000Y35339D01*
X274819Y34157D02*
X277181Y34157D01*
X276000Y52661D02*
X276000Y55024D01*
X274819Y53843D02*
X277181Y53843D01*
X600000Y306976D02*
X600000Y309339D01*
X598819Y308157D02*
X601181Y308157D01*
X600000Y326661D02*
X600000Y329024D01*
X598819Y327843D02*
X601181Y327843D01*
X622449Y342000D02*
G75*
D01*
G02X622449Y342000I1299J0*
G01*
X623243Y341629D02*
X623820Y341629D01*
X624109Y341814D01*
X624109Y341907D01*
X623820Y342093D01*
X624109Y342278D01*
X624109Y342371D01*
X623820Y342557D01*
X623387Y342557D01*
X623243Y342557D01*
X623387Y342093D02*
X623820Y342093D01*
X623387Y342557D02*
X623387Y341629D01*
X590953Y342000D02*
G75*
D01*
G02X590953Y342000I1299J0*
G01*
X591747Y341629D02*
X592324Y341629D01*
X592613Y341814D01*
X592613Y341907D01*
X592324Y342093D01*
X592613Y342278D01*
X592613Y342371D01*
X592324Y342557D01*
X591891Y342557D01*
X591747Y342557D01*
X591891Y342093D02*
X592324Y342093D01*
X591891Y342557D02*
X591891Y341629D01*
X366000Y380661D02*
X366000Y383024D01*
X364819Y381843D02*
X367181Y381843D01*
X366000Y360976D02*
X366000Y363339D01*
X364819Y362157D02*
X367181Y362157D01*
X250000Y380661D02*
X250000Y383024D01*
X248819Y381843D02*
X251181Y381843D01*
X250000Y360976D02*
X250000Y363339D01*
X248819Y362157D02*
X251181Y362157D01*
X134000Y378661D02*
X134000Y381024D01*
X132819Y379843D02*
X135181Y379843D01*
X134000Y358976D02*
X134000Y361339D01*
X132819Y360157D02*
X135181Y360157D01*
X568701Y354252D02*
G75*
D01*
G02X568701Y354252I1299J0*
G01*
X569495Y353881D02*
X570072Y353881D01*
X570361Y354066D01*
X570361Y354159D01*
X570072Y354345D01*
X570361Y354530D01*
X570361Y354623D01*
X570072Y354809D01*
X569639Y354809D01*
X569495Y354809D01*
X569639Y354345D02*
X570072Y354345D01*
X569639Y354809D02*
X569639Y353881D01*
X568701Y385748D02*
G75*
D01*
G02X568701Y385748I1299J0*
G01*
X569495Y385377D02*
X570072Y385377D01*
X570361Y385562D01*
X570361Y385655D01*
X570072Y385841D01*
X570361Y386026D01*
X570361Y386119D01*
X570072Y386305D01*
X569639Y386305D01*
X569495Y386305D01*
X569639Y385841D02*
X570072Y385841D01*
X569639Y386305D02*
X569639Y385377D01*
X614042Y282000D02*
G75*
D01*
G02X614042Y282000I1958J0*
G01*
X614250Y290250D02*
X617750Y290250D01*
X617750Y293750D01*
X614250Y293750D01*
X614250Y290250D01*
X399843Y278819D02*
X399843Y281181D01*
X398661Y280000D02*
X401024Y280000D01*
X380157Y278819D02*
X380157Y281181D01*
X378976Y280000D02*
X381339Y280000D01*
X348250Y254250D02*
X351750Y254250D01*
X351750Y257750D01*
X348250Y257750D01*
X348250Y254250D01*
X378042Y256000D02*
G75*
D01*
G02X378042Y256000I1958J0*
G01*
X358250Y254250D02*
X361750Y254250D01*
X361750Y257750D01*
X358250Y257750D01*
X358250Y254250D01*
X368250Y254250D02*
X371750Y254250D01*
X371750Y257750D01*
X368250Y257750D01*
X368250Y254250D01*
X328250Y254250D02*
X331750Y254250D01*
X331750Y257750D01*
X328250Y257750D01*
X328250Y254250D01*
X338250Y254250D02*
X341750Y254250D01*
X341750Y257750D01*
X338250Y257750D01*
X338250Y254250D01*
X318250Y254250D02*
X321750Y254250D01*
X321750Y257750D01*
X318250Y257750D01*
X318250Y254250D01*
X298250Y254250D02*
X301750Y254250D01*
X301750Y257750D01*
X298250Y257750D01*
X298250Y254250D01*
X308250Y254250D02*
X311750Y254250D01*
X311750Y257750D01*
X308250Y257750D01*
X308250Y254250D01*
X288250Y254250D02*
X291750Y254250D01*
X291750Y257750D01*
X288250Y257750D01*
X288250Y254250D01*
X417843Y262819D02*
X417843Y265181D01*
X416661Y264000D02*
X419024Y264000D01*
X398157Y262819D02*
X398157Y265181D01*
X396976Y264000D02*
X399339Y264000D01*
X64042Y244000D02*
G75*
D01*
G02X64042Y244000I1958J0*
G01*
X64250Y252250D02*
X67750Y252250D01*
X67750Y255750D01*
X64250Y255750D01*
X64250Y252250D01*
X600701Y224252D02*
G75*
D01*
G02X600701Y224252I1299J0*
G01*
X601495Y223881D02*
X602072Y223881D01*
X602361Y224066D01*
X602361Y224159D01*
X602072Y224345D01*
X602361Y224530D01*
X602361Y224623D01*
X602072Y224809D01*
X601639Y224809D01*
X601495Y224809D01*
X601639Y224345D02*
X602072Y224345D01*
X601639Y224809D02*
X601639Y223881D01*
X600701Y255748D02*
G75*
D01*
G02X600701Y255748I1299J0*
G01*
X601495Y255377D02*
X602072Y255377D01*
X602361Y255562D01*
X602361Y255655D01*
X602072Y255841D01*
X602361Y256026D01*
X602361Y256119D01*
X602072Y256305D01*
X601639Y256305D01*
X601495Y256305D01*
X601639Y255841D02*
X602072Y255841D01*
X601639Y256305D02*
X601639Y255377D01*
X582228Y126669D02*
X585772Y126669D01*
X584000Y129694D01*
X582228Y126669D01*
X583311Y127049D02*
X583311Y127808D01*
X583705Y128314D01*
X584098Y128314D01*
X584492Y127808D01*
X584492Y127049D01*
X583311Y127429D02*
X584492Y127429D01*
X582228Y181787D02*
X585772Y181787D01*
X584000Y184812D01*
X582228Y181787D01*
X583311Y182167D02*
X583311Y182926D01*
X583705Y183433D01*
X584098Y183433D01*
X584492Y182926D01*
X584492Y182167D01*
X583311Y182547D02*
X584492Y182547D01*
X348250Y176250D02*
X351750Y176250D01*
X351750Y179750D01*
X348250Y179750D01*
X348250Y176250D01*
X378042Y178000D02*
G75*
D01*
G02X378042Y178000I1958J0*
G01*
X358250Y176250D02*
X361750Y176250D01*
X361750Y179750D01*
X358250Y179750D01*
X358250Y176250D01*
X368250Y176250D02*
X371750Y176250D01*
X371750Y179750D01*
X368250Y179750D01*
X368250Y176250D01*
X328250Y176250D02*
X331750Y176250D01*
X331750Y179750D01*
X328250Y179750D01*
X328250Y176250D01*
X338250Y176250D02*
X341750Y176250D01*
X341750Y179750D01*
X338250Y179750D01*
X338250Y176250D01*
X318250Y176250D02*
X321750Y176250D01*
X321750Y179750D01*
X318250Y179750D01*
X318250Y176250D01*
X298250Y176250D02*
X301750Y176250D01*
X301750Y179750D01*
X298250Y179750D01*
X298250Y176250D01*
X308250Y176250D02*
X311750Y176250D01*
X311750Y179750D01*
X308250Y179750D01*
X308250Y176250D01*
X288250Y176250D02*
X291750Y176250D01*
X291750Y179750D01*
X288250Y179750D01*
X288250Y176250D01*
X622042Y118000D02*
G75*
D01*
G02X622042Y118000I1958J0*
G01*
X622250Y126250D02*
X625750Y126250D01*
X625750Y129750D01*
X622250Y129750D01*
X622250Y126250D01*
X619500Y67737D02*
X621763Y70000D01*
X619500Y72263D01*
X617237Y70000D01*
X619500Y67737D01*
X528500Y67737D02*
X530763Y70000D01*
X528500Y72263D01*
X526237Y70000D01*
X528500Y67737D01*
X66228Y108669D02*
X69772Y108669D01*
X68000Y111694D01*
X66228Y108669D01*
X67311Y109049D02*
X67311Y109808D01*
X67705Y110314D01*
X68098Y110314D01*
X68492Y109808D01*
X68492Y109049D01*
X67311Y109429D02*
X68492Y109429D01*
X66228Y163787D02*
X69772Y163787D01*
X68000Y166812D01*
X66228Y163787D01*
X67311Y164167D02*
X67311Y164926D01*
X67705Y165433D01*
X68098Y165433D01*
X68492Y164926D01*
X68492Y164167D01*
X67311Y164547D02*
X68492Y164547D01*
X383500Y67737D02*
X385763Y70000D01*
X383500Y72263D01*
X381237Y70000D01*
X383500Y67737D01*
X292500Y67737D02*
X294763Y70000D01*
X292500Y72263D01*
X290237Y70000D01*
X292500Y67737D01*
X398000Y18976D02*
X398000Y21339D01*
X396819Y20157D02*
X399181Y20157D01*
X398000Y38661D02*
X398000Y41024D01*
X396819Y39843D02*
X399181Y39843D01*
X224000Y118661D02*
X224000Y121024D01*
X222819Y119843D02*
X225181Y119843D01*
X224000Y98976D02*
X224000Y101339D01*
X222819Y100157D02*
X225181Y100157D01*
X272720Y87642D02*
X275280Y87642D01*
X274000Y89826D01*
X272720Y87642D01*
X272720Y77799D02*
X275280Y77799D01*
X274000Y79984D01*
X272720Y77799D01*
X516000Y18976D02*
X516000Y21339D01*
X514819Y20157D02*
X517181Y20157D01*
X516000Y38661D02*
X516000Y41024D01*
X514819Y39843D02*
X517181Y39843D01*
X501500Y67737D02*
X503763Y70000D01*
X501500Y72263D01*
X499237Y70000D01*
X501500Y67737D01*
X410500Y67737D02*
X412763Y70000D01*
X410500Y72263D01*
X408237Y70000D01*
X410500Y67737D01*
X265787Y156228D02*
X269331Y156228D01*
X267559Y159253D01*
X265787Y156228D01*
X266870Y156608D02*
X266870Y157367D01*
X267264Y157873D01*
X267657Y157873D01*
X268051Y157367D01*
X268051Y156608D01*
X266870Y156988D02*
X268051Y156988D01*
X210669Y156228D02*
X214213Y156228D01*
X212441Y159253D01*
X210669Y156228D01*
X211752Y156608D02*
X211752Y157367D01*
X212146Y157873D01*
X212539Y157873D01*
X212933Y157367D01*
X212933Y156608D01*
X211752Y156988D02*
X212933Y156988D01*
X118150Y34150D02*
X121850Y34150D01*
X121850Y37850D01*
X118150Y37850D01*
X118150Y34150D01*
X119281Y35471D02*
X119281Y36264D01*
X119692Y36793D01*
X120103Y36793D01*
X120514Y36264D01*
X120514Y35471D01*
X119281Y35868D02*
X120514Y35868D01*
X118150Y86150D02*
X121850Y86150D01*
X121850Y89850D01*
X118150Y89850D01*
X118150Y86150D01*
X119281Y87471D02*
X119281Y88264D01*
X119692Y88793D01*
X120103Y88793D01*
X120514Y88264D01*
X120514Y87471D01*
X119281Y87868D02*
X120514Y87868D01*
X68250Y186683D02*
X71750Y186683D01*
X71750Y190183D01*
X68250Y190183D01*
X68250Y186683D01*
X68250Y197116D02*
X71750Y197116D01*
X71750Y200616D01*
X68250Y200616D01*
X68250Y197116D01*
X68250Y176250D02*
X71750Y176250D01*
X71750Y179750D01*
X68250Y179750D01*
X68250Y176250D01*
X616250Y354250D02*
X619750Y354250D01*
X619750Y357750D01*
X616250Y357750D01*
X616250Y354250D01*
X606250Y384250D02*
X609750Y384250D01*
X609750Y387750D01*
X606250Y387750D01*
X606250Y384250D01*
X586250Y384250D02*
X589750Y384250D01*
X589750Y387750D01*
X586250Y387750D01*
X586250Y384250D01*
X596250Y384250D02*
X599750Y384250D01*
X599750Y387750D01*
X596250Y387750D01*
X596250Y384250D01*
X586250Y354250D02*
X589750Y354250D01*
X589750Y357750D01*
X586250Y357750D01*
X586250Y354250D01*
X606250Y354250D02*
X609750Y354250D01*
X609750Y357750D01*
X606250Y357750D01*
X606250Y354250D01*
X596250Y354250D02*
X599750Y354250D01*
X599750Y357750D01*
X596250Y357750D01*
X596250Y354250D01*
X616250Y384250D02*
X619750Y384250D01*
X619750Y387750D01*
X616250Y387750D01*
X616250Y384250D01*
X568524Y330890D02*
G75*
D01*
G02X568524Y330890I1476J0*
G01*
X570410Y330679D02*
X570082Y330468D01*
X569754Y330468D01*
X569426Y330679D01*
X569426Y331312D01*
X569754Y331522D01*
X570082Y331522D01*
X570410Y331312D01*
X568524Y317110D02*
G75*
D01*
G02X568524Y317110I1476J0*
G01*
X570410Y316899D02*
X570082Y316688D01*
X569754Y316688D01*
X569426Y316899D01*
X569426Y317532D01*
X569754Y317743D01*
X570082Y317743D01*
X570410Y317532D01*
X576228Y253409D02*
X579772Y253409D01*
X578000Y256434D01*
X576228Y253409D01*
X577311Y253789D02*
X577311Y254548D01*
X577705Y255055D01*
X578098Y255055D01*
X578492Y254548D01*
X578492Y253789D01*
X577311Y254169D02*
X578492Y254169D01*
X576228Y202228D02*
X579772Y202228D01*
X578000Y205253D01*
X576228Y202228D01*
X577311Y202608D02*
X577311Y203367D01*
X577705Y203873D01*
X578098Y203873D01*
X578492Y203367D01*
X578492Y202608D01*
X577311Y202988D02*
X578492Y202988D01*
X618228Y214228D02*
X621772Y214228D01*
X620000Y217253D01*
X618228Y214228D01*
X619311Y214608D02*
X619311Y215367D01*
X619705Y215873D01*
X620098Y215873D01*
X620492Y215367D01*
X620492Y214608D01*
X619311Y214988D02*
X620492Y214988D01*
X618228Y254228D02*
X621772Y254228D01*
X620000Y257253D01*
X618228Y254228D01*
X619311Y254608D02*
X619311Y255367D01*
X619705Y255873D01*
X620098Y255873D01*
X620492Y255367D01*
X620492Y254608D01*
X619311Y254988D02*
X620492Y254988D01*
X378250Y200250D02*
X381750Y200250D01*
X381750Y203750D01*
X378250Y203750D01*
X378250Y200250D01*
X368250Y230250D02*
X371750Y230250D01*
X371750Y233750D01*
X368250Y233750D01*
X368250Y230250D01*
X348250Y230250D02*
X351750Y230250D01*
X351750Y233750D01*
X348250Y233750D01*
X348250Y230250D01*
X358250Y230250D02*
X361750Y230250D01*
X361750Y233750D01*
X358250Y233750D01*
X358250Y230250D01*
X338250Y230250D02*
X341750Y230250D01*
X341750Y233750D01*
X338250Y233750D01*
X338250Y230250D01*
X318250Y230250D02*
X321750Y230250D01*
X321750Y233750D01*
X318250Y233750D01*
X318250Y230250D01*
X328250Y230250D02*
X331750Y230250D01*
X331750Y233750D01*
X328250Y233750D01*
X328250Y230250D01*
X308250Y230250D02*
X311750Y230250D01*
X311750Y233750D01*
X308250Y233750D01*
X308250Y230250D01*
X298250Y230250D02*
X301750Y230250D01*
X301750Y233750D01*
X298250Y233750D01*
X298250Y230250D01*
X288250Y230250D02*
X291750Y230250D01*
X291750Y233750D01*
X288250Y233750D01*
X288250Y230250D01*
X318250Y200250D02*
X321750Y200250D01*
X321750Y203750D01*
X318250Y203750D01*
X318250Y200250D01*
X348250Y200250D02*
X351750Y200250D01*
X351750Y203750D01*
X348250Y203750D01*
X348250Y200250D01*
X368250Y200250D02*
X371750Y200250D01*
X371750Y203750D01*
X368250Y203750D01*
X368250Y200250D01*
X358250Y200250D02*
X361750Y200250D01*
X361750Y203750D01*
X358250Y203750D01*
X358250Y200250D01*
X338250Y200250D02*
X341750Y200250D01*
X341750Y203750D01*
X338250Y203750D01*
X338250Y200250D01*
X328250Y200250D02*
X331750Y200250D01*
X331750Y203750D01*
X328250Y203750D01*
X328250Y200250D01*
X308250Y200250D02*
X311750Y200250D01*
X311750Y203750D01*
X308250Y203750D01*
X308250Y200250D01*
X298250Y200250D02*
X301750Y200250D01*
X301750Y203750D01*
X298250Y203750D01*
X298250Y200250D01*
X288250Y200250D02*
X291750Y200250D01*
X291750Y203750D01*
X288250Y203750D01*
X288250Y200250D01*
X378250Y230250D02*
X381750Y230250D01*
X381750Y233750D01*
X378250Y233750D01*
X378250Y230250D01*
X272250Y98250D02*
X275750Y98250D01*
X275750Y101750D01*
X272250Y101750D01*
X272250Y98250D01*
X262250Y128250D02*
X265750Y128250D01*
X265750Y131750D01*
X262250Y131750D01*
X262250Y128250D01*
X242250Y128250D02*
X245750Y128250D01*
X245750Y131750D01*
X242250Y131750D01*
X242250Y128250D01*
X252250Y128250D02*
X255750Y128250D01*
X255750Y131750D01*
X252250Y131750D01*
X252250Y128250D01*
X242250Y98250D02*
X245750Y98250D01*
X245750Y101750D01*
X242250Y101750D01*
X242250Y98250D01*
X262250Y98250D02*
X265750Y98250D01*
X265750Y101750D01*
X262250Y101750D01*
X262250Y98250D01*
X252250Y98250D02*
X255750Y98250D01*
X255750Y101750D01*
X252250Y101750D01*
X252250Y98250D01*
X272250Y128250D02*
X275750Y128250D01*
X275750Y131750D01*
X272250Y131750D01*
X272250Y128250D01*
X222093Y195066D02*
X225636Y195066D01*
X223865Y198091D01*
X222093Y195066D01*
X223176Y195446D02*
X223176Y196205D01*
X223569Y196711D01*
X223963Y196711D01*
X224357Y196205D01*
X224357Y195446D01*
X223176Y195825D02*
X224357Y195825D01*
X262093Y195066D02*
X265636Y195066D01*
X263865Y198091D01*
X262093Y195066D01*
X263176Y195446D02*
X263176Y196205D01*
X263569Y196711D01*
X263963Y196711D01*
X264357Y196205D01*
X264357Y195446D01*
X263176Y195825D02*
X264357Y195825D01*
X21634Y70000D02*
G75*
D01*
G02X21634Y70000I1476J0*
G01*
X23520Y69789D02*
X23192Y69578D01*
X22864Y69578D01*
X22536Y69789D01*
X22536Y70422D01*
X22864Y70633D01*
X23192Y70633D01*
X23520Y70422D01*
X35413Y70000D02*
G75*
D01*
G02X35413Y70000I1477J0*
G01*
X37300Y69789D02*
X36972Y69578D01*
X36644Y69578D01*
X36316Y69789D01*
X36316Y70422D01*
X36644Y70633D01*
X36972Y70633D01*
X37300Y70422D01*
X767849Y227839D02*
G75*
D01*
G02X767849Y227839I1958J0*
G01*
X769088Y243452D02*
X769088Y244245D01*
X769499Y244773D01*
X769910Y244773D01*
X770321Y244245D01*
X770321Y243452D01*
X769088Y243848D02*
X770321Y243848D01*
X767957Y242130D02*
X771657Y242130D01*
X771657Y245830D01*
X767957Y245830D01*
X767957Y242130D01*
X769118Y258730D02*
X769118Y259489D01*
X769512Y259996D01*
X769906Y259996D01*
X770299Y259489D01*
X770299Y258730D01*
X769118Y259110D02*
X770299Y259110D01*
X768035Y258350D02*
X771579Y258350D01*
X769807Y261375D01*
X768035Y258350D01*
X768057Y274514D02*
X771557Y274514D01*
X771557Y278014D01*
X768057Y278014D01*
X768057Y274514D01*
X769807Y290143D02*
X772070Y292406D01*
X769807Y294668D01*
X767544Y292406D01*
X769807Y290143D01*
X770217Y308336D02*
X769889Y308125D01*
X769561Y308125D01*
X769233Y308336D01*
X769233Y308969D01*
X769561Y309180D01*
X769889Y309180D01*
X770217Y308969D01*
X768331Y308547D02*
G75*
D01*
G02X768331Y308547I1476J0*
G01*
X769302Y324318D02*
X769879Y324318D01*
X770168Y324503D01*
X770168Y324596D01*
X769879Y324782D01*
X770168Y324967D01*
X770168Y325060D01*
X769879Y325246D01*
X769446Y325246D01*
X769302Y325246D01*
X769446Y324782D02*
X769879Y324782D01*
X769446Y325246D02*
X769446Y324318D01*
X768508Y324689D02*
G75*
D01*
G02X768508Y324689I1299J0*
G01*
X768528Y339551D02*
X771087Y339551D01*
X769807Y341735D01*
X768528Y339551D01*
X768626Y356972D02*
X770988Y356972D01*
X769807Y355791D02*
X769807Y358154D01*
G54D12*
X623714Y26286D02*
X634286Y15714D01*
X623714Y15714D02*
X634286Y26286D01*
X15714Y26286D02*
X26286Y15714D01*
X15714Y15714D02*
X26286Y26286D01*
X623714Y322286D02*
X634286Y311714D01*
X623714Y311714D02*
X634286Y322286D01*
X15714Y394286D02*
X26286Y383714D01*
X15714Y383714D02*
X26286Y394286D01*
X387667Y340000D02*
G75*
D01*
G02X387667Y340000I2333J0*
G01*
X389093Y339333D02*
X389093Y340333D01*
X389611Y341000D01*
X390130Y341000D01*
X390648Y340333D01*
X390648Y339333D01*
X389093Y339833D02*
X390648Y339833D01*
X407667Y340000D02*
G75*
D01*
G02X407667Y340000I2333J0*
G01*
X409093Y339333D02*
X409093Y340333D01*
X409611Y341000D01*
X410130Y341000D01*
X410648Y340333D01*
X410648Y339333D01*
X409093Y339833D02*
X410648Y339833D01*
X397667Y340000D02*
G75*
D01*
G02X397667Y340000I2333J0*
G01*
X399093Y339333D02*
X399093Y340333D01*
X399611Y341000D01*
X400130Y341000D01*
X400648Y340333D01*
X400648Y339333D01*
X399093Y339833D02*
X400648Y339833D01*
X269559Y263824D02*
X273735Y268000D01*
X269559Y272176D01*
X265383Y268000D01*
X269559Y263824D01*
X268411Y267156D02*
X268411Y268422D01*
X269067Y269265D01*
X269723Y269265D01*
X270379Y268422D01*
X270379Y267156D01*
X268411Y267789D02*
X270379Y267789D01*
X214441Y263824D02*
X218617Y268000D01*
X214441Y272176D01*
X210265Y268000D01*
X214441Y263824D01*
X213293Y267156D02*
X213293Y268422D01*
X213949Y269265D01*
X214605Y269265D01*
X215261Y268422D01*
X215261Y267156D01*
X213293Y267789D02*
X215261Y267789D01*
X63031Y220031D02*
X66969Y220031D01*
X66969Y223969D01*
X63031Y223969D01*
X63031Y220031D01*
X64234Y221438D02*
X65109Y221438D01*
X65547Y221719D01*
X65547Y221859D01*
X65109Y222141D01*
X65547Y222422D01*
X65547Y222562D01*
X65109Y222844D01*
X64453Y222844D01*
X64234Y222844D01*
X64453Y222141D02*
X65109Y222141D01*
X64453Y222844D02*
X64453Y221438D01*
X73031Y220031D02*
X76969Y220031D01*
X76969Y223969D01*
X73031Y223969D01*
X73031Y220031D01*
X74234Y221438D02*
X75109Y221438D01*
X75547Y221719D01*
X75547Y221859D01*
X75109Y222141D01*
X75547Y222422D01*
X75547Y222562D01*
X75109Y222844D01*
X74453Y222844D01*
X74234Y222844D01*
X74453Y222141D02*
X75109Y222141D01*
X74453Y222844D02*
X74453Y221438D01*
X613031Y150031D02*
X616969Y150031D01*
X616969Y153969D01*
X613031Y153969D01*
X613031Y150031D01*
X614234Y151438D02*
X615109Y151438D01*
X615547Y151719D01*
X615547Y151859D01*
X615109Y152141D01*
X615547Y152422D01*
X615547Y152562D01*
X615109Y152844D01*
X614453Y152844D01*
X614234Y152844D01*
X614453Y152141D02*
X615109Y152141D01*
X614453Y152844D02*
X614453Y151438D01*
X623031Y150031D02*
X626969Y150031D01*
X626969Y153969D01*
X623031Y153969D01*
X623031Y150031D01*
X624234Y151438D02*
X625109Y151438D01*
X625547Y151719D01*
X625547Y151859D01*
X625109Y152141D01*
X625547Y152422D01*
X625547Y152562D01*
X625109Y152844D01*
X624453Y152844D01*
X624234Y152844D01*
X624453Y152141D02*
X625109Y152141D01*
X624453Y152844D02*
X624453Y151438D01*
X410181Y186659D02*
X413522Y190000D01*
X410181Y193341D01*
X406840Y190000D01*
X410181Y186659D01*
X409262Y189325D02*
X410312Y189325D01*
X410837Y189663D01*
X410837Y189831D01*
X410312Y190169D01*
X410837Y190506D01*
X410837Y190675D01*
X410312Y191012D01*
X409525Y191012D01*
X409262Y191012D01*
X409525Y190169D02*
X410312Y190169D01*
X409525Y191012D02*
X409525Y189325D01*
X557819Y186659D02*
X561160Y190000D01*
X557819Y193341D01*
X554478Y190000D01*
X557819Y186659D01*
X556900Y189325D02*
X557950Y189325D01*
X558475Y189663D01*
X558475Y189831D01*
X557950Y190169D01*
X558475Y190506D01*
X558475Y190675D01*
X557950Y191012D01*
X557163Y191012D01*
X556900Y191012D01*
X557163Y190169D02*
X557950Y190169D01*
X557163Y191012D02*
X557163Y189325D01*
X46791Y196264D02*
X52894Y196264D01*
X49843Y201472D01*
X46791Y196264D01*
X48656Y196918D02*
X50012Y196918D01*
X50690Y197353D01*
X50690Y197571D01*
X50012Y198007D01*
X50690Y198443D01*
X50690Y198661D01*
X50012Y199097D01*
X48995Y199097D01*
X48656Y199097D01*
X48995Y198007D02*
X50012Y198007D01*
X48995Y199097D02*
X48995Y196918D01*
X27106Y196264D02*
X33209Y196264D01*
X30157Y201472D01*
X27106Y196264D01*
X28971Y196918D02*
X30327Y196918D01*
X31005Y197353D01*
X31005Y197571D01*
X30327Y198007D01*
X31005Y198443D01*
X31005Y198661D01*
X30327Y199097D01*
X29310Y199097D01*
X28971Y199097D01*
X29310Y198007D02*
X30327Y198007D01*
X29310Y199097D02*
X29310Y196918D01*
X36949Y185634D02*
X43051Y185634D01*
X40000Y190843D01*
X36949Y185634D01*
X38813Y186288D02*
X40170Y186288D01*
X40848Y186724D01*
X40848Y186942D01*
X40170Y187377D01*
X40848Y187813D01*
X40848Y188031D01*
X40170Y188467D01*
X39152Y188467D01*
X38813Y188467D01*
X39152Y187377D02*
X40170Y187377D01*
X39152Y188467D02*
X39152Y186288D01*
X206000Y85383D02*
X210176Y89559D01*
X206000Y93735D01*
X201824Y89559D01*
X206000Y85383D01*
X204852Y88715D02*
X204852Y89981D01*
X205508Y90825D01*
X206164Y90825D01*
X206820Y89981D01*
X206820Y88715D01*
X204852Y89348D02*
X206820Y89348D01*
X206000Y30265D02*
X210176Y34441D01*
X206000Y38617D01*
X201824Y34441D01*
X206000Y30265D01*
X204852Y33597D02*
X204852Y34863D01*
X205508Y35706D01*
X206164Y35706D01*
X206820Y34863D01*
X206820Y33597D01*
X204852Y34230D02*
X206820Y34230D01*
X249667Y82000D02*
G75*
D01*
G02X249667Y82000I2333J0*
G01*
X251093Y81333D02*
X251093Y82333D01*
X251611Y83000D01*
X252130Y83000D01*
X252648Y82333D01*
X252648Y81333D01*
X251093Y81833D02*
X252648Y81833D01*
X249667Y62000D02*
G75*
D01*
G02X249667Y62000I2333J0*
G01*
X251093Y61333D02*
X251093Y62333D01*
X251611Y63000D01*
X252130Y63000D01*
X252648Y62333D01*
X252648Y61333D01*
X251093Y61833D02*
X252648Y61833D01*
X249667Y72000D02*
G75*
D01*
G02X249667Y72000I2333J0*
G01*
X251093Y71333D02*
X251093Y72333D01*
X251611Y73000D01*
X252130Y73000D01*
X252648Y72333D01*
X252648Y71333D01*
X251093Y71833D02*
X252648Y71833D01*
X452000Y373383D02*
X456176Y377559D01*
X452000Y381735D01*
X447824Y377559D01*
X452000Y373383D01*
X450852Y376715D02*
X450852Y377981D01*
X451508Y378825D01*
X452164Y378825D01*
X452820Y377981D01*
X452820Y376715D01*
X450852Y377348D02*
X452820Y377348D01*
X452000Y318265D02*
X456176Y322441D01*
X452000Y326617D01*
X447824Y322441D01*
X452000Y318265D01*
X450852Y321597D02*
X450852Y322863D01*
X451508Y323706D01*
X452164Y323706D01*
X452820Y322863D01*
X452820Y321597D01*
X450852Y322230D02*
X452820Y322230D01*
X33031Y162031D02*
X36969Y162031D01*
X36969Y165969D01*
X33031Y165969D01*
X33031Y162031D01*
X34234Y163438D02*
X35109Y163438D01*
X35547Y163719D01*
X35547Y163859D01*
X35109Y164141D01*
X35547Y164422D01*
X35547Y164562D01*
X35109Y164844D01*
X34453Y164844D01*
X34234Y164844D01*
X34453Y164141D02*
X35109Y164141D01*
X34453Y164844D02*
X34453Y163438D01*
X23031Y162031D02*
X26969Y162031D01*
X26969Y165969D01*
X23031Y165969D01*
X23031Y162031D01*
X24234Y163438D02*
X25109Y163438D01*
X25547Y163719D01*
X25547Y163859D01*
X25109Y164141D01*
X25547Y164422D01*
X25547Y164562D01*
X25109Y164844D01*
X24453Y164844D01*
X24234Y164844D01*
X24453Y164141D02*
X25109Y164141D01*
X24453Y164844D02*
X24453Y163438D01*
X144000Y260478D02*
X147341Y263819D01*
X144000Y267160D01*
X140659Y263819D01*
X144000Y260478D01*
X143081Y263144D02*
X144131Y263144D01*
X144656Y263481D01*
X144656Y263650D01*
X144131Y263988D01*
X144656Y264325D01*
X144656Y264494D01*
X144131Y264831D01*
X143344Y264831D01*
X143081Y264831D01*
X143344Y263988D02*
X144131Y263988D01*
X143344Y264831D02*
X143344Y263144D01*
X144000Y112840D02*
X147341Y116181D01*
X144000Y119522D01*
X140659Y116181D01*
X144000Y112840D01*
X143081Y115506D02*
X144131Y115506D01*
X144656Y115844D01*
X144656Y116012D01*
X144131Y116350D01*
X144656Y116687D01*
X144656Y116856D01*
X144131Y117193D01*
X143344Y117193D01*
X143081Y117193D01*
X143344Y116350D02*
X144131Y116350D01*
X143344Y117193D02*
X143344Y115506D01*
X288441Y137824D02*
X292617Y142000D01*
X288441Y146176D01*
X284265Y142000D01*
X288441Y137824D01*
X287293Y141156D02*
X287293Y142422D01*
X287949Y143265D01*
X288605Y143265D01*
X289261Y142422D01*
X289261Y141156D01*
X287293Y141789D02*
X289261Y141789D01*
X343559Y137824D02*
X347735Y142000D01*
X343559Y146176D01*
X339383Y142000D01*
X343559Y137824D01*
X342411Y141156D02*
X342411Y142422D01*
X343067Y143265D01*
X343723Y143265D01*
X344379Y142422D01*
X344379Y141156D01*
X342411Y141789D02*
X344379Y141789D01*
X29441Y255598D02*
X34559Y255598D01*
X34559Y260717D01*
X29441Y260717D01*
X29441Y255598D01*
X32711Y257792D02*
X32142Y257426D01*
X31573Y257426D01*
X31005Y257792D01*
X31005Y258889D01*
X31573Y259254D01*
X32142Y259254D01*
X32711Y258889D01*
X32000Y274223D02*
X35619Y277843D01*
X32000Y281462D01*
X28381Y277843D01*
X32000Y274223D01*
X32711Y277477D02*
X32142Y277111D01*
X31573Y277111D01*
X31005Y277477D01*
X31005Y278574D01*
X31573Y278939D01*
X32142Y278939D01*
X32711Y278574D01*
X611441Y193283D02*
X616559Y193283D01*
X616559Y198402D01*
X611441Y198402D01*
X611441Y193283D01*
X614711Y195477D02*
X614142Y195111D01*
X613573Y195111D01*
X613005Y195477D01*
X613005Y196574D01*
X613573Y196939D01*
X614142Y196939D01*
X614711Y196574D01*
X614000Y172538D02*
X617619Y176157D01*
X614000Y179777D01*
X610381Y176157D01*
X614000Y172538D01*
X614711Y175792D02*
X614142Y175426D01*
X613573Y175426D01*
X613005Y175792D01*
X613005Y176889D01*
X613573Y177254D01*
X614142Y177254D01*
X614711Y176889D01*
X29441Y107598D02*
X34559Y107598D01*
X34559Y112717D01*
X29441Y112717D01*
X29441Y107598D01*
X32711Y109792D02*
X32142Y109426D01*
X31573Y109426D01*
X31005Y109792D01*
X31005Y110889D01*
X31573Y111254D01*
X32142Y111254D01*
X32711Y110889D01*
X32000Y126223D02*
X35619Y129843D01*
X32000Y133462D01*
X28381Y129843D01*
X32000Y126223D01*
X32711Y129477D02*
X32142Y129111D01*
X31573Y129111D01*
X31005Y129477D01*
X31005Y130574D01*
X31573Y130939D01*
X32142Y130939D01*
X32711Y130574D01*
X764521Y93419D02*
X775093Y103990D01*
X764521Y103990D02*
X775093Y93419D01*
X812196Y102079D02*
X814820Y103767D01*
X814820Y95330D01*
X810883Y95330D02*
X818757Y95330D01*
X830568Y98705D02*
X822694Y98705D01*
X829256Y103767D01*
X829256Y95330D01*
X827944Y95330D02*
X830568Y95330D01*
X834505Y97017D02*
X837130Y95330D01*
X839755Y95330D01*
X842379Y97017D01*
X842379Y100392D01*
X842379Y102079D01*
X839755Y103767D01*
X837130Y103767D01*
X834505Y102079D01*
X834505Y100392D01*
X837130Y98705D01*
X839755Y98705D01*
X842379Y100392D01*
X850253Y95330D02*
X850253Y96174D01*
X866001Y103767D02*
X858127Y103767D01*
X858127Y100392D01*
X863377Y100392D01*
X866001Y98705D01*
X866001Y97017D01*
X863377Y95330D01*
X858127Y95330D01*
X869938Y102079D02*
X872563Y103767D01*
X875188Y103767D01*
X877812Y102079D01*
X877812Y97017D01*
X875188Y95330D01*
X872563Y95330D01*
X869938Y97017D01*
X869938Y102079D01*
X877812Y102079D02*
X869938Y97017D01*
X881749Y102079D02*
X884374Y103767D01*
X886999Y103767D01*
X889623Y102079D01*
X889623Y97017D01*
X886999Y95330D01*
X884374Y95330D01*
X881749Y97017D01*
X881749Y102079D01*
X889623Y102079D02*
X881749Y97017D01*
X893560Y102079D02*
X896185Y103767D01*
X898810Y103767D01*
X901434Y102079D01*
X901434Y97017D01*
X898810Y95330D01*
X896185Y95330D01*
X893560Y97017D01*
X893560Y102079D01*
X901434Y102079D02*
X893560Y97017D01*
X905371Y102079D02*
X907996Y103767D01*
X910621Y103767D01*
X913245Y102079D01*
X913245Y97017D01*
X910621Y95330D01*
X907996Y95330D01*
X905371Y97017D01*
X905371Y102079D01*
X913245Y102079D02*
X905371Y97017D01*
X970726Y98705D02*
X962852Y98705D01*
X969413Y103767D01*
X969413Y95330D01*
X968101Y95330D02*
X970726Y95330D01*
X1038049Y95330D02*
X1038049Y103767D01*
X1043298Y103767D01*
X1045923Y102079D01*
X1045923Y101236D01*
X1043298Y99548D01*
X1038049Y99548D01*
X1053797Y95330D02*
X1053797Y103767D01*
X1049860Y103767D02*
X1057734Y103767D01*
X1061671Y95330D02*
X1061671Y103767D01*
X1069545Y95330D02*
X1069545Y103767D01*
X1061671Y99548D02*
X1069545Y99548D01*
X1107340Y102079D02*
X1109965Y103767D01*
X1112589Y103767D01*
X1115214Y102079D01*
X1115214Y97017D01*
X1112589Y95330D01*
X1109965Y95330D01*
X1107340Y97017D01*
X1107340Y102079D01*
X1115214Y102079D02*
X1107340Y97017D01*
X1137524Y95330D02*
X1136211Y95330D01*
X1133587Y97017D01*
X1133587Y102079D01*
X1136211Y103767D01*
X1137524Y103767D01*
X1142773Y95330D02*
X1142773Y103767D01*
X1148022Y103767D01*
X1150647Y102079D01*
X1150647Y101236D01*
X1148022Y99548D01*
X1142773Y99548D01*
X1144085Y99548D02*
X1150647Y95330D01*
X1154584Y97017D02*
X1157209Y95330D01*
X1159833Y95330D01*
X1162458Y97017D01*
X1162458Y102079D01*
X1159833Y103767D01*
X1157209Y103767D01*
X1154584Y102079D01*
X1154584Y97017D01*
X1166395Y103767D02*
X1166395Y97017D01*
X1169020Y95330D01*
X1171644Y95330D01*
X1174269Y97017D01*
X1174269Y103767D01*
X1178206Y95330D02*
X1178206Y103767D01*
X1186080Y95330D01*
X1186080Y103767D01*
X1190017Y95330D02*
X1195266Y95330D01*
X1197891Y97017D01*
X1197891Y102079D01*
X1195266Y103767D01*
X1190017Y103767D01*
X1191329Y103767D02*
X1191329Y95330D01*
X1203140Y103767D02*
X1204453Y103767D01*
X1207077Y102079D01*
X1207077Y97017D01*
X1204453Y95330D01*
X1203140Y95330D01*
X823350Y119908D02*
X819413Y119908D01*
X816789Y118221D01*
X816789Y114846D01*
X816789Y113159D01*
X819413Y111472D01*
X822038Y111472D01*
X824663Y113159D01*
X824663Y114846D01*
X822038Y116534D01*
X819413Y116534D01*
X816789Y114846D01*
X829912Y118221D02*
X832537Y119908D01*
X832537Y111472D01*
X828600Y111472D02*
X836474Y111472D01*
X844348Y111472D02*
X844348Y112316D01*
X852222Y118221D02*
X854846Y119908D01*
X857471Y119908D01*
X860096Y118221D01*
X860096Y113159D01*
X857471Y111472D01*
X854846Y111472D01*
X852222Y113159D01*
X852222Y118221D01*
X860096Y118221D02*
X852222Y113159D01*
X864033Y118221D02*
X866657Y119908D01*
X869282Y119908D01*
X871907Y118221D01*
X871907Y117377D01*
X864033Y111472D01*
X871907Y111472D01*
X871907Y112316D01*
X877156Y119065D02*
X878469Y119908D01*
X881093Y119908D01*
X883718Y118221D01*
X883718Y116534D01*
X882406Y115690D01*
X883718Y114846D01*
X883718Y113159D01*
X881093Y111472D01*
X878469Y111472D01*
X877156Y112316D01*
X878469Y115690D02*
X882406Y115690D01*
X894217Y119908D02*
X890280Y119908D01*
X887655Y118221D01*
X887655Y114846D01*
X887655Y113159D01*
X890280Y111472D01*
X892904Y111472D01*
X895529Y113159D01*
X895529Y114846D01*
X892904Y116534D01*
X890280Y116534D01*
X887655Y114846D01*
X899466Y118221D02*
X902091Y119908D01*
X904715Y119908D01*
X907340Y118221D01*
X907340Y117377D01*
X899466Y111472D01*
X907340Y111472D01*
X907340Y112316D01*
X964164Y119065D02*
X965476Y119908D01*
X968101Y119908D01*
X970726Y118221D01*
X970726Y116534D01*
X969413Y115690D01*
X970726Y114846D01*
X970726Y113159D01*
X968101Y111472D01*
X965476Y111472D01*
X964164Y112316D01*
X965476Y115690D02*
X969413Y115690D01*
X1038049Y111472D02*
X1038049Y119908D01*
X1043298Y119908D01*
X1045923Y118221D01*
X1045923Y117377D01*
X1043298Y115690D01*
X1038049Y115690D01*
X1053797Y111472D02*
X1053797Y119908D01*
X1049860Y119908D02*
X1057734Y119908D01*
X1061671Y111472D02*
X1061671Y119908D01*
X1069545Y111472D02*
X1069545Y119908D01*
X1061671Y115690D02*
X1069545Y115690D01*
X1107340Y118221D02*
X1109965Y119908D01*
X1112589Y119908D01*
X1115214Y118221D01*
X1115214Y113159D01*
X1112589Y111472D01*
X1109965Y111472D01*
X1107340Y113159D01*
X1107340Y118221D01*
X1115214Y118221D02*
X1107340Y113159D01*
X1137524Y111472D02*
X1136211Y111472D01*
X1133587Y113159D01*
X1133587Y118221D01*
X1136211Y119908D01*
X1137524Y119908D01*
X1142773Y111472D02*
X1142773Y119908D01*
X1148022Y119908D01*
X1150647Y118221D01*
X1150647Y117377D01*
X1148022Y115690D01*
X1142773Y115690D01*
X1144085Y115690D02*
X1150647Y111472D01*
X1154584Y113159D02*
X1157209Y111472D01*
X1159833Y111472D01*
X1162458Y113159D01*
X1162458Y118221D01*
X1159833Y119908D01*
X1157209Y119908D01*
X1154584Y118221D01*
X1154584Y113159D01*
X1166395Y119908D02*
X1166395Y113159D01*
X1169020Y111472D01*
X1171644Y111472D01*
X1174269Y113159D01*
X1174269Y119908D01*
X1178206Y111472D02*
X1178206Y119908D01*
X1186080Y111472D01*
X1186080Y119908D01*
X1190017Y111472D02*
X1195266Y111472D01*
X1197891Y113159D01*
X1197891Y118221D01*
X1195266Y119908D01*
X1190017Y119908D01*
X1191329Y119908D02*
X1191329Y111472D01*
X1203140Y119908D02*
X1204453Y119908D01*
X1207077Y118221D01*
X1207077Y113159D01*
X1204453Y111472D01*
X1203140Y111472D01*
X766756Y111795D02*
X772858Y111795D01*
X769807Y117004D01*
X766756Y111795D01*
X768621Y112449D02*
X769977Y112449D01*
X770655Y112885D01*
X770655Y113103D01*
X769977Y113539D01*
X770655Y113975D01*
X770655Y114193D01*
X769977Y114629D01*
X768960Y114629D01*
X768621Y114629D01*
X768960Y113539D02*
X769977Y113539D01*
X768960Y114629D02*
X768960Y112449D01*
X824663Y136050D02*
X816789Y136050D01*
X816789Y132675D01*
X822038Y132675D01*
X824663Y130988D01*
X824663Y129301D01*
X822038Y127614D01*
X816789Y127614D01*
X828600Y129301D02*
X831224Y127614D01*
X833849Y127614D01*
X836474Y129301D01*
X836474Y132675D01*
X836474Y134363D01*
X833849Y136050D01*
X831224Y136050D01*
X828600Y134363D01*
X828600Y132675D01*
X831224Y130988D01*
X833849Y130988D01*
X836474Y132675D01*
X844348Y127614D02*
X844348Y128457D01*
X852222Y134363D02*
X854846Y136050D01*
X857471Y136050D01*
X860096Y134363D01*
X860096Y129301D01*
X857471Y127614D01*
X854846Y127614D01*
X852222Y129301D01*
X852222Y134363D01*
X860096Y134363D02*
X852222Y129301D01*
X871907Y136050D02*
X864033Y136050D01*
X864033Y132675D01*
X869282Y132675D01*
X871907Y130988D01*
X871907Y129301D01*
X869282Y127614D01*
X864033Y127614D01*
X883718Y136050D02*
X875844Y136050D01*
X875844Y132675D01*
X881093Y132675D01*
X883718Y130988D01*
X883718Y129301D01*
X881093Y127614D01*
X875844Y127614D01*
X888967Y134363D02*
X891592Y136050D01*
X891592Y127614D01*
X887655Y127614D02*
X895529Y127614D01*
X899466Y134363D02*
X902091Y136050D01*
X904715Y136050D01*
X907340Y134363D01*
X907340Y133519D01*
X899466Y127614D01*
X907340Y127614D01*
X907340Y128457D01*
X968101Y127614D02*
X965476Y127614D01*
X962852Y129301D01*
X962852Y130988D01*
X964164Y131832D01*
X962852Y132675D01*
X962852Y134363D01*
X965476Y136050D01*
X968101Y136050D01*
X970726Y134363D01*
X970726Y132675D01*
X969413Y131832D01*
X970726Y130988D01*
X970726Y129301D01*
X968101Y127614D01*
X964164Y131832D02*
X969413Y131832D01*
X1038049Y127614D02*
X1038049Y136050D01*
X1043298Y136050D01*
X1045923Y134363D01*
X1045923Y133519D01*
X1043298Y131832D01*
X1038049Y131832D01*
X1053797Y127614D02*
X1053797Y136050D01*
X1049860Y136050D02*
X1057734Y136050D01*
X1061671Y127614D02*
X1061671Y136050D01*
X1069545Y127614D02*
X1069545Y136050D01*
X1061671Y131832D02*
X1069545Y131832D01*
X1107340Y134363D02*
X1109965Y136050D01*
X1112589Y136050D01*
X1115214Y134363D01*
X1115214Y129301D01*
X1112589Y127614D01*
X1109965Y127614D01*
X1107340Y129301D01*
X1107340Y134363D01*
X1115214Y134363D02*
X1107340Y129301D01*
X1137524Y127614D02*
X1136211Y127614D01*
X1133587Y129301D01*
X1133587Y134363D01*
X1136211Y136050D01*
X1137524Y136050D01*
X1142773Y127614D02*
X1142773Y136050D01*
X1148022Y136050D01*
X1150647Y134363D01*
X1150647Y133519D01*
X1148022Y131832D01*
X1142773Y131832D01*
X1144085Y131832D02*
X1150647Y127614D01*
X1154584Y129301D02*
X1157209Y127614D01*
X1159833Y127614D01*
X1162458Y129301D01*
X1162458Y134363D01*
X1159833Y136050D01*
X1157209Y136050D01*
X1154584Y134363D01*
X1154584Y129301D01*
X1166395Y136050D02*
X1166395Y129301D01*
X1169020Y127614D01*
X1171644Y127614D01*
X1174269Y129301D01*
X1174269Y136050D01*
X1178206Y127614D02*
X1178206Y136050D01*
X1186080Y127614D01*
X1186080Y136050D01*
X1190017Y127614D02*
X1195266Y127614D01*
X1197891Y129301D01*
X1197891Y134363D01*
X1195266Y136050D01*
X1190017Y136050D01*
X1191329Y136050D02*
X1191329Y127614D01*
X1203140Y136050D02*
X1204453Y136050D01*
X1207077Y134363D01*
X1207077Y129301D01*
X1204453Y127614D01*
X1203140Y127614D01*
X769807Y126812D02*
X773983Y130988D01*
X769807Y135164D01*
X765631Y130988D01*
X769807Y126812D01*
X768659Y130145D02*
X768659Y131410D01*
X769315Y132254D01*
X769971Y132254D01*
X770627Y131410D01*
X770627Y130145D01*
X768659Y130777D02*
X770627Y130777D01*
X824663Y152192D02*
X816789Y152192D01*
X816789Y148817D01*
X822038Y148817D01*
X824663Y147130D01*
X824663Y145443D01*
X822038Y143755D01*
X816789Y143755D01*
X829912Y150504D02*
X832537Y152192D01*
X832537Y143755D01*
X828600Y143755D02*
X836474Y143755D01*
X844348Y143755D02*
X844348Y144599D01*
X853534Y150504D02*
X856159Y152192D01*
X856159Y143755D01*
X852222Y143755D02*
X860096Y143755D01*
X869282Y143755D02*
X866657Y143755D01*
X864033Y145443D01*
X864033Y147130D01*
X865345Y147974D01*
X864033Y148817D01*
X864033Y150504D01*
X866657Y152192D01*
X869282Y152192D01*
X871907Y150504D01*
X871907Y148817D01*
X870594Y147974D01*
X871907Y147130D01*
X871907Y145443D01*
X869282Y143755D01*
X865345Y147974D02*
X870594Y147974D01*
X877156Y150504D02*
X879781Y152192D01*
X879781Y143755D01*
X875844Y143755D02*
X883718Y143755D01*
X888967Y150504D02*
X891592Y152192D01*
X891592Y143755D01*
X887655Y143755D02*
X895529Y143755D01*
X899466Y150504D02*
X902091Y152192D01*
X904715Y152192D01*
X907340Y150504D01*
X907340Y145443D01*
X904715Y143755D01*
X902091Y143755D01*
X899466Y145443D01*
X899466Y150504D01*
X907340Y150504D02*
X899466Y145443D01*
X964164Y151348D02*
X965476Y152192D01*
X968101Y152192D01*
X970726Y150504D01*
X970726Y148817D01*
X969413Y147974D01*
X970726Y147130D01*
X970726Y145443D01*
X968101Y143755D01*
X965476Y143755D01*
X964164Y144599D01*
X965476Y147974D02*
X969413Y147974D01*
X1038049Y143755D02*
X1038049Y152192D01*
X1043298Y152192D01*
X1045923Y150504D01*
X1045923Y149661D01*
X1043298Y147974D01*
X1038049Y147974D01*
X1053797Y143755D02*
X1053797Y152192D01*
X1049860Y152192D02*
X1057734Y152192D01*
X1061671Y143755D02*
X1061671Y152192D01*
X1069545Y143755D02*
X1069545Y152192D01*
X1061671Y147974D02*
X1069545Y147974D01*
X1107340Y150504D02*
X1109965Y152192D01*
X1112589Y152192D01*
X1115214Y150504D01*
X1115214Y145443D01*
X1112589Y143755D01*
X1109965Y143755D01*
X1107340Y145443D01*
X1107340Y150504D01*
X1115214Y150504D02*
X1107340Y145443D01*
X1137524Y143755D02*
X1136211Y143755D01*
X1133587Y145443D01*
X1133587Y150504D01*
X1136211Y152192D01*
X1137524Y152192D01*
X1142773Y143755D02*
X1142773Y152192D01*
X1148022Y152192D01*
X1150647Y150504D01*
X1150647Y149661D01*
X1148022Y147974D01*
X1142773Y147974D01*
X1144085Y147974D02*
X1150647Y143755D01*
X1154584Y145443D02*
X1157209Y143755D01*
X1159833Y143755D01*
X1162458Y145443D01*
X1162458Y150504D01*
X1159833Y152192D01*
X1157209Y152192D01*
X1154584Y150504D01*
X1154584Y145443D01*
X1166395Y152192D02*
X1166395Y145443D01*
X1169020Y143755D01*
X1171644Y143755D01*
X1174269Y145443D01*
X1174269Y152192D01*
X1178206Y143755D02*
X1178206Y152192D01*
X1186080Y143755D01*
X1186080Y152192D01*
X1190017Y143755D02*
X1195266Y143755D01*
X1197891Y145443D01*
X1197891Y150504D01*
X1195266Y152192D01*
X1190017Y152192D01*
X1191329Y152192D02*
X1191329Y143755D01*
X1203140Y152192D02*
X1204453Y152192D01*
X1207077Y150504D01*
X1207077Y145443D01*
X1204453Y143755D01*
X1203140Y143755D01*
X767248Y144571D02*
X772366Y144571D01*
X772366Y149689D01*
X767248Y149689D01*
X767248Y144571D01*
X770518Y146764D02*
X769949Y146399D01*
X769381Y146399D01*
X768812Y146764D01*
X768812Y147861D01*
X769381Y148227D01*
X769949Y148227D01*
X770518Y147861D01*
X824663Y168334D02*
X816789Y168334D01*
X816789Y164959D01*
X822038Y164959D01*
X824663Y163272D01*
X824663Y161584D01*
X822038Y159897D01*
X816789Y159897D01*
X829912Y166646D02*
X832537Y168334D01*
X832537Y159897D01*
X828600Y159897D02*
X836474Y159897D01*
X844348Y159897D02*
X844348Y160741D01*
X853534Y166646D02*
X856159Y168334D01*
X856159Y159897D01*
X852222Y159897D02*
X860096Y159897D01*
X869282Y159897D02*
X866657Y159897D01*
X864033Y161584D01*
X864033Y163272D01*
X865345Y164115D01*
X864033Y164959D01*
X864033Y166646D01*
X866657Y168334D01*
X869282Y168334D01*
X871907Y166646D01*
X871907Y164959D01*
X870594Y164115D01*
X871907Y163272D01*
X871907Y161584D01*
X869282Y159897D01*
X865345Y164115D02*
X870594Y164115D01*
X877156Y166646D02*
X879781Y168334D01*
X879781Y159897D01*
X875844Y159897D02*
X883718Y159897D01*
X887655Y166646D02*
X890280Y168334D01*
X892904Y168334D01*
X895529Y166646D01*
X895529Y161584D01*
X892904Y159897D01*
X890280Y159897D01*
X887655Y161584D01*
X887655Y166646D01*
X895529Y166646D02*
X887655Y161584D01*
X899466Y166646D02*
X902091Y168334D01*
X904715Y168334D01*
X907340Y166646D01*
X907340Y165803D01*
X899466Y159897D01*
X907340Y159897D01*
X907340Y160741D01*
X964164Y167490D02*
X965476Y168334D01*
X968101Y168334D01*
X970726Y166646D01*
X970726Y164959D01*
X969413Y164115D01*
X970726Y163272D01*
X970726Y161584D01*
X968101Y159897D01*
X965476Y159897D01*
X964164Y160741D01*
X965476Y164115D02*
X969413Y164115D01*
X1038049Y159897D02*
X1038049Y168334D01*
X1043298Y168334D01*
X1045923Y166646D01*
X1045923Y165803D01*
X1043298Y164115D01*
X1038049Y164115D01*
X1053797Y159897D02*
X1053797Y168334D01*
X1049860Y168334D02*
X1057734Y168334D01*
X1061671Y159897D02*
X1061671Y168334D01*
X1069545Y159897D02*
X1069545Y168334D01*
X1061671Y164115D02*
X1069545Y164115D01*
X1107340Y166646D02*
X1109965Y168334D01*
X1112589Y168334D01*
X1115214Y166646D01*
X1115214Y161584D01*
X1112589Y159897D01*
X1109965Y159897D01*
X1107340Y161584D01*
X1107340Y166646D01*
X1115214Y166646D02*
X1107340Y161584D01*
X1137524Y159897D02*
X1136211Y159897D01*
X1133587Y161584D01*
X1133587Y166646D01*
X1136211Y168334D01*
X1137524Y168334D01*
X1142773Y159897D02*
X1142773Y168334D01*
X1148022Y168334D01*
X1150647Y166646D01*
X1150647Y165803D01*
X1148022Y164115D01*
X1142773Y164115D01*
X1144085Y164115D02*
X1150647Y159897D01*
X1154584Y161584D02*
X1157209Y159897D01*
X1159833Y159897D01*
X1162458Y161584D01*
X1162458Y166646D01*
X1159833Y168334D01*
X1157209Y168334D01*
X1154584Y166646D01*
X1154584Y161584D01*
X1166395Y168334D02*
X1166395Y161584D01*
X1169020Y159897D01*
X1171644Y159897D01*
X1174269Y161584D01*
X1174269Y168334D01*
X1178206Y159897D02*
X1178206Y168334D01*
X1186080Y159897D01*
X1186080Y168334D01*
X1190017Y159897D02*
X1195266Y159897D01*
X1197891Y161584D01*
X1197891Y166646D01*
X1195266Y168334D01*
X1190017Y168334D01*
X1191329Y168334D02*
X1191329Y159897D01*
X1203140Y168334D02*
X1204453Y168334D01*
X1207077Y166646D01*
X1207077Y161584D01*
X1204453Y159897D01*
X1203140Y159897D01*
X769807Y159653D02*
X773426Y163272D01*
X769807Y166891D01*
X766188Y163272D01*
X769807Y159653D01*
X770518Y162906D02*
X769949Y162540D01*
X769381Y162540D01*
X768812Y162906D01*
X768812Y164003D01*
X769381Y164368D01*
X769949Y164368D01*
X770518Y164003D01*
X769807Y176073D02*
X773148Y179413D01*
X769807Y182754D01*
X766466Y179413D01*
X769807Y176073D01*
X768888Y178738D02*
X769938Y178738D01*
X770463Y179076D01*
X770463Y179245D01*
X769938Y179582D01*
X770463Y179920D01*
X770463Y180088D01*
X769938Y180426D01*
X769151Y180426D01*
X768888Y180426D01*
X769151Y179582D02*
X769938Y179582D01*
X769151Y180426D02*
X769151Y178738D01*
X824663Y179413D02*
X816789Y179413D01*
X823350Y184475D01*
X823350Y176039D01*
X822038Y176039D02*
X824663Y176039D01*
X832537Y176039D02*
X832537Y180257D01*
X836474Y182788D01*
X836474Y184475D01*
X828600Y184475D01*
X828600Y182788D01*
X844348Y176039D02*
X844348Y176882D01*
X852222Y182788D02*
X854846Y184475D01*
X857471Y184475D01*
X860096Y182788D01*
X860096Y181944D01*
X852222Y176039D01*
X860096Y176039D01*
X860096Y176882D01*
X871907Y179413D02*
X864033Y179413D01*
X870594Y184475D01*
X870594Y176039D01*
X869282Y176039D02*
X871907Y176039D01*
X883718Y179413D02*
X875844Y179413D01*
X882406Y184475D01*
X882406Y176039D01*
X881093Y176039D02*
X883718Y176039D01*
X887655Y182788D02*
X890280Y184475D01*
X892904Y184475D01*
X895529Y182788D01*
X895529Y177726D01*
X892904Y176039D01*
X890280Y176039D01*
X887655Y177726D01*
X887655Y182788D01*
X895529Y182788D02*
X887655Y177726D01*
X899466Y177726D02*
X902091Y176039D01*
X904715Y176039D01*
X907340Y177726D01*
X907340Y181101D01*
X907340Y182788D01*
X904715Y184475D01*
X902091Y184475D01*
X899466Y182788D01*
X899466Y181101D01*
X902091Y179413D01*
X904715Y179413D01*
X907340Y181101D01*
X970726Y179413D02*
X962852Y179413D01*
X969413Y184475D01*
X969413Y176039D01*
X968101Y176039D02*
X970726Y176039D01*
X1038049Y176039D02*
X1038049Y184475D01*
X1043298Y184475D01*
X1045923Y182788D01*
X1045923Y181944D01*
X1043298Y180257D01*
X1038049Y180257D01*
X1053797Y176039D02*
X1053797Y184475D01*
X1049860Y184475D02*
X1057734Y184475D01*
X1061671Y176039D02*
X1061671Y184475D01*
X1069545Y176039D02*
X1069545Y184475D01*
X1061671Y180257D02*
X1069545Y180257D01*
X1107340Y182788D02*
X1109965Y184475D01*
X1112589Y184475D01*
X1115214Y182788D01*
X1115214Y177726D01*
X1112589Y176039D01*
X1109965Y176039D01*
X1107340Y177726D01*
X1107340Y182788D01*
X1115214Y182788D02*
X1107340Y177726D01*
X1137524Y176039D02*
X1136211Y176039D01*
X1133587Y177726D01*
X1133587Y182788D01*
X1136211Y184475D01*
X1137524Y184475D01*
X1142773Y176039D02*
X1142773Y184475D01*
X1148022Y184475D01*
X1150647Y182788D01*
X1150647Y181944D01*
X1148022Y180257D01*
X1142773Y180257D01*
X1144085Y180257D02*
X1150647Y176039D01*
X1154584Y177726D02*
X1157209Y176039D01*
X1159833Y176039D01*
X1162458Y177726D01*
X1162458Y182788D01*
X1159833Y184475D01*
X1157209Y184475D01*
X1154584Y182788D01*
X1154584Y177726D01*
X1166395Y184475D02*
X1166395Y177726D01*
X1169020Y176039D01*
X1171644Y176039D01*
X1174269Y177726D01*
X1174269Y184475D01*
X1178206Y176039D02*
X1178206Y184475D01*
X1186080Y176039D01*
X1186080Y184475D01*
X1190017Y176039D02*
X1195266Y176039D01*
X1197891Y177726D01*
X1197891Y182788D01*
X1195266Y184475D01*
X1190017Y184475D01*
X1191329Y184475D02*
X1191329Y176039D01*
X1203140Y184475D02*
X1204453Y184475D01*
X1207077Y182788D01*
X1207077Y177726D01*
X1204453Y176039D01*
X1203140Y176039D01*
X768900Y194888D02*
X768900Y195888D01*
X769418Y196555D01*
X769937Y196555D01*
X770455Y195888D01*
X770455Y194888D01*
X768900Y195388D02*
X770455Y195388D01*
X767474Y195555D02*
G75*
D01*
G02X767474Y195555I2333J0*
G01*
X824663Y195555D02*
X816789Y195555D01*
X823350Y200617D01*
X823350Y192181D01*
X822038Y192181D02*
X824663Y192181D01*
X835161Y200617D02*
X831224Y200617D01*
X828600Y198930D01*
X828600Y195555D01*
X828600Y193868D01*
X831224Y192181D01*
X833849Y192181D01*
X836474Y193868D01*
X836474Y195555D01*
X833849Y197242D01*
X831224Y197242D01*
X828600Y195555D01*
X844348Y192181D02*
X844348Y193024D01*
X858783Y200617D02*
X854846Y200617D01*
X852222Y198930D01*
X852222Y195555D01*
X852222Y193868D01*
X854846Y192181D01*
X857471Y192181D01*
X860096Y193868D01*
X860096Y195555D01*
X857471Y197242D01*
X854846Y197242D01*
X852222Y195555D01*
X867970Y192181D02*
X867970Y196399D01*
X871907Y198930D01*
X871907Y200617D01*
X864033Y200617D01*
X864033Y198930D01*
X875844Y198930D02*
X878469Y200617D01*
X881093Y200617D01*
X883718Y198930D01*
X883718Y193868D01*
X881093Y192181D01*
X878469Y192181D01*
X875844Y193868D01*
X875844Y198930D01*
X883718Y198930D02*
X875844Y193868D01*
X887655Y198930D02*
X890280Y200617D01*
X892904Y200617D01*
X895529Y198930D01*
X895529Y193868D01*
X892904Y192181D01*
X890280Y192181D01*
X887655Y193868D01*
X887655Y198930D01*
X895529Y198930D02*
X887655Y193868D01*
X899466Y198930D02*
X902091Y200617D01*
X904715Y200617D01*
X907340Y198930D01*
X907340Y193868D01*
X904715Y192181D01*
X902091Y192181D01*
X899466Y193868D01*
X899466Y198930D01*
X907340Y198930D02*
X899466Y193868D01*
X969413Y200617D02*
X965476Y200617D01*
X962852Y198930D01*
X962852Y195555D01*
X962852Y193868D01*
X965476Y192181D01*
X968101Y192181D01*
X970726Y193868D01*
X970726Y195555D01*
X968101Y197242D01*
X965476Y197242D01*
X962852Y195555D01*
X1038049Y192181D02*
X1038049Y200617D01*
X1043298Y200617D01*
X1045923Y198930D01*
X1045923Y198086D01*
X1043298Y196399D01*
X1038049Y196399D01*
X1053797Y192181D02*
X1053797Y200617D01*
X1049860Y200617D02*
X1057734Y200617D01*
X1061671Y192181D02*
X1061671Y200617D01*
X1069545Y192181D02*
X1069545Y200617D01*
X1061671Y196399D02*
X1069545Y196399D01*
X1107340Y198930D02*
X1109965Y200617D01*
X1112589Y200617D01*
X1115214Y198930D01*
X1115214Y193868D01*
X1112589Y192181D01*
X1109965Y192181D01*
X1107340Y193868D01*
X1107340Y198930D01*
X1115214Y198930D02*
X1107340Y193868D01*
X1137524Y192181D02*
X1136211Y192181D01*
X1133587Y193868D01*
X1133587Y198930D01*
X1136211Y200617D01*
X1137524Y200617D01*
X1142773Y192181D02*
X1142773Y200617D01*
X1148022Y200617D01*
X1150647Y198930D01*
X1150647Y198086D01*
X1148022Y196399D01*
X1142773Y196399D01*
X1144085Y196399D02*
X1150647Y192181D01*
X1154584Y193868D02*
X1157209Y192181D01*
X1159833Y192181D01*
X1162458Y193868D01*
X1162458Y198930D01*
X1159833Y200617D01*
X1157209Y200617D01*
X1154584Y198930D01*
X1154584Y193868D01*
X1166395Y200617D02*
X1166395Y193868D01*
X1169020Y192181D01*
X1171644Y192181D01*
X1174269Y193868D01*
X1174269Y200617D01*
X1178206Y192181D02*
X1178206Y200617D01*
X1186080Y192181D01*
X1186080Y200617D01*
X1190017Y192181D02*
X1195266Y192181D01*
X1197891Y193868D01*
X1197891Y198930D01*
X1195266Y200617D01*
X1190017Y200617D01*
X1191329Y200617D02*
X1191329Y192181D01*
X1203140Y200617D02*
X1204453Y200617D01*
X1207077Y198930D01*
X1207077Y193868D01*
X1204453Y192181D01*
X1203140Y192181D01*
X769042Y211134D02*
X769916Y211134D01*
X770354Y211416D01*
X770354Y211556D01*
X769916Y211837D01*
X770354Y212119D01*
X770354Y212259D01*
X769916Y212540D01*
X769260Y212540D01*
X769042Y212540D01*
X769260Y211837D02*
X769916Y211837D01*
X769260Y212540D02*
X769260Y211134D01*
X767839Y209728D02*
X771776Y209728D01*
X771776Y213665D01*
X767839Y213665D01*
X767839Y209728D01*
X818101Y215915D02*
X819413Y216759D01*
X822038Y216759D01*
X824663Y215071D01*
X824663Y213384D01*
X823350Y212540D01*
X824663Y211697D01*
X824663Y210010D01*
X822038Y208322D01*
X819413Y208322D01*
X818101Y209166D01*
X819413Y212540D02*
X823350Y212540D01*
X828600Y210010D02*
X831224Y208322D01*
X833849Y208322D01*
X836474Y210010D01*
X836474Y213384D01*
X836474Y215071D01*
X833849Y216759D01*
X831224Y216759D01*
X828600Y215071D01*
X828600Y213384D01*
X831224Y211697D01*
X833849Y211697D01*
X836474Y213384D01*
X844348Y208322D02*
X844348Y209166D01*
X853534Y215915D02*
X854846Y216759D01*
X857471Y216759D01*
X860096Y215071D01*
X860096Y213384D01*
X858783Y212540D01*
X860096Y211697D01*
X860096Y210010D01*
X857471Y208322D01*
X854846Y208322D01*
X853534Y209166D01*
X854846Y212540D02*
X858783Y212540D01*
X867970Y208322D02*
X867970Y212540D01*
X871907Y215071D01*
X871907Y216759D01*
X864033Y216759D01*
X864033Y215071D01*
X875844Y215071D02*
X878469Y216759D01*
X881093Y216759D01*
X883718Y215071D01*
X883718Y210010D01*
X881093Y208322D01*
X878469Y208322D01*
X875844Y210010D01*
X875844Y215071D01*
X883718Y215071D02*
X875844Y210010D01*
X887655Y215071D02*
X890280Y216759D01*
X892904Y216759D01*
X895529Y215071D01*
X895529Y210010D01*
X892904Y208322D01*
X890280Y208322D01*
X887655Y210010D01*
X887655Y215071D01*
X895529Y215071D02*
X887655Y210010D01*
X904715Y208322D02*
X902091Y208322D01*
X899466Y210010D01*
X899466Y211697D01*
X900778Y212540D01*
X899466Y213384D01*
X899466Y215071D01*
X902091Y216759D01*
X904715Y216759D01*
X907340Y215071D01*
X907340Y213384D01*
X906028Y212540D01*
X907340Y211697D01*
X907340Y210010D01*
X904715Y208322D01*
X900778Y212540D02*
X906028Y212540D01*
X969413Y216759D02*
X965476Y216759D01*
X962852Y215071D01*
X962852Y211697D01*
X962852Y210010D01*
X965476Y208322D01*
X968101Y208322D01*
X970726Y210010D01*
X970726Y211697D01*
X968101Y213384D01*
X965476Y213384D01*
X962852Y211697D01*
X1038049Y208322D02*
X1038049Y216759D01*
X1043298Y216759D01*
X1045923Y215071D01*
X1045923Y214228D01*
X1043298Y212540D01*
X1038049Y212540D01*
X1053797Y208322D02*
X1053797Y216759D01*
X1049860Y216759D02*
X1057734Y216759D01*
X1061671Y208322D02*
X1061671Y216759D01*
X1069545Y208322D02*
X1069545Y216759D01*
X1061671Y212540D02*
X1069545Y212540D01*
X1107340Y215071D02*
X1109965Y216759D01*
X1112589Y216759D01*
X1115214Y215071D01*
X1115214Y210010D01*
X1112589Y208322D01*
X1109965Y208322D01*
X1107340Y210010D01*
X1107340Y215071D01*
X1115214Y215071D02*
X1107340Y210010D01*
X1137524Y208322D02*
X1136211Y208322D01*
X1133587Y210010D01*
X1133587Y215071D01*
X1136211Y216759D01*
X1137524Y216759D01*
X1142773Y208322D02*
X1142773Y216759D01*
X1148022Y216759D01*
X1150647Y215071D01*
X1150647Y214228D01*
X1148022Y212540D01*
X1142773Y212540D01*
X1144085Y212540D02*
X1150647Y208322D01*
X1154584Y210010D02*
X1157209Y208322D01*
X1159833Y208322D01*
X1162458Y210010D01*
X1162458Y215071D01*
X1159833Y216759D01*
X1157209Y216759D01*
X1154584Y215071D01*
X1154584Y210010D01*
X1166395Y216759D02*
X1166395Y210010D01*
X1169020Y208322D01*
X1171644Y208322D01*
X1174269Y210010D01*
X1174269Y216759D01*
X1178206Y208322D02*
X1178206Y216759D01*
X1186080Y208322D01*
X1186080Y216759D01*
X1190017Y208322D02*
X1195266Y208322D01*
X1197891Y210010D01*
X1197891Y215071D01*
X1195266Y216759D01*
X1190017Y216759D01*
X1191329Y216759D02*
X1191329Y208322D01*
X1203140Y216759D02*
X1204453Y216759D01*
X1207077Y215071D01*
X1207077Y210010D01*
X1204453Y208322D01*
X1203140Y208322D01*
X818101Y232057D02*
X819413Y232900D01*
X822038Y232900D01*
X824663Y231213D01*
X824663Y229526D01*
X823350Y228682D01*
X824663Y227839D01*
X824663Y226151D01*
X822038Y224464D01*
X819413Y224464D01*
X818101Y225308D01*
X819413Y228682D02*
X823350Y228682D01*
X828600Y226151D02*
X831224Y224464D01*
X833849Y224464D01*
X836474Y226151D01*
X836474Y229526D01*
X836474Y231213D01*
X833849Y232900D01*
X831224Y232900D01*
X828600Y231213D01*
X828600Y229526D01*
X831224Y227839D01*
X833849Y227839D01*
X836474Y229526D01*
X844348Y224464D02*
X844348Y225308D01*
X853534Y231213D02*
X856159Y232900D01*
X856159Y224464D01*
X852222Y224464D02*
X860096Y224464D01*
X867970Y224464D02*
X867970Y228682D01*
X871907Y231213D01*
X871907Y232900D01*
X864033Y232900D01*
X864033Y231213D01*
X875844Y231213D02*
X878469Y232900D01*
X881093Y232900D01*
X883718Y231213D01*
X883718Y226151D01*
X881093Y224464D01*
X878469Y224464D01*
X875844Y226151D01*
X875844Y231213D01*
X883718Y231213D02*
X875844Y226151D01*
X887655Y231213D02*
X890280Y232900D01*
X892904Y232900D01*
X895529Y231213D01*
X895529Y226151D01*
X892904Y224464D01*
X890280Y224464D01*
X887655Y226151D01*
X887655Y231213D01*
X895529Y231213D02*
X887655Y226151D01*
X899466Y231213D02*
X902091Y232900D01*
X904715Y232900D01*
X907340Y231213D01*
X907340Y226151D01*
X904715Y224464D01*
X902091Y224464D01*
X899466Y226151D01*
X899466Y231213D01*
X907340Y231213D02*
X899466Y226151D01*
X968101Y224464D02*
X965476Y224464D01*
X962852Y226151D01*
X962852Y227839D01*
X964164Y228682D01*
X962852Y229526D01*
X962852Y231213D01*
X965476Y232900D01*
X968101Y232900D01*
X970726Y231213D01*
X970726Y229526D01*
X969413Y228682D01*
X970726Y227839D01*
X970726Y226151D01*
X968101Y224464D01*
X964164Y228682D02*
X969413Y228682D01*
X1038049Y224464D02*
X1038049Y232900D01*
X1043298Y232900D01*
X1045923Y231213D01*
X1045923Y230370D01*
X1043298Y228682D01*
X1038049Y228682D01*
X1053797Y224464D02*
X1053797Y232900D01*
X1049860Y232900D02*
X1057734Y232900D01*
X1061671Y224464D02*
X1061671Y232900D01*
X1069545Y224464D02*
X1069545Y232900D01*
X1061671Y228682D02*
X1069545Y228682D01*
X1107340Y231213D02*
X1109965Y232900D01*
X1112589Y232900D01*
X1115214Y231213D01*
X1115214Y226151D01*
X1112589Y224464D01*
X1109965Y224464D01*
X1107340Y226151D01*
X1107340Y231213D01*
X1115214Y231213D02*
X1107340Y226151D01*
X1137524Y224464D02*
X1136211Y224464D01*
X1133587Y226151D01*
X1133587Y231213D01*
X1136211Y232900D01*
X1137524Y232900D01*
X1142773Y224464D02*
X1142773Y232900D01*
X1148022Y232900D01*
X1150647Y231213D01*
X1150647Y230370D01*
X1148022Y228682D01*
X1142773Y228682D01*
X1144085Y228682D02*
X1150647Y224464D01*
X1154584Y226151D02*
X1157209Y224464D01*
X1159833Y224464D01*
X1162458Y226151D01*
X1162458Y231213D01*
X1159833Y232900D01*
X1157209Y232900D01*
X1154584Y231213D01*
X1154584Y226151D01*
X1166395Y232900D02*
X1166395Y226151D01*
X1169020Y224464D01*
X1171644Y224464D01*
X1174269Y226151D01*
X1174269Y232900D01*
X1178206Y224464D02*
X1178206Y232900D01*
X1186080Y224464D01*
X1186080Y232900D01*
X1190017Y224464D02*
X1195266Y224464D01*
X1197891Y226151D01*
X1197891Y231213D01*
X1195266Y232900D01*
X1190017Y232900D01*
X1191329Y232900D02*
X1191329Y224464D01*
X1203140Y232900D02*
X1204453Y232900D01*
X1207077Y231213D01*
X1207077Y226151D01*
X1204453Y224464D01*
X1203140Y224464D01*
X818101Y248199D02*
X819413Y249042D01*
X822038Y249042D01*
X824663Y247355D01*
X824663Y245668D01*
X823350Y244824D01*
X824663Y243980D01*
X824663Y242293D01*
X822038Y240606D01*
X819413Y240606D01*
X818101Y241449D01*
X819413Y244824D02*
X823350Y244824D01*
X832537Y240606D02*
X832537Y244824D01*
X836474Y247355D01*
X836474Y249042D01*
X828600Y249042D01*
X828600Y247355D01*
X844348Y240606D02*
X844348Y241449D01*
X852222Y247355D02*
X854846Y249042D01*
X857471Y249042D01*
X860096Y247355D01*
X860096Y242293D01*
X857471Y240606D01*
X854846Y240606D01*
X852222Y242293D01*
X852222Y247355D01*
X860096Y247355D02*
X852222Y242293D01*
X864033Y247355D02*
X866657Y249042D01*
X869282Y249042D01*
X871907Y247355D01*
X871907Y242293D01*
X869282Y240606D01*
X866657Y240606D01*
X864033Y242293D01*
X864033Y247355D01*
X871907Y247355D02*
X864033Y242293D01*
X875844Y247355D02*
X878469Y249042D01*
X881093Y249042D01*
X883718Y247355D01*
X883718Y242293D01*
X881093Y240606D01*
X878469Y240606D01*
X875844Y242293D01*
X875844Y247355D01*
X883718Y247355D02*
X875844Y242293D01*
X887655Y247355D02*
X890280Y249042D01*
X892904Y249042D01*
X895529Y247355D01*
X895529Y242293D01*
X892904Y240606D01*
X890280Y240606D01*
X887655Y242293D01*
X887655Y247355D01*
X895529Y247355D02*
X887655Y242293D01*
X899466Y247355D02*
X902091Y249042D01*
X904715Y249042D01*
X907340Y247355D01*
X907340Y242293D01*
X904715Y240606D01*
X902091Y240606D01*
X899466Y242293D01*
X899466Y247355D01*
X907340Y247355D02*
X899466Y242293D01*
X970726Y243980D02*
X962852Y243980D01*
X969413Y249042D01*
X969413Y240606D01*
X968101Y240606D02*
X970726Y240606D01*
X1038049Y240606D02*
X1038049Y249042D01*
X1043298Y249042D01*
X1045923Y247355D01*
X1045923Y246511D01*
X1043298Y244824D01*
X1038049Y244824D01*
X1053797Y240606D02*
X1053797Y249042D01*
X1049860Y249042D02*
X1057734Y249042D01*
X1061671Y240606D02*
X1061671Y249042D01*
X1069545Y240606D02*
X1069545Y249042D01*
X1061671Y244824D02*
X1069545Y244824D01*
X1107340Y247355D02*
X1109965Y249042D01*
X1112589Y249042D01*
X1115214Y247355D01*
X1115214Y242293D01*
X1112589Y240606D01*
X1109965Y240606D01*
X1107340Y242293D01*
X1107340Y247355D01*
X1115214Y247355D02*
X1107340Y242293D01*
X1137524Y240606D02*
X1136211Y240606D01*
X1133587Y242293D01*
X1133587Y247355D01*
X1136211Y249042D01*
X1137524Y249042D01*
X1142773Y240606D02*
X1142773Y249042D01*
X1148022Y249042D01*
X1150647Y247355D01*
X1150647Y246511D01*
X1148022Y244824D01*
X1142773Y244824D01*
X1144085Y244824D02*
X1150647Y240606D01*
X1154584Y242293D02*
X1157209Y240606D01*
X1159833Y240606D01*
X1162458Y242293D01*
X1162458Y247355D01*
X1159833Y249042D01*
X1157209Y249042D01*
X1154584Y247355D01*
X1154584Y242293D01*
X1166395Y249042D02*
X1166395Y242293D01*
X1169020Y240606D01*
X1171644Y240606D01*
X1174269Y242293D01*
X1174269Y249042D01*
X1178206Y240606D02*
X1178206Y249042D01*
X1186080Y240606D01*
X1186080Y249042D01*
X1190017Y240606D02*
X1195266Y240606D01*
X1197891Y242293D01*
X1197891Y247355D01*
X1195266Y249042D01*
X1190017Y249042D01*
X1191329Y249042D02*
X1191329Y240606D01*
X1203140Y249042D02*
X1204453Y249042D01*
X1207077Y247355D01*
X1207077Y242293D01*
X1204453Y240606D01*
X1203140Y240606D01*
X818101Y264340D02*
X819413Y265184D01*
X822038Y265184D01*
X824663Y263497D01*
X824663Y261809D01*
X823350Y260966D01*
X824663Y260122D01*
X824663Y258435D01*
X822038Y256747D01*
X819413Y256747D01*
X818101Y257591D01*
X819413Y260966D02*
X823350Y260966D01*
X836474Y265184D02*
X828600Y265184D01*
X828600Y261809D01*
X833849Y261809D01*
X836474Y260122D01*
X836474Y258435D01*
X833849Y256747D01*
X828600Y256747D01*
X844348Y256747D02*
X844348Y257591D01*
X860096Y260122D02*
X852222Y260122D01*
X858783Y265184D01*
X858783Y256747D01*
X857471Y256747D02*
X860096Y256747D01*
X865345Y264340D02*
X866657Y265184D01*
X869282Y265184D01*
X871907Y263497D01*
X871907Y261809D01*
X870594Y260966D01*
X871907Y260122D01*
X871907Y258435D01*
X869282Y256747D01*
X866657Y256747D01*
X865345Y257591D01*
X866657Y260966D02*
X870594Y260966D01*
X877156Y264340D02*
X878469Y265184D01*
X881093Y265184D01*
X883718Y263497D01*
X883718Y261809D01*
X882406Y260966D01*
X883718Y260122D01*
X883718Y258435D01*
X881093Y256747D01*
X878469Y256747D01*
X877156Y257591D01*
X878469Y260966D02*
X882406Y260966D01*
X887655Y263497D02*
X890280Y265184D01*
X892904Y265184D01*
X895529Y263497D01*
X895529Y258435D01*
X892904Y256747D01*
X890280Y256747D01*
X887655Y258435D01*
X887655Y263497D01*
X895529Y263497D02*
X887655Y258435D01*
X903403Y256747D02*
X903403Y260966D01*
X907340Y263497D01*
X907340Y265184D01*
X899466Y265184D01*
X899466Y263497D01*
X958259Y263497D02*
X960883Y265184D01*
X960883Y256747D01*
X956946Y256747D02*
X964820Y256747D01*
X975319Y265184D02*
X971382Y265184D01*
X968757Y263497D01*
X968757Y260122D01*
X968757Y258435D01*
X971382Y256747D01*
X974007Y256747D01*
X976631Y258435D01*
X976631Y260122D01*
X974007Y261809D01*
X971382Y261809D01*
X968757Y260122D01*
X1038049Y256747D02*
X1038049Y265184D01*
X1043298Y265184D01*
X1045923Y263497D01*
X1045923Y262653D01*
X1043298Y260966D01*
X1038049Y260966D01*
X1053797Y256747D02*
X1053797Y265184D01*
X1049860Y265184D02*
X1057734Y265184D01*
X1061671Y256747D02*
X1061671Y265184D01*
X1069545Y256747D02*
X1069545Y265184D01*
X1061671Y260966D02*
X1069545Y260966D01*
X1107340Y263497D02*
X1109965Y265184D01*
X1112589Y265184D01*
X1115214Y263497D01*
X1115214Y258435D01*
X1112589Y256747D01*
X1109965Y256747D01*
X1107340Y258435D01*
X1107340Y263497D01*
X1115214Y263497D02*
X1107340Y258435D01*
X1137524Y256747D02*
X1136211Y256747D01*
X1133587Y258435D01*
X1133587Y263497D01*
X1136211Y265184D01*
X1137524Y265184D01*
X1142773Y256747D02*
X1142773Y265184D01*
X1148022Y265184D01*
X1150647Y263497D01*
X1150647Y262653D01*
X1148022Y260966D01*
X1142773Y260966D01*
X1144085Y260966D02*
X1150647Y256747D01*
X1154584Y258435D02*
X1157209Y256747D01*
X1159833Y256747D01*
X1162458Y258435D01*
X1162458Y263497D01*
X1159833Y265184D01*
X1157209Y265184D01*
X1154584Y263497D01*
X1154584Y258435D01*
X1166395Y265184D02*
X1166395Y258435D01*
X1169020Y256747D01*
X1171644Y256747D01*
X1174269Y258435D01*
X1174269Y265184D01*
X1178206Y256747D02*
X1178206Y265184D01*
X1186080Y256747D01*
X1186080Y265184D01*
X1190017Y256747D02*
X1195266Y256747D01*
X1197891Y258435D01*
X1197891Y263497D01*
X1195266Y265184D01*
X1190017Y265184D01*
X1191329Y265184D02*
X1191329Y256747D01*
X1203140Y265184D02*
X1204453Y265184D01*
X1207077Y263497D01*
X1207077Y258435D01*
X1204453Y256747D01*
X1203140Y256747D01*
X818101Y280482D02*
X819413Y281326D01*
X822038Y281326D01*
X824663Y279638D01*
X824663Y277951D01*
X823350Y277107D01*
X824663Y276264D01*
X824663Y274576D01*
X822038Y272889D01*
X819413Y272889D01*
X818101Y273733D01*
X819413Y277107D02*
X823350Y277107D01*
X836474Y281326D02*
X828600Y281326D01*
X828600Y277951D01*
X833849Y277951D01*
X836474Y276264D01*
X836474Y274576D01*
X833849Y272889D01*
X828600Y272889D01*
X844348Y272889D02*
X844348Y273733D01*
X852222Y279638D02*
X854846Y281326D01*
X857471Y281326D01*
X860096Y279638D01*
X860096Y274576D01*
X857471Y272889D01*
X854846Y272889D01*
X852222Y274576D01*
X852222Y279638D01*
X860096Y279638D02*
X852222Y274576D01*
X864033Y279638D02*
X866657Y281326D01*
X869282Y281326D01*
X871907Y279638D01*
X871907Y274576D01*
X869282Y272889D01*
X866657Y272889D01*
X864033Y274576D01*
X864033Y279638D01*
X871907Y279638D02*
X864033Y274576D01*
X875844Y279638D02*
X878469Y281326D01*
X881093Y281326D01*
X883718Y279638D01*
X883718Y274576D01*
X881093Y272889D01*
X878469Y272889D01*
X875844Y274576D01*
X875844Y279638D01*
X883718Y279638D02*
X875844Y274576D01*
X887655Y279638D02*
X890280Y281326D01*
X892904Y281326D01*
X895529Y279638D01*
X895529Y274576D01*
X892904Y272889D01*
X890280Y272889D01*
X887655Y274576D01*
X887655Y279638D01*
X895529Y279638D02*
X887655Y274576D01*
X899466Y279638D02*
X902091Y281326D01*
X904715Y281326D01*
X907340Y279638D01*
X907340Y274576D01*
X904715Y272889D01*
X902091Y272889D01*
X899466Y274576D01*
X899466Y279638D01*
X907340Y279638D02*
X899466Y274576D01*
X960883Y272889D02*
X960883Y277107D01*
X964820Y279638D01*
X964820Y281326D01*
X956946Y281326D01*
X956946Y279638D01*
X970070Y279638D02*
X972694Y281326D01*
X972694Y272889D01*
X968757Y272889D02*
X976631Y272889D01*
X1038049Y272889D02*
X1038049Y281326D01*
X1043298Y281326D01*
X1045923Y279638D01*
X1045923Y278795D01*
X1043298Y277107D01*
X1038049Y277107D01*
X1053797Y272889D02*
X1053797Y281326D01*
X1049860Y281326D02*
X1057734Y281326D01*
X1061671Y272889D02*
X1061671Y281326D01*
X1069545Y272889D02*
X1069545Y281326D01*
X1061671Y277107D02*
X1069545Y277107D01*
X1107340Y279638D02*
X1109965Y281326D01*
X1112589Y281326D01*
X1115214Y279638D01*
X1115214Y274576D01*
X1112589Y272889D01*
X1109965Y272889D01*
X1107340Y274576D01*
X1107340Y279638D01*
X1115214Y279638D02*
X1107340Y274576D01*
X1137524Y272889D02*
X1136211Y272889D01*
X1133587Y274576D01*
X1133587Y279638D01*
X1136211Y281326D01*
X1137524Y281326D01*
X1142773Y272889D02*
X1142773Y281326D01*
X1148022Y281326D01*
X1150647Y279638D01*
X1150647Y278795D01*
X1148022Y277107D01*
X1142773Y277107D01*
X1144085Y277107D02*
X1150647Y272889D01*
X1154584Y274576D02*
X1157209Y272889D01*
X1159833Y272889D01*
X1162458Y274576D01*
X1162458Y279638D01*
X1159833Y281326D01*
X1157209Y281326D01*
X1154584Y279638D01*
X1154584Y274576D01*
X1166395Y281326D02*
X1166395Y274576D01*
X1169020Y272889D01*
X1171644Y272889D01*
X1174269Y274576D01*
X1174269Y281326D01*
X1178206Y272889D02*
X1178206Y281326D01*
X1186080Y272889D01*
X1186080Y281326D01*
X1190017Y272889D02*
X1195266Y272889D01*
X1197891Y274576D01*
X1197891Y279638D01*
X1195266Y281326D01*
X1190017Y281326D01*
X1191329Y281326D02*
X1191329Y272889D01*
X1203140Y281326D02*
X1204453Y281326D01*
X1207077Y279638D01*
X1207077Y274576D01*
X1204453Y272889D01*
X1203140Y272889D01*
X818101Y296624D02*
X819413Y297467D01*
X822038Y297467D01*
X824663Y295780D01*
X824663Y294093D01*
X823350Y293249D01*
X824663Y292406D01*
X824663Y290718D01*
X822038Y289031D01*
X819413Y289031D01*
X818101Y289875D01*
X819413Y293249D02*
X823350Y293249D01*
X828600Y295780D02*
X831224Y297467D01*
X833849Y297467D01*
X836474Y295780D01*
X836474Y294936D01*
X828600Y289031D01*
X836474Y289031D01*
X836474Y289875D01*
X844348Y289031D02*
X844348Y289875D01*
X852222Y295780D02*
X854846Y297467D01*
X857471Y297467D01*
X860096Y295780D01*
X860096Y290718D01*
X857471Y289031D01*
X854846Y289031D01*
X852222Y290718D01*
X852222Y295780D01*
X860096Y295780D02*
X852222Y290718D01*
X864033Y295780D02*
X866657Y297467D01*
X869282Y297467D01*
X871907Y295780D01*
X871907Y290718D01*
X869282Y289031D01*
X866657Y289031D01*
X864033Y290718D01*
X864033Y295780D01*
X871907Y295780D02*
X864033Y290718D01*
X875844Y295780D02*
X878469Y297467D01*
X881093Y297467D01*
X883718Y295780D01*
X883718Y290718D01*
X881093Y289031D01*
X878469Y289031D01*
X875844Y290718D01*
X875844Y295780D01*
X883718Y295780D02*
X875844Y290718D01*
X887655Y295780D02*
X890280Y297467D01*
X892904Y297467D01*
X895529Y295780D01*
X895529Y290718D01*
X892904Y289031D01*
X890280Y289031D01*
X887655Y290718D01*
X887655Y295780D01*
X895529Y295780D02*
X887655Y290718D01*
X899466Y295780D02*
X902091Y297467D01*
X904715Y297467D01*
X907340Y295780D01*
X907340Y290718D01*
X904715Y289031D01*
X902091Y289031D01*
X899466Y290718D01*
X899466Y295780D01*
X907340Y295780D02*
X899466Y290718D01*
X958259Y295780D02*
X960883Y297467D01*
X960883Y289031D01*
X956946Y289031D02*
X964820Y289031D01*
X968757Y295780D02*
X971382Y297467D01*
X974007Y297467D01*
X976631Y295780D01*
X976631Y294936D01*
X968757Y289031D01*
X976631Y289031D01*
X976631Y289875D01*
X1038049Y289031D02*
X1038049Y297467D01*
X1043298Y297467D01*
X1045923Y295780D01*
X1045923Y294936D01*
X1043298Y293249D01*
X1038049Y293249D01*
X1053797Y289031D02*
X1053797Y297467D01*
X1049860Y297467D02*
X1057734Y297467D01*
X1061671Y289031D02*
X1061671Y297467D01*
X1069545Y289031D02*
X1069545Y297467D01*
X1061671Y293249D02*
X1069545Y293249D01*
X1107340Y295780D02*
X1109965Y297467D01*
X1112589Y297467D01*
X1115214Y295780D01*
X1115214Y290718D01*
X1112589Y289031D01*
X1109965Y289031D01*
X1107340Y290718D01*
X1107340Y295780D01*
X1115214Y295780D02*
X1107340Y290718D01*
X1137524Y289031D02*
X1136211Y289031D01*
X1133587Y290718D01*
X1133587Y295780D01*
X1136211Y297467D01*
X1137524Y297467D01*
X1142773Y289031D02*
X1142773Y297467D01*
X1148022Y297467D01*
X1150647Y295780D01*
X1150647Y294936D01*
X1148022Y293249D01*
X1142773Y293249D01*
X1144085Y293249D02*
X1150647Y289031D01*
X1154584Y290718D02*
X1157209Y289031D01*
X1159833Y289031D01*
X1162458Y290718D01*
X1162458Y295780D01*
X1159833Y297467D01*
X1157209Y297467D01*
X1154584Y295780D01*
X1154584Y290718D01*
X1166395Y297467D02*
X1166395Y290718D01*
X1169020Y289031D01*
X1171644Y289031D01*
X1174269Y290718D01*
X1174269Y297467D01*
X1178206Y289031D02*
X1178206Y297467D01*
X1186080Y289031D01*
X1186080Y297467D01*
X1190017Y289031D02*
X1195266Y289031D01*
X1197891Y290718D01*
X1197891Y295780D01*
X1195266Y297467D01*
X1190017Y297467D01*
X1191329Y297467D02*
X1191329Y289031D01*
X1203140Y297467D02*
X1204453Y297467D01*
X1207077Y295780D01*
X1207077Y290718D01*
X1204453Y289031D01*
X1203140Y289031D01*
X816789Y311922D02*
X819413Y313609D01*
X822038Y313609D01*
X824663Y311922D01*
X824663Y311078D01*
X816789Y305173D01*
X824663Y305173D01*
X824663Y306016D01*
X828600Y306860D02*
X831224Y305173D01*
X833849Y305173D01*
X836474Y306860D01*
X836474Y310235D01*
X836474Y311922D01*
X833849Y313609D01*
X831224Y313609D01*
X828600Y311922D01*
X828600Y310235D01*
X831224Y308547D01*
X833849Y308547D01*
X836474Y310235D01*
X844348Y305173D02*
X844348Y306016D01*
X860096Y313609D02*
X852222Y313609D01*
X852222Y310235D01*
X857471Y310235D01*
X860096Y308547D01*
X860096Y306860D01*
X857471Y305173D01*
X852222Y305173D01*
X864033Y311922D02*
X866657Y313609D01*
X869282Y313609D01*
X871907Y311922D01*
X871907Y311078D01*
X864033Y305173D01*
X871907Y305173D01*
X871907Y306016D01*
X879781Y305173D02*
X879781Y309391D01*
X883718Y311922D01*
X883718Y313609D01*
X875844Y313609D01*
X875844Y311922D01*
X895529Y313609D02*
X887655Y313609D01*
X887655Y310235D01*
X892904Y310235D01*
X895529Y308547D01*
X895529Y306860D01*
X892904Y305173D01*
X887655Y305173D01*
X906028Y313609D02*
X902091Y313609D01*
X899466Y311922D01*
X899466Y308547D01*
X899466Y306860D01*
X902091Y305173D01*
X904715Y305173D01*
X907340Y306860D01*
X907340Y308547D01*
X904715Y310235D01*
X902091Y310235D01*
X899466Y308547D01*
X970726Y308547D02*
X962852Y308547D01*
X969413Y313609D01*
X969413Y305173D01*
X968101Y305173D02*
X970726Y305173D01*
X1038049Y305173D02*
X1038049Y313609D01*
X1043298Y313609D01*
X1045923Y311922D01*
X1045923Y311078D01*
X1043298Y309391D01*
X1038049Y309391D01*
X1053797Y305173D02*
X1053797Y313609D01*
X1049860Y313609D02*
X1057734Y313609D01*
X1061671Y305173D02*
X1061671Y313609D01*
X1069545Y305173D02*
X1069545Y313609D01*
X1061671Y309391D02*
X1069545Y309391D01*
X1107340Y311922D02*
X1109965Y313609D01*
X1112589Y313609D01*
X1115214Y311922D01*
X1115214Y306860D01*
X1112589Y305173D01*
X1109965Y305173D01*
X1107340Y306860D01*
X1107340Y311922D01*
X1115214Y311922D02*
X1107340Y306860D01*
X1137524Y305173D02*
X1136211Y305173D01*
X1133587Y306860D01*
X1133587Y311922D01*
X1136211Y313609D01*
X1137524Y313609D01*
X1142773Y305173D02*
X1142773Y313609D01*
X1148022Y313609D01*
X1150647Y311922D01*
X1150647Y311078D01*
X1148022Y309391D01*
X1142773Y309391D01*
X1144085Y309391D02*
X1150647Y305173D01*
X1154584Y306860D02*
X1157209Y305173D01*
X1159833Y305173D01*
X1162458Y306860D01*
X1162458Y311922D01*
X1159833Y313609D01*
X1157209Y313609D01*
X1154584Y311922D01*
X1154584Y306860D01*
X1166395Y313609D02*
X1166395Y306860D01*
X1169020Y305173D01*
X1171644Y305173D01*
X1174269Y306860D01*
X1174269Y313609D01*
X1178206Y305173D02*
X1178206Y313609D01*
X1186080Y305173D01*
X1186080Y313609D01*
X1190017Y305173D02*
X1195266Y305173D01*
X1197891Y306860D01*
X1197891Y311922D01*
X1195266Y313609D01*
X1190017Y313609D01*
X1191329Y313609D02*
X1191329Y305173D01*
X1203140Y313609D02*
X1204453Y313609D01*
X1207077Y311922D01*
X1207077Y306860D01*
X1204453Y305173D01*
X1203140Y305173D01*
X816789Y328064D02*
X819413Y329751D01*
X822038Y329751D01*
X824663Y328064D01*
X824663Y327220D01*
X816789Y321314D01*
X824663Y321314D01*
X824663Y322158D01*
X836474Y329751D02*
X828600Y329751D01*
X828600Y326376D01*
X833849Y326376D01*
X836474Y324689D01*
X836474Y323002D01*
X833849Y321314D01*
X828600Y321314D01*
X844348Y321314D02*
X844348Y322158D01*
X852222Y323002D02*
X854846Y321314D01*
X857471Y321314D01*
X860096Y323002D01*
X860096Y326376D01*
X860096Y328064D01*
X857471Y329751D01*
X854846Y329751D01*
X852222Y328064D01*
X852222Y326376D01*
X854846Y324689D01*
X857471Y324689D01*
X860096Y326376D01*
X869282Y321314D02*
X866657Y321314D01*
X864033Y323002D01*
X864033Y324689D01*
X865345Y325533D01*
X864033Y326376D01*
X864033Y328064D01*
X866657Y329751D01*
X869282Y329751D01*
X871907Y328064D01*
X871907Y326376D01*
X870594Y325533D01*
X871907Y324689D01*
X871907Y323002D01*
X869282Y321314D01*
X865345Y325533D02*
X870594Y325533D01*
X883718Y324689D02*
X875844Y324689D01*
X882406Y329751D01*
X882406Y321314D01*
X881093Y321314D02*
X883718Y321314D01*
X887655Y328064D02*
X890280Y329751D01*
X892904Y329751D01*
X895529Y328064D01*
X895529Y327220D01*
X887655Y321314D01*
X895529Y321314D01*
X895529Y322158D01*
X907340Y329751D02*
X899466Y329751D01*
X899466Y326376D01*
X904715Y326376D01*
X907340Y324689D01*
X907340Y323002D01*
X904715Y321314D01*
X899466Y321314D01*
X958259Y328064D02*
X960883Y329751D01*
X960883Y321314D01*
X956946Y321314D02*
X964820Y321314D01*
X968757Y328064D02*
X971382Y329751D01*
X974007Y329751D01*
X976631Y328064D01*
X976631Y323002D01*
X974007Y321314D01*
X971382Y321314D01*
X968757Y323002D01*
X968757Y328064D01*
X976631Y328064D02*
X968757Y323002D01*
X1038049Y321314D02*
X1038049Y329751D01*
X1043298Y329751D01*
X1045923Y328064D01*
X1045923Y327220D01*
X1043298Y325533D01*
X1038049Y325533D01*
X1053797Y321314D02*
X1053797Y329751D01*
X1049860Y329751D02*
X1057734Y329751D01*
X1061671Y321314D02*
X1061671Y329751D01*
X1069545Y321314D02*
X1069545Y329751D01*
X1061671Y325533D02*
X1069545Y325533D01*
X1107340Y328064D02*
X1109965Y329751D01*
X1112589Y329751D01*
X1115214Y328064D01*
X1115214Y323002D01*
X1112589Y321314D01*
X1109965Y321314D01*
X1107340Y323002D01*
X1107340Y328064D01*
X1115214Y328064D02*
X1107340Y323002D01*
X1137524Y321314D02*
X1136211Y321314D01*
X1133587Y323002D01*
X1133587Y328064D01*
X1136211Y329751D01*
X1137524Y329751D01*
X1142773Y321314D02*
X1142773Y329751D01*
X1148022Y329751D01*
X1150647Y328064D01*
X1150647Y327220D01*
X1148022Y325533D01*
X1142773Y325533D01*
X1144085Y325533D02*
X1150647Y321314D01*
X1154584Y323002D02*
X1157209Y321314D01*
X1159833Y321314D01*
X1162458Y323002D01*
X1162458Y328064D01*
X1159833Y329751D01*
X1157209Y329751D01*
X1154584Y328064D01*
X1154584Y323002D01*
X1166395Y329751D02*
X1166395Y323002D01*
X1169020Y321314D01*
X1171644Y321314D01*
X1174269Y323002D01*
X1174269Y329751D01*
X1178206Y321314D02*
X1178206Y329751D01*
X1186080Y321314D01*
X1186080Y329751D01*
X1190017Y321314D02*
X1195266Y321314D01*
X1197891Y323002D01*
X1197891Y328064D01*
X1195266Y329751D01*
X1190017Y329751D01*
X1191329Y329751D02*
X1191329Y321314D01*
X1203140Y329751D02*
X1204453Y329751D01*
X1207077Y328064D01*
X1207077Y323002D01*
X1204453Y321314D01*
X1203140Y321314D01*
X816789Y344205D02*
X819413Y345893D01*
X822038Y345893D01*
X824663Y344205D01*
X824663Y343362D01*
X816789Y337456D01*
X824663Y337456D01*
X824663Y338300D01*
X836474Y345893D02*
X828600Y345893D01*
X828600Y342518D01*
X833849Y342518D01*
X836474Y340831D01*
X836474Y339143D01*
X833849Y337456D01*
X828600Y337456D01*
X844348Y337456D02*
X844348Y338300D01*
X860096Y345893D02*
X852222Y345893D01*
X852222Y342518D01*
X857471Y342518D01*
X860096Y340831D01*
X860096Y339143D01*
X857471Y337456D01*
X852222Y337456D01*
X864033Y339143D02*
X866657Y337456D01*
X869282Y337456D01*
X871907Y339143D01*
X871907Y342518D01*
X871907Y344205D01*
X869282Y345893D01*
X866657Y345893D01*
X864033Y344205D01*
X864033Y342518D01*
X866657Y340831D01*
X869282Y340831D01*
X871907Y342518D01*
X875844Y344205D02*
X878469Y345893D01*
X881093Y345893D01*
X883718Y344205D01*
X883718Y339143D01*
X881093Y337456D01*
X878469Y337456D01*
X875844Y339143D01*
X875844Y344205D01*
X883718Y344205D02*
X875844Y339143D01*
X895529Y345893D02*
X887655Y345893D01*
X887655Y342518D01*
X892904Y342518D01*
X895529Y340831D01*
X895529Y339143D01*
X892904Y337456D01*
X887655Y337456D01*
X907340Y345893D02*
X899466Y345893D01*
X899466Y342518D01*
X904715Y342518D01*
X907340Y340831D01*
X907340Y339143D01*
X904715Y337456D01*
X899466Y337456D01*
X970726Y340831D02*
X962852Y340831D01*
X969413Y345893D01*
X969413Y337456D01*
X968101Y337456D02*
X970726Y337456D01*
X1038049Y337456D02*
X1038049Y345893D01*
X1043298Y345893D01*
X1045923Y344205D01*
X1045923Y343362D01*
X1043298Y341674D01*
X1038049Y341674D01*
X1053797Y337456D02*
X1053797Y345893D01*
X1049860Y345893D02*
X1057734Y345893D01*
X1061671Y337456D02*
X1061671Y345893D01*
X1069545Y337456D02*
X1069545Y345893D01*
X1061671Y341674D02*
X1069545Y341674D01*
X1107340Y344205D02*
X1109965Y345893D01*
X1112589Y345893D01*
X1115214Y344205D01*
X1115214Y339143D01*
X1112589Y337456D01*
X1109965Y337456D01*
X1107340Y339143D01*
X1107340Y344205D01*
X1115214Y344205D02*
X1107340Y339143D01*
X1137524Y337456D02*
X1136211Y337456D01*
X1133587Y339143D01*
X1133587Y344205D01*
X1136211Y345893D01*
X1137524Y345893D01*
X1142773Y337456D02*
X1142773Y345893D01*
X1148022Y345893D01*
X1150647Y344205D01*
X1150647Y343362D01*
X1148022Y341674D01*
X1142773Y341674D01*
X1144085Y341674D02*
X1150647Y337456D01*
X1154584Y339143D02*
X1157209Y337456D01*
X1159833Y337456D01*
X1162458Y339143D01*
X1162458Y344205D01*
X1159833Y345893D01*
X1157209Y345893D01*
X1154584Y344205D01*
X1154584Y339143D01*
X1166395Y345893D02*
X1166395Y339143D01*
X1169020Y337456D01*
X1171644Y337456D01*
X1174269Y339143D01*
X1174269Y345893D01*
X1178206Y337456D02*
X1178206Y345893D01*
X1186080Y337456D01*
X1186080Y345893D01*
X1190017Y337456D02*
X1195266Y337456D01*
X1197891Y339143D01*
X1197891Y344205D01*
X1195266Y345893D01*
X1190017Y345893D01*
X1191329Y345893D02*
X1191329Y337456D01*
X1203140Y345893D02*
X1204453Y345893D01*
X1207077Y344205D01*
X1207077Y339143D01*
X1204453Y337456D01*
X1203140Y337456D01*
X816789Y360347D02*
X819413Y362034D01*
X822038Y362034D01*
X824663Y360347D01*
X824663Y359503D01*
X816789Y353598D01*
X824663Y353598D01*
X824663Y354442D01*
X829912Y361191D02*
X831224Y362034D01*
X833849Y362034D01*
X836474Y360347D01*
X836474Y358660D01*
X835161Y357816D01*
X836474Y356972D01*
X836474Y355285D01*
X833849Y353598D01*
X831224Y353598D01*
X829912Y354442D01*
X831224Y357816D02*
X835161Y357816D01*
X844348Y353598D02*
X844348Y354442D01*
X858783Y362034D02*
X854846Y362034D01*
X852222Y360347D01*
X852222Y356972D01*
X852222Y355285D01*
X854846Y353598D01*
X857471Y353598D01*
X860096Y355285D01*
X860096Y356972D01*
X857471Y358660D01*
X854846Y358660D01*
X852222Y356972D01*
X864033Y360347D02*
X866657Y362034D01*
X869282Y362034D01*
X871907Y360347D01*
X871907Y359503D01*
X864033Y353598D01*
X871907Y353598D01*
X871907Y354442D01*
X875844Y360347D02*
X878469Y362034D01*
X881093Y362034D01*
X883718Y360347D01*
X883718Y359503D01*
X875844Y353598D01*
X883718Y353598D01*
X883718Y354442D01*
X887655Y360347D02*
X890280Y362034D01*
X892904Y362034D01*
X895529Y360347D01*
X895529Y355285D01*
X892904Y353598D01*
X890280Y353598D01*
X887655Y355285D01*
X887655Y360347D01*
X895529Y360347D02*
X887655Y355285D01*
X907340Y362034D02*
X899466Y362034D01*
X899466Y358660D01*
X904715Y358660D01*
X907340Y356972D01*
X907340Y355285D01*
X904715Y353598D01*
X899466Y353598D01*
X956946Y360347D02*
X959571Y362034D01*
X962196Y362034D01*
X964820Y360347D01*
X964820Y359503D01*
X956946Y353598D01*
X964820Y353598D01*
X964820Y354442D01*
X972694Y353598D02*
X972694Y357816D01*
X976631Y360347D01*
X976631Y362034D01*
X968757Y362034D01*
X968757Y360347D01*
X1038049Y353598D02*
X1038049Y362034D01*
X1043298Y362034D01*
X1045923Y360347D01*
X1045923Y359503D01*
X1043298Y357816D01*
X1038049Y357816D01*
X1053797Y353598D02*
X1053797Y362034D01*
X1049860Y362034D02*
X1057734Y362034D01*
X1061671Y353598D02*
X1061671Y362034D01*
X1069545Y353598D02*
X1069545Y362034D01*
X1061671Y357816D02*
X1069545Y357816D01*
X1107340Y360347D02*
X1109965Y362034D01*
X1112589Y362034D01*
X1115214Y360347D01*
X1115214Y355285D01*
X1112589Y353598D01*
X1109965Y353598D01*
X1107340Y355285D01*
X1107340Y360347D01*
X1115214Y360347D02*
X1107340Y355285D01*
X1137524Y353598D02*
X1136211Y353598D01*
X1133587Y355285D01*
X1133587Y360347D01*
X1136211Y362034D01*
X1137524Y362034D01*
X1142773Y353598D02*
X1142773Y362034D01*
X1148022Y362034D01*
X1150647Y360347D01*
X1150647Y359503D01*
X1148022Y357816D01*
X1142773Y357816D01*
X1144085Y357816D02*
X1150647Y353598D01*
X1154584Y355285D02*
X1157209Y353598D01*
X1159833Y353598D01*
X1162458Y355285D01*
X1162458Y360347D01*
X1159833Y362034D01*
X1157209Y362034D01*
X1154584Y360347D01*
X1154584Y355285D01*
X1166395Y362034D02*
X1166395Y355285D01*
X1169020Y353598D01*
X1171644Y353598D01*
X1174269Y355285D01*
X1174269Y362034D01*
X1178206Y353598D02*
X1178206Y362034D01*
X1186080Y353598D01*
X1186080Y362034D01*
X1190017Y353598D02*
X1195266Y353598D01*
X1197891Y355285D01*
X1197891Y360347D01*
X1195266Y362034D01*
X1190017Y362034D01*
X1191329Y362034D02*
X1191329Y353598D01*
X1203140Y362034D02*
X1204453Y362034D01*
X1207077Y360347D01*
X1207077Y355285D01*
X1204453Y353598D01*
X1203140Y353598D01*
G04 ColorRGB 00FFFF for the following layer *
%LNBoard Outline*%
%LPD*%
G54D10*
G54D13*
X0Y0D02*
X650000Y0D01*
X650000Y410000D01*
X0Y410000D01*
X0Y0D01*
G54D14*
X-1500Y-1500D02*
X-1500Y39800D01*
X-1500Y-1500D02*
X63800Y-1500D01*
X651500Y-1500D02*
X586200Y-1500D01*
X651500Y-1500D02*
X651500Y39800D01*
X651500Y411500D02*
X651500Y370200D01*
X651500Y411500D02*
X586200Y411500D01*
X-1500Y411500D02*
X63800Y411500D01*
X-1500Y411500D02*
X-1500Y370200D01*
X-21185Y-1500D02*
X-60555Y-1500D01*
X-40870Y-21185D02*
X-40870Y18185D01*
X-55634Y-1500D02*
G75*
D01*
G02X-55634Y-1500I14764J0*
G01*
X671185Y-1500D02*
X710555Y-1500D01*
X690870Y-21185D02*
X690870Y18185D01*
X676106Y-1500D02*
G75*
D01*
G02X676106Y-1500I14764J0*
G01*
X685949Y-1500D02*
G75*
D01*
G02X685949Y-1500I4921J0*
G01*
X-21185Y411500D02*
X-60555Y411500D01*
X-40870Y391815D02*
X-40870Y431185D01*
X-55634Y411500D02*
G75*
D01*
G02X-55634Y411500I14764J0*
G01*
X-50713Y411500D02*
G75*
D01*
G02X-50713Y411500I9843J0*
G01*
X-45791Y411500D02*
G75*
D01*
G02X-45791Y411500I4921J0*
G01*
G04 ColorRGB 66FFCC for the following layer *
%LNLegend Description*%
%LPD*%
G54D12*
X732209Y90634D02*
X1226303Y90634D01*
X1226303Y413469D01*
X732209Y413469D01*
X732209Y90634D01*
X807406Y381185D02*
X807406Y90634D01*
X918035Y381185D02*
X918035Y90634D01*
X1016854Y381185D02*
X1016854Y90634D01*
X1092051Y381185D02*
X1092051Y90634D01*
X1226303Y381185D02*
X1226303Y90634D01*
X732209Y106776D02*
X1226303Y106776D01*
X732209Y122917D02*
X1226303Y122917D01*
X732209Y139059D02*
X1226303Y139059D01*
X732209Y155201D02*
X1226303Y155201D01*
X732209Y171343D02*
X1226303Y171343D01*
X732209Y187484D02*
X1226303Y187484D01*
X732209Y203626D02*
X1226303Y203626D01*
X732209Y219768D02*
X1226303Y219768D01*
X732209Y235909D02*
X1226303Y235909D01*
X732209Y252051D02*
X1226303Y252051D01*
X732209Y268193D02*
X1226303Y268193D01*
X732209Y284335D02*
X1226303Y284335D01*
X732209Y300476D02*
X1226303Y300476D01*
X732209Y316618D02*
X1226303Y316618D01*
X732209Y332760D02*
X1226303Y332760D01*
X732209Y348902D02*
X1226303Y348902D01*
X732209Y365043D02*
X1226303Y365043D01*
X735686Y371427D02*
X738311Y369740D01*
X740936Y369740D01*
X743560Y371427D01*
X735686Y376489D01*
X738311Y378176D01*
X740936Y378176D01*
X743560Y376489D01*
X747497Y367209D02*
X748810Y367209D01*
X755371Y375645D01*
X747497Y375645D02*
X751434Y370583D01*
X759308Y369740D02*
X759308Y374801D01*
X759308Y375645D01*
X759308Y374801D02*
X760621Y375645D01*
X761933Y375645D01*
X763245Y374801D01*
X764558Y375645D01*
X765870Y375645D01*
X767182Y374801D01*
X767182Y369740D01*
X763245Y374801D02*
X763245Y369740D01*
X771119Y371427D02*
X773744Y369740D01*
X776369Y369740D01*
X778993Y371427D01*
X778993Y373114D01*
X776369Y374801D01*
X773744Y374801D01*
X771119Y373114D01*
X771119Y378176D02*
X771119Y369740D01*
X782930Y371427D02*
X785555Y369740D01*
X788180Y369740D01*
X790804Y371427D01*
X790804Y373958D01*
X788180Y375645D01*
X785555Y375645D01*
X782930Y373958D01*
X782930Y371427D01*
X796054Y378176D02*
X796054Y371427D01*
X798678Y369740D01*
X840411Y371427D02*
X843035Y369740D01*
X845660Y369740D01*
X848285Y371427D01*
X840411Y376489D01*
X843035Y378176D01*
X845660Y378176D01*
X848285Y376489D01*
X856159Y369740D02*
X856159Y374801D01*
X856159Y376489D02*
X856159Y377332D01*
X864033Y375645D02*
X871907Y375645D01*
X864033Y369740D01*
X871907Y369740D01*
X883718Y371427D02*
X881093Y369740D01*
X878469Y369740D01*
X875844Y371427D01*
X875844Y373958D01*
X878469Y375645D01*
X881093Y375645D01*
X883718Y373958D01*
X882406Y373114D01*
X875844Y373114D01*
X921513Y371427D02*
X924138Y369740D01*
X926762Y369740D01*
X929387Y371427D01*
X929387Y376489D01*
X926762Y378176D01*
X924138Y378176D01*
X921513Y376489D01*
X921513Y371427D01*
X926762Y371427D02*
X929387Y369740D01*
X933324Y375645D02*
X933324Y371427D01*
X935949Y369740D01*
X938573Y369740D01*
X941198Y371427D01*
X941198Y375645D01*
X941198Y371427D02*
X941198Y369740D01*
X946448Y375645D02*
X950385Y375645D01*
X951697Y374801D01*
X951697Y370583D01*
X950385Y369740D01*
X946448Y369740D01*
X945135Y370583D01*
X945135Y372271D01*
X946448Y373114D01*
X951697Y373114D01*
X951697Y370583D02*
X953009Y369740D01*
X956946Y369740D02*
X956946Y374801D01*
X956946Y375645D01*
X956946Y374801D02*
X958259Y375645D01*
X960883Y375645D01*
X962196Y374801D01*
X962196Y369740D01*
X975319Y370583D02*
X974007Y369740D01*
X972694Y370583D01*
X972694Y378176D01*
X970070Y375645D02*
X975319Y375645D01*
X984505Y369740D02*
X984505Y374801D01*
X984505Y376489D02*
X984505Y377332D01*
X998941Y370583D02*
X997629Y369740D01*
X996316Y370583D01*
X996316Y378176D01*
X993692Y375645D02*
X998941Y375645D01*
X1004190Y367209D02*
X1005503Y367209D01*
X1012064Y375645D01*
X1004190Y375645D02*
X1008127Y370583D01*
X1020332Y369740D02*
X1020332Y378176D01*
X1025581Y378176D01*
X1028206Y376489D01*
X1028206Y375645D01*
X1025581Y373958D01*
X1020332Y373958D01*
X1033455Y378176D02*
X1033455Y371427D01*
X1036080Y369740D01*
X1045266Y375645D02*
X1049203Y375645D01*
X1050516Y374801D01*
X1050516Y370583D01*
X1049203Y369740D01*
X1045266Y369740D01*
X1043954Y370583D01*
X1043954Y372271D01*
X1045266Y373114D01*
X1050516Y373114D01*
X1050516Y370583D02*
X1051828Y369740D01*
X1062327Y370583D02*
X1061014Y369740D01*
X1059702Y370583D01*
X1059702Y378176D01*
X1057077Y375645D02*
X1062327Y375645D01*
X1075450Y371427D02*
X1072825Y369740D01*
X1070201Y369740D01*
X1067576Y371427D01*
X1067576Y373958D01*
X1070201Y375645D01*
X1072825Y375645D01*
X1075450Y373958D01*
X1074138Y373114D01*
X1067576Y373114D01*
X1087261Y371427D02*
X1084636Y369740D01*
X1082012Y369740D01*
X1079387Y371427D01*
X1079387Y373114D01*
X1082012Y374801D01*
X1084636Y374801D01*
X1087261Y373114D01*
X1087261Y378176D02*
X1087261Y369740D01*
X1095529Y371427D02*
X1098154Y369740D01*
X1100778Y369740D01*
X1103403Y371427D01*
X1095529Y376489D01*
X1098154Y378176D01*
X1100778Y378176D01*
X1103403Y376489D01*
X1108652Y378176D02*
X1108652Y371427D01*
X1111277Y369740D01*
X1119151Y371427D02*
X1121776Y369740D01*
X1124400Y369740D01*
X1127025Y371427D01*
X1127025Y373958D01*
X1124400Y375645D01*
X1121776Y375645D01*
X1119151Y373958D01*
X1119151Y371427D01*
X1137524Y370583D02*
X1136211Y369740D01*
X1134899Y370583D01*
X1134899Y378176D01*
X1132274Y375645D02*
X1137524Y375645D01*
X1154584Y378176D02*
X1154584Y369740D01*
X1162458Y369740D01*
X1174269Y371427D02*
X1171644Y369740D01*
X1169020Y369740D01*
X1166395Y371427D01*
X1166395Y373958D01*
X1169020Y375645D01*
X1171644Y375645D01*
X1174269Y373958D01*
X1172957Y373114D01*
X1166395Y373114D01*
X1178206Y369740D02*
X1178206Y374801D01*
X1178206Y375645D01*
X1178206Y374801D02*
X1179518Y375645D01*
X1182143Y375645D01*
X1183455Y374801D01*
X1183455Y369740D01*
X1190017Y368896D02*
X1192642Y367209D01*
X1195266Y367209D01*
X1197891Y368896D01*
X1197891Y371427D01*
X1197891Y373958D01*
X1195266Y375645D01*
X1192642Y375645D01*
X1190017Y373958D01*
X1190017Y371427D01*
X1192642Y369740D01*
X1195266Y369740D01*
X1197891Y371427D01*
X1208390Y370583D02*
X1207077Y369740D01*
X1205765Y370583D01*
X1205765Y378176D01*
X1203140Y375645D02*
X1208390Y375645D01*
X1213639Y373958D02*
X1216264Y375645D01*
X1218888Y375645D01*
X1221513Y373958D01*
X1221513Y369740D01*
X1213639Y378176D02*
X1213639Y369740D01*
X732209Y381185D02*
X1226303Y381185D01*
X862458Y385881D02*
X862458Y390943D01*
X865083Y394318D01*
X867707Y394318D01*
X870332Y390943D01*
X870332Y385881D01*
X862458Y388412D02*
X870332Y388412D01*
X875581Y394318D02*
X875581Y387569D01*
X878206Y385881D01*
X887392Y394318D02*
X887392Y387569D01*
X890017Y385881D01*
X909702Y391787D02*
X909702Y387569D01*
X912327Y385881D01*
X914951Y385881D01*
X917576Y387569D01*
X917576Y391787D01*
X917576Y387569D02*
X917576Y385881D01*
X921513Y385881D02*
X921513Y390943D01*
X921513Y391787D01*
X921513Y390943D02*
X922825Y391787D01*
X925450Y391787D01*
X926762Y390943D01*
X926762Y385881D01*
X937261Y385881D02*
X937261Y390943D01*
X937261Y392630D02*
X937261Y393474D01*
X951697Y386725D02*
X950385Y385881D01*
X949072Y386725D01*
X949072Y394318D01*
X946448Y391787D02*
X951697Y391787D01*
X956946Y387569D02*
X959571Y385881D01*
X962196Y385881D01*
X964820Y387569D01*
X956946Y390100D01*
X959571Y391787D01*
X962196Y391787D01*
X964820Y390100D01*
X981881Y391787D02*
X985818Y391787D01*
X987130Y390943D01*
X987130Y386725D01*
X985818Y385881D01*
X981881Y385881D01*
X980568Y386725D01*
X980568Y388412D01*
X981881Y389256D01*
X987130Y389256D01*
X987130Y386725D02*
X988442Y385881D01*
X992379Y389256D02*
X996316Y391787D01*
X997629Y391787D01*
X1000253Y390100D01*
X992379Y385881D02*
X992379Y391787D01*
X1012064Y387569D02*
X1009440Y385881D01*
X1006815Y385881D01*
X1004190Y387569D01*
X1004190Y390100D01*
X1006815Y391787D01*
X1009440Y391787D01*
X1012064Y390100D01*
X1010752Y389256D01*
X1004190Y389256D01*
X1031749Y385881D02*
X1031749Y390943D01*
X1031749Y392630D02*
X1031749Y393474D01*
X1039623Y385881D02*
X1039623Y390943D01*
X1039623Y391787D01*
X1039623Y390943D02*
X1040936Y391787D01*
X1043560Y391787D01*
X1044873Y390943D01*
X1044873Y385881D01*
X1063245Y385881D02*
X1063245Y390943D01*
X1063245Y391787D01*
X1063245Y390943D02*
X1064558Y391787D01*
X1065870Y391787D01*
X1067182Y390943D01*
X1068495Y391787D01*
X1069807Y391787D01*
X1071119Y390943D01*
X1071119Y385881D01*
X1067182Y390943D02*
X1067182Y385881D01*
X1078993Y385881D02*
X1078993Y390943D01*
X1078993Y392630D02*
X1078993Y393474D01*
X1088180Y394318D02*
X1088180Y387569D01*
X1090804Y385881D01*
X732209Y397327D02*
X1226303Y397327D01*
X909702Y402023D02*
X914951Y402023D01*
X917576Y403710D01*
X917576Y408772D01*
X914951Y410460D01*
X909702Y410460D01*
X911014Y410460D02*
X911014Y402023D01*
X921513Y405398D02*
X925450Y407929D01*
X926762Y407929D01*
X929387Y406241D01*
X921513Y402023D02*
X921513Y407929D01*
X937261Y402023D02*
X937261Y407085D01*
X937261Y408772D02*
X937261Y409616D01*
X946448Y410460D02*
X946448Y403710D01*
X949072Y402023D01*
X958259Y410460D02*
X958259Y403710D01*
X960883Y402023D01*
X980568Y410460D02*
X980568Y402023D01*
X988442Y402023D01*
X1000253Y403710D02*
X997629Y402023D01*
X995004Y402023D01*
X992379Y403710D01*
X992379Y406241D01*
X995004Y407929D01*
X997629Y407929D01*
X1000253Y406241D01*
X998941Y405398D01*
X992379Y405398D01*
X1004190Y401179D02*
X1006815Y399492D01*
X1009440Y399492D01*
X1012064Y401179D01*
X1012064Y403710D01*
X1012064Y406241D01*
X1009440Y407929D01*
X1006815Y407929D01*
X1004190Y406241D01*
X1004190Y403710D01*
X1006815Y402023D01*
X1009440Y402023D01*
X1012064Y403710D01*
X1023875Y403710D02*
X1021251Y402023D01*
X1018626Y402023D01*
X1016001Y403710D01*
X1016001Y406241D01*
X1018626Y407929D01*
X1021251Y407929D01*
X1023875Y406241D01*
X1022563Y405398D01*
X1016001Y405398D01*
X1027812Y402023D02*
X1027812Y407085D01*
X1027812Y407929D01*
X1027812Y407085D02*
X1029125Y407929D01*
X1031749Y407929D01*
X1033062Y407085D01*
X1033062Y402023D01*
X1047497Y403710D02*
X1044873Y402023D01*
X1042248Y402023D01*
X1039623Y403710D01*
X1039623Y405398D01*
X1042248Y407085D01*
X1044873Y407085D01*
X1047497Y405398D01*
X1047497Y410460D02*
X1047497Y402023D01*

M02*
