G04 Generated by Ultiboard 13.0 *
%FSLAX25Y25*%
%MOIN*%

%ADD10C,0.00001*%
%ADD11C,0.01111*%
%ADD12C,0.00500*%


G04 ColorRGB FF14FF for the following layer *
%LNSilkscreen Bottom*%
%LPD*%
G54D10*
G54D11*
X455429Y297289D02*
X456857Y295867D01*
X456857Y294444D01*
X455429Y293022D01*
X451143Y297289D01*
X449714Y295867D01*
X449714Y294444D01*
X451143Y293022D01*
X455429Y290889D02*
X456857Y289467D01*
X456857Y288044D01*
X455429Y286622D01*
X453286Y286622D01*
X451857Y288044D01*
X451857Y289467D01*
X453286Y290889D01*
X455429Y290889D01*
X449714Y283778D02*
X455429Y283778D01*
X456857Y282356D01*
X451857Y277378D02*
X451857Y275244D01*
X452571Y274533D01*
X456143Y274533D01*
X456857Y275244D01*
X456857Y277378D01*
X456143Y278089D01*
X454714Y278089D01*
X454000Y277378D01*
X454000Y274533D01*
X456143Y274533D02*
X456857Y273822D01*
X454000Y271689D02*
X451857Y269556D01*
X451857Y268844D01*
X453286Y267422D01*
X456857Y271689D02*
X451857Y271689D01*
X456857Y258889D02*
X449714Y258889D01*
X453286Y256756D01*
X449714Y254622D01*
X456857Y254622D01*
X451857Y251778D02*
X451857Y249644D01*
X452571Y248933D01*
X456143Y248933D01*
X456857Y249644D01*
X456857Y251778D01*
X456143Y252489D01*
X454714Y252489D01*
X454000Y251778D01*
X454000Y248933D01*
X456143Y248933D02*
X456857Y248222D01*
X456857Y246089D02*
X451857Y241822D01*
X451857Y246089D02*
X456857Y241822D01*
X456857Y237556D02*
X452571Y237556D01*
X451143Y237556D02*
X450429Y237556D01*
X456857Y233289D02*
X452571Y233289D01*
X451857Y233289D01*
X452571Y233289D02*
X451857Y232578D01*
X451857Y231867D01*
X452571Y231156D01*
X451857Y230444D01*
X451857Y229733D01*
X452571Y229022D01*
X456857Y229022D01*
X452571Y231156D02*
X456857Y231156D01*
X451857Y226889D02*
X455429Y226889D01*
X456857Y225467D01*
X456857Y224044D01*
X455429Y222622D01*
X451857Y222622D01*
X455429Y222622D02*
X456857Y222622D01*
X456857Y220489D02*
X452571Y220489D01*
X451857Y220489D01*
X452571Y220489D02*
X451857Y219778D01*
X451857Y219067D01*
X452571Y218356D01*
X451857Y217644D01*
X451857Y216933D01*
X452571Y216222D01*
X456857Y216222D01*
X452571Y218356D02*
X456857Y218356D01*
X456857Y207689D02*
X449714Y207689D01*
X449714Y204844D01*
X451143Y203422D01*
X451857Y203422D01*
X453286Y204844D01*
X453286Y207689D01*
X455429Y201289D02*
X456857Y199867D01*
X456857Y198444D01*
X455429Y197022D01*
X453286Y197022D01*
X451857Y198444D01*
X451857Y199867D01*
X453286Y201289D01*
X455429Y201289D01*
X451857Y194889D02*
X456857Y194178D01*
X454714Y192756D01*
X456857Y191333D01*
X451857Y190622D01*
X455429Y184222D02*
X456857Y185644D01*
X456857Y187067D01*
X455429Y188489D01*
X453286Y188489D01*
X451857Y187067D01*
X451857Y185644D01*
X453286Y184222D01*
X454000Y184933D01*
X454000Y188489D01*
X454000Y182089D02*
X451857Y179956D01*
X451857Y179244D01*
X453286Y177822D01*
X456857Y182089D02*
X451857Y182089D01*
X456857Y169289D02*
X449714Y169289D01*
X449714Y166444D01*
X451143Y165022D01*
X451857Y165022D01*
X453286Y166444D01*
X453286Y169289D01*
X455429Y162889D02*
X456857Y161467D01*
X456857Y160044D01*
X455429Y158622D01*
X453286Y158622D01*
X451857Y160044D01*
X451857Y161467D01*
X453286Y162889D01*
X455429Y162889D01*
X456857Y154356D02*
X452571Y154356D01*
X451143Y154356D02*
X450429Y154356D01*
X456857Y150089D02*
X452571Y150089D01*
X451857Y150089D01*
X452571Y150089D02*
X451857Y149378D01*
X451857Y147956D01*
X452571Y147244D01*
X456857Y147244D01*
X456143Y140133D02*
X456857Y140844D01*
X456143Y141556D01*
X449714Y141556D01*
X451857Y142978D02*
X451857Y140133D01*
X456857Y128756D02*
X449714Y128756D01*
X449714Y130889D02*
X449714Y126622D01*
X454000Y124489D02*
X451857Y122356D01*
X451857Y121644D01*
X453286Y120222D01*
X456857Y124489D02*
X451857Y124489D01*
X451857Y117378D02*
X451857Y115244D01*
X452571Y114533D01*
X456143Y114533D01*
X456857Y115244D01*
X456857Y117378D01*
X456143Y118089D01*
X454714Y118089D01*
X454000Y117378D01*
X454000Y114533D01*
X456143Y114533D02*
X456857Y113822D01*
X456143Y108133D02*
X456857Y108844D01*
X456857Y110267D01*
X455429Y111689D01*
X453286Y111689D01*
X451857Y110267D01*
X451857Y108844D01*
X452571Y108133D01*
X454000Y105289D02*
X454000Y103867D01*
X451857Y101733D01*
X454000Y103867D02*
X456857Y101733D01*
X456857Y105289D02*
X449714Y105289D01*
X455429Y94622D02*
X456857Y96044D01*
X456857Y97467D01*
X455429Y98889D01*
X453286Y98889D01*
X451857Y97467D01*
X451857Y96044D01*
X453286Y94622D01*
X454000Y95333D01*
X454000Y98889D01*
X454000Y92489D02*
X451857Y90356D01*
X451857Y89644D01*
X453286Y88222D01*
X456857Y92489D02*
X451857Y92489D01*
X466857Y297289D02*
X466857Y294444D01*
X465429Y293022D01*
X464714Y293022D01*
X463286Y294444D01*
X461857Y293022D01*
X461143Y293022D01*
X459714Y294444D01*
X459714Y296578D01*
X459714Y297289D01*
X463286Y296578D02*
X463286Y294444D01*
X459714Y296578D02*
X466857Y296578D01*
X469000Y290889D02*
X469000Y290178D01*
X461857Y286622D01*
X461857Y290889D02*
X466143Y288756D01*
X466857Y278089D02*
X462571Y278089D01*
X459714Y276667D01*
X459714Y275244D01*
X462571Y273822D01*
X466857Y273822D01*
X464714Y278089D02*
X464714Y273822D01*
X466857Y271689D02*
X462571Y271689D01*
X461857Y271689D01*
X462571Y271689D02*
X461857Y270978D01*
X461857Y269556D01*
X462571Y268844D01*
X466857Y268844D01*
X465429Y261022D02*
X466857Y262444D01*
X466857Y263867D01*
X465429Y265289D01*
X464000Y265289D01*
X462571Y263867D01*
X462571Y262444D01*
X464000Y261022D01*
X459714Y261022D02*
X466857Y261022D01*
X464000Y258889D02*
X461857Y256756D01*
X461857Y256044D01*
X463286Y254622D01*
X466857Y258889D02*
X461857Y258889D01*
X465429Y248222D02*
X466857Y249644D01*
X466857Y251067D01*
X465429Y252489D01*
X463286Y252489D01*
X461857Y251067D01*
X461857Y249644D01*
X463286Y248222D01*
X464000Y248933D01*
X464000Y252489D01*
X461857Y246089D02*
X466857Y245378D01*
X464714Y243956D01*
X466857Y242533D01*
X461857Y241822D01*
X466857Y233289D02*
X459714Y233289D01*
X459714Y229022D01*
X463286Y233289D02*
X463286Y230444D01*
X459714Y226178D02*
X465429Y226178D01*
X466857Y224756D01*
X469000Y220489D02*
X469000Y219778D01*
X461857Y216222D01*
X461857Y220489D02*
X466143Y218356D01*
X466857Y214089D02*
X462571Y214089D01*
X461857Y214089D01*
X462571Y214089D02*
X461857Y213378D01*
X461857Y211956D01*
X462571Y211244D01*
X466857Y211244D01*
X466857Y207689D02*
X462571Y207689D01*
X461857Y207689D01*
X462571Y207689D02*
X461857Y206978D01*
X461857Y205556D01*
X462571Y204844D01*
X466857Y204844D01*
X466143Y198444D02*
X467571Y198444D01*
X468286Y199156D01*
X466857Y188489D02*
X466857Y185644D01*
X465429Y184222D01*
X464714Y184222D01*
X463286Y185644D01*
X461857Y184222D01*
X461143Y184222D01*
X459714Y185644D01*
X459714Y187778D01*
X459714Y188489D01*
X463286Y187778D02*
X463286Y185644D01*
X459714Y187778D02*
X466857Y187778D01*
X465429Y177822D02*
X466857Y179244D01*
X466857Y180667D01*
X465429Y182089D01*
X463286Y182089D01*
X461857Y180667D01*
X461857Y179244D01*
X463286Y177822D01*
X464000Y178533D01*
X464000Y182089D01*
X466857Y175689D02*
X462571Y175689D01*
X461857Y175689D01*
X462571Y175689D02*
X461857Y174978D01*
X461857Y173556D01*
X462571Y172844D01*
X466857Y172844D01*
X466857Y162889D02*
X466857Y160044D01*
X465429Y158622D01*
X464714Y158622D01*
X463286Y160044D01*
X461857Y158622D01*
X461143Y158622D01*
X459714Y160044D01*
X459714Y162178D01*
X459714Y162889D01*
X463286Y162178D02*
X463286Y160044D01*
X459714Y162178D02*
X466857Y162178D01*
X465429Y152222D02*
X466857Y153644D01*
X466857Y155067D01*
X465429Y156489D01*
X463286Y156489D01*
X461857Y155067D01*
X461857Y153644D01*
X463286Y152222D01*
X464000Y152933D01*
X464000Y156489D01*
X461857Y149378D02*
X461857Y147244D01*
X462571Y146533D01*
X466143Y146533D01*
X466857Y147244D01*
X466857Y149378D01*
X466143Y150089D01*
X464714Y150089D01*
X464000Y149378D01*
X464000Y146533D01*
X466143Y146533D02*
X466857Y145822D01*
X461857Y143689D02*
X465429Y143689D01*
X466857Y142267D01*
X466857Y140844D01*
X465429Y139422D01*
X461857Y139422D01*
X465429Y139422D02*
X466857Y139422D01*
X464000Y137289D02*
X461857Y135156D01*
X461857Y134444D01*
X463286Y133022D01*
X466857Y137289D02*
X461857Y137289D01*
X465429Y126622D02*
X466857Y128044D01*
X466857Y129467D01*
X465429Y130889D01*
X463286Y130889D01*
X461857Y129467D01*
X461857Y128044D01*
X463286Y126622D01*
X464000Y127333D01*
X464000Y130889D01*
X467571Y124489D02*
X469000Y123067D01*
X469000Y121644D01*
X467571Y120222D01*
X465429Y120222D01*
X463286Y120222D01*
X461857Y121644D01*
X461857Y123067D01*
X463286Y124489D01*
X465429Y124489D01*
X466857Y123067D01*
X466857Y121644D01*
X465429Y120222D01*
X461857Y117378D02*
X461857Y115244D01*
X462571Y114533D01*
X466143Y114533D01*
X466857Y115244D01*
X466857Y117378D01*
X466143Y118089D01*
X464714Y118089D01*
X464000Y117378D01*
X464000Y114533D01*
X466143Y114533D02*
X466857Y113822D01*
X464000Y111689D02*
X461857Y109556D01*
X461857Y108844D01*
X463286Y107422D01*
X466857Y111689D02*
X461857Y111689D01*
X465429Y101022D02*
X466857Y102444D01*
X466857Y103867D01*
X465429Y105289D01*
X464000Y105289D01*
X462571Y103867D01*
X462571Y102444D01*
X464000Y101022D01*
X459714Y101022D02*
X466857Y101022D01*
X466143Y96044D02*
X467571Y96044D01*
X468286Y96756D01*
X471857Y296578D02*
X471857Y294444D01*
X472571Y293733D01*
X476143Y293733D01*
X476857Y294444D01*
X476857Y296578D01*
X476143Y297289D01*
X474714Y297289D01*
X474000Y296578D01*
X474000Y293733D01*
X476143Y293733D02*
X476857Y293022D01*
X476857Y290889D02*
X472571Y290889D01*
X471857Y290889D01*
X472571Y290889D02*
X471857Y290178D01*
X471857Y288756D01*
X472571Y288044D01*
X476857Y288044D01*
X475429Y280222D02*
X476857Y281644D01*
X476857Y283067D01*
X475429Y284489D01*
X474000Y284489D01*
X472571Y283067D01*
X472571Y281644D01*
X474000Y280222D01*
X469714Y280222D02*
X476857Y280222D01*
X475429Y271689D02*
X476857Y270267D01*
X476857Y268844D01*
X475429Y267422D01*
X469714Y267422D01*
X475429Y265289D02*
X476857Y263867D01*
X476857Y262444D01*
X475429Y261022D01*
X473286Y261022D01*
X471857Y262444D01*
X471857Y263867D01*
X473286Y265289D01*
X475429Y265289D01*
X473286Y258889D02*
X471857Y257467D01*
X471857Y256044D01*
X473286Y254622D01*
X476857Y254622D01*
X469714Y258889D02*
X476857Y258889D01*
X476857Y252489D02*
X472571Y252489D01*
X471857Y252489D01*
X472571Y252489D02*
X471857Y251778D01*
X471857Y250356D01*
X472571Y249644D01*
X476857Y249644D01*
X471857Y245378D02*
X471857Y243244D01*
X472571Y242533D01*
X476143Y242533D01*
X476857Y243244D01*
X476857Y245378D01*
X476143Y246089D01*
X474714Y246089D01*
X474000Y245378D01*
X474000Y242533D01*
X476143Y242533D02*
X476857Y241822D01*
X476143Y236133D02*
X476857Y236844D01*
X476143Y237556D01*
X469714Y237556D01*
X471857Y238978D02*
X471857Y236133D01*
X473286Y233289D02*
X471857Y231867D01*
X471857Y230444D01*
X473286Y229022D01*
X476857Y229022D01*
X469714Y233289D02*
X476857Y233289D01*
X471857Y226178D02*
X471857Y224044D01*
X472571Y223333D01*
X476143Y223333D01*
X476857Y224044D01*
X476857Y226178D01*
X476143Y226889D01*
X474714Y226889D01*
X474000Y226178D01*
X474000Y223333D01*
X476143Y223333D02*
X476857Y222622D01*
X476857Y220489D02*
X472571Y220489D01*
X471857Y220489D01*
X472571Y220489D02*
X471857Y219778D01*
X471857Y218356D01*
X472571Y217644D01*
X476857Y217644D01*
X476857Y207689D02*
X472571Y207689D01*
X469714Y206267D01*
X469714Y204844D01*
X472571Y203422D01*
X476857Y203422D01*
X474714Y207689D02*
X474714Y203422D01*
X475429Y197022D02*
X476857Y198444D01*
X476857Y199867D01*
X475429Y201289D01*
X474000Y201289D01*
X472571Y199867D01*
X472571Y198444D01*
X474000Y197022D01*
X469714Y197022D02*
X476857Y197022D01*
X471857Y194178D02*
X471857Y192044D01*
X472571Y191333D01*
X476143Y191333D01*
X476857Y192044D01*
X476857Y194178D01*
X476143Y194889D01*
X474714Y194889D01*
X474000Y194178D01*
X474000Y191333D01*
X476143Y191333D02*
X476857Y190622D01*
X476857Y188489D02*
X472571Y188489D01*
X471857Y188489D01*
X472571Y188489D02*
X471857Y187778D01*
X471857Y187067D01*
X472571Y186356D01*
X471857Y185644D01*
X471857Y184933D01*
X472571Y184222D01*
X476857Y184222D01*
X472571Y186356D02*
X476857Y186356D01*
X475429Y182089D02*
X476857Y180667D01*
X476857Y179244D01*
X475429Y177822D01*
X473286Y182089D01*
X471857Y180667D01*
X471857Y179244D01*
X473286Y177822D01*
X486857Y297289D02*
X482571Y297289D01*
X479714Y295867D01*
X479714Y294444D01*
X482571Y293022D01*
X486857Y293022D01*
X484714Y297289D02*
X484714Y293022D01*
X485429Y286622D02*
X486857Y288044D01*
X486857Y289467D01*
X485429Y290889D01*
X484000Y290889D01*
X482571Y289467D01*
X482571Y288044D01*
X484000Y286622D01*
X479714Y286622D02*
X486857Y286622D01*
X481857Y284489D02*
X486857Y282356D01*
X481857Y280222D01*
X486857Y275956D02*
X482571Y275956D01*
X481143Y275956D02*
X480429Y275956D01*
X485429Y271689D02*
X486857Y270267D01*
X486857Y268844D01*
X485429Y267422D01*
X483286Y271689D01*
X481857Y270267D01*
X481857Y268844D01*
X483286Y267422D01*
X485429Y265289D02*
X486857Y263867D01*
X486857Y262444D01*
X485429Y261022D01*
X483286Y261022D01*
X481857Y262444D01*
X481857Y263867D01*
X483286Y265289D01*
X485429Y265289D01*
X484000Y258889D02*
X481857Y256756D01*
X481857Y256044D01*
X483286Y254622D01*
X486857Y258889D02*
X481857Y258889D01*
X480429Y250356D02*
X481857Y250356D01*
X486143Y250356D02*
X484714Y250356D01*
X486857Y239689D02*
X479714Y239689D01*
X479714Y236844D01*
X481143Y235422D01*
X481857Y235422D01*
X483286Y236844D01*
X483286Y239689D01*
X484000Y233289D02*
X481857Y231156D01*
X481857Y230444D01*
X483286Y229022D01*
X486857Y233289D02*
X481857Y233289D01*
X485429Y226889D02*
X486857Y225467D01*
X486857Y224044D01*
X485429Y222622D01*
X483286Y222622D01*
X481857Y224044D01*
X481857Y225467D01*
X483286Y226889D01*
X485429Y226889D01*
X486857Y219778D02*
X480429Y219778D01*
X479714Y219067D01*
X479714Y217644D01*
X480429Y216933D01*
X482571Y220489D02*
X482571Y219067D01*
X486857Y211956D02*
X486143Y211956D01*
X486857Y201289D02*
X482571Y201289D01*
X479714Y199867D01*
X479714Y198444D01*
X482571Y197022D01*
X486857Y197022D01*
X484714Y201289D02*
X484714Y197022D01*
X486857Y192756D02*
X486143Y192756D01*
X486857Y177822D02*
X486857Y182089D01*
X483286Y182089D01*
X479714Y182089D01*
X479714Y177822D01*
X483286Y182089D02*
X483286Y179244D01*
X486857Y175689D02*
X482571Y175689D01*
X481857Y175689D01*
X482571Y175689D02*
X481857Y174978D01*
X481857Y174267D01*
X482571Y173556D01*
X481857Y172844D01*
X481857Y172133D01*
X482571Y171422D01*
X486857Y171422D01*
X482571Y173556D02*
X486857Y173556D01*
X481857Y168578D02*
X481857Y166444D01*
X482571Y165733D01*
X486143Y165733D01*
X486857Y166444D01*
X486857Y168578D01*
X486143Y169289D01*
X484714Y169289D01*
X484000Y168578D01*
X484000Y165733D01*
X486143Y165733D02*
X486857Y165022D01*
X486857Y162889D02*
X482571Y162889D01*
X481857Y162889D01*
X482571Y162889D02*
X481857Y162178D01*
X481857Y160756D01*
X482571Y160044D01*
X486857Y160044D01*
X481857Y156489D02*
X485429Y156489D01*
X486857Y155067D01*
X486857Y153644D01*
X485429Y152222D01*
X481857Y152222D01*
X485429Y152222D02*
X486857Y152222D01*
X485429Y145822D02*
X486857Y147244D01*
X486857Y148667D01*
X485429Y150089D01*
X483286Y150089D01*
X481857Y148667D01*
X481857Y147244D01*
X483286Y145822D01*
X484000Y146533D01*
X484000Y150089D01*
X479714Y142978D02*
X485429Y142978D01*
X486857Y141556D01*
X489714Y297289D02*
X496857Y296578D01*
X494000Y295156D01*
X496857Y293733D01*
X489714Y293022D01*
X495429Y290889D02*
X496857Y289467D01*
X496857Y288044D01*
X495429Y286622D01*
X493286Y286622D01*
X491857Y288044D01*
X491857Y289467D01*
X493286Y290889D01*
X495429Y290889D01*
X494000Y284489D02*
X491857Y282356D01*
X491857Y281644D01*
X493286Y280222D01*
X496857Y284489D02*
X491857Y284489D01*
X496143Y274533D02*
X496857Y275244D01*
X496857Y276667D01*
X495429Y278089D01*
X493286Y278089D01*
X491857Y276667D01*
X491857Y275244D01*
X492571Y274533D01*
X495429Y267422D02*
X496857Y268844D01*
X496857Y270267D01*
X495429Y271689D01*
X493286Y271689D01*
X491857Y270267D01*
X491857Y268844D01*
X493286Y267422D01*
X494000Y268133D01*
X494000Y271689D01*
X495429Y265289D02*
X496857Y263867D01*
X496857Y262444D01*
X495429Y261022D01*
X493286Y265289D01*
X491857Y263867D01*
X491857Y262444D01*
X493286Y261022D01*
X496143Y255333D02*
X496857Y256044D01*
X496143Y256756D01*
X489714Y256756D01*
X491857Y258178D02*
X491857Y255333D01*
X495429Y248222D02*
X496857Y249644D01*
X496857Y251067D01*
X495429Y252489D01*
X493286Y252489D01*
X491857Y251067D01*
X491857Y249644D01*
X493286Y248222D01*
X494000Y248933D01*
X494000Y252489D01*
X494000Y246089D02*
X491857Y243956D01*
X491857Y243244D01*
X493286Y241822D01*
X496857Y246089D02*
X491857Y246089D01*
X496857Y233289D02*
X489714Y233289D01*
X489714Y230444D01*
X491143Y229022D01*
X491857Y229022D01*
X493286Y230444D01*
X493286Y233289D01*
X495429Y226889D02*
X496857Y225467D01*
X496857Y224044D01*
X495429Y222622D01*
X493286Y222622D01*
X491857Y224044D01*
X491857Y225467D01*
X493286Y226889D01*
X495429Y226889D01*
X489714Y219778D02*
X495429Y219778D01*
X496857Y218356D01*
X499000Y214089D02*
X499000Y213378D01*
X491857Y209822D01*
X491857Y214089D02*
X496143Y211956D01*
X496143Y204133D02*
X496857Y204844D01*
X496143Y205556D01*
X489714Y205556D01*
X491857Y206978D02*
X491857Y204133D01*
X495429Y197022D02*
X496857Y198444D01*
X496857Y199867D01*
X495429Y201289D01*
X493286Y201289D01*
X491857Y199867D01*
X491857Y198444D01*
X493286Y197022D01*
X494000Y197733D01*
X494000Y201289D01*
X496143Y191333D02*
X496857Y192044D01*
X496857Y193467D01*
X495429Y194889D01*
X493286Y194889D01*
X491857Y193467D01*
X491857Y192044D01*
X492571Y191333D01*
X493286Y188489D02*
X491857Y187067D01*
X491857Y185644D01*
X493286Y184222D01*
X496857Y184222D01*
X489714Y188489D02*
X496857Y188489D01*
X496857Y182089D02*
X492571Y182089D01*
X491857Y182089D01*
X492571Y182089D02*
X491857Y181378D01*
X491857Y179956D01*
X492571Y179244D01*
X496857Y179244D01*
X496857Y173556D02*
X492571Y173556D01*
X491143Y173556D02*
X490429Y173556D01*
X496143Y165733D02*
X496857Y166444D01*
X496857Y167867D01*
X495429Y169289D01*
X493286Y169289D01*
X491857Y167867D01*
X491857Y166444D01*
X492571Y165733D01*
X496857Y155067D02*
X496857Y153644D01*
X489714Y155067D02*
X489714Y153644D01*
X496857Y154356D02*
X489714Y154356D01*
X496857Y150089D02*
X492571Y150089D01*
X491857Y150089D01*
X492571Y150089D02*
X491857Y149378D01*
X491857Y147956D01*
X492571Y147244D01*
X496857Y147244D01*
X495429Y143689D02*
X496857Y142267D01*
X496857Y140844D01*
X495429Y139422D01*
X493286Y143689D01*
X491857Y142267D01*
X491857Y140844D01*
X493286Y139422D01*
X496143Y133733D02*
X496857Y134444D01*
X496143Y135156D01*
X489714Y135156D01*
X491857Y136578D02*
X491857Y133733D01*
X496857Y128756D02*
X496143Y128756D01*
X501143Y297289D02*
X499714Y295867D01*
X499714Y294444D01*
X501143Y293022D01*
X501857Y293022D01*
X506857Y297289D01*
X506857Y293022D01*
X506143Y293022D01*
X501143Y290889D02*
X499714Y289467D01*
X499714Y288044D01*
X501143Y286622D01*
X505429Y286622D01*
X506857Y288044D01*
X506857Y289467D01*
X505429Y290889D01*
X501143Y290889D01*
X501143Y286622D02*
X505429Y290889D01*
X501143Y283778D02*
X499714Y282356D01*
X506857Y282356D01*
X506857Y284489D02*
X506857Y280222D01*
X499714Y274533D02*
X499714Y276667D01*
X501143Y278089D01*
X504000Y278089D01*
X505429Y278089D01*
X506857Y276667D01*
X506857Y275244D01*
X505429Y273822D01*
X504000Y273822D01*
X502571Y275244D01*
X502571Y276667D01*
X504000Y278089D01*
G54D12*
X-1500Y-1500D02*
X-1500Y39800D01*
X-1500Y-1500D02*
X63800Y-1500D01*
X651500Y-1500D02*
X586200Y-1500D01*
X651500Y-1500D02*
X651500Y39800D01*
X651500Y411500D02*
X651500Y370200D01*
X651500Y411500D02*
X586200Y411500D01*
X-1500Y411500D02*
X63800Y411500D01*
X-1500Y411500D02*
X-1500Y370200D01*
X-21185Y-1500D02*
X-60555Y-1500D01*
X-40870Y-21185D02*
X-40870Y18185D01*
X-55634Y-1500D02*
G75*
D01*
G02X-55634Y-1500I14764J0*
G01*
X671185Y-1500D02*
X710555Y-1500D01*
X690870Y-21185D02*
X690870Y18185D01*
X676106Y-1500D02*
G75*
D01*
G02X676106Y-1500I14764J0*
G01*
X685949Y-1500D02*
G75*
D01*
G02X685949Y-1500I4921J0*
G01*
X-21185Y411500D02*
X-60555Y411500D01*
X-40870Y391815D02*
X-40870Y431185D01*
X-55634Y411500D02*
G75*
D01*
G02X-55634Y411500I14764J0*
G01*
X-50713Y411500D02*
G75*
D01*
G02X-50713Y411500I9843J0*
G01*
X-45791Y411500D02*
G75*
D01*
G02X-45791Y411500I4921J0*
G01*

M02*
